<?xml version="1.0" encoding="utf-8" standalone="no"?>
<!DOCTYPE svg PUBLIC "-//W3C//DTD SVG 1.1//EN"
  "http://www.w3.org/Graphics/SVG/1.1/DTD/svg11.dtd">
<!-- Created with matplotlib (https://matplotlib.org/) -->
<svg height="740.406582pt" version="1.1" viewBox="0 0 2152.879688 740.406582" width="2152.879688pt" xmlns="http://www.w3.org/2000/svg" xmlns:xlink="http://www.w3.org/1999/xlink">
 <metadata>
  <rdf:RDF xmlns:cc="http://creativecommons.org/ns#" xmlns:dc="http://purl.org/dc/elements/1.1/" xmlns:rdf="http://www.w3.org/1999/02/22-rdf-syntax-ns#">
   <cc:Work>
    <dc:type rdf:resource="http://purl.org/dc/dcmitype/StillImage"/>
    <dc:date>2020-10-23T15:40:28.681873</dc:date>
    <dc:format>image/svg+xml</dc:format>
    <dc:creator>
     <cc:Agent>
      <dc:title>Matplotlib v3.3.2, https://matplotlib.org/</dc:title>
     </cc:Agent>
    </dc:creator>
   </cc:Work>
  </rdf:RDF>
 </metadata>
 <defs>
  <style type="text/css">*{stroke-linecap:butt;stroke-linejoin:round;}</style>
 </defs>
 <g id="figure_1">
  <g id="patch_1">
   <path d="M 0 740.406582 
L 2152.879688 740.406582 
L 2152.879688 0 
L 0 0 
z
" style="fill:#ffffff;"/>
  </g>
  <g id="axes_1">
   <g id="LineCollection_1">
    <path clip-path="url(#p31a6f07b2e)" d="M 112.365 477.348226 
L 27.787714 477.348226 
L 27.787714 618.129409 
L 112.365 618.129409 
" style="fill:none;stroke:#333333;stroke-width:0.5;"/>
    <path clip-path="url(#p31a6f07b2e)" d="M 112.365 336.567044 
L 21.401736 336.567044 
L 21.401736 547.738818 
L 27.787714 547.738818 
" style="fill:none;stroke:#333333;stroke-width:0.5;"/>
    <path clip-path="url(#p31a6f07b2e)" d="M 112.365 195.785862 
L 12.207857 195.785862 
L 12.207857 442.152931 
L 21.401736 442.152931 
" style="fill:none;stroke:#333333;stroke-width:0.5;"/>
   </g>
  </g>
  <g id="axes_2">
   <g id="LineCollection_2">
    <path clip-path="url(#p51c1a1cfe5)" d="M 148.245982 108.969529 
L 148.245982 79.130203 
L 219.607946 79.130203 
L 219.607946 108.969529 
" style="fill:none;stroke:#333333;stroke-width:0.5;"/>
    <path clip-path="url(#p51c1a1cfe5)" d="M 290.969911 108.969529 
L 290.969911 92.36183 
L 362.331875 92.36183 
L 362.331875 108.969529 
" style="fill:none;stroke:#333333;stroke-width:0.5;"/>
    <path clip-path="url(#p51c1a1cfe5)" d="M 433.693839 108.969529 
L 433.693839 96.459344 
L 505.055804 96.459344 
L 505.055804 108.969529 
" style="fill:none;stroke:#333333;stroke-width:0.5;"/>
    <path clip-path="url(#p51c1a1cfe5)" d="M 576.417768 108.969529 
L 576.417768 93.582034 
L 647.779732 93.582034 
L 647.779732 108.969529 
" style="fill:none;stroke:#333333;stroke-width:0.5;"/>
    <path clip-path="url(#p51c1a1cfe5)" d="M 469.374821 96.459344 
L 469.374821 85.449036 
L 612.09875 85.449036 
L 612.09875 93.582034 
" style="fill:none;stroke:#333333;stroke-width:0.5;"/>
    <path clip-path="url(#p51c1a1cfe5)" d="M 326.650893 92.36183 
L 326.650893 71.509646 
L 540.736786 71.509646 
L 540.736786 85.449036 
" style="fill:none;stroke:#333333;stroke-width:0.5;"/>
    <path clip-path="url(#p51c1a1cfe5)" d="M 790.503661 108.969529 
L 790.503661 92.581188 
L 861.865625 92.581188 
L 861.865625 108.969529 
" style="fill:none;stroke:#333333;stroke-width:0.5;"/>
    <path clip-path="url(#p51c1a1cfe5)" d="M 719.141696 108.969529 
L 719.141696 71.878552 
L 826.184643 71.878552 
L 826.184643 92.581188 
" style="fill:none;stroke:#333333;stroke-width:0.5;"/>
    <path clip-path="url(#p51c1a1cfe5)" d="M 1075.951518 108.969529 
L 1075.951518 93.723041 
L 1147.313482 93.723041 
L 1147.313482 108.969529 
" style="fill:none;stroke:#333333;stroke-width:0.5;"/>
    <path clip-path="url(#p51c1a1cfe5)" d="M 1004.589554 108.969529 
L 1004.589554 88.267461 
L 1111.6325 88.267461 
L 1111.6325 93.723041 
" style="fill:none;stroke:#333333;stroke-width:0.5;"/>
    <path clip-path="url(#p51c1a1cfe5)" d="M 933.227589 108.969529 
L 933.227589 69.298142 
L 1058.111027 69.298142 
L 1058.111027 88.267461 
" style="fill:none;stroke:#333333;stroke-width:0.5;"/>
    <path clip-path="url(#p51c1a1cfe5)" d="M 772.66317 71.878552 
L 772.66317 59.104072 
L 995.669308 59.104072 
L 995.669308 69.298142 
" style="fill:none;stroke:#333333;stroke-width:0.5;"/>
    <path clip-path="url(#p51c1a1cfe5)" d="M 433.693839 71.509646 
L 433.693839 50.407787 
L 884.166239 50.407787 
L 884.166239 59.104072 
" style="fill:none;stroke:#333333;stroke-width:0.5;"/>
    <path clip-path="url(#p51c1a1cfe5)" d="M 183.926964 79.130203 
L 183.926964 38.873285 
L 658.930039 38.873285 
L 658.930039 50.407787 
" style="fill:none;stroke:#333333;stroke-width:0.5;"/>
    <path clip-path="url(#p51c1a1cfe5)" d="M 1290.037411 108.969529 
L 1290.037411 88.549308 
L 1361.399375 88.549308 
L 1361.399375 108.969529 
" style="fill:none;stroke:#333333;stroke-width:0.5;"/>
    <path clip-path="url(#p51c1a1cfe5)" d="M 1218.675446 108.969529 
L 1218.675446 78.802233 
L 1325.718393 78.802233 
L 1325.718393 88.549308 
" style="fill:none;stroke:#333333;stroke-width:0.5;"/>
    <path clip-path="url(#p51c1a1cfe5)" d="M 1432.761339 108.969529 
L 1432.761339 93.61329 
L 1504.123304 93.61329 
L 1504.123304 108.969529 
" style="fill:none;stroke:#333333;stroke-width:0.5;"/>
    <path clip-path="url(#p51c1a1cfe5)" d="M 1575.485268 108.969529 
L 1575.485268 89.636231 
L 1646.847232 89.636231 
L 1646.847232 108.969529 
" style="fill:none;stroke:#333333;stroke-width:0.5;"/>
    <path clip-path="url(#p51c1a1cfe5)" d="M 1468.442321 93.61329 
L 1468.442321 74.355507 
L 1611.16625 74.355507 
L 1611.16625 89.636231 
" style="fill:none;stroke:#333333;stroke-width:0.5;"/>
    <path clip-path="url(#p51c1a1cfe5)" d="M 1272.19692 78.802233 
L 1272.19692 63.661729 
L 1539.804286 63.661729 
L 1539.804286 74.355507 
" style="fill:none;stroke:#333333;stroke-width:0.5;"/>
    <path clip-path="url(#p51c1a1cfe5)" d="M 2003.657054 108.969529 
L 2003.657054 93.531521 
L 2075.019018 93.531521 
L 2075.019018 108.969529 
" style="fill:none;stroke:#333333;stroke-width:0.5;"/>
    <path clip-path="url(#p51c1a1cfe5)" d="M 1932.295089 108.969529 
L 1932.295089 86.206869 
L 2039.338036 86.206869 
L 2039.338036 93.531521 
" style="fill:none;stroke:#333333;stroke-width:0.5;"/>
    <path clip-path="url(#p51c1a1cfe5)" d="M 1860.933125 108.969529 
L 1860.933125 78.869517 
L 1985.816563 78.869517 
L 1985.816563 86.206869 
" style="fill:none;stroke:#333333;stroke-width:0.5;"/>
    <path clip-path="url(#p51c1a1cfe5)" d="M 1789.571161 108.969529 
L 1789.571161 68.170808 
L 1923.374844 68.170808 
L 1923.374844 78.869517 
" style="fill:none;stroke:#333333;stroke-width:0.5;"/>
    <path clip-path="url(#p51c1a1cfe5)" d="M 1718.209196 108.969529 
L 1718.209196 55.399237 
L 1856.473002 55.399237 
L 1856.473002 68.170808 
" style="fill:none;stroke:#333333;stroke-width:0.5;"/>
    <path clip-path="url(#p51c1a1cfe5)" d="M 1406.000603 63.661729 
L 1406.000603 32.003084 
L 1787.341099 32.003084 
L 1787.341099 55.399237 
" style="fill:none;stroke:#333333;stroke-width:0.5;"/>
    <path clip-path="url(#p51c1a1cfe5)" d="M 421.428502 38.873285 
L 421.428502 12.046168 
L 1596.670851 12.046168 
L 1596.670851 32.003084 
" style="fill:none;stroke:#333333;stroke-width:0.5;"/>
   </g>
  </g>
  <g id="axes_3">
   <g id="patch_2">
    <path d="M 112.565 123.967035 
L 2110.7 123.967035 
L 2110.7 110.397765 
L 112.565 110.397765 
z
" style="fill:#ffffff;"/>
   </g>
   <g id="QuadMesh_1">
    <path clip-path="url(#p2b12f7c547)" d="M 112.565 110.397765 
L 183.926964 110.397765 
L 183.926964 123.967035 
L 112.565 123.967035 
L 112.565 110.397765 
" style="fill:#3e4989;stroke:#ffffff;stroke-width:0.75;"/>
    <path clip-path="url(#p2b12f7c547)" d="M 183.926964 110.397765 
L 255.288929 110.397765 
L 255.288929 123.967035 
L 183.926964 123.967035 
L 183.926964 110.397765 
" style="fill:#31688e;stroke:#ffffff;stroke-width:0.75;"/>
    <path clip-path="url(#p2b12f7c547)" d="M 255.288929 110.397765 
L 326.650893 110.397765 
L 326.650893 123.967035 
L 255.288929 123.967035 
L 255.288929 110.397765 
" style="fill:#482878;stroke:#ffffff;stroke-width:0.75;"/>
    <path clip-path="url(#p2b12f7c547)" d="M 326.650893 110.397765 
L 398.012857 110.397765 
L 398.012857 123.967035 
L 326.650893 123.967035 
L 326.650893 110.397765 
" style="fill:#b5de2b;stroke:#ffffff;stroke-width:0.75;"/>
    <path clip-path="url(#p2b12f7c547)" d="M 398.012857 110.397765 
L 469.374821 110.397765 
L 469.374821 123.967035 
L 398.012857 123.967035 
L 398.012857 110.397765 
" style="fill:#26828e;stroke:#ffffff;stroke-width:0.75;"/>
    <path clip-path="url(#p2b12f7c547)" d="M 469.374821 110.397765 
L 540.736786 110.397765 
L 540.736786 123.967035 
L 469.374821 123.967035 
L 469.374821 110.397765 
" style="fill:#31688e;stroke:#ffffff;stroke-width:0.75;"/>
    <path clip-path="url(#p2b12f7c547)" d="M 540.736786 110.397765 
L 612.09875 110.397765 
L 612.09875 123.967035 
L 540.736786 123.967035 
L 540.736786 110.397765 
" style="fill:#26828e;stroke:#ffffff;stroke-width:0.75;"/>
    <path clip-path="url(#p2b12f7c547)" d="M 612.09875 110.397765 
L 683.460714 110.397765 
L 683.460714 123.967035 
L 612.09875 123.967035 
L 612.09875 110.397765 
" style="fill:#6ece58;stroke:#ffffff;stroke-width:0.75;"/>
    <path clip-path="url(#p2b12f7c547)" d="M 683.460714 110.397765 
L 754.822679 110.397765 
L 754.822679 123.967035 
L 683.460714 123.967035 
L 683.460714 110.397765 
" style="fill:#482878;stroke:#ffffff;stroke-width:0.75;"/>
    <path clip-path="url(#p2b12f7c547)" d="M 754.822679 110.397765 
L 826.184643 110.397765 
L 826.184643 123.967035 
L 754.822679 123.967035 
L 754.822679 110.397765 
" style="fill:#3e4989;stroke:#ffffff;stroke-width:0.75;"/>
    <path clip-path="url(#p2b12f7c547)" d="M 826.184643 110.397765 
L 897.546607 110.397765 
L 897.546607 123.967035 
L 826.184643 123.967035 
L 826.184643 110.397765 
" style="fill:#31688e;stroke:#ffffff;stroke-width:0.75;"/>
    <path clip-path="url(#p2b12f7c547)" d="M 897.546607 110.397765 
L 968.908571 110.397765 
L 968.908571 123.967035 
L 897.546607 123.967035 
L 897.546607 110.397765 
" style="fill:#482878;stroke:#ffffff;stroke-width:0.75;"/>
    <path clip-path="url(#p2b12f7c547)" d="M 968.908571 110.397765 
L 1040.270536 110.397765 
L 1040.270536 123.967035 
L 968.908571 123.967035 
L 968.908571 110.397765 
" style="fill:#31688e;stroke:#ffffff;stroke-width:0.75;"/>
    <path clip-path="url(#p2b12f7c547)" d="M 1040.270536 110.397765 
L 1111.6325 110.397765 
L 1111.6325 123.967035 
L 1040.270536 123.967035 
L 1040.270536 110.397765 
" style="fill:#3e4989;stroke:#ffffff;stroke-width:0.75;"/>
    <path clip-path="url(#p2b12f7c547)" d="M 1111.6325 110.397765 
L 1182.994464 110.397765 
L 1182.994464 123.967035 
L 1111.6325 123.967035 
L 1111.6325 110.397765 
" style="fill:#3e4989;stroke:#ffffff;stroke-width:0.75;"/>
    <path clip-path="url(#p2b12f7c547)" d="M 1182.994464 110.397765 
L 1254.356429 110.397765 
L 1254.356429 123.967035 
L 1182.994464 123.967035 
L 1182.994464 110.397765 
" style="fill:#35b779;stroke:#ffffff;stroke-width:0.75;"/>
    <path clip-path="url(#p2b12f7c547)" d="M 1254.356429 110.397765 
L 1325.718393 110.397765 
L 1325.718393 123.967035 
L 1254.356429 123.967035 
L 1254.356429 110.397765 
" style="fill:#482878;stroke:#ffffff;stroke-width:0.75;"/>
    <path clip-path="url(#p2b12f7c547)" d="M 1325.718393 110.397765 
L 1397.080357 110.397765 
L 1397.080357 123.967035 
L 1325.718393 123.967035 
L 1325.718393 110.397765 
" style="fill:#6ece58;stroke:#ffffff;stroke-width:0.75;"/>
    <path clip-path="url(#p2b12f7c547)" d="M 1397.080357 110.397765 
L 1468.442321 110.397765 
L 1468.442321 123.967035 
L 1397.080357 123.967035 
L 1397.080357 110.397765 
" style="fill:#26828e;stroke:#ffffff;stroke-width:0.75;"/>
    <path clip-path="url(#p2b12f7c547)" d="M 1468.442321 110.397765 
L 1539.804286 110.397765 
L 1539.804286 123.967035 
L 1468.442321 123.967035 
L 1468.442321 110.397765 
" style="fill:#35b779;stroke:#ffffff;stroke-width:0.75;"/>
    <path clip-path="url(#p2b12f7c547)" d="M 1539.804286 110.397765 
L 1611.16625 110.397765 
L 1611.16625 123.967035 
L 1539.804286 123.967035 
L 1539.804286 110.397765 
" style="fill:#35b779;stroke:#ffffff;stroke-width:0.75;"/>
    <path clip-path="url(#p2b12f7c547)" d="M 1611.16625 110.397765 
L 1682.528214 110.397765 
L 1682.528214 123.967035 
L 1611.16625 123.967035 
L 1611.16625 110.397765 
" style="fill:#b5de2b;stroke:#ffffff;stroke-width:0.75;"/>
    <path clip-path="url(#p2b12f7c547)" d="M 1682.528214 110.397765 
L 1753.890179 110.397765 
L 1753.890179 123.967035 
L 1682.528214 123.967035 
L 1682.528214 110.397765 
" style="fill:#6ece58;stroke:#ffffff;stroke-width:0.75;"/>
    <path clip-path="url(#p2b12f7c547)" d="M 1753.890179 110.397765 
L 1825.252143 110.397765 
L 1825.252143 123.967035 
L 1753.890179 123.967035 
L 1753.890179 110.397765 
" style="fill:#b5de2b;stroke:#ffffff;stroke-width:0.75;"/>
    <path clip-path="url(#p2b12f7c547)" d="M 1825.252143 110.397765 
L 1896.614107 110.397765 
L 1896.614107 123.967035 
L 1825.252143 123.967035 
L 1825.252143 110.397765 
" style="fill:#35b779;stroke:#ffffff;stroke-width:0.75;"/>
    <path clip-path="url(#p2b12f7c547)" d="M 1896.614107 110.397765 
L 1967.976071 110.397765 
L 1967.976071 123.967035 
L 1896.614107 123.967035 
L 1896.614107 110.397765 
" style="fill:#26828e;stroke:#ffffff;stroke-width:0.75;"/>
    <path clip-path="url(#p2b12f7c547)" d="M 1967.976071 110.397765 
L 2039.338036 110.397765 
L 2039.338036 123.967035 
L 1967.976071 123.967035 
L 1967.976071 110.397765 
" style="fill:#6ece58;stroke:#ffffff;stroke-width:0.75;"/>
    <path clip-path="url(#p2b12f7c547)" d="M 2039.338036 110.397765 
L 2110.7 110.397765 
L 2110.7 123.967035 
L 2039.338036 123.967035 
L 2039.338036 110.397765 
" style="fill:#b5de2b;stroke:#ffffff;stroke-width:0.75;"/>
   </g>
   <g id="matplotlib.axis_1"/>
   <g id="matplotlib.axis_2">
    <g id="ytick_1">
     <g id="line2d_1">
      <defs>
       <path d="M 0 0 
L 3.5 0 
" id="m6aca61c7ab" style="stroke:#000000;stroke-width:0.8;"/>
      </defs>
      <g>
       <use style="stroke:#000000;stroke-width:0.8;" x="2110.7" xlink:href="#m6aca61c7ab" y="117.1824"/>
      </g>
     </g>
     <g id="text_1">
      <!-- Steps -->
      <g transform="translate(2117.7 120.981619)scale(0.1 -0.1)">
       <defs>
        <path d="M 53.515625 70.515625 
L 53.515625 60.890625 
Q 47.90625 63.578125 42.921875 64.890625 
Q 37.9375 66.21875 33.296875 66.21875 
Q 25.25 66.21875 20.875 63.09375 
Q 16.5 59.96875 16.5 54.203125 
Q 16.5 49.359375 19.40625 46.890625 
Q 22.3125 44.4375 30.421875 42.921875 
L 36.375 41.703125 
Q 47.40625 39.59375 52.65625 34.296875 
Q 57.90625 29 57.90625 20.125 
Q 57.90625 9.515625 50.796875 4.046875 
Q 43.703125 -1.421875 29.984375 -1.421875 
Q 24.8125 -1.421875 18.96875 -0.25 
Q 13.140625 0.921875 6.890625 3.21875 
L 6.890625 13.375 
Q 12.890625 10.015625 18.65625 8.296875 
Q 24.421875 6.59375 29.984375 6.59375 
Q 38.421875 6.59375 43.015625 9.90625 
Q 47.609375 13.234375 47.609375 19.390625 
Q 47.609375 24.75 44.3125 27.78125 
Q 41.015625 30.8125 33.5 32.328125 
L 27.484375 33.5 
Q 16.453125 35.6875 11.515625 40.375 
Q 6.59375 45.0625 6.59375 53.421875 
Q 6.59375 63.09375 13.40625 68.65625 
Q 20.21875 74.21875 32.171875 74.21875 
Q 37.3125 74.21875 42.625 73.28125 
Q 47.953125 72.359375 53.515625 70.515625 
z
" id="DejaVuSans-83"/>
        <path d="M 18.3125 70.21875 
L 18.3125 54.6875 
L 36.8125 54.6875 
L 36.8125 47.703125 
L 18.3125 47.703125 
L 18.3125 18.015625 
Q 18.3125 11.328125 20.140625 9.421875 
Q 21.96875 7.515625 27.59375 7.515625 
L 36.8125 7.515625 
L 36.8125 0 
L 27.59375 0 
Q 17.1875 0 13.234375 3.875 
Q 9.28125 7.765625 9.28125 18.015625 
L 9.28125 47.703125 
L 2.6875 47.703125 
L 2.6875 54.6875 
L 9.28125 54.6875 
L 9.28125 70.21875 
z
" id="DejaVuSans-116"/>
        <path d="M 56.203125 29.59375 
L 56.203125 25.203125 
L 14.890625 25.203125 
Q 15.484375 15.921875 20.484375 11.0625 
Q 25.484375 6.203125 34.421875 6.203125 
Q 39.59375 6.203125 44.453125 7.46875 
Q 49.3125 8.734375 54.109375 11.28125 
L 54.109375 2.78125 
Q 49.265625 0.734375 44.1875 -0.34375 
Q 39.109375 -1.421875 33.890625 -1.421875 
Q 20.796875 -1.421875 13.15625 6.1875 
Q 5.515625 13.8125 5.515625 26.8125 
Q 5.515625 40.234375 12.765625 48.109375 
Q 20.015625 56 32.328125 56 
Q 43.359375 56 49.78125 48.890625 
Q 56.203125 41.796875 56.203125 29.59375 
z
M 47.21875 32.234375 
Q 47.125 39.59375 43.09375 43.984375 
Q 39.0625 48.390625 32.421875 48.390625 
Q 24.90625 48.390625 20.390625 44.140625 
Q 15.875 39.890625 15.1875 32.171875 
z
" id="DejaVuSans-101"/>
        <path d="M 18.109375 8.203125 
L 18.109375 -20.796875 
L 9.078125 -20.796875 
L 9.078125 54.6875 
L 18.109375 54.6875 
L 18.109375 46.390625 
Q 20.953125 51.265625 25.265625 53.625 
Q 29.59375 56 35.59375 56 
Q 45.5625 56 51.78125 48.09375 
Q 58.015625 40.1875 58.015625 27.296875 
Q 58.015625 14.40625 51.78125 6.484375 
Q 45.5625 -1.421875 35.59375 -1.421875 
Q 29.59375 -1.421875 25.265625 0.953125 
Q 20.953125 3.328125 18.109375 8.203125 
z
M 48.6875 27.296875 
Q 48.6875 37.203125 44.609375 42.84375 
Q 40.53125 48.484375 33.40625 48.484375 
Q 26.265625 48.484375 22.1875 42.84375 
Q 18.109375 37.203125 18.109375 27.296875 
Q 18.109375 17.390625 22.1875 11.75 
Q 26.265625 6.109375 33.40625 6.109375 
Q 40.53125 6.109375 44.609375 11.75 
Q 48.6875 17.390625 48.6875 27.296875 
z
" id="DejaVuSans-112"/>
        <path d="M 44.28125 53.078125 
L 44.28125 44.578125 
Q 40.484375 46.53125 36.375 47.5 
Q 32.28125 48.484375 27.875 48.484375 
Q 21.1875 48.484375 17.84375 46.4375 
Q 14.5 44.390625 14.5 40.28125 
Q 14.5 37.15625 16.890625 35.375 
Q 19.28125 33.59375 26.515625 31.984375 
L 29.59375 31.296875 
Q 39.15625 29.25 43.1875 25.515625 
Q 47.21875 21.78125 47.21875 15.09375 
Q 47.21875 7.46875 41.1875 3.015625 
Q 35.15625 -1.421875 24.609375 -1.421875 
Q 20.21875 -1.421875 15.453125 -0.5625 
Q 10.6875 0.296875 5.421875 2 
L 5.421875 11.28125 
Q 10.40625 8.6875 15.234375 7.390625 
Q 20.0625 6.109375 24.8125 6.109375 
Q 31.15625 6.109375 34.5625 8.28125 
Q 37.984375 10.453125 37.984375 14.40625 
Q 37.984375 18.0625 35.515625 20.015625 
Q 33.0625 21.96875 24.703125 23.78125 
L 21.578125 24.515625 
Q 13.234375 26.265625 9.515625 29.90625 
Q 5.8125 33.546875 5.8125 39.890625 
Q 5.8125 47.609375 11.28125 51.796875 
Q 16.75 56 26.8125 56 
Q 31.78125 56 36.171875 55.265625 
Q 40.578125 54.546875 44.28125 53.078125 
z
" id="DejaVuSans-115"/>
       </defs>
       <use xlink:href="#DejaVuSans-83"/>
       <use x="63.476562" xlink:href="#DejaVuSans-116"/>
       <use x="102.685547" xlink:href="#DejaVuSans-101"/>
       <use x="164.208984" xlink:href="#DejaVuSans-112"/>
       <use x="227.685547" xlink:href="#DejaVuSans-115"/>
      </g>
     </g>
    </g>
   </g>
  </g>
  <g id="axes_4">
   <g id="patch_3">
    <path d="M 112.565 688.52 
L 2110.7 688.52 
L 2110.7 125.395271 
L 112.565 125.395271 
z
" style="fill:#ffffff;"/>
   </g>
   <g id="QuadMesh_2">
    <path clip-path="url(#pcdd5391032)" d="M 112.565 125.395271 
L 183.926964 125.395271 
L 183.926964 266.176453 
L 112.565 266.176453 
L 112.565 125.395271 
" style="fill:#d4dbe6;stroke:#ffffff;stroke-width:0.75;"/>
    <path clip-path="url(#pcdd5391032)" d="M 183.926964 125.395271 
L 255.288929 125.395271 
L 255.288929 266.176453 
L 183.926964 266.176453 
L 183.926964 125.395271 
" style="fill:#f5a081;stroke:#ffffff;stroke-width:0.75;"/>
    <path clip-path="url(#pcdd5391032)" d="M 255.288929 125.395271 
L 326.650893 125.395271 
L 326.650893 266.176453 
L 255.288929 266.176453 
L 255.288929 125.395271 
" style="fill:#f7ba9f;stroke:#ffffff;stroke-width:0.75;"/>
    <path clip-path="url(#pcdd5391032)" d="M 326.650893 125.395271 
L 398.012857 125.395271 
L 398.012857 266.176453 
L 326.650893 266.176453 
L 326.650893 125.395271 
" style="fill:#ecd3c5;stroke:#ffffff;stroke-width:0.75;"/>
    <path clip-path="url(#pcdd5391032)" d="M 398.012857 125.395271 
L 469.374821 125.395271 
L 469.374821 266.176453 
L 398.012857 266.176453 
L 398.012857 125.395271 
" style="fill:#f0cdbb;stroke:#ffffff;stroke-width:0.75;"/>
    <path clip-path="url(#pcdd5391032)" d="M 469.374821 125.395271 
L 540.736786 125.395271 
L 540.736786 266.176453 
L 469.374821 266.176453 
L 469.374821 125.395271 
" style="fill:#ead4c8;stroke:#ffffff;stroke-width:0.75;"/>
    <path clip-path="url(#pcdd5391032)" d="M 540.736786 125.395271 
L 612.09875 125.395271 
L 612.09875 266.176453 
L 540.736786 266.176453 
L 540.736786 125.395271 
" style="fill:#f7a98b;stroke:#ffffff;stroke-width:0.75;"/>
    <path clip-path="url(#pcdd5391032)" d="M 612.09875 125.395271 
L 683.460714 125.395271 
L 683.460714 266.176453 
L 612.09875 266.176453 
L 612.09875 125.395271 
" style="fill:#f4c5ad;stroke:#ffffff;stroke-width:0.75;"/>
    <path clip-path="url(#pcdd5391032)" d="M 683.460714 125.395271 
L 754.822679 125.395271 
L 754.822679 266.176453 
L 683.460714 266.176453 
L 683.460714 125.395271 
" style="fill:#d3dbe7;stroke:#ffffff;stroke-width:0.75;"/>
    <path clip-path="url(#pcdd5391032)" d="M 754.822679 125.395271 
L 826.184643 125.395271 
L 826.184643 266.176453 
L 754.822679 266.176453 
L 754.822679 125.395271 
" style="fill:#d7dce3;stroke:#ffffff;stroke-width:0.75;"/>
    <path clip-path="url(#pcdd5391032)" d="M 826.184643 125.395271 
L 897.546607 125.395271 
L 897.546607 266.176453 
L 826.184643 266.176453 
L 826.184643 125.395271 
" style="fill:#e1dad6;stroke:#ffffff;stroke-width:0.75;"/>
    <path clip-path="url(#pcdd5391032)" d="M 897.546607 125.395271 
L 968.908571 125.395271 
L 968.908571 266.176453 
L 897.546607 266.176453 
L 897.546607 125.395271 
" style="fill:#d8dce2;stroke:#ffffff;stroke-width:0.75;"/>
    <path clip-path="url(#pcdd5391032)" d="M 968.908571 125.395271 
L 1040.270536 125.395271 
L 1040.270536 266.176453 
L 968.908571 266.176453 
L 968.908571 125.395271 
" style="fill:#b6cefa;stroke:#ffffff;stroke-width:0.75;"/>
    <path clip-path="url(#pcdd5391032)" d="M 1040.270536 125.395271 
L 1111.6325 125.395271 
L 1111.6325 266.176453 
L 1040.270536 266.176453 
L 1040.270536 125.395271 
" style="fill:#b1cbfc;stroke:#ffffff;stroke-width:0.75;"/>
    <path clip-path="url(#pcdd5391032)" d="M 1111.6325 125.395271 
L 1182.994464 125.395271 
L 1182.994464 266.176453 
L 1111.6325 266.176453 
L 1111.6325 125.395271 
" style="fill:#b5cdfa;stroke:#ffffff;stroke-width:0.75;"/>
    <path clip-path="url(#pcdd5391032)" d="M 1182.994464 125.395271 
L 1254.356429 125.395271 
L 1254.356429 266.176453 
L 1182.994464 266.176453 
L 1182.994464 125.395271 
" style="fill:#e57058;stroke:#ffffff;stroke-width:0.75;"/>
    <path clip-path="url(#pcdd5391032)" d="M 1254.356429 125.395271 
L 1325.718393 125.395271 
L 1325.718393 266.176453 
L 1254.356429 266.176453 
L 1254.356429 125.395271 
" style="fill:#f18f71;stroke:#ffffff;stroke-width:0.75;"/>
    <path clip-path="url(#pcdd5391032)" d="M 1325.718393 125.395271 
L 1397.080357 125.395271 
L 1397.080357 266.176453 
L 1325.718393 266.176453 
L 1325.718393 125.395271 
" style="fill:#f49a7b;stroke:#ffffff;stroke-width:0.75;"/>
    <path clip-path="url(#pcdd5391032)" d="M 1397.080357 125.395271 
L 1468.442321 125.395271 
L 1468.442321 266.176453 
L 1397.080357 266.176453 
L 1397.080357 125.395271 
" style="fill:#f0cdbb;stroke:#ffffff;stroke-width:0.75;"/>
    <path clip-path="url(#pcdd5391032)" d="M 1468.442321 125.395271 
L 1539.804286 125.395271 
L 1539.804286 266.176453 
L 1468.442321 266.176453 
L 1468.442321 125.395271 
" style="fill:#f6a385;stroke:#ffffff;stroke-width:0.75;"/>
    <path clip-path="url(#pcdd5391032)" d="M 1539.804286 125.395271 
L 1611.16625 125.395271 
L 1611.16625 266.176453 
L 1539.804286 266.176453 
L 1539.804286 125.395271 
" style="fill:#e5d8d1;stroke:#ffffff;stroke-width:0.75;"/>
    <path clip-path="url(#pcdd5391032)" d="M 1611.16625 125.395271 
L 1682.528214 125.395271 
L 1682.528214 266.176453 
L 1611.16625 266.176453 
L 1611.16625 125.395271 
" style="fill:#d3dbe7;stroke:#ffffff;stroke-width:0.75;"/>
    <path clip-path="url(#pcdd5391032)" d="M 1682.528214 125.395271 
L 1753.890179 125.395271 
L 1753.890179 266.176453 
L 1682.528214 266.176453 
L 1682.528214 125.395271 
" style="fill:#d9dce1;stroke:#ffffff;stroke-width:0.75;"/>
    <path clip-path="url(#pcdd5391032)" d="M 1753.890179 125.395271 
L 1825.252143 125.395271 
L 1825.252143 266.176453 
L 1753.890179 266.176453 
L 1753.890179 125.395271 
" style="fill:#a9c6fd;stroke:#ffffff;stroke-width:0.75;"/>
    <path clip-path="url(#pcdd5391032)" d="M 1825.252143 125.395271 
L 1896.614107 125.395271 
L 1896.614107 266.176453 
L 1825.252143 266.176453 
L 1825.252143 125.395271 
" style="fill:#ecd3c5;stroke:#ffffff;stroke-width:0.75;"/>
    <path clip-path="url(#pcdd5391032)" d="M 1896.614107 125.395271 
L 1967.976071 125.395271 
L 1967.976071 266.176453 
L 1896.614107 266.176453 
L 1896.614107 125.395271 
" style="fill:#ead5c9;stroke:#ffffff;stroke-width:0.75;"/>
    <path clip-path="url(#pcdd5391032)" d="M 1967.976071 125.395271 
L 2039.338036 125.395271 
L 2039.338036 266.176453 
L 1967.976071 266.176453 
L 1967.976071 125.395271 
" style="fill:#f5c2aa;stroke:#ffffff;stroke-width:0.75;"/>
    <path clip-path="url(#pcdd5391032)" d="M 2039.338036 125.395271 
L 2110.7 125.395271 
L 2110.7 266.176453 
L 2039.338036 266.176453 
L 2039.338036 125.395271 
" style="fill:#f7a98b;stroke:#ffffff;stroke-width:0.75;"/>
    <path clip-path="url(#pcdd5391032)" d="M 112.565 266.176453 
L 183.926964 266.176453 
L 183.926964 406.957635 
L 112.565 406.957635 
L 112.565 266.176453 
" style="fill:#85a8fc;stroke:#ffffff;stroke-width:0.75;"/>
    <path clip-path="url(#pcdd5391032)" d="M 183.926964 266.176453 
L 255.288929 266.176453 
L 255.288929 406.957635 
L 183.926964 406.957635 
L 183.926964 266.176453 
" style="fill:#8db0fe;stroke:#ffffff;stroke-width:0.75;"/>
    <path clip-path="url(#pcdd5391032)" d="M 255.288929 266.176453 
L 326.650893 266.176453 
L 326.650893 406.957635 
L 255.288929 406.957635 
L 255.288929 266.176453 
" style="fill:#e9d5cb;stroke:#ffffff;stroke-width:0.75;"/>
    <path clip-path="url(#pcdd5391032)" d="M 326.650893 266.176453 
L 398.012857 266.176453 
L 398.012857 406.957635 
L 326.650893 406.957635 
L 326.650893 266.176453 
" style="fill:#efcfbf;stroke:#ffffff;stroke-width:0.75;"/>
    <path clip-path="url(#pcdd5391032)" d="M 398.012857 266.176453 
L 469.374821 266.176453 
L 469.374821 406.957635 
L 398.012857 406.957635 
L 398.012857 266.176453 
" style="fill:#f7a889;stroke:#ffffff;stroke-width:0.75;"/>
    <path clip-path="url(#pcdd5391032)" d="M 469.374821 266.176453 
L 540.736786 266.176453 
L 540.736786 406.957635 
L 469.374821 406.957635 
L 469.374821 266.176453 
" style="fill:#f7b99e;stroke:#ffffff;stroke-width:0.75;"/>
    <path clip-path="url(#pcdd5391032)" d="M 540.736786 266.176453 
L 612.09875 266.176453 
L 612.09875 406.957635 
L 540.736786 406.957635 
L 540.736786 266.176453 
" style="fill:#f1cdba;stroke:#ffffff;stroke-width:0.75;"/>
    <path clip-path="url(#pcdd5391032)" d="M 612.09875 266.176453 
L 683.460714 266.176453 
L 683.460714 406.957635 
L 612.09875 406.957635 
L 612.09875 266.176453 
" style="fill:#f7b194;stroke:#ffffff;stroke-width:0.75;"/>
    <path clip-path="url(#pcdd5391032)" d="M 683.460714 266.176453 
L 754.822679 266.176453 
L 754.822679 406.957635 
L 683.460714 406.957635 
L 683.460714 266.176453 
" style="fill:#d65244;stroke:#ffffff;stroke-width:0.75;"/>
    <path clip-path="url(#pcdd5391032)" d="M 754.822679 266.176453 
L 826.184643 266.176453 
L 826.184643 406.957635 
L 754.822679 406.957635 
L 754.822679 266.176453 
" style="fill:#f5c1a9;stroke:#ffffff;stroke-width:0.75;"/>
    <path clip-path="url(#pcdd5391032)" d="M 826.184643 266.176453 
L 897.546607 266.176453 
L 897.546607 406.957635 
L 826.184643 406.957635 
L 826.184643 266.176453 
" style="fill:#f6a283;stroke:#ffffff;stroke-width:0.75;"/>
    <path clip-path="url(#pcdd5391032)" d="M 897.546607 266.176453 
L 968.908571 266.176453 
L 968.908571 406.957635 
L 897.546607 406.957635 
L 897.546607 266.176453 
" style="fill:#e8d6cc;stroke:#ffffff;stroke-width:0.75;"/>
    <path clip-path="url(#pcdd5391032)" d="M 968.908571 266.176453 
L 1040.270536 266.176453 
L 1040.270536 406.957635 
L 968.908571 406.957635 
L 968.908571 266.176453 
" style="fill:#f6bda2;stroke:#ffffff;stroke-width:0.75;"/>
    <path clip-path="url(#pcdd5391032)" d="M 1040.270536 266.176453 
L 1111.6325 266.176453 
L 1111.6325 406.957635 
L 1040.270536 406.957635 
L 1040.270536 266.176453 
" style="fill:#ead5c9;stroke:#ffffff;stroke-width:0.75;"/>
    <path clip-path="url(#pcdd5391032)" d="M 1111.6325 266.176453 
L 1182.994464 266.176453 
L 1182.994464 406.957635 
L 1111.6325 406.957635 
L 1111.6325 266.176453 
" style="fill:#efcebd;stroke:#ffffff;stroke-width:0.75;"/>
    <path clip-path="url(#pcdd5391032)" d="M 1182.994464 266.176453 
L 1254.356429 266.176453 
L 1254.356429 406.957635 
L 1182.994464 406.957635 
L 1182.994464 266.176453 
" style="fill:#ee8468;stroke:#ffffff;stroke-width:0.75;"/>
    <path clip-path="url(#pcdd5391032)" d="M 1254.356429 266.176453 
L 1325.718393 266.176453 
L 1325.718393 406.957635 
L 1254.356429 406.957635 
L 1254.356429 266.176453 
" style="fill:#e0654f;stroke:#ffffff;stroke-width:0.75;"/>
    <path clip-path="url(#pcdd5391032)" d="M 1325.718393 266.176453 
L 1397.080357 266.176453 
L 1397.080357 406.957635 
L 1325.718393 406.957635 
L 1325.718393 266.176453 
" style="fill:#be242e;stroke:#ffffff;stroke-width:0.75;"/>
    <path clip-path="url(#pcdd5391032)" d="M 1397.080357 266.176453 
L 1468.442321 266.176453 
L 1468.442321 406.957635 
L 1397.080357 406.957635 
L 1397.080357 266.176453 
" style="fill:#b40426;stroke:#ffffff;stroke-width:0.75;"/>
    <path clip-path="url(#pcdd5391032)" d="M 1468.442321 266.176453 
L 1539.804286 266.176453 
L 1539.804286 406.957635 
L 1468.442321 406.957635 
L 1468.442321 266.176453 
" style="fill:#b50927;stroke:#ffffff;stroke-width:0.75;"/>
    <path clip-path="url(#pcdd5391032)" d="M 1539.804286 266.176453 
L 1611.16625 266.176453 
L 1611.16625 406.957635 
L 1539.804286 406.957635 
L 1539.804286 266.176453 
" style="fill:#d65244;stroke:#ffffff;stroke-width:0.75;"/>
    <path clip-path="url(#pcdd5391032)" d="M 1611.16625 266.176453 
L 1682.528214 266.176453 
L 1682.528214 406.957635 
L 1611.16625 406.957635 
L 1611.16625 266.176453 
" style="fill:#e8765c;stroke:#ffffff;stroke-width:0.75;"/>
    <path clip-path="url(#pcdd5391032)" d="M 1682.528214 266.176453 
L 1753.890179 266.176453 
L 1753.890179 406.957635 
L 1682.528214 406.957635 
L 1682.528214 266.176453 
" style="fill:#e97a5f;stroke:#ffffff;stroke-width:0.75;"/>
    <path clip-path="url(#pcdd5391032)" d="M 1753.890179 266.176453 
L 1825.252143 266.176453 
L 1825.252143 406.957635 
L 1753.890179 406.957635 
L 1753.890179 266.176453 
" style="fill:#f7af91;stroke:#ffffff;stroke-width:0.75;"/>
    <path clip-path="url(#pcdd5391032)" d="M 1825.252143 266.176453 
L 1896.614107 266.176453 
L 1896.614107 406.957635 
L 1825.252143 406.957635 
L 1825.252143 266.176453 
" style="fill:#f39475;stroke:#ffffff;stroke-width:0.75;"/>
    <path clip-path="url(#pcdd5391032)" d="M 1896.614107 266.176453 
L 1967.976071 266.176453 
L 1967.976071 406.957635 
L 1896.614107 406.957635 
L 1896.614107 266.176453 
" style="fill:#f3c8b2;stroke:#ffffff;stroke-width:0.75;"/>
    <path clip-path="url(#pcdd5391032)" d="M 1967.976071 266.176453 
L 2039.338036 266.176453 
L 2039.338036 406.957635 
L 1967.976071 406.957635 
L 1967.976071 266.176453 
" style="fill:#f0cdbb;stroke:#ffffff;stroke-width:0.75;"/>
    <path clip-path="url(#pcdd5391032)" d="M 2039.338036 266.176453 
L 2110.7 266.176453 
L 2110.7 406.957635 
L 2039.338036 406.957635 
L 2039.338036 266.176453 
" style="fill:#f7af91;stroke:#ffffff;stroke-width:0.75;"/>
    <path clip-path="url(#pcdd5391032)" d="M 112.565 406.957635 
L 183.926964 406.957635 
L 183.926964 547.738818 
L 112.565 547.738818 
L 112.565 406.957635 
" style="fill:#e9d5cb;stroke:#ffffff;stroke-width:0.75;"/>
    <path clip-path="url(#pcdd5391032)" d="M 183.926964 406.957635 
L 255.288929 406.957635 
L 255.288929 547.738818 
L 183.926964 547.738818 
L 183.926964 406.957635 
" style="fill:#f7b89c;stroke:#ffffff;stroke-width:0.75;"/>
    <path clip-path="url(#pcdd5391032)" d="M 255.288929 406.957635 
L 326.650893 406.957635 
L 326.650893 547.738818 
L 255.288929 547.738818 
L 255.288929 406.957635 
" style="fill:#f49a7b;stroke:#ffffff;stroke-width:0.75;"/>
    <path clip-path="url(#pcdd5391032)" d="M 326.650893 406.957635 
L 398.012857 406.957635 
L 398.012857 547.738818 
L 326.650893 547.738818 
L 326.650893 406.957635 
" style="fill:#f7ac8e;stroke:#ffffff;stroke-width:0.75;"/>
    <path clip-path="url(#pcdd5391032)" d="M 398.012857 406.957635 
L 469.374821 406.957635 
L 469.374821 547.738818 
L 398.012857 547.738818 
L 398.012857 406.957635 
" style="fill:#f18f71;stroke:#ffffff;stroke-width:0.75;"/>
    <path clip-path="url(#pcdd5391032)" d="M 469.374821 406.957635 
L 540.736786 406.957635 
L 540.736786 547.738818 
L 469.374821 547.738818 
L 469.374821 406.957635 
" style="fill:#f39475;stroke:#ffffff;stroke-width:0.75;"/>
    <path clip-path="url(#pcdd5391032)" d="M 540.736786 406.957635 
L 612.09875 406.957635 
L 612.09875 547.738818 
L 540.736786 547.738818 
L 540.736786 406.957635 
" style="fill:#f4c5ad;stroke:#ffffff;stroke-width:0.75;"/>
    <path clip-path="url(#pcdd5391032)" d="M 612.09875 406.957635 
L 683.460714 406.957635 
L 683.460714 547.738818 
L 612.09875 547.738818 
L 612.09875 406.957635 
" style="fill:#f6bda2;stroke:#ffffff;stroke-width:0.75;"/>
    <path clip-path="url(#pcdd5391032)" d="M 683.460714 406.957635 
L 754.822679 406.957635 
L 754.822679 547.738818 
L 683.460714 547.738818 
L 683.460714 406.957635 
" style="fill:#edd1c2;stroke:#ffffff;stroke-width:0.75;"/>
    <path clip-path="url(#pcdd5391032)" d="M 754.822679 406.957635 
L 826.184643 406.957635 
L 826.184643 547.738818 
L 754.822679 547.738818 
L 754.822679 406.957635 
" style="fill:#d5dbe5;stroke:#ffffff;stroke-width:0.75;"/>
    <path clip-path="url(#pcdd5391032)" d="M 826.184643 406.957635 
L 897.546607 406.957635 
L 897.546607 547.738818 
L 826.184643 547.738818 
L 826.184643 406.957635 
" style="fill:#bfd3f6;stroke:#ffffff;stroke-width:0.75;"/>
    <path clip-path="url(#pcdd5391032)" d="M 897.546607 406.957635 
L 968.908571 406.957635 
L 968.908571 547.738818 
L 897.546607 547.738818 
L 897.546607 406.957635 
" style="fill:#b1cbfc;stroke:#ffffff;stroke-width:0.75;"/>
    <path clip-path="url(#pcdd5391032)" d="M 968.908571 406.957635 
L 1040.270536 406.957635 
L 1040.270536 547.738818 
L 968.908571 547.738818 
L 968.908571 406.957635 
" style="fill:#e2dad5;stroke:#ffffff;stroke-width:0.75;"/>
    <path clip-path="url(#pcdd5391032)" d="M 1040.270536 406.957635 
L 1111.6325 406.957635 
L 1111.6325 547.738818 
L 1040.270536 547.738818 
L 1040.270536 406.957635 
" style="fill:#f7b79b;stroke:#ffffff;stroke-width:0.75;"/>
    <path clip-path="url(#pcdd5391032)" d="M 1111.6325 406.957635 
L 1182.994464 406.957635 
L 1182.994464 547.738818 
L 1111.6325 547.738818 
L 1111.6325 406.957635 
" style="fill:#f7b497;stroke:#ffffff;stroke-width:0.75;"/>
    <path clip-path="url(#pcdd5391032)" d="M 1182.994464 406.957635 
L 1254.356429 406.957635 
L 1254.356429 547.738818 
L 1182.994464 547.738818 
L 1182.994464 406.957635 
" style="fill:#f2cab5;stroke:#ffffff;stroke-width:0.75;"/>
    <path clip-path="url(#pcdd5391032)" d="M 1254.356429 406.957635 
L 1325.718393 406.957635 
L 1325.718393 547.738818 
L 1254.356429 547.738818 
L 1254.356429 406.957635 
" style="fill:#f59d7e;stroke:#ffffff;stroke-width:0.75;"/>
    <path clip-path="url(#pcdd5391032)" d="M 1325.718393 406.957635 
L 1397.080357 406.957635 
L 1397.080357 547.738818 
L 1325.718393 547.738818 
L 1325.718393 406.957635 
" style="fill:#f39778;stroke:#ffffff;stroke-width:0.75;"/>
    <path clip-path="url(#pcdd5391032)" d="M 1397.080357 406.957635 
L 1468.442321 406.957635 
L 1468.442321 547.738818 
L 1397.080357 547.738818 
L 1397.080357 406.957635 
" style="fill:#e36b54;stroke:#ffffff;stroke-width:0.75;"/>
    <path clip-path="url(#pcdd5391032)" d="M 1468.442321 406.957635 
L 1539.804286 406.957635 
L 1539.804286 547.738818 
L 1468.442321 547.738818 
L 1468.442321 406.957635 
" style="fill:#df634e;stroke:#ffffff;stroke-width:0.75;"/>
    <path clip-path="url(#pcdd5391032)" d="M 1539.804286 406.957635 
L 1611.16625 406.957635 
L 1611.16625 547.738818 
L 1539.804286 547.738818 
L 1539.804286 406.957635 
" style="fill:#f7aa8c;stroke:#ffffff;stroke-width:0.75;"/>
    <path clip-path="url(#pcdd5391032)" d="M 1611.16625 406.957635 
L 1682.528214 406.957635 
L 1682.528214 547.738818 
L 1611.16625 547.738818 
L 1611.16625 406.957635 
" style="fill:#f59c7d;stroke:#ffffff;stroke-width:0.75;"/>
    <path clip-path="url(#pcdd5391032)" d="M 1682.528214 406.957635 
L 1753.890179 406.957635 
L 1753.890179 547.738818 
L 1682.528214 547.738818 
L 1682.528214 406.957635 
" style="fill:#e9785d;stroke:#ffffff;stroke-width:0.75;"/>
    <path clip-path="url(#pcdd5391032)" d="M 1753.890179 406.957635 
L 1825.252143 406.957635 
L 1825.252143 547.738818 
L 1753.890179 547.738818 
L 1753.890179 406.957635 
" style="fill:#c32e31;stroke:#ffffff;stroke-width:0.75;"/>
    <path clip-path="url(#pcdd5391032)" d="M 1825.252143 406.957635 
L 1896.614107 406.957635 
L 1896.614107 547.738818 
L 1825.252143 547.738818 
L 1825.252143 406.957635 
" style="fill:#b40426;stroke:#ffffff;stroke-width:0.75;"/>
    <path clip-path="url(#pcdd5391032)" d="M 1896.614107 406.957635 
L 1967.976071 406.957635 
L 1967.976071 547.738818 
L 1896.614107 547.738818 
L 1896.614107 406.957635 
" style="fill:#bb1b2c;stroke:#ffffff;stroke-width:0.75;"/>
    <path clip-path="url(#pcdd5391032)" d="M 1967.976071 406.957635 
L 2039.338036 406.957635 
L 2039.338036 547.738818 
L 1967.976071 547.738818 
L 1967.976071 406.957635 
" style="fill:#ec8165;stroke:#ffffff;stroke-width:0.75;"/>
    <path clip-path="url(#pcdd5391032)" d="M 2039.338036 406.957635 
L 2110.7 406.957635 
L 2110.7 547.738818 
L 2039.338036 547.738818 
L 2039.338036 406.957635 
" style="fill:#dc5d4a;stroke:#ffffff;stroke-width:0.75;"/>
    <path clip-path="url(#pcdd5391032)" d="M 112.565 547.738818 
L 183.926964 547.738818 
L 183.926964 688.52 
L 112.565 688.52 
L 112.565 547.738818 
" style="fill:#c5d6f2;stroke:#ffffff;stroke-width:0.75;"/>
    <path clip-path="url(#pcdd5391032)" d="M 183.926964 547.738818 
L 255.288929 547.738818 
L 255.288929 688.52 
L 183.926964 688.52 
L 183.926964 547.738818 
" style="fill:#dadce0;stroke:#ffffff;stroke-width:0.75;"/>
    <path clip-path="url(#pcdd5391032)" d="M 255.288929 547.738818 
L 326.650893 547.738818 
L 326.650893 688.52 
L 255.288929 688.52 
L 255.288929 547.738818 
" style="fill:#cdd9ec;stroke:#ffffff;stroke-width:0.75;"/>
    <path clip-path="url(#pcdd5391032)" d="M 326.650893 547.738818 
L 398.012857 547.738818 
L 398.012857 688.52 
L 326.650893 688.52 
L 326.650893 547.738818 
" style="fill:#a5c3fe;stroke:#ffffff;stroke-width:0.75;"/>
    <path clip-path="url(#pcdd5391032)" d="M 398.012857 547.738818 
L 469.374821 547.738818 
L 469.374821 688.52 
L 398.012857 688.52 
L 398.012857 547.738818 
" style="fill:#f7b89c;stroke:#ffffff;stroke-width:0.75;"/>
    <path clip-path="url(#pcdd5391032)" d="M 469.374821 547.738818 
L 540.736786 547.738818 
L 540.736786 688.52 
L 469.374821 688.52 
L 469.374821 547.738818 
" style="fill:#ead5c9;stroke:#ffffff;stroke-width:0.75;"/>
    <path clip-path="url(#pcdd5391032)" d="M 540.736786 547.738818 
L 612.09875 547.738818 
L 612.09875 688.52 
L 540.736786 688.52 
L 540.736786 547.738818 
" style="fill:#f1ccb8;stroke:#ffffff;stroke-width:0.75;"/>
    <path clip-path="url(#pcdd5391032)" d="M 612.09875 547.738818 
L 683.460714 547.738818 
L 683.460714 688.52 
L 612.09875 688.52 
L 612.09875 547.738818 
" style="fill:#dfdbd9;stroke:#ffffff;stroke-width:0.75;"/>
    <path clip-path="url(#pcdd5391032)" d="M 683.460714 547.738818 
L 754.822679 547.738818 
L 754.822679 688.52 
L 683.460714 688.52 
L 683.460714 547.738818 
" style="fill:#cdd9ec;stroke:#ffffff;stroke-width:0.75;"/>
    <path clip-path="url(#pcdd5391032)" d="M 754.822679 547.738818 
L 826.184643 547.738818 
L 826.184643 688.52 
L 754.822679 688.52 
L 754.822679 547.738818 
" style="fill:#f3c8b2;stroke:#ffffff;stroke-width:0.75;"/>
    <path clip-path="url(#pcdd5391032)" d="M 826.184643 547.738818 
L 897.546607 547.738818 
L 897.546607 688.52 
L 826.184643 688.52 
L 826.184643 547.738818 
" style="fill:#f6a586;stroke:#ffffff;stroke-width:0.75;"/>
    <path clip-path="url(#pcdd5391032)" d="M 897.546607 547.738818 
L 968.908571 547.738818 
L 968.908571 688.52 
L 897.546607 688.52 
L 897.546607 547.738818 
" style="fill:#9ebeff;stroke:#ffffff;stroke-width:0.75;"/>
    <path clip-path="url(#pcdd5391032)" d="M 968.908571 547.738818 
L 1040.270536 547.738818 
L 1040.270536 688.52 
L 968.908571 688.52 
L 968.908571 547.738818 
" style="fill:#bfd3f6;stroke:#ffffff;stroke-width:0.75;"/>
    <path clip-path="url(#pcdd5391032)" d="M 1040.270536 547.738818 
L 1111.6325 547.738818 
L 1111.6325 688.52 
L 1040.270536 688.52 
L 1040.270536 547.738818 
" style="fill:#dfdbd9;stroke:#ffffff;stroke-width:0.75;"/>
    <path clip-path="url(#pcdd5391032)" d="M 1111.6325 547.738818 
L 1182.994464 547.738818 
L 1182.994464 688.52 
L 1111.6325 688.52 
L 1111.6325 547.738818 
" style="fill:#b2ccfb;stroke:#ffffff;stroke-width:0.75;"/>
    <path clip-path="url(#pcdd5391032)" d="M 1182.994464 547.738818 
L 1254.356429 547.738818 
L 1254.356429 688.52 
L 1182.994464 688.52 
L 1182.994464 547.738818 
" style="fill:#f6bda2;stroke:#ffffff;stroke-width:0.75;"/>
    <path clip-path="url(#pcdd5391032)" d="M 1254.356429 547.738818 
L 1325.718393 547.738818 
L 1325.718393 688.52 
L 1254.356429 688.52 
L 1254.356429 547.738818 
" style="fill:#bed2f6;stroke:#ffffff;stroke-width:0.75;"/>
    <path clip-path="url(#pcdd5391032)" d="M 1325.718393 547.738818 
L 1397.080357 547.738818 
L 1397.080357 688.52 
L 1325.718393 688.52 
L 1325.718393 547.738818 
" style="fill:#edd2c3;stroke:#ffffff;stroke-width:0.75;"/>
    <path clip-path="url(#pcdd5391032)" d="M 1397.080357 547.738818 
L 1468.442321 547.738818 
L 1468.442321 688.52 
L 1397.080357 688.52 
L 1397.080357 547.738818 
" style="fill:#f7a889;stroke:#ffffff;stroke-width:0.75;"/>
    <path clip-path="url(#pcdd5391032)" d="M 1468.442321 547.738818 
L 1539.804286 547.738818 
L 1539.804286 688.52 
L 1468.442321 688.52 
L 1468.442321 547.738818 
" style="fill:#f6a586;stroke:#ffffff;stroke-width:0.75;"/>
    <path clip-path="url(#pcdd5391032)" d="M 1539.804286 547.738818 
L 1611.16625 547.738818 
L 1611.16625 688.52 
L 1539.804286 688.52 
L 1539.804286 547.738818 
" style="fill:#f08b6e;stroke:#ffffff;stroke-width:0.75;"/>
    <path clip-path="url(#pcdd5391032)" d="M 1611.16625 547.738818 
L 1682.528214 547.738818 
L 1682.528214 688.52 
L 1611.16625 688.52 
L 1611.16625 547.738818 
" style="fill:#f4c6af;stroke:#ffffff;stroke-width:0.75;"/>
    <path clip-path="url(#pcdd5391032)" d="M 1682.528214 547.738818 
L 1753.890179 547.738818 
L 1753.890179 688.52 
L 1682.528214 688.52 
L 1682.528214 547.738818 
" style="fill:#b40426;stroke:#ffffff;stroke-width:0.75;"/>
    <path clip-path="url(#pcdd5391032)" d="M 1753.890179 547.738818 
L 1825.252143 547.738818 
L 1825.252143 688.52 
L 1753.890179 688.52 
L 1753.890179 547.738818 
" style="fill:#f5c4ac;stroke:#ffffff;stroke-width:0.75;"/>
    <path clip-path="url(#pcdd5391032)" d="M 1825.252143 547.738818 
L 1896.614107 547.738818 
L 1896.614107 688.52 
L 1825.252143 688.52 
L 1825.252143 547.738818 
" style="fill:#e26952;stroke:#ffffff;stroke-width:0.75;"/>
    <path clip-path="url(#pcdd5391032)" d="M 1896.614107 547.738818 
L 1967.976071 547.738818 
L 1967.976071 688.52 
L 1896.614107 688.52 
L 1896.614107 547.738818 
" style="fill:#f7b99e;stroke:#ffffff;stroke-width:0.75;"/>
    <path clip-path="url(#pcdd5391032)" d="M 1967.976071 547.738818 
L 2039.338036 547.738818 
L 2039.338036 688.52 
L 1967.976071 688.52 
L 1967.976071 547.738818 
" style="fill:#f59d7e;stroke:#ffffff;stroke-width:0.75;"/>
    <path clip-path="url(#pcdd5391032)" d="M 2039.338036 547.738818 
L 2110.7 547.738818 
L 2110.7 688.52 
L 2039.338036 688.52 
L 2039.338036 547.738818 
" style="fill:#f29072;stroke:#ffffff;stroke-width:0.75;"/>
   </g>
   <g id="matplotlib.axis_3">
    <g id="xtick_1">
     <g id="line2d_2">
      <defs>
       <path d="M 0 0 
L 0 3.5 
" id="m848c5b254b" style="stroke:#000000;stroke-width:0.8;"/>
      </defs>
      <g>
       <use style="stroke:#000000;stroke-width:0.8;" x="148.245982" xlink:href="#m848c5b254b" y="688.52"/>
      </g>
     </g>
     <g id="text_2">
      <!-- Step 5-R -->
      <g transform="translate(116.463742 731.204586)rotate(-45)scale(0.1 -0.1)">
       <defs>
        <path id="DejaVuSans-32"/>
        <path d="M 10.796875 72.90625 
L 49.515625 72.90625 
L 49.515625 64.59375 
L 19.828125 64.59375 
L 19.828125 46.734375 
Q 21.96875 47.46875 24.109375 47.828125 
Q 26.265625 48.1875 28.421875 48.1875 
Q 40.625 48.1875 47.75 41.5 
Q 54.890625 34.8125 54.890625 23.390625 
Q 54.890625 11.625 47.5625 5.09375 
Q 40.234375 -1.421875 26.90625 -1.421875 
Q 22.3125 -1.421875 17.546875 -0.640625 
Q 12.796875 0.140625 7.71875 1.703125 
L 7.71875 11.625 
Q 12.109375 9.234375 16.796875 8.0625 
Q 21.484375 6.890625 26.703125 6.890625 
Q 35.15625 6.890625 40.078125 11.328125 
Q 45.015625 15.765625 45.015625 23.390625 
Q 45.015625 31 40.078125 35.4375 
Q 35.15625 39.890625 26.703125 39.890625 
Q 22.75 39.890625 18.8125 39.015625 
Q 14.890625 38.140625 10.796875 36.28125 
z
" id="DejaVuSans-53"/>
        <path d="M 4.890625 31.390625 
L 31.203125 31.390625 
L 31.203125 23.390625 
L 4.890625 23.390625 
z
" id="DejaVuSans-45"/>
        <path d="M 44.390625 34.1875 
Q 47.5625 33.109375 50.5625 29.59375 
Q 53.5625 26.078125 56.59375 19.921875 
L 66.609375 0 
L 56 0 
L 46.6875 18.703125 
Q 43.0625 26.03125 39.671875 28.421875 
Q 36.28125 30.8125 30.421875 30.8125 
L 19.671875 30.8125 
L 19.671875 0 
L 9.8125 0 
L 9.8125 72.90625 
L 32.078125 72.90625 
Q 44.578125 72.90625 50.734375 67.671875 
Q 56.890625 62.453125 56.890625 51.90625 
Q 56.890625 45.015625 53.6875 40.46875 
Q 50.484375 35.9375 44.390625 34.1875 
z
M 19.671875 64.796875 
L 19.671875 38.921875 
L 32.078125 38.921875 
Q 39.203125 38.921875 42.84375 42.21875 
Q 46.484375 45.515625 46.484375 51.90625 
Q 46.484375 58.296875 42.84375 61.546875 
Q 39.203125 64.796875 32.078125 64.796875 
z
" id="DejaVuSans-82"/>
       </defs>
       <use xlink:href="#DejaVuSans-83"/>
       <use x="63.476562" xlink:href="#DejaVuSans-116"/>
       <use x="102.685547" xlink:href="#DejaVuSans-101"/>
       <use x="164.208984" xlink:href="#DejaVuSans-112"/>
       <use x="227.685547" xlink:href="#DejaVuSans-32"/>
       <use x="259.472656" xlink:href="#DejaVuSans-53"/>
       <use x="323.095703" xlink:href="#DejaVuSans-45"/>
       <use x="359.179688" xlink:href="#DejaVuSans-82"/>
      </g>
     </g>
    </g>
    <g id="xtick_2">
     <g id="line2d_3">
      <g>
       <use style="stroke:#000000;stroke-width:0.8;" x="219.607946" xlink:href="#m848c5b254b" y="688.52"/>
      </g>
     </g>
     <g id="text_3">
      <!-- Step 6-R -->
      <g transform="translate(187.825706 731.204586)rotate(-45)scale(0.1 -0.1)">
       <defs>
        <path d="M 33.015625 40.375 
Q 26.375 40.375 22.484375 35.828125 
Q 18.609375 31.296875 18.609375 23.390625 
Q 18.609375 15.53125 22.484375 10.953125 
Q 26.375 6.390625 33.015625 6.390625 
Q 39.65625 6.390625 43.53125 10.953125 
Q 47.40625 15.53125 47.40625 23.390625 
Q 47.40625 31.296875 43.53125 35.828125 
Q 39.65625 40.375 33.015625 40.375 
z
M 52.59375 71.296875 
L 52.59375 62.3125 
Q 48.875 64.0625 45.09375 64.984375 
Q 41.3125 65.921875 37.59375 65.921875 
Q 27.828125 65.921875 22.671875 59.328125 
Q 17.53125 52.734375 16.796875 39.40625 
Q 19.671875 43.65625 24.015625 45.921875 
Q 28.375 48.1875 33.59375 48.1875 
Q 44.578125 48.1875 50.953125 41.515625 
Q 57.328125 34.859375 57.328125 23.390625 
Q 57.328125 12.15625 50.6875 5.359375 
Q 44.046875 -1.421875 33.015625 -1.421875 
Q 20.359375 -1.421875 13.671875 8.265625 
Q 6.984375 17.96875 6.984375 36.375 
Q 6.984375 53.65625 15.1875 63.9375 
Q 23.390625 74.21875 37.203125 74.21875 
Q 40.921875 74.21875 44.703125 73.484375 
Q 48.484375 72.75 52.59375 71.296875 
z
" id="DejaVuSans-54"/>
       </defs>
       <use xlink:href="#DejaVuSans-83"/>
       <use x="63.476562" xlink:href="#DejaVuSans-116"/>
       <use x="102.685547" xlink:href="#DejaVuSans-101"/>
       <use x="164.208984" xlink:href="#DejaVuSans-112"/>
       <use x="227.685547" xlink:href="#DejaVuSans-32"/>
       <use x="259.472656" xlink:href="#DejaVuSans-54"/>
       <use x="323.095703" xlink:href="#DejaVuSans-45"/>
       <use x="359.179688" xlink:href="#DejaVuSans-82"/>
      </g>
     </g>
    </g>
    <g id="xtick_3">
     <g id="line2d_4">
      <g>
       <use style="stroke:#000000;stroke-width:0.8;" x="290.969911" xlink:href="#m848c5b254b" y="688.52"/>
      </g>
     </g>
     <g id="text_4">
      <!-- Step 2-R -->
      <g transform="translate(259.187671 731.204586)rotate(-45)scale(0.1 -0.1)">
       <defs>
        <path d="M 19.1875 8.296875 
L 53.609375 8.296875 
L 53.609375 0 
L 7.328125 0 
L 7.328125 8.296875 
Q 12.9375 14.109375 22.625 23.890625 
Q 32.328125 33.6875 34.8125 36.53125 
Q 39.546875 41.84375 41.421875 45.53125 
Q 43.3125 49.21875 43.3125 52.78125 
Q 43.3125 58.59375 39.234375 62.25 
Q 35.15625 65.921875 28.609375 65.921875 
Q 23.96875 65.921875 18.8125 64.3125 
Q 13.671875 62.703125 7.8125 59.421875 
L 7.8125 69.390625 
Q 13.765625 71.78125 18.9375 73 
Q 24.125 74.21875 28.421875 74.21875 
Q 39.75 74.21875 46.484375 68.546875 
Q 53.21875 62.890625 53.21875 53.421875 
Q 53.21875 48.921875 51.53125 44.890625 
Q 49.859375 40.875 45.40625 35.40625 
Q 44.1875 33.984375 37.640625 27.21875 
Q 31.109375 20.453125 19.1875 8.296875 
z
" id="DejaVuSans-50"/>
       </defs>
       <use xlink:href="#DejaVuSans-83"/>
       <use x="63.476562" xlink:href="#DejaVuSans-116"/>
       <use x="102.685547" xlink:href="#DejaVuSans-101"/>
       <use x="164.208984" xlink:href="#DejaVuSans-112"/>
       <use x="227.685547" xlink:href="#DejaVuSans-32"/>
       <use x="259.472656" xlink:href="#DejaVuSans-50"/>
       <use x="323.095703" xlink:href="#DejaVuSans-45"/>
       <use x="359.179688" xlink:href="#DejaVuSans-82"/>
      </g>
     </g>
    </g>
    <g id="xtick_4">
     <g id="line2d_5">
      <g>
       <use style="stroke:#000000;stroke-width:0.8;" x="362.331875" xlink:href="#m848c5b254b" y="688.52"/>
      </g>
     </g>
     <g id="text_5">
      <!-- Step 7-R -->
      <g transform="translate(330.549635 731.204586)rotate(-45)scale(0.1 -0.1)">
       <defs>
        <path d="M 8.203125 72.90625 
L 55.078125 72.90625 
L 55.078125 68.703125 
L 28.609375 0 
L 18.3125 0 
L 43.21875 64.59375 
L 8.203125 64.59375 
z
" id="DejaVuSans-55"/>
       </defs>
       <use xlink:href="#DejaVuSans-83"/>
       <use x="63.476562" xlink:href="#DejaVuSans-116"/>
       <use x="102.685547" xlink:href="#DejaVuSans-101"/>
       <use x="164.208984" xlink:href="#DejaVuSans-112"/>
       <use x="227.685547" xlink:href="#DejaVuSans-32"/>
       <use x="259.472656" xlink:href="#DejaVuSans-55"/>
       <use x="323.095703" xlink:href="#DejaVuSans-45"/>
       <use x="359.179688" xlink:href="#DejaVuSans-82"/>
      </g>
     </g>
    </g>
    <g id="xtick_5">
     <g id="line2d_6">
      <g>
       <use style="stroke:#000000;stroke-width:0.8;" x="433.693839" xlink:href="#m848c5b254b" y="688.52"/>
      </g>
     </g>
     <g id="text_6">
      <!-- Step 1-E -->
      <g transform="translate(402.356855 730.759329)rotate(-45)scale(0.1 -0.1)">
       <defs>
        <path d="M 12.40625 8.296875 
L 28.515625 8.296875 
L 28.515625 63.921875 
L 10.984375 60.40625 
L 10.984375 69.390625 
L 28.421875 72.90625 
L 38.28125 72.90625 
L 38.28125 8.296875 
L 54.390625 8.296875 
L 54.390625 0 
L 12.40625 0 
z
" id="DejaVuSans-49"/>
        <path d="M 9.8125 72.90625 
L 55.90625 72.90625 
L 55.90625 64.59375 
L 19.671875 64.59375 
L 19.671875 43.015625 
L 54.390625 43.015625 
L 54.390625 34.71875 
L 19.671875 34.71875 
L 19.671875 8.296875 
L 56.78125 8.296875 
L 56.78125 0 
L 9.8125 0 
z
" id="DejaVuSans-69"/>
       </defs>
       <use xlink:href="#DejaVuSans-83"/>
       <use x="63.476562" xlink:href="#DejaVuSans-116"/>
       <use x="102.685547" xlink:href="#DejaVuSans-101"/>
       <use x="164.208984" xlink:href="#DejaVuSans-112"/>
       <use x="227.685547" xlink:href="#DejaVuSans-32"/>
       <use x="259.472656" xlink:href="#DejaVuSans-49"/>
       <use x="323.095703" xlink:href="#DejaVuSans-45"/>
       <use x="359.179688" xlink:href="#DejaVuSans-69"/>
      </g>
     </g>
    </g>
    <g id="xtick_6">
     <g id="line2d_7">
      <g>
       <use style="stroke:#000000;stroke-width:0.8;" x="505.055804" xlink:href="#m848c5b254b" y="688.52"/>
      </g>
     </g>
     <g id="text_7">
      <!-- Step 6-E -->
      <g transform="translate(473.71882 730.759329)rotate(-45)scale(0.1 -0.1)">
       <use xlink:href="#DejaVuSans-83"/>
       <use x="63.476562" xlink:href="#DejaVuSans-116"/>
       <use x="102.685547" xlink:href="#DejaVuSans-101"/>
       <use x="164.208984" xlink:href="#DejaVuSans-112"/>
       <use x="227.685547" xlink:href="#DejaVuSans-32"/>
       <use x="259.472656" xlink:href="#DejaVuSans-54"/>
       <use x="323.095703" xlink:href="#DejaVuSans-45"/>
       <use x="359.179688" xlink:href="#DejaVuSans-69"/>
      </g>
     </g>
    </g>
    <g id="xtick_7">
     <g id="line2d_8">
      <g>
       <use style="stroke:#000000;stroke-width:0.8;" x="576.417768" xlink:href="#m848c5b254b" y="688.52"/>
      </g>
     </g>
     <g id="text_8">
      <!-- Step 1-D -->
      <g transform="translate(544.104093 731.736021)rotate(-45)scale(0.1 -0.1)">
       <defs>
        <path d="M 19.671875 64.796875 
L 19.671875 8.109375 
L 31.59375 8.109375 
Q 46.6875 8.109375 53.6875 14.9375 
Q 60.6875 21.78125 60.6875 36.53125 
Q 60.6875 51.171875 53.6875 57.984375 
Q 46.6875 64.796875 31.59375 64.796875 
z
M 9.8125 72.90625 
L 30.078125 72.90625 
Q 51.265625 72.90625 61.171875 64.09375 
Q 71.09375 55.28125 71.09375 36.53125 
Q 71.09375 17.671875 61.125 8.828125 
Q 51.171875 0 30.078125 0 
L 9.8125 0 
z
" id="DejaVuSans-68"/>
       </defs>
       <use xlink:href="#DejaVuSans-83"/>
       <use x="63.476562" xlink:href="#DejaVuSans-116"/>
       <use x="102.685547" xlink:href="#DejaVuSans-101"/>
       <use x="164.208984" xlink:href="#DejaVuSans-112"/>
       <use x="227.685547" xlink:href="#DejaVuSans-32"/>
       <use x="259.472656" xlink:href="#DejaVuSans-49"/>
       <use x="323.095703" xlink:href="#DejaVuSans-45"/>
       <use x="359.179688" xlink:href="#DejaVuSans-68"/>
      </g>
     </g>
    </g>
    <g id="xtick_8">
     <g id="line2d_9">
      <g>
       <use style="stroke:#000000;stroke-width:0.8;" x="647.779732" xlink:href="#m848c5b254b" y="688.52"/>
      </g>
     </g>
     <g id="text_9">
      <!-- Step 4-D -->
      <g transform="translate(615.466057 731.736021)rotate(-45)scale(0.1 -0.1)">
       <defs>
        <path d="M 37.796875 64.3125 
L 12.890625 25.390625 
L 37.796875 25.390625 
z
M 35.203125 72.90625 
L 47.609375 72.90625 
L 47.609375 25.390625 
L 58.015625 25.390625 
L 58.015625 17.1875 
L 47.609375 17.1875 
L 47.609375 0 
L 37.796875 0 
L 37.796875 17.1875 
L 4.890625 17.1875 
L 4.890625 26.703125 
z
" id="DejaVuSans-52"/>
       </defs>
       <use xlink:href="#DejaVuSans-83"/>
       <use x="63.476562" xlink:href="#DejaVuSans-116"/>
       <use x="102.685547" xlink:href="#DejaVuSans-101"/>
       <use x="164.208984" xlink:href="#DejaVuSans-112"/>
       <use x="227.685547" xlink:href="#DejaVuSans-32"/>
       <use x="259.472656" xlink:href="#DejaVuSans-52"/>
       <use x="323.095703" xlink:href="#DejaVuSans-45"/>
       <use x="359.179688" xlink:href="#DejaVuSans-68"/>
      </g>
     </g>
    </g>
    <g id="xtick_9">
     <g id="line2d_10">
      <g>
       <use style="stroke:#000000;stroke-width:0.8;" x="719.141696" xlink:href="#m848c5b254b" y="688.52"/>
      </g>
     </g>
     <g id="text_10">
      <!-- Step 2-E -->
      <g transform="translate(687.804713 730.759329)rotate(-45)scale(0.1 -0.1)">
       <use xlink:href="#DejaVuSans-83"/>
       <use x="63.476562" xlink:href="#DejaVuSans-116"/>
       <use x="102.685547" xlink:href="#DejaVuSans-101"/>
       <use x="164.208984" xlink:href="#DejaVuSans-112"/>
       <use x="227.685547" xlink:href="#DejaVuSans-32"/>
       <use x="259.472656" xlink:href="#DejaVuSans-50"/>
       <use x="323.095703" xlink:href="#DejaVuSans-45"/>
       <use x="359.179688" xlink:href="#DejaVuSans-69"/>
      </g>
     </g>
    </g>
    <g id="xtick_10">
     <g id="line2d_11">
      <g>
       <use style="stroke:#000000;stroke-width:0.8;" x="790.503661" xlink:href="#m848c5b254b" y="688.52"/>
      </g>
     </g>
     <g id="text_11">
      <!-- Step 5-D -->
      <g transform="translate(758.189986 731.736021)rotate(-45)scale(0.1 -0.1)">
       <use xlink:href="#DejaVuSans-83"/>
       <use x="63.476562" xlink:href="#DejaVuSans-116"/>
       <use x="102.685547" xlink:href="#DejaVuSans-101"/>
       <use x="164.208984" xlink:href="#DejaVuSans-112"/>
       <use x="227.685547" xlink:href="#DejaVuSans-32"/>
       <use x="259.472656" xlink:href="#DejaVuSans-53"/>
       <use x="323.095703" xlink:href="#DejaVuSans-45"/>
       <use x="359.179688" xlink:href="#DejaVuSans-68"/>
      </g>
     </g>
    </g>
    <g id="xtick_11">
     <g id="line2d_12">
      <g>
       <use style="stroke:#000000;stroke-width:0.8;" x="861.865625" xlink:href="#m848c5b254b" y="688.52"/>
      </g>
     </g>
     <g id="text_12">
      <!-- Step 6-D -->
      <g transform="translate(829.55195 731.736021)rotate(-45)scale(0.1 -0.1)">
       <use xlink:href="#DejaVuSans-83"/>
       <use x="63.476562" xlink:href="#DejaVuSans-116"/>
       <use x="102.685547" xlink:href="#DejaVuSans-101"/>
       <use x="164.208984" xlink:href="#DejaVuSans-112"/>
       <use x="227.685547" xlink:href="#DejaVuSans-32"/>
       <use x="259.472656" xlink:href="#DejaVuSans-54"/>
       <use x="323.095703" xlink:href="#DejaVuSans-45"/>
       <use x="359.179688" xlink:href="#DejaVuSans-68"/>
      </g>
     </g>
    </g>
    <g id="xtick_12">
     <g id="line2d_13">
      <g>
       <use style="stroke:#000000;stroke-width:0.8;" x="933.227589" xlink:href="#m848c5b254b" y="688.52"/>
      </g>
     </g>
     <g id="text_13">
      <!-- Step 2-D -->
      <g transform="translate(900.913914 731.736021)rotate(-45)scale(0.1 -0.1)">
       <use xlink:href="#DejaVuSans-83"/>
       <use x="63.476562" xlink:href="#DejaVuSans-116"/>
       <use x="102.685547" xlink:href="#DejaVuSans-101"/>
       <use x="164.208984" xlink:href="#DejaVuSans-112"/>
       <use x="227.685547" xlink:href="#DejaVuSans-32"/>
       <use x="259.472656" xlink:href="#DejaVuSans-50"/>
       <use x="323.095703" xlink:href="#DejaVuSans-45"/>
       <use x="359.179688" xlink:href="#DejaVuSans-68"/>
      </g>
     </g>
    </g>
    <g id="xtick_13">
     <g id="line2d_14">
      <g>
       <use style="stroke:#000000;stroke-width:0.8;" x="1004.589554" xlink:href="#m848c5b254b" y="688.52"/>
      </g>
     </g>
     <g id="text_14">
      <!-- Step 6-K -->
      <g transform="translate(973.083527 730.928372)rotate(-45)scale(0.1 -0.1)">
       <defs>
        <path d="M 9.8125 72.90625 
L 19.671875 72.90625 
L 19.671875 42.09375 
L 52.390625 72.90625 
L 65.09375 72.90625 
L 28.90625 38.921875 
L 67.671875 0 
L 54.6875 0 
L 19.671875 35.109375 
L 19.671875 0 
L 9.8125 0 
z
" id="DejaVuSans-75"/>
       </defs>
       <use xlink:href="#DejaVuSans-83"/>
       <use x="63.476562" xlink:href="#DejaVuSans-116"/>
       <use x="102.685547" xlink:href="#DejaVuSans-101"/>
       <use x="164.208984" xlink:href="#DejaVuSans-112"/>
       <use x="227.685547" xlink:href="#DejaVuSans-32"/>
       <use x="259.472656" xlink:href="#DejaVuSans-54"/>
       <use x="323.095703" xlink:href="#DejaVuSans-45"/>
       <use x="359.179688" xlink:href="#DejaVuSans-75"/>
      </g>
     </g>
    </g>
    <g id="xtick_14">
     <g id="line2d_15">
      <g>
       <use style="stroke:#000000;stroke-width:0.8;" x="1075.951518" xlink:href="#m848c5b254b" y="688.52"/>
      </g>
     </g>
     <g id="text_15">
      <!-- Step 5-E -->
      <g transform="translate(1044.614534 730.759329)rotate(-45)scale(0.1 -0.1)">
       <use xlink:href="#DejaVuSans-83"/>
       <use x="63.476562" xlink:href="#DejaVuSans-116"/>
       <use x="102.685547" xlink:href="#DejaVuSans-101"/>
       <use x="164.208984" xlink:href="#DejaVuSans-112"/>
       <use x="227.685547" xlink:href="#DejaVuSans-32"/>
       <use x="259.472656" xlink:href="#DejaVuSans-53"/>
       <use x="323.095703" xlink:href="#DejaVuSans-45"/>
       <use x="359.179688" xlink:href="#DejaVuSans-69"/>
      </g>
     </g>
    </g>
    <g id="xtick_15">
     <g id="line2d_16">
      <g>
       <use style="stroke:#000000;stroke-width:0.8;" x="1147.313482" xlink:href="#m848c5b254b" y="688.52"/>
      </g>
     </g>
     <g id="text_16">
      <!-- Step 5-K -->
      <g transform="translate(1115.807456 730.928372)rotate(-45)scale(0.1 -0.1)">
       <use xlink:href="#DejaVuSans-83"/>
       <use x="63.476562" xlink:href="#DejaVuSans-116"/>
       <use x="102.685547" xlink:href="#DejaVuSans-101"/>
       <use x="164.208984" xlink:href="#DejaVuSans-112"/>
       <use x="227.685547" xlink:href="#DejaVuSans-32"/>
       <use x="259.472656" xlink:href="#DejaVuSans-53"/>
       <use x="323.095703" xlink:href="#DejaVuSans-45"/>
       <use x="359.179688" xlink:href="#DejaVuSans-75"/>
      </g>
     </g>
    </g>
    <g id="xtick_16">
     <g id="line2d_17">
      <g>
       <use style="stroke:#000000;stroke-width:0.8;" x="1218.675446" xlink:href="#m848c5b254b" y="688.52"/>
      </g>
     </g>
     <g id="text_17">
      <!-- Step 3-D -->
      <g transform="translate(1186.361771 731.736021)rotate(-45)scale(0.1 -0.1)">
       <defs>
        <path d="M 40.578125 39.3125 
Q 47.65625 37.796875 51.625 33 
Q 55.609375 28.21875 55.609375 21.1875 
Q 55.609375 10.40625 48.1875 4.484375 
Q 40.765625 -1.421875 27.09375 -1.421875 
Q 22.515625 -1.421875 17.65625 -0.515625 
Q 12.796875 0.390625 7.625 2.203125 
L 7.625 11.71875 
Q 11.71875 9.328125 16.59375 8.109375 
Q 21.484375 6.890625 26.8125 6.890625 
Q 36.078125 6.890625 40.9375 10.546875 
Q 45.796875 14.203125 45.796875 21.1875 
Q 45.796875 27.640625 41.28125 31.265625 
Q 36.765625 34.90625 28.71875 34.90625 
L 20.21875 34.90625 
L 20.21875 43.015625 
L 29.109375 43.015625 
Q 36.375 43.015625 40.234375 45.921875 
Q 44.09375 48.828125 44.09375 54.296875 
Q 44.09375 59.90625 40.109375 62.90625 
Q 36.140625 65.921875 28.71875 65.921875 
Q 24.65625 65.921875 20.015625 65.03125 
Q 15.375 64.15625 9.8125 62.3125 
L 9.8125 71.09375 
Q 15.4375 72.65625 20.34375 73.4375 
Q 25.25 74.21875 29.59375 74.21875 
Q 40.828125 74.21875 47.359375 69.109375 
Q 53.90625 64.015625 53.90625 55.328125 
Q 53.90625 49.265625 50.4375 45.09375 
Q 46.96875 40.921875 40.578125 39.3125 
z
" id="DejaVuSans-51"/>
       </defs>
       <use xlink:href="#DejaVuSans-83"/>
       <use x="63.476562" xlink:href="#DejaVuSans-116"/>
       <use x="102.685547" xlink:href="#DejaVuSans-101"/>
       <use x="164.208984" xlink:href="#DejaVuSans-112"/>
       <use x="227.685547" xlink:href="#DejaVuSans-32"/>
       <use x="259.472656" xlink:href="#DejaVuSans-51"/>
       <use x="323.095703" xlink:href="#DejaVuSans-45"/>
       <use x="359.179688" xlink:href="#DejaVuSans-68"/>
      </g>
     </g>
    </g>
    <g id="xtick_17">
     <g id="line2d_18">
      <g>
       <use style="stroke:#000000;stroke-width:0.8;" x="1290.037411" xlink:href="#m848c5b254b" y="688.52"/>
      </g>
     </g>
     <g id="text_18">
      <!-- Step 2-K -->
      <g transform="translate(1258.531384 730.928372)rotate(-45)scale(0.1 -0.1)">
       <use xlink:href="#DejaVuSans-83"/>
       <use x="63.476562" xlink:href="#DejaVuSans-116"/>
       <use x="102.685547" xlink:href="#DejaVuSans-101"/>
       <use x="164.208984" xlink:href="#DejaVuSans-112"/>
       <use x="227.685547" xlink:href="#DejaVuSans-32"/>
       <use x="259.472656" xlink:href="#DejaVuSans-50"/>
       <use x="323.095703" xlink:href="#DejaVuSans-45"/>
       <use x="359.179688" xlink:href="#DejaVuSans-75"/>
      </g>
     </g>
    </g>
    <g id="xtick_18">
     <g id="line2d_19">
      <g>
       <use style="stroke:#000000;stroke-width:0.8;" x="1361.399375" xlink:href="#m848c5b254b" y="688.52"/>
      </g>
     </g>
     <g id="text_19">
      <!-- Step 4-E -->
      <g transform="translate(1330.062391 730.759329)rotate(-45)scale(0.1 -0.1)">
       <use xlink:href="#DejaVuSans-83"/>
       <use x="63.476562" xlink:href="#DejaVuSans-116"/>
       <use x="102.685547" xlink:href="#DejaVuSans-101"/>
       <use x="164.208984" xlink:href="#DejaVuSans-112"/>
       <use x="227.685547" xlink:href="#DejaVuSans-32"/>
       <use x="259.472656" xlink:href="#DejaVuSans-52"/>
       <use x="323.095703" xlink:href="#DejaVuSans-45"/>
       <use x="359.179688" xlink:href="#DejaVuSans-69"/>
      </g>
     </g>
    </g>
    <g id="xtick_19">
     <g id="line2d_20">
      <g>
       <use style="stroke:#000000;stroke-width:0.8;" x="1432.761339" xlink:href="#m848c5b254b" y="688.52"/>
      </g>
     </g>
     <g id="text_20">
      <!-- Step 1-K -->
      <g transform="translate(1401.255313 730.928372)rotate(-45)scale(0.1 -0.1)">
       <use xlink:href="#DejaVuSans-83"/>
       <use x="63.476562" xlink:href="#DejaVuSans-116"/>
       <use x="102.685547" xlink:href="#DejaVuSans-101"/>
       <use x="164.208984" xlink:href="#DejaVuSans-112"/>
       <use x="227.685547" xlink:href="#DejaVuSans-32"/>
       <use x="259.472656" xlink:href="#DejaVuSans-49"/>
       <use x="323.095703" xlink:href="#DejaVuSans-45"/>
       <use x="359.179688" xlink:href="#DejaVuSans-75"/>
      </g>
     </g>
    </g>
    <g id="xtick_20">
     <g id="line2d_21">
      <g>
       <use style="stroke:#000000;stroke-width:0.8;" x="1504.123304" xlink:href="#m848c5b254b" y="688.52"/>
      </g>
     </g>
     <g id="text_21">
      <!-- Step 3-E -->
      <g transform="translate(1472.78632 730.759329)rotate(-45)scale(0.1 -0.1)">
       <use xlink:href="#DejaVuSans-83"/>
       <use x="63.476562" xlink:href="#DejaVuSans-116"/>
       <use x="102.685547" xlink:href="#DejaVuSans-101"/>
       <use x="164.208984" xlink:href="#DejaVuSans-112"/>
       <use x="227.685547" xlink:href="#DejaVuSans-32"/>
       <use x="259.472656" xlink:href="#DejaVuSans-51"/>
       <use x="323.095703" xlink:href="#DejaVuSans-45"/>
       <use x="359.179688" xlink:href="#DejaVuSans-69"/>
      </g>
     </g>
    </g>
    <g id="xtick_21">
     <g id="line2d_22">
      <g>
       <use style="stroke:#000000;stroke-width:0.8;" x="1575.485268" xlink:href="#m848c5b254b" y="688.52"/>
      </g>
     </g>
     <g id="text_22">
      <!-- Step 3-R -->
      <g transform="translate(1543.703028 731.204586)rotate(-45)scale(0.1 -0.1)">
       <use xlink:href="#DejaVuSans-83"/>
       <use x="63.476562" xlink:href="#DejaVuSans-116"/>
       <use x="102.685547" xlink:href="#DejaVuSans-101"/>
       <use x="164.208984" xlink:href="#DejaVuSans-112"/>
       <use x="227.685547" xlink:href="#DejaVuSans-32"/>
       <use x="259.472656" xlink:href="#DejaVuSans-51"/>
       <use x="323.095703" xlink:href="#DejaVuSans-45"/>
       <use x="359.179688" xlink:href="#DejaVuSans-82"/>
      </g>
     </g>
    </g>
    <g id="xtick_22">
     <g id="line2d_23">
      <g>
       <use style="stroke:#000000;stroke-width:0.8;" x="1646.847232" xlink:href="#m848c5b254b" y="688.52"/>
      </g>
     </g>
     <g id="text_23">
      <!-- Step 7-K -->
      <g transform="translate(1615.341206 730.928372)rotate(-45)scale(0.1 -0.1)">
       <use xlink:href="#DejaVuSans-83"/>
       <use x="63.476562" xlink:href="#DejaVuSans-116"/>
       <use x="102.685547" xlink:href="#DejaVuSans-101"/>
       <use x="164.208984" xlink:href="#DejaVuSans-112"/>
       <use x="227.685547" xlink:href="#DejaVuSans-32"/>
       <use x="259.472656" xlink:href="#DejaVuSans-55"/>
       <use x="323.095703" xlink:href="#DejaVuSans-45"/>
       <use x="359.179688" xlink:href="#DejaVuSans-75"/>
      </g>
     </g>
    </g>
    <g id="xtick_23">
     <g id="line2d_24">
      <g>
       <use style="stroke:#000000;stroke-width:0.8;" x="1718.209196" xlink:href="#m848c5b254b" y="688.52"/>
      </g>
     </g>
     <g id="text_24">
      <!-- Step 4-K -->
      <g transform="translate(1686.70317 730.928372)rotate(-45)scale(0.1 -0.1)">
       <use xlink:href="#DejaVuSans-83"/>
       <use x="63.476562" xlink:href="#DejaVuSans-116"/>
       <use x="102.685547" xlink:href="#DejaVuSans-101"/>
       <use x="164.208984" xlink:href="#DejaVuSans-112"/>
       <use x="227.685547" xlink:href="#DejaVuSans-32"/>
       <use x="259.472656" xlink:href="#DejaVuSans-52"/>
       <use x="323.095703" xlink:href="#DejaVuSans-45"/>
       <use x="359.179688" xlink:href="#DejaVuSans-75"/>
      </g>
     </g>
    </g>
    <g id="xtick_24">
     <g id="line2d_25">
      <g>
       <use style="stroke:#000000;stroke-width:0.8;" x="1789.571161" xlink:href="#m848c5b254b" y="688.52"/>
      </g>
     </g>
     <g id="text_25">
      <!-- Step 7-D -->
      <g transform="translate(1757.257486 731.736021)rotate(-45)scale(0.1 -0.1)">
       <use xlink:href="#DejaVuSans-83"/>
       <use x="63.476562" xlink:href="#DejaVuSans-116"/>
       <use x="102.685547" xlink:href="#DejaVuSans-101"/>
       <use x="164.208984" xlink:href="#DejaVuSans-112"/>
       <use x="227.685547" xlink:href="#DejaVuSans-32"/>
       <use x="259.472656" xlink:href="#DejaVuSans-55"/>
       <use x="323.095703" xlink:href="#DejaVuSans-45"/>
       <use x="359.179688" xlink:href="#DejaVuSans-68"/>
      </g>
     </g>
    </g>
    <g id="xtick_25">
     <g id="line2d_26">
      <g>
       <use style="stroke:#000000;stroke-width:0.8;" x="1860.933125" xlink:href="#m848c5b254b" y="688.52"/>
      </g>
     </g>
     <g id="text_26">
      <!-- Step 3-K -->
      <g transform="translate(1829.427098 730.928372)rotate(-45)scale(0.1 -0.1)">
       <use xlink:href="#DejaVuSans-83"/>
       <use x="63.476562" xlink:href="#DejaVuSans-116"/>
       <use x="102.685547" xlink:href="#DejaVuSans-101"/>
       <use x="164.208984" xlink:href="#DejaVuSans-112"/>
       <use x="227.685547" xlink:href="#DejaVuSans-32"/>
       <use x="259.472656" xlink:href="#DejaVuSans-51"/>
       <use x="323.095703" xlink:href="#DejaVuSans-45"/>
       <use x="359.179688" xlink:href="#DejaVuSans-75"/>
      </g>
     </g>
    </g>
    <g id="xtick_26">
     <g id="line2d_27">
      <g>
       <use style="stroke:#000000;stroke-width:0.8;" x="1932.295089" xlink:href="#m848c5b254b" y="688.52"/>
      </g>
     </g>
     <g id="text_27">
      <!-- Step 1-R -->
      <g transform="translate(1900.512849 731.204586)rotate(-45)scale(0.1 -0.1)">
       <use xlink:href="#DejaVuSans-83"/>
       <use x="63.476562" xlink:href="#DejaVuSans-116"/>
       <use x="102.685547" xlink:href="#DejaVuSans-101"/>
       <use x="164.208984" xlink:href="#DejaVuSans-112"/>
       <use x="227.685547" xlink:href="#DejaVuSans-32"/>
       <use x="259.472656" xlink:href="#DejaVuSans-49"/>
       <use x="323.095703" xlink:href="#DejaVuSans-45"/>
       <use x="359.179688" xlink:href="#DejaVuSans-82"/>
      </g>
     </g>
    </g>
    <g id="xtick_27">
     <g id="line2d_28">
      <g>
       <use style="stroke:#000000;stroke-width:0.8;" x="2003.657054" xlink:href="#m848c5b254b" y="688.52"/>
      </g>
     </g>
     <g id="text_28">
      <!-- Step 4-R -->
      <g transform="translate(1971.874813 731.204586)rotate(-45)scale(0.1 -0.1)">
       <use xlink:href="#DejaVuSans-83"/>
       <use x="63.476562" xlink:href="#DejaVuSans-116"/>
       <use x="102.685547" xlink:href="#DejaVuSans-101"/>
       <use x="164.208984" xlink:href="#DejaVuSans-112"/>
       <use x="227.685547" xlink:href="#DejaVuSans-32"/>
       <use x="259.472656" xlink:href="#DejaVuSans-52"/>
       <use x="323.095703" xlink:href="#DejaVuSans-45"/>
       <use x="359.179688" xlink:href="#DejaVuSans-82"/>
      </g>
     </g>
    </g>
    <g id="xtick_28">
     <g id="line2d_29">
      <g>
       <use style="stroke:#000000;stroke-width:0.8;" x="2075.019018" xlink:href="#m848c5b254b" y="688.52"/>
      </g>
     </g>
     <g id="text_29">
      <!-- Step 7-E -->
      <g transform="translate(2043.682034 730.759329)rotate(-45)scale(0.1 -0.1)">
       <use xlink:href="#DejaVuSans-83"/>
       <use x="63.476562" xlink:href="#DejaVuSans-116"/>
       <use x="102.685547" xlink:href="#DejaVuSans-101"/>
       <use x="164.208984" xlink:href="#DejaVuSans-112"/>
       <use x="227.685547" xlink:href="#DejaVuSans-32"/>
       <use x="259.472656" xlink:href="#DejaVuSans-55"/>
       <use x="323.095703" xlink:href="#DejaVuSans-45"/>
       <use x="359.179688" xlink:href="#DejaVuSans-69"/>
      </g>
     </g>
    </g>
   </g>
   <g id="matplotlib.axis_4">
    <g id="ytick_2">
     <g id="line2d_30">
      <g>
       <use style="stroke:#000000;stroke-width:0.8;" x="2110.7" xlink:href="#m6aca61c7ab" y="195.785862"/>
      </g>
     </g>
     <g id="text_30">
      <!-- Membranes R -->
      <g transform="translate(2125.298438 260.922581)rotate(-90)scale(0.1 -0.1)">
       <defs>
        <path d="M 9.8125 72.90625 
L 24.515625 72.90625 
L 43.109375 23.296875 
L 61.8125 72.90625 
L 76.515625 72.90625 
L 76.515625 0 
L 66.890625 0 
L 66.890625 64.015625 
L 48.09375 14.015625 
L 38.1875 14.015625 
L 19.390625 64.015625 
L 19.390625 0 
L 9.8125 0 
z
" id="DejaVuSans-77"/>
        <path d="M 52 44.1875 
Q 55.375 50.25 60.0625 53.125 
Q 64.75 56 71.09375 56 
Q 79.640625 56 84.28125 50.015625 
Q 88.921875 44.046875 88.921875 33.015625 
L 88.921875 0 
L 79.890625 0 
L 79.890625 32.71875 
Q 79.890625 40.578125 77.09375 44.375 
Q 74.3125 48.1875 68.609375 48.1875 
Q 61.625 48.1875 57.5625 43.546875 
Q 53.515625 38.921875 53.515625 30.90625 
L 53.515625 0 
L 44.484375 0 
L 44.484375 32.71875 
Q 44.484375 40.625 41.703125 44.40625 
Q 38.921875 48.1875 33.109375 48.1875 
Q 26.21875 48.1875 22.15625 43.53125 
Q 18.109375 38.875 18.109375 30.90625 
L 18.109375 0 
L 9.078125 0 
L 9.078125 54.6875 
L 18.109375 54.6875 
L 18.109375 46.1875 
Q 21.1875 51.21875 25.484375 53.609375 
Q 29.78125 56 35.6875 56 
Q 41.65625 56 45.828125 52.96875 
Q 50 49.953125 52 44.1875 
z
" id="DejaVuSans-109"/>
        <path d="M 48.6875 27.296875 
Q 48.6875 37.203125 44.609375 42.84375 
Q 40.53125 48.484375 33.40625 48.484375 
Q 26.265625 48.484375 22.1875 42.84375 
Q 18.109375 37.203125 18.109375 27.296875 
Q 18.109375 17.390625 22.1875 11.75 
Q 26.265625 6.109375 33.40625 6.109375 
Q 40.53125 6.109375 44.609375 11.75 
Q 48.6875 17.390625 48.6875 27.296875 
z
M 18.109375 46.390625 
Q 20.953125 51.265625 25.265625 53.625 
Q 29.59375 56 35.59375 56 
Q 45.5625 56 51.78125 48.09375 
Q 58.015625 40.1875 58.015625 27.296875 
Q 58.015625 14.40625 51.78125 6.484375 
Q 45.5625 -1.421875 35.59375 -1.421875 
Q 29.59375 -1.421875 25.265625 0.953125 
Q 20.953125 3.328125 18.109375 8.203125 
L 18.109375 0 
L 9.078125 0 
L 9.078125 75.984375 
L 18.109375 75.984375 
z
" id="DejaVuSans-98"/>
        <path d="M 41.109375 46.296875 
Q 39.59375 47.171875 37.8125 47.578125 
Q 36.03125 48 33.890625 48 
Q 26.265625 48 22.1875 43.046875 
Q 18.109375 38.09375 18.109375 28.8125 
L 18.109375 0 
L 9.078125 0 
L 9.078125 54.6875 
L 18.109375 54.6875 
L 18.109375 46.1875 
Q 20.953125 51.171875 25.484375 53.578125 
Q 30.03125 56 36.53125 56 
Q 37.453125 56 38.578125 55.875 
Q 39.703125 55.765625 41.0625 55.515625 
z
" id="DejaVuSans-114"/>
        <path d="M 34.28125 27.484375 
Q 23.390625 27.484375 19.1875 25 
Q 14.984375 22.515625 14.984375 16.5 
Q 14.984375 11.71875 18.140625 8.90625 
Q 21.296875 6.109375 26.703125 6.109375 
Q 34.1875 6.109375 38.703125 11.40625 
Q 43.21875 16.703125 43.21875 25.484375 
L 43.21875 27.484375 
z
M 52.203125 31.203125 
L 52.203125 0 
L 43.21875 0 
L 43.21875 8.296875 
Q 40.140625 3.328125 35.546875 0.953125 
Q 30.953125 -1.421875 24.3125 -1.421875 
Q 15.921875 -1.421875 10.953125 3.296875 
Q 6 8.015625 6 15.921875 
Q 6 25.140625 12.171875 29.828125 
Q 18.359375 34.515625 30.609375 34.515625 
L 43.21875 34.515625 
L 43.21875 35.40625 
Q 43.21875 41.609375 39.140625 45 
Q 35.0625 48.390625 27.6875 48.390625 
Q 23 48.390625 18.546875 47.265625 
Q 14.109375 46.140625 10.015625 43.890625 
L 10.015625 52.203125 
Q 14.9375 54.109375 19.578125 55.046875 
Q 24.21875 56 28.609375 56 
Q 40.484375 56 46.34375 49.84375 
Q 52.203125 43.703125 52.203125 31.203125 
z
" id="DejaVuSans-97"/>
        <path d="M 54.890625 33.015625 
L 54.890625 0 
L 45.90625 0 
L 45.90625 32.71875 
Q 45.90625 40.484375 42.875 44.328125 
Q 39.84375 48.1875 33.796875 48.1875 
Q 26.515625 48.1875 22.3125 43.546875 
Q 18.109375 38.921875 18.109375 30.90625 
L 18.109375 0 
L 9.078125 0 
L 9.078125 54.6875 
L 18.109375 54.6875 
L 18.109375 46.1875 
Q 21.34375 51.125 25.703125 53.5625 
Q 30.078125 56 35.796875 56 
Q 45.21875 56 50.046875 50.171875 
Q 54.890625 44.34375 54.890625 33.015625 
z
" id="DejaVuSans-110"/>
       </defs>
       <use xlink:href="#DejaVuSans-77"/>
       <use x="86.279297" xlink:href="#DejaVuSans-101"/>
       <use x="147.802734" xlink:href="#DejaVuSans-109"/>
       <use x="245.214844" xlink:href="#DejaVuSans-98"/>
       <use x="308.691406" xlink:href="#DejaVuSans-114"/>
       <use x="349.804688" xlink:href="#DejaVuSans-97"/>
       <use x="411.083984" xlink:href="#DejaVuSans-110"/>
       <use x="474.462891" xlink:href="#DejaVuSans-101"/>
       <use x="535.986328" xlink:href="#DejaVuSans-115"/>
       <use x="588.085938" xlink:href="#DejaVuSans-32"/>
       <use x="619.873047" xlink:href="#DejaVuSans-82"/>
      </g>
     </g>
    </g>
    <g id="ytick_3">
     <g id="line2d_31">
      <g>
       <use style="stroke:#000000;stroke-width:0.8;" x="2110.7" xlink:href="#m6aca61c7ab" y="336.567044"/>
      </g>
     </g>
     <g id="text_31">
      <!-- Membranes K -->
      <g transform="translate(2125.298438 401.313138)rotate(-90)scale(0.1 -0.1)">
       <use xlink:href="#DejaVuSans-77"/>
       <use x="86.279297" xlink:href="#DejaVuSans-101"/>
       <use x="147.802734" xlink:href="#DejaVuSans-109"/>
       <use x="245.214844" xlink:href="#DejaVuSans-98"/>
       <use x="308.691406" xlink:href="#DejaVuSans-114"/>
       <use x="349.804688" xlink:href="#DejaVuSans-97"/>
       <use x="411.083984" xlink:href="#DejaVuSans-110"/>
       <use x="474.462891" xlink:href="#DejaVuSans-101"/>
       <use x="535.986328" xlink:href="#DejaVuSans-115"/>
       <use x="588.085938" xlink:href="#DejaVuSans-32"/>
       <use x="619.873047" xlink:href="#DejaVuSans-75"/>
      </g>
     </g>
    </g>
    <g id="ytick_4">
     <g id="line2d_32">
      <g>
       <use style="stroke:#000000;stroke-width:0.8;" x="2110.7" xlink:href="#m6aca61c7ab" y="477.348226"/>
      </g>
     </g>
     <g id="text_32">
      <!-- Membranes E -->
      <g transform="translate(2125.298438 541.855258)rotate(-90)scale(0.1 -0.1)">
       <use xlink:href="#DejaVuSans-77"/>
       <use x="86.279297" xlink:href="#DejaVuSans-101"/>
       <use x="147.802734" xlink:href="#DejaVuSans-109"/>
       <use x="245.214844" xlink:href="#DejaVuSans-98"/>
       <use x="308.691406" xlink:href="#DejaVuSans-114"/>
       <use x="349.804688" xlink:href="#DejaVuSans-97"/>
       <use x="411.083984" xlink:href="#DejaVuSans-110"/>
       <use x="474.462891" xlink:href="#DejaVuSans-101"/>
       <use x="535.986328" xlink:href="#DejaVuSans-115"/>
       <use x="588.085938" xlink:href="#DejaVuSans-32"/>
       <use x="619.873047" xlink:href="#DejaVuSans-69"/>
      </g>
     </g>
    </g>
    <g id="ytick_5">
     <g id="line2d_33">
      <g>
       <use style="stroke:#000000;stroke-width:0.8;" x="2110.7" xlink:href="#m6aca61c7ab" y="618.129409"/>
      </g>
     </g>
     <g id="text_33">
      <!-- Membranes D -->
      <g transform="translate(2125.298438 684.01769)rotate(-90)scale(0.1 -0.1)">
       <use xlink:href="#DejaVuSans-77"/>
       <use x="86.279297" xlink:href="#DejaVuSans-101"/>
       <use x="147.802734" xlink:href="#DejaVuSans-109"/>
       <use x="245.214844" xlink:href="#DejaVuSans-98"/>
       <use x="308.691406" xlink:href="#DejaVuSans-114"/>
       <use x="349.804688" xlink:href="#DejaVuSans-97"/>
       <use x="411.083984" xlink:href="#DejaVuSans-110"/>
       <use x="474.462891" xlink:href="#DejaVuSans-101"/>
       <use x="535.986328" xlink:href="#DejaVuSans-115"/>
       <use x="588.085938" xlink:href="#DejaVuSans-32"/>
       <use x="619.873047" xlink:href="#DejaVuSans-68"/>
      </g>
     </g>
    </g>
   </g>
  </g>
 </g>
 <defs>
  <clipPath id="p31a6f07b2e">
   <rect height="563.124729" width="105.165" x="7.2" y="125.395271"/>
  </clipPath>
  <clipPath id="p51c1a1cfe5">
   <rect height="101.769529" width="1998.135" x="112.565" y="7.2"/>
  </clipPath>
  <clipPath id="p2b12f7c547">
   <rect height="13.569271" width="1998.135" x="112.565" y="110.397765"/>
  </clipPath>
  <clipPath id="pcdd5391032">
   <rect height="563.124729" width="1998.135" x="112.565" y="125.395271"/>
  </clipPath>
 </defs>
</svg>
