<?xml version="1.0" encoding="utf-8" standalone="no"?>
<!DOCTYPE svg PUBLIC "-//W3C//DTD SVG 1.1//EN"
  "http://www.w3.org/Graphics/SVG/1.1/DTD/svg11.dtd">
<!-- Created with matplotlib (https://matplotlib.org/) -->
<svg height="407.631214pt" version="1.1" viewBox="0 0 2144.1625 407.631214" width="2144.1625pt" xmlns="http://www.w3.org/2000/svg" xmlns:xlink="http://www.w3.org/1999/xlink">
 <metadata>
  <rdf:RDF xmlns:cc="http://creativecommons.org/ns#" xmlns:dc="http://purl.org/dc/elements/1.1/" xmlns:rdf="http://www.w3.org/1999/02/22-rdf-syntax-ns#">
   <cc:Work>
    <dc:type rdf:resource="http://purl.org/dc/dcmitype/StillImage"/>
    <dc:date>2021-01-14T12:43:44.790246</dc:date>
    <dc:format>image/svg+xml</dc:format>
    <dc:creator>
     <cc:Agent>
      <dc:title>Matplotlib v3.3.2, https://matplotlib.org/</dc:title>
     </cc:Agent>
    </dc:creator>
   </cc:Work>
  </rdf:RDF>
 </metadata>
 <defs>
  <style type="text/css">*{stroke-linecap:butt;stroke-linejoin:round;}</style>
 </defs>
 <g id="figure_1">
  <g id="patch_1">
   <path d="M 0 407.631214 
L 2144.1625 407.631214 
L 2144.1625 0 
L 0 0 
z
" style="fill:#ffffff;"/>
  </g>
  <g id="axes_1">
   <g id="LineCollection_1">
    <path clip-path="url(#p12f2e92bba)" d="M 108.446 106.65764 
L 32.106536 106.65764 
L 32.106536 173.518314 
L 108.446 173.518314 
" style="fill:none;stroke:#333333;stroke-width:0.5;"/>
    <path clip-path="url(#p12f2e92bba)" d="M 108.446 240.378988 
L 27.997929 240.378988 
L 27.997929 307.239663 
L 108.446 307.239663 
" style="fill:none;stroke:#333333;stroke-width:0.5;"/>
    <path clip-path="url(#p12f2e92bba)" d="M 32.106536 140.087977 
L 12.021238 140.087977 
L 12.021238 273.809326 
L 27.997929 273.809326 
" style="fill:none;stroke:#333333;stroke-width:0.5;"/>
   </g>
  </g>
  <g id="axes_2">
   <g id="LineCollection_2">
    <path clip-path="url(#p06b86aa47d)" d="M 198.898219 55.533018 
L 198.898219 50.230813 
L 259.013031 50.230813 
L 259.013031 55.533018 
" style="fill:none;stroke:#333333;stroke-width:0.5;"/>
    <path clip-path="url(#p06b86aa47d)" d="M 138.783406 55.533018 
L 138.783406 47.752033 
L 228.955625 47.752033 
L 228.955625 50.230813 
" style="fill:none;stroke:#333333;stroke-width:0.5;"/>
    <path clip-path="url(#p06b86aa47d)" d="M 319.127844 55.533018 
L 319.127844 46.065298 
L 379.242656 46.065298 
L 379.242656 55.533018 
" style="fill:none;stroke:#333333;stroke-width:0.5;"/>
    <path clip-path="url(#p06b86aa47d)" d="M 183.869516 47.752033 
L 183.869516 37.265545 
L 349.18525 37.265545 
L 349.18525 46.065298 
" style="fill:none;stroke:#333333;stroke-width:0.5;"/>
    <path clip-path="url(#p06b86aa47d)" d="M 499.472281 55.533018 
L 499.472281 45.09642 
L 559.587094 45.09642 
L 559.587094 55.533018 
" style="fill:none;stroke:#333333;stroke-width:0.5;"/>
    <path clip-path="url(#p06b86aa47d)" d="M 439.357469 55.533018 
L 439.357469 34.233024 
L 529.529688 34.233024 
L 529.529688 45.09642 
" style="fill:none;stroke:#333333;stroke-width:0.5;"/>
    <path clip-path="url(#p06b86aa47d)" d="M 266.527383 37.265545 
L 266.527383 25.911236 
L 484.443578 25.911236 
L 484.443578 34.233024 
" style="fill:none;stroke:#333333;stroke-width:0.5;"/>
    <path clip-path="url(#p06b86aa47d)" d="M 739.931531 55.533018 
L 739.931531 49.270682 
L 800.046344 49.270682 
L 800.046344 55.533018 
" style="fill:none;stroke:#333333;stroke-width:0.5;"/>
    <path clip-path="url(#p06b86aa47d)" d="M 679.816719 55.533018 
L 679.816719 47.01182 
L 769.988938 47.01182 
L 769.988938 49.270682 
" style="fill:none;stroke:#333333;stroke-width:0.5;"/>
    <path clip-path="url(#p06b86aa47d)" d="M 619.701906 55.533018 
L 619.701906 41.858228 
L 724.902828 41.858228 
L 724.902828 47.01182 
" style="fill:none;stroke:#333333;stroke-width:0.5;"/>
    <path clip-path="url(#p06b86aa47d)" d="M 860.161156 55.533018 
L 860.161156 46.54656 
L 920.275969 46.54656 
L 920.275969 55.533018 
" style="fill:none;stroke:#333333;stroke-width:0.5;"/>
    <path clip-path="url(#p06b86aa47d)" d="M 1040.505594 55.533018 
L 1040.505594 49.724814 
L 1100.620406 49.724814 
L 1100.620406 55.533018 
" style="fill:none;stroke:#333333;stroke-width:0.5;"/>
    <path clip-path="url(#p06b86aa47d)" d="M 980.390781 55.533018 
L 980.390781 43.81237 
L 1070.563 43.81237 
L 1070.563 49.724814 
" style="fill:none;stroke:#333333;stroke-width:0.5;"/>
    <path clip-path="url(#p06b86aa47d)" d="M 890.218563 46.54656 
L 890.218563 38.416185 
L 1025.476891 38.416185 
L 1025.476891 43.81237 
" style="fill:none;stroke:#333333;stroke-width:0.5;"/>
    <path clip-path="url(#p06b86aa47d)" d="M 672.302367 41.858228 
L 672.302367 33.596679 
L 957.847727 33.596679 
L 957.847727 38.416185 
" style="fill:none;stroke:#333333;stroke-width:0.5;"/>
    <path clip-path="url(#p06b86aa47d)" d="M 1341.079656 55.533018 
L 1341.079656 48.577563 
L 1401.194469 48.577563 
L 1401.194469 55.533018 
" style="fill:none;stroke:#333333;stroke-width:0.5;"/>
    <path clip-path="url(#p06b86aa47d)" d="M 1280.964844 55.533018 
L 1280.964844 44.348186 
L 1371.137063 44.348186 
L 1371.137063 48.577563 
" style="fill:none;stroke:#333333;stroke-width:0.5;"/>
    <path clip-path="url(#p06b86aa47d)" d="M 1220.850031 55.533018 
L 1220.850031 37.2265 
L 1326.050953 37.2265 
L 1326.050953 44.348186 
" style="fill:none;stroke:#333333;stroke-width:0.5;"/>
    <path clip-path="url(#p06b86aa47d)" d="M 1461.309281 55.533018 
L 1461.309281 48.908947 
L 1521.424094 48.908947 
L 1521.424094 55.533018 
" style="fill:none;stroke:#333333;stroke-width:0.5;"/>
    <path clip-path="url(#p06b86aa47d)" d="M 1581.538906 55.533018 
L 1581.538906 52.17875 
L 1641.653719 52.17875 
L 1641.653719 55.533018 
" style="fill:none;stroke:#333333;stroke-width:0.5;"/>
    <path clip-path="url(#p06b86aa47d)" d="M 1701.768531 55.533018 
L 1701.768531 51.463242 
L 1761.883344 51.463242 
L 1761.883344 55.533018 
" style="fill:none;stroke:#333333;stroke-width:0.5;"/>
    <path clip-path="url(#p06b86aa47d)" d="M 1611.596313 52.17875 
L 1611.596313 47.580098 
L 1731.825938 47.580098 
L 1731.825938 51.463242 
" style="fill:none;stroke:#333333;stroke-width:0.5;"/>
    <path clip-path="url(#p06b86aa47d)" d="M 1491.366688 48.908947 
L 1491.366688 41.828377 
L 1671.711125 41.828377 
L 1671.711125 47.580098 
" style="fill:none;stroke:#333333;stroke-width:0.5;"/>
    <path clip-path="url(#p06b86aa47d)" d="M 1942.227781 55.533018 
L 1942.227781 54.093328 
L 2002.342594 54.093328 
L 2002.342594 55.533018 
" style="fill:none;stroke:#333333;stroke-width:0.5;"/>
    <path clip-path="url(#p06b86aa47d)" d="M 1882.112969 55.533018 
L 1882.112969 49.174105 
L 1972.285188 49.174105 
L 1972.285188 54.093328 
" style="fill:none;stroke:#333333;stroke-width:0.5;"/>
    <path clip-path="url(#p06b86aa47d)" d="M 1821.998156 55.533018 
L 1821.998156 39.524851 
L 1927.199078 39.524851 
L 1927.199078 49.174105 
" style="fill:none;stroke:#333333;stroke-width:0.5;"/>
    <path clip-path="url(#p06b86aa47d)" d="M 1581.538906 41.828377 
L 1581.538906 35.068758 
L 1874.598617 35.068758 
L 1874.598617 39.524851 
" style="fill:none;stroke:#333333;stroke-width:0.5;"/>
    <path clip-path="url(#p06b86aa47d)" d="M 1273.450492 37.2265 
L 1273.450492 31.035618 
L 1728.068762 31.035618 
L 1728.068762 35.068758 
" style="fill:none;stroke:#333333;stroke-width:0.5;"/>
    <path clip-path="url(#p06b86aa47d)" d="M 1160.735219 55.533018 
L 1160.735219 23.883129 
L 1500.759627 23.883129 
L 1500.759627 31.035618 
" style="fill:none;stroke:#333333;stroke-width:0.5;"/>
    <path clip-path="url(#p06b86aa47d)" d="M 815.075047 33.596679 
L 815.075047 18.043525 
L 1330.747423 18.043525 
L 1330.747423 23.883129 
" style="fill:none;stroke:#333333;stroke-width:0.5;"/>
    <path clip-path="url(#p06b86aa47d)" d="M 375.48548 25.911236 
L 375.48548 9.501572 
L 1072.911235 9.501572 
L 1072.911235 18.043525 
" style="fill:none;stroke:#333333;stroke-width:0.5;"/>
   </g>
  </g>
  <g id="axes_3">
   <g id="patch_2">
    <path d="M 108.726 67.602361 
L 2032.4 67.602361 
L 2032.4 61.157959 
L 108.726 61.157959 
z
" style="fill:#ffffff;"/>
   </g>
   <g id="QuadMesh_1">
    <path clip-path="url(#paef4f0f6d2)" d="M 108.726 61.157959 
L 168.840813 61.157959 
L 168.840813 67.602361 
L 108.726 67.602361 
L 108.726 61.157959 
" style="fill:#35b779;stroke:#ffffff;stroke-width:0.75;"/>
    <path clip-path="url(#paef4f0f6d2)" d="M 168.840813 61.157959 
L 228.955625 61.157959 
L 228.955625 67.602361 
L 168.840813 67.602361 
L 168.840813 61.157959 
" style="fill:#26828e;stroke:#ffffff;stroke-width:0.75;"/>
    <path clip-path="url(#paef4f0f6d2)" d="M 228.955625 61.157959 
L 289.070438 61.157959 
L 289.070438 67.602361 
L 228.955625 67.602361 
L 228.955625 61.157959 
" style="fill:#35b779;stroke:#ffffff;stroke-width:0.75;"/>
    <path clip-path="url(#paef4f0f6d2)" d="M 289.070438 61.157959 
L 349.18525 61.157959 
L 349.18525 67.602361 
L 289.070438 67.602361 
L 289.070438 61.157959 
" style="fill:#35b779;stroke:#ffffff;stroke-width:0.75;"/>
    <path clip-path="url(#paef4f0f6d2)" d="M 349.18525 61.157959 
L 409.300063 61.157959 
L 409.300063 67.602361 
L 349.18525 67.602361 
L 349.18525 61.157959 
" style="fill:#3e4989;stroke:#ffffff;stroke-width:0.75;"/>
    <path clip-path="url(#paef4f0f6d2)" d="M 409.300063 61.157959 
L 469.414875 61.157959 
L 469.414875 67.602361 
L 409.300063 67.602361 
L 409.300063 61.157959 
" style="fill:#6ece58;stroke:#ffffff;stroke-width:0.75;"/>
    <path clip-path="url(#paef4f0f6d2)" d="M 469.414875 61.157959 
L 529.529688 61.157959 
L 529.529688 67.602361 
L 469.414875 67.602361 
L 469.414875 61.157959 
" style="fill:#26828e;stroke:#ffffff;stroke-width:0.75;"/>
    <path clip-path="url(#paef4f0f6d2)" d="M 529.529688 61.157959 
L 589.6445 61.157959 
L 589.6445 67.602361 
L 529.529688 67.602361 
L 529.529688 61.157959 
" style="fill:#35b779;stroke:#ffffff;stroke-width:0.75;"/>
    <path clip-path="url(#paef4f0f6d2)" d="M 589.6445 61.157959 
L 649.759313 61.157959 
L 649.759313 67.602361 
L 589.6445 67.602361 
L 589.6445 61.157959 
" style="fill:#1f9e89;stroke:#ffffff;stroke-width:0.75;"/>
    <path clip-path="url(#paef4f0f6d2)" d="M 649.759313 61.157959 
L 709.874125 61.157959 
L 709.874125 67.602361 
L 649.759313 67.602361 
L 649.759313 61.157959 
" style="fill:#31688e;stroke:#ffffff;stroke-width:0.75;"/>
    <path clip-path="url(#paef4f0f6d2)" d="M 709.874125 61.157959 
L 769.988938 61.157959 
L 769.988938 67.602361 
L 709.874125 67.602361 
L 709.874125 61.157959 
" style="fill:#482878;stroke:#ffffff;stroke-width:0.75;"/>
    <path clip-path="url(#paef4f0f6d2)" d="M 769.988938 61.157959 
L 830.10375 61.157959 
L 830.10375 67.602361 
L 769.988938 67.602361 
L 769.988938 61.157959 
" style="fill:#1f9e89;stroke:#ffffff;stroke-width:0.75;"/>
    <path clip-path="url(#paef4f0f6d2)" d="M 830.10375 61.157959 
L 890.218563 61.157959 
L 890.218563 67.602361 
L 830.10375 67.602361 
L 830.10375 61.157959 
" style="fill:#b5de2b;stroke:#ffffff;stroke-width:0.75;"/>
    <path clip-path="url(#paef4f0f6d2)" d="M 890.218563 61.157959 
L 950.333375 61.157959 
L 950.333375 67.602361 
L 890.218563 67.602361 
L 890.218563 61.157959 
" style="fill:#1f9e89;stroke:#ffffff;stroke-width:0.75;"/>
    <path clip-path="url(#paef4f0f6d2)" d="M 950.333375 61.157959 
L 1010.448188 61.157959 
L 1010.448188 67.602361 
L 950.333375 67.602361 
L 950.333375 61.157959 
" style="fill:#b5de2b;stroke:#ffffff;stroke-width:0.75;"/>
    <path clip-path="url(#paef4f0f6d2)" d="M 1010.448188 61.157959 
L 1070.563 61.157959 
L 1070.563 67.602361 
L 1010.448188 67.602361 
L 1010.448188 61.157959 
" style="fill:#26828e;stroke:#ffffff;stroke-width:0.75;"/>
    <path clip-path="url(#paef4f0f6d2)" d="M 1070.563 61.157959 
L 1130.677813 61.157959 
L 1130.677813 67.602361 
L 1070.563 67.602361 
L 1070.563 61.157959 
" style="fill:#6ece58;stroke:#ffffff;stroke-width:0.75;"/>
    <path clip-path="url(#paef4f0f6d2)" d="M 1130.677813 61.157959 
L 1190.792625 61.157959 
L 1190.792625 67.602361 
L 1130.677813 67.602361 
L 1130.677813 61.157959 
" style="fill:#1f9e89;stroke:#ffffff;stroke-width:0.75;"/>
    <path clip-path="url(#paef4f0f6d2)" d="M 1190.792625 61.157959 
L 1250.907438 61.157959 
L 1250.907438 67.602361 
L 1190.792625 67.602361 
L 1190.792625 61.157959 
" style="fill:#482878;stroke:#ffffff;stroke-width:0.75;"/>
    <path clip-path="url(#paef4f0f6d2)" d="M 1250.907438 61.157959 
L 1311.02225 61.157959 
L 1311.02225 67.602361 
L 1250.907438 67.602361 
L 1250.907438 61.157959 
" style="fill:#482878;stroke:#ffffff;stroke-width:0.75;"/>
    <path clip-path="url(#paef4f0f6d2)" d="M 1311.02225 61.157959 
L 1371.137063 61.157959 
L 1371.137063 67.602361 
L 1311.02225 67.602361 
L 1311.02225 61.157959 
" style="fill:#3e4989;stroke:#ffffff;stroke-width:0.75;"/>
    <path clip-path="url(#paef4f0f6d2)" d="M 1371.137063 61.157959 
L 1431.251875 61.157959 
L 1431.251875 67.602361 
L 1371.137063 67.602361 
L 1371.137063 61.157959 
" style="fill:#b5de2b;stroke:#ffffff;stroke-width:0.75;"/>
    <path clip-path="url(#paef4f0f6d2)" d="M 1431.251875 61.157959 
L 1491.366688 61.157959 
L 1491.366688 67.602361 
L 1431.251875 67.602361 
L 1431.251875 61.157959 
" style="fill:#3e4989;stroke:#ffffff;stroke-width:0.75;"/>
    <path clip-path="url(#paef4f0f6d2)" d="M 1491.366688 61.157959 
L 1551.4815 61.157959 
L 1551.4815 67.602361 
L 1491.366688 67.602361 
L 1491.366688 61.157959 
" style="fill:#31688e;stroke:#ffffff;stroke-width:0.75;"/>
    <path clip-path="url(#paef4f0f6d2)" d="M 1551.4815 61.157959 
L 1611.596313 61.157959 
L 1611.596313 67.602361 
L 1551.4815 67.602361 
L 1551.4815 61.157959 
" style="fill:#26828e;stroke:#ffffff;stroke-width:0.75;"/>
    <path clip-path="url(#paef4f0f6d2)" d="M 1611.596313 61.157959 
L 1671.711125 61.157959 
L 1671.711125 67.602361 
L 1611.596313 67.602361 
L 1611.596313 61.157959 
" style="fill:#482878;stroke:#ffffff;stroke-width:0.75;"/>
    <path clip-path="url(#paef4f0f6d2)" d="M 1671.711125 61.157959 
L 1731.825938 61.157959 
L 1731.825938 67.602361 
L 1671.711125 67.602361 
L 1671.711125 61.157959 
" style="fill:#6ece58;stroke:#ffffff;stroke-width:0.75;"/>
    <path clip-path="url(#paef4f0f6d2)" d="M 1731.825938 61.157959 
L 1791.94075 61.157959 
L 1791.94075 67.602361 
L 1731.825938 67.602361 
L 1731.825938 61.157959 
" style="fill:#3e4989;stroke:#ffffff;stroke-width:0.75;"/>
    <path clip-path="url(#paef4f0f6d2)" d="M 1791.94075 61.157959 
L 1852.055563 61.157959 
L 1852.055563 67.602361 
L 1791.94075 67.602361 
L 1791.94075 61.157959 
" style="fill:#6ece58;stroke:#ffffff;stroke-width:0.75;"/>
    <path clip-path="url(#paef4f0f6d2)" d="M 1852.055563 61.157959 
L 1912.170375 61.157959 
L 1912.170375 67.602361 
L 1852.055563 67.602361 
L 1852.055563 61.157959 
" style="fill:#31688e;stroke:#ffffff;stroke-width:0.75;"/>
    <path clip-path="url(#paef4f0f6d2)" d="M 1912.170375 61.157959 
L 1972.285188 61.157959 
L 1972.285188 67.602361 
L 1912.170375 67.602361 
L 1912.170375 61.157959 
" style="fill:#31688e;stroke:#ffffff;stroke-width:0.75;"/>
    <path clip-path="url(#paef4f0f6d2)" d="M 1972.285188 61.157959 
L 2032.4 61.157959 
L 2032.4 67.602361 
L 1972.285188 67.602361 
L 1972.285188 61.157959 
" style="fill:#b5de2b;stroke:#ffffff;stroke-width:0.75;"/>
   </g>
   <g id="matplotlib.axis_1"/>
   <g id="matplotlib.axis_2">
    <g id="ytick_1">
     <g id="line2d_1">
      <defs>
       <path d="M 0 0 
L 3.5 0 
" id="m81139a2955" style="stroke:#000000;stroke-width:0.8;"/>
      </defs>
      <g>
       <use style="stroke:#000000;stroke-width:0.8;" x="2032.4" xlink:href="#m81139a2955" y="64.38016"/>
      </g>
     </g>
     <g id="text_1">
      <!-- Steps -->
      <g transform="translate(2039.4 69.699066)scale(0.14 -0.14)">
       <defs>
        <path d="M 53.515625 70.515625 
L 53.515625 60.890625 
Q 47.90625 63.578125 42.921875 64.890625 
Q 37.9375 66.21875 33.296875 66.21875 
Q 25.25 66.21875 20.875 63.09375 
Q 16.5 59.96875 16.5 54.203125 
Q 16.5 49.359375 19.40625 46.890625 
Q 22.3125 44.4375 30.421875 42.921875 
L 36.375 41.703125 
Q 47.40625 39.59375 52.65625 34.296875 
Q 57.90625 29 57.90625 20.125 
Q 57.90625 9.515625 50.796875 4.046875 
Q 43.703125 -1.421875 29.984375 -1.421875 
Q 24.8125 -1.421875 18.96875 -0.25 
Q 13.140625 0.921875 6.890625 3.21875 
L 6.890625 13.375 
Q 12.890625 10.015625 18.65625 8.296875 
Q 24.421875 6.59375 29.984375 6.59375 
Q 38.421875 6.59375 43.015625 9.90625 
Q 47.609375 13.234375 47.609375 19.390625 
Q 47.609375 24.75 44.3125 27.78125 
Q 41.015625 30.8125 33.5 32.328125 
L 27.484375 33.5 
Q 16.453125 35.6875 11.515625 40.375 
Q 6.59375 45.0625 6.59375 53.421875 
Q 6.59375 63.09375 13.40625 68.65625 
Q 20.21875 74.21875 32.171875 74.21875 
Q 37.3125 74.21875 42.625 73.28125 
Q 47.953125 72.359375 53.515625 70.515625 
z
" id="DejaVuSans-83"/>
        <path d="M 18.3125 70.21875 
L 18.3125 54.6875 
L 36.8125 54.6875 
L 36.8125 47.703125 
L 18.3125 47.703125 
L 18.3125 18.015625 
Q 18.3125 11.328125 20.140625 9.421875 
Q 21.96875 7.515625 27.59375 7.515625 
L 36.8125 7.515625 
L 36.8125 0 
L 27.59375 0 
Q 17.1875 0 13.234375 3.875 
Q 9.28125 7.765625 9.28125 18.015625 
L 9.28125 47.703125 
L 2.6875 47.703125 
L 2.6875 54.6875 
L 9.28125 54.6875 
L 9.28125 70.21875 
z
" id="DejaVuSans-116"/>
        <path d="M 56.203125 29.59375 
L 56.203125 25.203125 
L 14.890625 25.203125 
Q 15.484375 15.921875 20.484375 11.0625 
Q 25.484375 6.203125 34.421875 6.203125 
Q 39.59375 6.203125 44.453125 7.46875 
Q 49.3125 8.734375 54.109375 11.28125 
L 54.109375 2.78125 
Q 49.265625 0.734375 44.1875 -0.34375 
Q 39.109375 -1.421875 33.890625 -1.421875 
Q 20.796875 -1.421875 13.15625 6.1875 
Q 5.515625 13.8125 5.515625 26.8125 
Q 5.515625 40.234375 12.765625 48.109375 
Q 20.015625 56 32.328125 56 
Q 43.359375 56 49.78125 48.890625 
Q 56.203125 41.796875 56.203125 29.59375 
z
M 47.21875 32.234375 
Q 47.125 39.59375 43.09375 43.984375 
Q 39.0625 48.390625 32.421875 48.390625 
Q 24.90625 48.390625 20.390625 44.140625 
Q 15.875 39.890625 15.1875 32.171875 
z
" id="DejaVuSans-101"/>
        <path d="M 18.109375 8.203125 
L 18.109375 -20.796875 
L 9.078125 -20.796875 
L 9.078125 54.6875 
L 18.109375 54.6875 
L 18.109375 46.390625 
Q 20.953125 51.265625 25.265625 53.625 
Q 29.59375 56 35.59375 56 
Q 45.5625 56 51.78125 48.09375 
Q 58.015625 40.1875 58.015625 27.296875 
Q 58.015625 14.40625 51.78125 6.484375 
Q 45.5625 -1.421875 35.59375 -1.421875 
Q 29.59375 -1.421875 25.265625 0.953125 
Q 20.953125 3.328125 18.109375 8.203125 
z
M 48.6875 27.296875 
Q 48.6875 37.203125 44.609375 42.84375 
Q 40.53125 48.484375 33.40625 48.484375 
Q 26.265625 48.484375 22.1875 42.84375 
Q 18.109375 37.203125 18.109375 27.296875 
Q 18.109375 17.390625 22.1875 11.75 
Q 26.265625 6.109375 33.40625 6.109375 
Q 40.53125 6.109375 44.609375 11.75 
Q 48.6875 17.390625 48.6875 27.296875 
z
" id="DejaVuSans-112"/>
        <path d="M 44.28125 53.078125 
L 44.28125 44.578125 
Q 40.484375 46.53125 36.375 47.5 
Q 32.28125 48.484375 27.875 48.484375 
Q 21.1875 48.484375 17.84375 46.4375 
Q 14.5 44.390625 14.5 40.28125 
Q 14.5 37.15625 16.890625 35.375 
Q 19.28125 33.59375 26.515625 31.984375 
L 29.59375 31.296875 
Q 39.15625 29.25 43.1875 25.515625 
Q 47.21875 21.78125 47.21875 15.09375 
Q 47.21875 7.46875 41.1875 3.015625 
Q 35.15625 -1.421875 24.609375 -1.421875 
Q 20.21875 -1.421875 15.453125 -0.5625 
Q 10.6875 0.296875 5.421875 2 
L 5.421875 11.28125 
Q 10.40625 8.6875 15.234375 7.390625 
Q 20.0625 6.109375 24.8125 6.109375 
Q 31.15625 6.109375 34.5625 8.28125 
Q 37.984375 10.453125 37.984375 14.40625 
Q 37.984375 18.0625 35.515625 20.015625 
Q 33.0625 21.96875 24.703125 23.78125 
L 21.578125 24.515625 
Q 13.234375 26.265625 9.515625 29.90625 
Q 5.8125 33.546875 5.8125 39.890625 
Q 5.8125 47.609375 11.28125 51.796875 
Q 16.75 56 26.8125 56 
Q 31.78125 56 36.171875 55.265625 
Q 40.578125 54.546875 44.28125 53.078125 
z
" id="DejaVuSans-115"/>
       </defs>
       <use xlink:href="#DejaVuSans-83"/>
       <use x="63.476562" xlink:href="#DejaVuSans-116"/>
       <use x="102.685547" xlink:href="#DejaVuSans-101"/>
       <use x="164.208984" xlink:href="#DejaVuSans-112"/>
       <use x="227.685547" xlink:href="#DejaVuSans-115"/>
      </g>
     </g>
    </g>
   </g>
  </g>
  <g id="axes_4">
   <g id="patch_3">
    <path d="M 108.726 340.67 
L 2032.4 340.67 
L 2032.4 73.227302 
L 108.726 73.227302 
z
" style="fill:#ffffff;"/>
   </g>
   <g id="QuadMesh_2">
    <path clip-path="url(#p2563c08299)" d="M 108.726 73.227302 
L 168.840813 73.227302 
L 168.840813 140.087977 
L 108.726 140.087977 
L 108.726 73.227302 
" style="fill:#f6a385;stroke:#ffffff;stroke-width:0.75;"/>
    <path clip-path="url(#p2563c08299)" d="M 168.840813 73.227302 
L 228.955625 73.227302 
L 228.955625 140.087977 
L 168.840813 140.087977 
L 168.840813 73.227302 
" style="fill:#f29274;stroke:#ffffff;stroke-width:0.75;"/>
    <path clip-path="url(#p2563c08299)" d="M 228.955625 73.227302 
L 289.070438 73.227302 
L 289.070438 140.087977 
L 228.955625 140.087977 
L 228.955625 73.227302 
" style="fill:#f39475;stroke:#ffffff;stroke-width:0.75;"/>
    <path clip-path="url(#p2563c08299)" d="M 289.070438 73.227302 
L 349.18525 73.227302 
L 349.18525 140.087977 
L 289.070438 140.087977 
L 289.070438 73.227302 
" style="fill:#f7af91;stroke:#ffffff;stroke-width:0.75;"/>
    <path clip-path="url(#p2563c08299)" d="M 349.18525 73.227302 
L 409.300063 73.227302 
L 409.300063 140.087977 
L 349.18525 140.087977 
L 349.18525 73.227302 
" style="fill:#f5a081;stroke:#ffffff;stroke-width:0.75;"/>
    <path clip-path="url(#p2563c08299)" d="M 409.300063 73.227302 
L 469.414875 73.227302 
L 469.414875 140.087977 
L 409.300063 140.087977 
L 409.300063 73.227302 
" style="fill:#ed8366;stroke:#ffffff;stroke-width:0.75;"/>
    <path clip-path="url(#p2563c08299)" d="M 469.414875 73.227302 
L 529.529688 73.227302 
L 529.529688 140.087977 
L 469.414875 140.087977 
L 469.414875 73.227302 
" style="fill:#d85646;stroke:#ffffff;stroke-width:0.75;"/>
    <path clip-path="url(#p2563c08299)" d="M 529.529688 73.227302 
L 589.6445 73.227302 
L 589.6445 140.087977 
L 529.529688 140.087977 
L 529.529688 73.227302 
" style="fill:#dc5d4a;stroke:#ffffff;stroke-width:0.75;"/>
    <path clip-path="url(#p2563c08299)" d="M 589.6445 73.227302 
L 649.759313 73.227302 
L 649.759313 140.087977 
L 589.6445 140.087977 
L 589.6445 73.227302 
" style="fill:#f4987a;stroke:#ffffff;stroke-width:0.75;"/>
    <path clip-path="url(#p2563c08299)" d="M 649.759313 73.227302 
L 709.874125 73.227302 
L 709.874125 140.087977 
L 649.759313 140.087977 
L 649.759313 73.227302 
" style="fill:#f7b093;stroke:#ffffff;stroke-width:0.75;"/>
    <path clip-path="url(#p2563c08299)" d="M 709.874125 73.227302 
L 769.988938 73.227302 
L 769.988938 140.087977 
L 709.874125 140.087977 
L 709.874125 73.227302 
" style="fill:#f4987a;stroke:#ffffff;stroke-width:0.75;"/>
    <path clip-path="url(#p2563c08299)" d="M 769.988938 73.227302 
L 830.10375 73.227302 
L 830.10375 140.087977 
L 769.988938 140.087977 
L 769.988938 73.227302 
" style="fill:#f08a6c;stroke:#ffffff;stroke-width:0.75;"/>
    <path clip-path="url(#p2563c08299)" d="M 830.10375 73.227302 
L 890.218563 73.227302 
L 890.218563 140.087977 
L 830.10375 140.087977 
L 830.10375 73.227302 
" style="fill:#f59d7e;stroke:#ffffff;stroke-width:0.75;"/>
    <path clip-path="url(#p2563c08299)" d="M 890.218563 73.227302 
L 950.333375 73.227302 
L 950.333375 140.087977 
L 890.218563 140.087977 
L 890.218563 73.227302 
" style="fill:#f7b194;stroke:#ffffff;stroke-width:0.75;"/>
    <path clip-path="url(#p2563c08299)" d="M 950.333375 73.227302 
L 1010.448188 73.227302 
L 1010.448188 140.087977 
L 950.333375 140.087977 
L 950.333375 73.227302 
" style="fill:#f7b79b;stroke:#ffffff;stroke-width:0.75;"/>
    <path clip-path="url(#p2563c08299)" d="M 1010.448188 73.227302 
L 1070.563 73.227302 
L 1070.563 140.087977 
L 1010.448188 140.087977 
L 1010.448188 73.227302 
" style="fill:#f39778;stroke:#ffffff;stroke-width:0.75;"/>
    <path clip-path="url(#p2563c08299)" d="M 1070.563 73.227302 
L 1130.677813 73.227302 
L 1130.677813 140.087977 
L 1070.563 140.087977 
L 1070.563 73.227302 
" style="fill:#f59f80;stroke:#ffffff;stroke-width:0.75;"/>
    <path clip-path="url(#p2563c08299)" d="M 1130.677813 73.227302 
L 1190.792625 73.227302 
L 1190.792625 140.087977 
L 1130.677813 140.087977 
L 1130.677813 73.227302 
" style="fill:#b7cff9;stroke:#ffffff;stroke-width:0.75;"/>
    <path clip-path="url(#p2563c08299)" d="M 1190.792625 73.227302 
L 1250.907438 73.227302 
L 1250.907438 140.087977 
L 1190.792625 140.087977 
L 1190.792625 73.227302 
" style="fill:#e0dbd8;stroke:#ffffff;stroke-width:0.75;"/>
    <path clip-path="url(#p2563c08299)" d="M 1250.907438 73.227302 
L 1311.02225 73.227302 
L 1311.02225 140.087977 
L 1250.907438 140.087977 
L 1250.907438 73.227302 
" style="fill:#f7b093;stroke:#ffffff;stroke-width:0.75;"/>
    <path clip-path="url(#p2563c08299)" d="M 1311.02225 73.227302 
L 1371.137063 73.227302 
L 1371.137063 140.087977 
L 1311.02225 140.087977 
L 1311.02225 73.227302 
" style="fill:#f7bca1;stroke:#ffffff;stroke-width:0.75;"/>
    <path clip-path="url(#p2563c08299)" d="M 1371.137063 73.227302 
L 1431.251875 73.227302 
L 1431.251875 140.087977 
L 1371.137063 140.087977 
L 1371.137063 73.227302 
" style="fill:#f5c0a7;stroke:#ffffff;stroke-width:0.75;"/>
    <path clip-path="url(#p2563c08299)" d="M 1431.251875 73.227302 
L 1491.366688 73.227302 
L 1491.366688 140.087977 
L 1431.251875 140.087977 
L 1431.251875 73.227302 
" style="fill:#f3c7b1;stroke:#ffffff;stroke-width:0.75;"/>
    <path clip-path="url(#p2563c08299)" d="M 1491.366688 73.227302 
L 1551.4815 73.227302 
L 1551.4815 140.087977 
L 1491.366688 140.087977 
L 1491.366688 73.227302 
" style="fill:#eed0c0;stroke:#ffffff;stroke-width:0.75;"/>
    <path clip-path="url(#p2563c08299)" d="M 1551.4815 73.227302 
L 1611.596313 73.227302 
L 1611.596313 140.087977 
L 1551.4815 140.087977 
L 1551.4815 73.227302 
" style="fill:#f2cab5;stroke:#ffffff;stroke-width:0.75;"/>
    <path clip-path="url(#p2563c08299)" d="M 1611.596313 73.227302 
L 1671.711125 73.227302 
L 1671.711125 140.087977 
L 1611.596313 140.087977 
L 1611.596313 73.227302 
" style="fill:#f0cdbb;stroke:#ffffff;stroke-width:0.75;"/>
    <path clip-path="url(#p2563c08299)" d="M 1671.711125 73.227302 
L 1731.825938 73.227302 
L 1731.825938 140.087977 
L 1671.711125 140.087977 
L 1671.711125 73.227302 
" style="fill:#f6bea4;stroke:#ffffff;stroke-width:0.75;"/>
    <path clip-path="url(#p2563c08299)" d="M 1731.825938 73.227302 
L 1791.94075 73.227302 
L 1791.94075 140.087977 
L 1731.825938 140.087977 
L 1731.825938 73.227302 
" style="fill:#f2cab5;stroke:#ffffff;stroke-width:0.75;"/>
    <path clip-path="url(#p2563c08299)" d="M 1791.94075 73.227302 
L 1852.055563 73.227302 
L 1852.055563 140.087977 
L 1791.94075 140.087977 
L 1791.94075 73.227302 
" style="fill:#f7a98b;stroke:#ffffff;stroke-width:0.75;"/>
    <path clip-path="url(#p2563c08299)" d="M 1852.055563 73.227302 
L 1912.170375 73.227302 
L 1912.170375 140.087977 
L 1852.055563 140.087977 
L 1852.055563 73.227302 
" style="fill:#f7a98b;stroke:#ffffff;stroke-width:0.75;"/>
    <path clip-path="url(#p2563c08299)" d="M 1912.170375 73.227302 
L 1972.285188 73.227302 
L 1972.285188 140.087977 
L 1912.170375 140.087977 
L 1912.170375 73.227302 
" style="fill:#f7b89c;stroke:#ffffff;stroke-width:0.75;"/>
    <path clip-path="url(#p2563c08299)" d="M 1972.285188 73.227302 
L 2032.4 73.227302 
L 2032.4 140.087977 
L 1972.285188 140.087977 
L 1972.285188 73.227302 
" style="fill:#f7b79b;stroke:#ffffff;stroke-width:0.75;"/>
    <path clip-path="url(#p2563c08299)" d="M 108.726 140.087977 
L 168.840813 140.087977 
L 168.840813 206.948651 
L 108.726 206.948651 
L 108.726 140.087977 
" style="fill:#f29274;stroke:#ffffff;stroke-width:0.75;"/>
    <path clip-path="url(#p2563c08299)" d="M 168.840813 140.087977 
L 228.955625 140.087977 
L 228.955625 206.948651 
L 168.840813 206.948651 
L 168.840813 140.087977 
" style="fill:#e67259;stroke:#ffffff;stroke-width:0.75;"/>
    <path clip-path="url(#p2563c08299)" d="M 228.955625 140.087977 
L 289.070438 140.087977 
L 289.070438 206.948651 
L 228.955625 206.948651 
L 228.955625 140.087977 
" style="fill:#e9785d;stroke:#ffffff;stroke-width:0.75;"/>
    <path clip-path="url(#p2563c08299)" d="M 289.070438 140.087977 
L 349.18525 140.087977 
L 349.18525 206.948651 
L 289.070438 206.948651 
L 289.070438 140.087977 
" style="fill:#f5a081;stroke:#ffffff;stroke-width:0.75;"/>
    <path clip-path="url(#p2563c08299)" d="M 349.18525 140.087977 
L 409.300063 140.087977 
L 409.300063 206.948651 
L 349.18525 206.948651 
L 349.18525 140.087977 
" style="fill:#ec8165;stroke:#ffffff;stroke-width:0.75;"/>
    <path clip-path="url(#p2563c08299)" d="M 409.300063 140.087977 
L 469.414875 140.087977 
L 469.414875 206.948651 
L 409.300063 206.948651 
L 409.300063 140.087977 
" style="fill:#f39577;stroke:#ffffff;stroke-width:0.75;"/>
    <path clip-path="url(#p2563c08299)" d="M 469.414875 140.087977 
L 529.529688 140.087977 
L 529.529688 206.948651 
L 469.414875 206.948651 
L 469.414875 140.087977 
" style="fill:#f7ba9f;stroke:#ffffff;stroke-width:0.75;"/>
    <path clip-path="url(#p2563c08299)" d="M 529.529688 140.087977 
L 589.6445 140.087977 
L 589.6445 206.948651 
L 529.529688 206.948651 
L 529.529688 140.087977 
" style="fill:#f18d6f;stroke:#ffffff;stroke-width:0.75;"/>
    <path clip-path="url(#p2563c08299)" d="M 589.6445 140.087977 
L 649.759313 140.087977 
L 649.759313 206.948651 
L 589.6445 206.948651 
L 589.6445 140.087977 
" style="fill:#f7b599;stroke:#ffffff;stroke-width:0.75;"/>
    <path clip-path="url(#p2563c08299)" d="M 649.759313 140.087977 
L 709.874125 140.087977 
L 709.874125 206.948651 
L 649.759313 206.948651 
L 649.759313 140.087977 
" style="fill:#f6a586;stroke:#ffffff;stroke-width:0.75;"/>
    <path clip-path="url(#p2563c08299)" d="M 709.874125 140.087977 
L 769.988938 140.087977 
L 769.988938 206.948651 
L 709.874125 206.948651 
L 709.874125 140.087977 
" style="fill:#f7a889;stroke:#ffffff;stroke-width:0.75;"/>
    <path clip-path="url(#p2563c08299)" d="M 769.988938 140.087977 
L 830.10375 140.087977 
L 830.10375 206.948651 
L 769.988938 206.948651 
L 769.988938 140.087977 
" style="fill:#f7ad90;stroke:#ffffff;stroke-width:0.75;"/>
    <path clip-path="url(#p2563c08299)" d="M 830.10375 140.087977 
L 890.218563 140.087977 
L 890.218563 206.948651 
L 830.10375 206.948651 
L 830.10375 140.087977 
" style="fill:#f08b6e;stroke:#ffffff;stroke-width:0.75;"/>
    <path clip-path="url(#p2563c08299)" d="M 890.218563 140.087977 
L 950.333375 140.087977 
L 950.333375 206.948651 
L 890.218563 206.948651 
L 890.218563 140.087977 
" style="fill:#ed8366;stroke:#ffffff;stroke-width:0.75;"/>
    <path clip-path="url(#p2563c08299)" d="M 950.333375 140.087977 
L 1010.448188 140.087977 
L 1010.448188 206.948651 
L 950.333375 206.948651 
L 950.333375 140.087977 
" style="fill:#e8765c;stroke:#ffffff;stroke-width:0.75;"/>
    <path clip-path="url(#p2563c08299)" d="M 1010.448188 140.087977 
L 1070.563 140.087977 
L 1070.563 206.948651 
L 1010.448188 206.948651 
L 1010.448188 140.087977 
" style="fill:#e97a5f;stroke:#ffffff;stroke-width:0.75;"/>
    <path clip-path="url(#p2563c08299)" d="M 1070.563 140.087977 
L 1130.677813 140.087977 
L 1130.677813 206.948651 
L 1070.563 206.948651 
L 1070.563 140.087977 
" style="fill:#e67259;stroke:#ffffff;stroke-width:0.75;"/>
    <path clip-path="url(#p2563c08299)" d="M 1130.677813 140.087977 
L 1190.792625 140.087977 
L 1190.792625 206.948651 
L 1130.677813 206.948651 
L 1130.677813 140.087977 
" style="fill:#f5c2aa;stroke:#ffffff;stroke-width:0.75;"/>
    <path clip-path="url(#p2563c08299)" d="M 1190.792625 140.087977 
L 1250.907438 140.087977 
L 1250.907438 206.948651 
L 1190.792625 206.948651 
L 1190.792625 140.087977 
" style="fill:#e0dbd8;stroke:#ffffff;stroke-width:0.75;"/>
    <path clip-path="url(#p2563c08299)" d="M 1250.907438 140.087977 
L 1311.02225 140.087977 
L 1311.02225 206.948651 
L 1250.907438 206.948651 
L 1250.907438 140.087977 
" style="fill:#edd1c2;stroke:#ffffff;stroke-width:0.75;"/>
    <path clip-path="url(#p2563c08299)" d="M 1311.02225 140.087977 
L 1371.137063 140.087977 
L 1371.137063 206.948651 
L 1311.02225 206.948651 
L 1311.02225 140.087977 
" style="fill:#efcfbf;stroke:#ffffff;stroke-width:0.75;"/>
    <path clip-path="url(#p2563c08299)" d="M 1371.137063 140.087977 
L 1431.251875 140.087977 
L 1431.251875 206.948651 
L 1371.137063 206.948651 
L 1371.137063 140.087977 
" style="fill:#f1ccb8;stroke:#ffffff;stroke-width:0.75;"/>
    <path clip-path="url(#p2563c08299)" d="M 1431.251875 140.087977 
L 1491.366688 140.087977 
L 1491.366688 206.948651 
L 1431.251875 206.948651 
L 1431.251875 140.087977 
" style="fill:#f3c7b1;stroke:#ffffff;stroke-width:0.75;"/>
    <path clip-path="url(#p2563c08299)" d="M 1491.366688 140.087977 
L 1551.4815 140.087977 
L 1551.4815 206.948651 
L 1491.366688 206.948651 
L 1491.366688 140.087977 
" style="fill:#f4c5ad;stroke:#ffffff;stroke-width:0.75;"/>
    <path clip-path="url(#p2563c08299)" d="M 1551.4815 140.087977 
L 1611.596313 140.087977 
L 1611.596313 206.948651 
L 1551.4815 206.948651 
L 1551.4815 140.087977 
" style="fill:#f39475;stroke:#ffffff;stroke-width:0.75;"/>
    <path clip-path="url(#p2563c08299)" d="M 1611.596313 140.087977 
L 1671.711125 140.087977 
L 1671.711125 206.948651 
L 1611.596313 206.948651 
L 1611.596313 140.087977 
" style="fill:#f4987a;stroke:#ffffff;stroke-width:0.75;"/>
    <path clip-path="url(#p2563c08299)" d="M 1671.711125 140.087977 
L 1731.825938 140.087977 
L 1731.825938 206.948651 
L 1671.711125 206.948651 
L 1671.711125 140.087977 
" style="fill:#f7a688;stroke:#ffffff;stroke-width:0.75;"/>
    <path clip-path="url(#p2563c08299)" d="M 1731.825938 140.087977 
L 1791.94075 140.087977 
L 1791.94075 206.948651 
L 1731.825938 206.948651 
L 1731.825938 140.087977 
" style="fill:#f7aa8c;stroke:#ffffff;stroke-width:0.75;"/>
    <path clip-path="url(#p2563c08299)" d="M 1791.94075 140.087977 
L 1852.055563 140.087977 
L 1852.055563 206.948651 
L 1791.94075 206.948651 
L 1791.94075 140.087977 
" style="fill:#f4c6af;stroke:#ffffff;stroke-width:0.75;"/>
    <path clip-path="url(#p2563c08299)" d="M 1852.055563 140.087977 
L 1912.170375 140.087977 
L 1912.170375 206.948651 
L 1852.055563 206.948651 
L 1852.055563 140.087977 
" style="fill:#f5c0a7;stroke:#ffffff;stroke-width:0.75;"/>
    <path clip-path="url(#p2563c08299)" d="M 1912.170375 140.087977 
L 1972.285188 140.087977 
L 1972.285188 206.948651 
L 1912.170375 206.948651 
L 1912.170375 140.087977 
" style="fill:#f5c4ac;stroke:#ffffff;stroke-width:0.75;"/>
    <path clip-path="url(#p2563c08299)" d="M 1972.285188 140.087977 
L 2032.4 140.087977 
L 2032.4 206.948651 
L 1972.285188 206.948651 
L 1972.285188 140.087977 
" style="fill:#f6bfa6;stroke:#ffffff;stroke-width:0.75;"/>
    <path clip-path="url(#p2563c08299)" d="M 108.726 206.948651 
L 168.840813 206.948651 
L 168.840813 273.809326 
L 108.726 273.809326 
L 108.726 206.948651 
" style="fill:#f7b093;stroke:#ffffff;stroke-width:0.75;"/>
    <path clip-path="url(#p2563c08299)" d="M 168.840813 206.948651 
L 228.955625 206.948651 
L 228.955625 273.809326 
L 168.840813 273.809326 
L 168.840813 206.948651 
" style="fill:#f6bea4;stroke:#ffffff;stroke-width:0.75;"/>
    <path clip-path="url(#p2563c08299)" d="M 228.955625 206.948651 
L 289.070438 206.948651 
L 289.070438 273.809326 
L 228.955625 273.809326 
L 228.955625 206.948651 
" style="fill:#f7a98b;stroke:#ffffff;stroke-width:0.75;"/>
    <path clip-path="url(#p2563c08299)" d="M 289.070438 206.948651 
L 349.18525 206.948651 
L 349.18525 273.809326 
L 289.070438 273.809326 
L 289.070438 206.948651 
" style="fill:#f59d7e;stroke:#ffffff;stroke-width:0.75;"/>
    <path clip-path="url(#p2563c08299)" d="M 349.18525 206.948651 
L 409.300063 206.948651 
L 409.300063 273.809326 
L 349.18525 273.809326 
L 349.18525 206.948651 
" style="fill:#ec7f63;stroke:#ffffff;stroke-width:0.75;"/>
    <path clip-path="url(#p2563c08299)" d="M 409.300063 206.948651 
L 469.414875 206.948651 
L 469.414875 273.809326 
L 409.300063 273.809326 
L 409.300063 206.948651 
" style="fill:#c73635;stroke:#ffffff;stroke-width:0.75;"/>
    <path clip-path="url(#p2563c08299)" d="M 469.414875 206.948651 
L 529.529688 206.948651 
L 529.529688 273.809326 
L 469.414875 273.809326 
L 469.414875 206.948651 
" style="fill:#f49a7b;stroke:#ffffff;stroke-width:0.75;"/>
    <path clip-path="url(#p2563c08299)" d="M 529.529688 206.948651 
L 589.6445 206.948651 
L 589.6445 273.809326 
L 529.529688 273.809326 
L 529.529688 206.948651 
" style="fill:#f18f71;stroke:#ffffff;stroke-width:0.75;"/>
    <path clip-path="url(#p2563c08299)" d="M 589.6445 206.948651 
L 649.759313 206.948651 
L 649.759313 273.809326 
L 589.6445 273.809326 
L 589.6445 206.948651 
" style="fill:#d9dce1;stroke:#ffffff;stroke-width:0.75;"/>
    <path clip-path="url(#p2563c08299)" d="M 649.759313 206.948651 
L 709.874125 206.948651 
L 709.874125 273.809326 
L 649.759313 273.809326 
L 649.759313 206.948651 
" style="fill:#ecd3c5;stroke:#ffffff;stroke-width:0.75;"/>
    <path clip-path="url(#p2563c08299)" d="M 709.874125 206.948651 
L 769.988938 206.948651 
L 769.988938 273.809326 
L 709.874125 273.809326 
L 709.874125 206.948651 
" style="fill:#f2cab5;stroke:#ffffff;stroke-width:0.75;"/>
    <path clip-path="url(#p2563c08299)" d="M 769.988938 206.948651 
L 830.10375 206.948651 
L 830.10375 273.809326 
L 769.988938 273.809326 
L 769.988938 206.948651 
" style="fill:#eed0c0;stroke:#ffffff;stroke-width:0.75;"/>
    <path clip-path="url(#p2563c08299)" d="M 830.10375 206.948651 
L 890.218563 206.948651 
L 890.218563 273.809326 
L 830.10375 273.809326 
L 830.10375 206.948651 
" style="fill:#f5c0a7;stroke:#ffffff;stroke-width:0.75;"/>
    <path clip-path="url(#p2563c08299)" d="M 890.218563 206.948651 
L 950.333375 206.948651 
L 950.333375 273.809326 
L 890.218563 273.809326 
L 890.218563 206.948651 
" style="fill:#f6bea4;stroke:#ffffff;stroke-width:0.75;"/>
    <path clip-path="url(#p2563c08299)" d="M 950.333375 206.948651 
L 1010.448188 206.948651 
L 1010.448188 273.809326 
L 950.333375 273.809326 
L 950.333375 206.948651 
" style="fill:#e7d7ce;stroke:#ffffff;stroke-width:0.75;"/>
    <path clip-path="url(#p2563c08299)" d="M 1010.448188 206.948651 
L 1070.563 206.948651 
L 1070.563 273.809326 
L 1010.448188 273.809326 
L 1010.448188 206.948651 
" style="fill:#f4c5ad;stroke:#ffffff;stroke-width:0.75;"/>
    <path clip-path="url(#p2563c08299)" d="M 1070.563 206.948651 
L 1130.677813 206.948651 
L 1130.677813 273.809326 
L 1070.563 273.809326 
L 1070.563 206.948651 
" style="fill:#ead4c8;stroke:#ffffff;stroke-width:0.75;"/>
    <path clip-path="url(#p2563c08299)" d="M 1130.677813 206.948651 
L 1190.792625 206.948651 
L 1190.792625 273.809326 
L 1130.677813 273.809326 
L 1130.677813 206.948651 
" style="fill:#f7b89c;stroke:#ffffff;stroke-width:0.75;"/>
    <path clip-path="url(#p2563c08299)" d="M 1190.792625 206.948651 
L 1250.907438 206.948651 
L 1250.907438 273.809326 
L 1190.792625 273.809326 
L 1190.792625 206.948651 
" style="fill:#f2c9b4;stroke:#ffffff;stroke-width:0.75;"/>
    <path clip-path="url(#p2563c08299)" d="M 1250.907438 206.948651 
L 1311.02225 206.948651 
L 1311.02225 273.809326 
L 1250.907438 273.809326 
L 1250.907438 206.948651 
" style="fill:#ead4c8;stroke:#ffffff;stroke-width:0.75;"/>
    <path clip-path="url(#p2563c08299)" d="M 1311.02225 206.948651 
L 1371.137063 206.948651 
L 1371.137063 273.809326 
L 1311.02225 273.809326 
L 1311.02225 206.948651 
" style="fill:#cfdaea;stroke:#ffffff;stroke-width:0.75;"/>
    <path clip-path="url(#p2563c08299)" d="M 1371.137063 206.948651 
L 1431.251875 206.948651 
L 1431.251875 273.809326 
L 1371.137063 273.809326 
L 1371.137063 206.948651 
" style="fill:#d5dbe5;stroke:#ffffff;stroke-width:0.75;"/>
    <path clip-path="url(#p2563c08299)" d="M 1431.251875 206.948651 
L 1491.366688 206.948651 
L 1491.366688 273.809326 
L 1431.251875 273.809326 
L 1431.251875 206.948651 
" style="fill:#f6bda2;stroke:#ffffff;stroke-width:0.75;"/>
    <path clip-path="url(#p2563c08299)" d="M 1491.366688 206.948651 
L 1551.4815 206.948651 
L 1551.4815 273.809326 
L 1491.366688 273.809326 
L 1491.366688 206.948651 
" style="fill:#f0cdbb;stroke:#ffffff;stroke-width:0.75;"/>
    <path clip-path="url(#p2563c08299)" d="M 1551.4815 206.948651 
L 1611.596313 206.948651 
L 1611.596313 273.809326 
L 1551.4815 273.809326 
L 1551.4815 206.948651 
" style="fill:#f2c9b4;stroke:#ffffff;stroke-width:0.75;"/>
    <path clip-path="url(#p2563c08299)" d="M 1611.596313 206.948651 
L 1671.711125 206.948651 
L 1671.711125 273.809326 
L 1611.596313 273.809326 
L 1611.596313 206.948651 
" style="fill:#f5c2aa;stroke:#ffffff;stroke-width:0.75;"/>
    <path clip-path="url(#p2563c08299)" d="M 1671.711125 206.948651 
L 1731.825938 206.948651 
L 1731.825938 273.809326 
L 1671.711125 273.809326 
L 1671.711125 206.948651 
" style="fill:#f6bda2;stroke:#ffffff;stroke-width:0.75;"/>
    <path clip-path="url(#p2563c08299)" d="M 1731.825938 206.948651 
L 1791.94075 206.948651 
L 1791.94075 273.809326 
L 1731.825938 273.809326 
L 1731.825938 206.948651 
" style="fill:#f6bea4;stroke:#ffffff;stroke-width:0.75;"/>
    <path clip-path="url(#p2563c08299)" d="M 1791.94075 206.948651 
L 1852.055563 206.948651 
L 1852.055563 273.809326 
L 1791.94075 273.809326 
L 1791.94075 206.948651 
" style="fill:#f7b396;stroke:#ffffff;stroke-width:0.75;"/>
    <path clip-path="url(#p2563c08299)" d="M 1852.055563 206.948651 
L 1912.170375 206.948651 
L 1912.170375 273.809326 
L 1852.055563 273.809326 
L 1852.055563 206.948651 
" style="fill:#f7b194;stroke:#ffffff;stroke-width:0.75;"/>
    <path clip-path="url(#p2563c08299)" d="M 1912.170375 206.948651 
L 1972.285188 206.948651 
L 1972.285188 273.809326 
L 1912.170375 273.809326 
L 1912.170375 206.948651 
" style="fill:#f7b497;stroke:#ffffff;stroke-width:0.75;"/>
    <path clip-path="url(#p2563c08299)" d="M 1972.285188 206.948651 
L 2032.4 206.948651 
L 2032.4 273.809326 
L 1972.285188 273.809326 
L 1972.285188 206.948651 
" style="fill:#f7b599;stroke:#ffffff;stroke-width:0.75;"/>
    <path clip-path="url(#p2563c08299)" d="M 108.726 273.809326 
L 168.840813 273.809326 
L 168.840813 340.67 
L 108.726 340.67 
L 108.726 273.809326 
" style="fill:#f08a6c;stroke:#ffffff;stroke-width:0.75;"/>
    <path clip-path="url(#p2563c08299)" d="M 168.840813 273.809326 
L 228.955625 273.809326 
L 228.955625 340.67 
L 168.840813 340.67 
L 168.840813 273.809326 
" style="fill:#ec8165;stroke:#ffffff;stroke-width:0.75;"/>
    <path clip-path="url(#p2563c08299)" d="M 228.955625 273.809326 
L 289.070438 273.809326 
L 289.070438 340.67 
L 228.955625 340.67 
L 228.955625 273.809326 
" style="fill:#ec7f63;stroke:#ffffff;stroke-width:0.75;"/>
    <path clip-path="url(#p2563c08299)" d="M 289.070438 273.809326 
L 349.18525 273.809326 
L 349.18525 340.67 
L 289.070438 340.67 
L 289.070438 273.809326 
" style="fill:#f7bca1;stroke:#ffffff;stroke-width:0.75;"/>
    <path clip-path="url(#p2563c08299)" d="M 349.18525 273.809326 
L 409.300063 273.809326 
L 409.300063 340.67 
L 349.18525 340.67 
L 349.18525 273.809326 
" style="fill:#f7b093;stroke:#ffffff;stroke-width:0.75;"/>
    <path clip-path="url(#p2563c08299)" d="M 409.300063 273.809326 
L 469.414875 273.809326 
L 469.414875 340.67 
L 409.300063 340.67 
L 409.300063 273.809326 
" style="fill:#f5c1a9;stroke:#ffffff;stroke-width:0.75;"/>
    <path clip-path="url(#p2563c08299)" d="M 469.414875 273.809326 
L 529.529688 273.809326 
L 529.529688 340.67 
L 469.414875 340.67 
L 469.414875 273.809326 
" style="fill:#f6a385;stroke:#ffffff;stroke-width:0.75;"/>
    <path clip-path="url(#p2563c08299)" d="M 529.529688 273.809326 
L 589.6445 273.809326 
L 589.6445 340.67 
L 529.529688 340.67 
L 529.529688 273.809326 
" style="fill:#f6a385;stroke:#ffffff;stroke-width:0.75;"/>
    <path clip-path="url(#p2563c08299)" d="M 589.6445 273.809326 
L 649.759313 273.809326 
L 649.759313 340.67 
L 589.6445 340.67 
L 589.6445 273.809326 
" style="fill:#e7d7ce;stroke:#ffffff;stroke-width:0.75;"/>
    <path clip-path="url(#p2563c08299)" d="M 649.759313 273.809326 
L 709.874125 273.809326 
L 709.874125 340.67 
L 649.759313 340.67 
L 649.759313 273.809326 
" style="fill:#f0cdbb;stroke:#ffffff;stroke-width:0.75;"/>
    <path clip-path="url(#p2563c08299)" d="M 709.874125 273.809326 
L 769.988938 273.809326 
L 769.988938 340.67 
L 709.874125 340.67 
L 709.874125 273.809326 
" style="fill:#f7bca1;stroke:#ffffff;stroke-width:0.75;"/>
    <path clip-path="url(#p2563c08299)" d="M 769.988938 273.809326 
L 830.10375 273.809326 
L 830.10375 340.67 
L 769.988938 340.67 
L 769.988938 273.809326 
" style="fill:#f1ccb8;stroke:#ffffff;stroke-width:0.75;"/>
    <path clip-path="url(#p2563c08299)" d="M 830.10375 273.809326 
L 890.218563 273.809326 
L 890.218563 340.67 
L 830.10375 340.67 
L 830.10375 273.809326 
" style="fill:#f5c4ac;stroke:#ffffff;stroke-width:0.75;"/>
    <path clip-path="url(#p2563c08299)" d="M 890.218563 273.809326 
L 950.333375 273.809326 
L 950.333375 340.67 
L 890.218563 340.67 
L 890.218563 273.809326 
" style="fill:#e6d7cf;stroke:#ffffff;stroke-width:0.75;"/>
    <path clip-path="url(#p2563c08299)" d="M 950.333375 273.809326 
L 1010.448188 273.809326 
L 1010.448188 340.67 
L 950.333375 340.67 
L 950.333375 273.809326 
" style="fill:#f5c0a7;stroke:#ffffff;stroke-width:0.75;"/>
    <path clip-path="url(#p2563c08299)" d="M 1010.448188 273.809326 
L 1070.563 273.809326 
L 1070.563 340.67 
L 1010.448188 340.67 
L 1010.448188 273.809326 
" style="fill:#f7a889;stroke:#ffffff;stroke-width:0.75;"/>
    <path clip-path="url(#p2563c08299)" d="M 1070.563 273.809326 
L 1130.677813 273.809326 
L 1130.677813 340.67 
L 1070.563 340.67 
L 1070.563 273.809326 
" style="fill:#f7a889;stroke:#ffffff;stroke-width:0.75;"/>
    <path clip-path="url(#p2563c08299)" d="M 1130.677813 273.809326 
L 1190.792625 273.809326 
L 1190.792625 340.67 
L 1130.677813 340.67 
L 1130.677813 273.809326 
" style="fill:#f7aa8c;stroke:#ffffff;stroke-width:0.75;"/>
    <path clip-path="url(#p2563c08299)" d="M 1190.792625 273.809326 
L 1250.907438 273.809326 
L 1250.907438 340.67 
L 1190.792625 340.67 
L 1190.792625 273.809326 
" style="fill:#ebd3c6;stroke:#ffffff;stroke-width:0.75;"/>
    <path clip-path="url(#p2563c08299)" d="M 1250.907438 273.809326 
L 1311.02225 273.809326 
L 1311.02225 340.67 
L 1250.907438 340.67 
L 1250.907438 273.809326 
" style="fill:#f6bfa6;stroke:#ffffff;stroke-width:0.75;"/>
    <path clip-path="url(#p2563c08299)" d="M 1311.02225 273.809326 
L 1371.137063 273.809326 
L 1371.137063 340.67 
L 1311.02225 340.67 
L 1311.02225 273.809326 
" style="fill:#edd1c2;stroke:#ffffff;stroke-width:0.75;"/>
    <path clip-path="url(#p2563c08299)" d="M 1371.137063 273.809326 
L 1431.251875 273.809326 
L 1431.251875 340.67 
L 1371.137063 340.67 
L 1371.137063 273.809326 
" style="fill:#f6bda2;stroke:#ffffff;stroke-width:0.75;"/>
    <path clip-path="url(#p2563c08299)" d="M 1431.251875 273.809326 
L 1491.366688 273.809326 
L 1491.366688 340.67 
L 1431.251875 340.67 
L 1431.251875 273.809326 
" style="fill:#f7a98b;stroke:#ffffff;stroke-width:0.75;"/>
    <path clip-path="url(#p2563c08299)" d="M 1491.366688 273.809326 
L 1551.4815 273.809326 
L 1551.4815 340.67 
L 1491.366688 340.67 
L 1491.366688 273.809326 
" style="fill:#f59f80;stroke:#ffffff;stroke-width:0.75;"/>
    <path clip-path="url(#p2563c08299)" d="M 1551.4815 273.809326 
L 1611.596313 273.809326 
L 1611.596313 340.67 
L 1551.4815 340.67 
L 1551.4815 273.809326 
" style="fill:#f7b093;stroke:#ffffff;stroke-width:0.75;"/>
    <path clip-path="url(#p2563c08299)" d="M 1611.596313 273.809326 
L 1671.711125 273.809326 
L 1671.711125 340.67 
L 1611.596313 340.67 
L 1611.596313 273.809326 
" style="fill:#f7b99e;stroke:#ffffff;stroke-width:0.75;"/>
    <path clip-path="url(#p2563c08299)" d="M 1671.711125 273.809326 
L 1731.825938 273.809326 
L 1731.825938 340.67 
L 1671.711125 340.67 
L 1671.711125 273.809326 
" style="fill:#f6bfa6;stroke:#ffffff;stroke-width:0.75;"/>
    <path clip-path="url(#p2563c08299)" d="M 1731.825938 273.809326 
L 1791.94075 273.809326 
L 1791.94075 340.67 
L 1731.825938 340.67 
L 1731.825938 273.809326 
" style="fill:#f5c4ac;stroke:#ffffff;stroke-width:0.75;"/>
    <path clip-path="url(#p2563c08299)" d="M 1791.94075 273.809326 
L 1852.055563 273.809326 
L 1852.055563 340.67 
L 1791.94075 340.67 
L 1791.94075 273.809326 
" style="fill:#f7a688;stroke:#ffffff;stroke-width:0.75;"/>
    <path clip-path="url(#p2563c08299)" d="M 1852.055563 273.809326 
L 1912.170375 273.809326 
L 1912.170375 340.67 
L 1852.055563 340.67 
L 1852.055563 273.809326 
" style="fill:#f1cdba;stroke:#ffffff;stroke-width:0.75;"/>
    <path clip-path="url(#p2563c08299)" d="M 1912.170375 273.809326 
L 1972.285188 273.809326 
L 1972.285188 340.67 
L 1912.170375 340.67 
L 1912.170375 273.809326 
" style="fill:#e6d7cf;stroke:#ffffff;stroke-width:0.75;"/>
    <path clip-path="url(#p2563c08299)" d="M 1972.285188 273.809326 
L 2032.4 273.809326 
L 2032.4 340.67 
L 1972.285188 340.67 
L 1972.285188 273.809326 
" style="fill:#e4d9d2;stroke:#ffffff;stroke-width:0.75;"/>
   </g>
   <g id="matplotlib.axis_3">
    <g id="xtick_1">
     <g id="line2d_2">
      <defs>
       <path d="M 0 0 
L 0 3.5 
" id="m6851a952f4" style="stroke:#000000;stroke-width:0.8;"/>
      </defs>
      <g>
       <use style="stroke:#000000;stroke-width:0.8;" x="138.783406" xlink:href="#m6851a952f4" y="340.67"/>
      </g>
     </g>
     <g id="text_2">
      <!-- Step 3-E -->
      <g transform="translate(94.911629 397.005061)rotate(-45)scale(0.14 -0.14)">
       <defs>
        <path id="DejaVuSans-32"/>
        <path d="M 40.578125 39.3125 
Q 47.65625 37.796875 51.625 33 
Q 55.609375 28.21875 55.609375 21.1875 
Q 55.609375 10.40625 48.1875 4.484375 
Q 40.765625 -1.421875 27.09375 -1.421875 
Q 22.515625 -1.421875 17.65625 -0.515625 
Q 12.796875 0.390625 7.625 2.203125 
L 7.625 11.71875 
Q 11.71875 9.328125 16.59375 8.109375 
Q 21.484375 6.890625 26.8125 6.890625 
Q 36.078125 6.890625 40.9375 10.546875 
Q 45.796875 14.203125 45.796875 21.1875 
Q 45.796875 27.640625 41.28125 31.265625 
Q 36.765625 34.90625 28.71875 34.90625 
L 20.21875 34.90625 
L 20.21875 43.015625 
L 29.109375 43.015625 
Q 36.375 43.015625 40.234375 45.921875 
Q 44.09375 48.828125 44.09375 54.296875 
Q 44.09375 59.90625 40.109375 62.90625 
Q 36.140625 65.921875 28.71875 65.921875 
Q 24.65625 65.921875 20.015625 65.03125 
Q 15.375 64.15625 9.8125 62.3125 
L 9.8125 71.09375 
Q 15.4375 72.65625 20.34375 73.4375 
Q 25.25 74.21875 29.59375 74.21875 
Q 40.828125 74.21875 47.359375 69.109375 
Q 53.90625 64.015625 53.90625 55.328125 
Q 53.90625 49.265625 50.4375 45.09375 
Q 46.96875 40.921875 40.578125 39.3125 
z
" id="DejaVuSans-51"/>
        <path d="M 4.890625 31.390625 
L 31.203125 31.390625 
L 31.203125 23.390625 
L 4.890625 23.390625 
z
" id="DejaVuSans-45"/>
        <path d="M 9.8125 72.90625 
L 55.90625 72.90625 
L 55.90625 64.59375 
L 19.671875 64.59375 
L 19.671875 43.015625 
L 54.390625 43.015625 
L 54.390625 34.71875 
L 19.671875 34.71875 
L 19.671875 8.296875 
L 56.78125 8.296875 
L 56.78125 0 
L 9.8125 0 
z
" id="DejaVuSans-69"/>
       </defs>
       <use xlink:href="#DejaVuSans-83"/>
       <use x="63.476562" xlink:href="#DejaVuSans-116"/>
       <use x="102.685547" xlink:href="#DejaVuSans-101"/>
       <use x="164.208984" xlink:href="#DejaVuSans-112"/>
       <use x="227.685547" xlink:href="#DejaVuSans-32"/>
       <use x="259.472656" xlink:href="#DejaVuSans-51"/>
       <use x="323.095703" xlink:href="#DejaVuSans-45"/>
       <use x="359.179688" xlink:href="#DejaVuSans-69"/>
      </g>
     </g>
    </g>
    <g id="xtick_2">
     <g id="line2d_3">
      <g>
       <use style="stroke:#000000;stroke-width:0.8;" x="198.898219" xlink:href="#m6851a952f4" y="340.67"/>
      </g>
     </g>
     <g id="text_3">
      <!-- Step 1-E -->
      <g transform="translate(155.026441 397.005061)rotate(-45)scale(0.14 -0.14)">
       <defs>
        <path d="M 12.40625 8.296875 
L 28.515625 8.296875 
L 28.515625 63.921875 
L 10.984375 60.40625 
L 10.984375 69.390625 
L 28.421875 72.90625 
L 38.28125 72.90625 
L 38.28125 8.296875 
L 54.390625 8.296875 
L 54.390625 0 
L 12.40625 0 
z
" id="DejaVuSans-49"/>
       </defs>
       <use xlink:href="#DejaVuSans-83"/>
       <use x="63.476562" xlink:href="#DejaVuSans-116"/>
       <use x="102.685547" xlink:href="#DejaVuSans-101"/>
       <use x="164.208984" xlink:href="#DejaVuSans-112"/>
       <use x="227.685547" xlink:href="#DejaVuSans-32"/>
       <use x="259.472656" xlink:href="#DejaVuSans-49"/>
       <use x="323.095703" xlink:href="#DejaVuSans-45"/>
       <use x="359.179688" xlink:href="#DejaVuSans-69"/>
      </g>
     </g>
    </g>
    <g id="xtick_3">
     <g id="line2d_4">
      <g>
       <use style="stroke:#000000;stroke-width:0.8;" x="259.013031" xlink:href="#m6851a952f4" y="340.67"/>
      </g>
     </g>
     <g id="text_4">
      <!-- Step 3-R -->
      <g transform="translate(214.517895 397.62842)rotate(-45)scale(0.14 -0.14)">
       <defs>
        <path d="M 44.390625 34.1875 
Q 47.5625 33.109375 50.5625 29.59375 
Q 53.5625 26.078125 56.59375 19.921875 
L 66.609375 0 
L 56 0 
L 46.6875 18.703125 
Q 43.0625 26.03125 39.671875 28.421875 
Q 36.28125 30.8125 30.421875 30.8125 
L 19.671875 30.8125 
L 19.671875 0 
L 9.8125 0 
L 9.8125 72.90625 
L 32.078125 72.90625 
Q 44.578125 72.90625 50.734375 67.671875 
Q 56.890625 62.453125 56.890625 51.90625 
Q 56.890625 45.015625 53.6875 40.46875 
Q 50.484375 35.9375 44.390625 34.1875 
z
M 19.671875 64.796875 
L 19.671875 38.921875 
L 32.078125 38.921875 
Q 39.203125 38.921875 42.84375 42.21875 
Q 46.484375 45.515625 46.484375 51.90625 
Q 46.484375 58.296875 42.84375 61.546875 
Q 39.203125 64.796875 32.078125 64.796875 
z
" id="DejaVuSans-82"/>
       </defs>
       <use xlink:href="#DejaVuSans-83"/>
       <use x="63.476562" xlink:href="#DejaVuSans-116"/>
       <use x="102.685547" xlink:href="#DejaVuSans-101"/>
       <use x="164.208984" xlink:href="#DejaVuSans-112"/>
       <use x="227.685547" xlink:href="#DejaVuSans-32"/>
       <use x="259.472656" xlink:href="#DejaVuSans-51"/>
       <use x="323.095703" xlink:href="#DejaVuSans-45"/>
       <use x="359.179688" xlink:href="#DejaVuSans-82"/>
      </g>
     </g>
    </g>
    <g id="xtick_4">
     <g id="line2d_5">
      <g>
       <use style="stroke:#000000;stroke-width:0.8;" x="319.127844" xlink:href="#m6851a952f4" y="340.67"/>
      </g>
     </g>
     <g id="text_5">
      <!-- Step 3-D -->
      <g transform="translate(273.888699 398.372429)rotate(-45)scale(0.14 -0.14)">
       <defs>
        <path d="M 19.671875 64.796875 
L 19.671875 8.109375 
L 31.59375 8.109375 
Q 46.6875 8.109375 53.6875 14.9375 
Q 60.6875 21.78125 60.6875 36.53125 
Q 60.6875 51.171875 53.6875 57.984375 
Q 46.6875 64.796875 31.59375 64.796875 
z
M 9.8125 72.90625 
L 30.078125 72.90625 
Q 51.265625 72.90625 61.171875 64.09375 
Q 71.09375 55.28125 71.09375 36.53125 
Q 71.09375 17.671875 61.125 8.828125 
Q 51.171875 0 30.078125 0 
L 9.8125 0 
z
" id="DejaVuSans-68"/>
       </defs>
       <use xlink:href="#DejaVuSans-83"/>
       <use x="63.476562" xlink:href="#DejaVuSans-116"/>
       <use x="102.685547" xlink:href="#DejaVuSans-101"/>
       <use x="164.208984" xlink:href="#DejaVuSans-112"/>
       <use x="227.685547" xlink:href="#DejaVuSans-32"/>
       <use x="259.472656" xlink:href="#DejaVuSans-51"/>
       <use x="323.095703" xlink:href="#DejaVuSans-45"/>
       <use x="359.179688" xlink:href="#DejaVuSans-68"/>
      </g>
     </g>
    </g>
    <g id="xtick_5">
     <g id="line2d_6">
      <g>
       <use style="stroke:#000000;stroke-width:0.8;" x="379.242656" xlink:href="#m6851a952f4" y="340.67"/>
      </g>
     </g>
     <g id="text_6">
      <!-- Step 5-K -->
      <g transform="translate(335.134219 397.241721)rotate(-45)scale(0.14 -0.14)">
       <defs>
        <path d="M 10.796875 72.90625 
L 49.515625 72.90625 
L 49.515625 64.59375 
L 19.828125 64.59375 
L 19.828125 46.734375 
Q 21.96875 47.46875 24.109375 47.828125 
Q 26.265625 48.1875 28.421875 48.1875 
Q 40.625 48.1875 47.75 41.5 
Q 54.890625 34.8125 54.890625 23.390625 
Q 54.890625 11.625 47.5625 5.09375 
Q 40.234375 -1.421875 26.90625 -1.421875 
Q 22.3125 -1.421875 17.546875 -0.640625 
Q 12.796875 0.140625 7.71875 1.703125 
L 7.71875 11.625 
Q 12.109375 9.234375 16.796875 8.0625 
Q 21.484375 6.890625 26.703125 6.890625 
Q 35.15625 6.890625 40.078125 11.328125 
Q 45.015625 15.765625 45.015625 23.390625 
Q 45.015625 31 40.078125 35.4375 
Q 35.15625 39.890625 26.703125 39.890625 
Q 22.75 39.890625 18.8125 39.015625 
Q 14.890625 38.140625 10.796875 36.28125 
z
" id="DejaVuSans-53"/>
        <path d="M 9.8125 72.90625 
L 19.671875 72.90625 
L 19.671875 42.09375 
L 52.390625 72.90625 
L 65.09375 72.90625 
L 28.90625 38.921875 
L 67.671875 0 
L 54.6875 0 
L 19.671875 35.109375 
L 19.671875 0 
L 9.8125 0 
z
" id="DejaVuSans-75"/>
       </defs>
       <use xlink:href="#DejaVuSans-83"/>
       <use x="63.476562" xlink:href="#DejaVuSans-116"/>
       <use x="102.685547" xlink:href="#DejaVuSans-101"/>
       <use x="164.208984" xlink:href="#DejaVuSans-112"/>
       <use x="227.685547" xlink:href="#DejaVuSans-32"/>
       <use x="259.472656" xlink:href="#DejaVuSans-53"/>
       <use x="323.095703" xlink:href="#DejaVuSans-45"/>
       <use x="359.179688" xlink:href="#DejaVuSans-75"/>
      </g>
     </g>
    </g>
    <g id="xtick_6">
     <g id="line2d_7">
      <g>
       <use style="stroke:#000000;stroke-width:0.8;" x="439.357469" xlink:href="#m6851a952f4" y="340.67"/>
      </g>
     </g>
     <g id="text_7">
      <!-- Step 4-K -->
      <g transform="translate(395.249032 397.241721)rotate(-45)scale(0.14 -0.14)">
       <defs>
        <path d="M 37.796875 64.3125 
L 12.890625 25.390625 
L 37.796875 25.390625 
z
M 35.203125 72.90625 
L 47.609375 72.90625 
L 47.609375 25.390625 
L 58.015625 25.390625 
L 58.015625 17.1875 
L 47.609375 17.1875 
L 47.609375 0 
L 37.796875 0 
L 37.796875 17.1875 
L 4.890625 17.1875 
L 4.890625 26.703125 
z
" id="DejaVuSans-52"/>
       </defs>
       <use xlink:href="#DejaVuSans-83"/>
       <use x="63.476562" xlink:href="#DejaVuSans-116"/>
       <use x="102.685547" xlink:href="#DejaVuSans-101"/>
       <use x="164.208984" xlink:href="#DejaVuSans-112"/>
       <use x="227.685547" xlink:href="#DejaVuSans-32"/>
       <use x="259.472656" xlink:href="#DejaVuSans-52"/>
       <use x="323.095703" xlink:href="#DejaVuSans-45"/>
       <use x="359.179688" xlink:href="#DejaVuSans-75"/>
      </g>
     </g>
    </g>
    <g id="xtick_7">
     <g id="line2d_8">
      <g>
       <use style="stroke:#000000;stroke-width:0.8;" x="499.472281" xlink:href="#m6851a952f4" y="340.67"/>
      </g>
     </g>
     <g id="text_8">
      <!-- Step 1-R -->
      <g transform="translate(454.977145 397.62842)rotate(-45)scale(0.14 -0.14)">
       <use xlink:href="#DejaVuSans-83"/>
       <use x="63.476562" xlink:href="#DejaVuSans-116"/>
       <use x="102.685547" xlink:href="#DejaVuSans-101"/>
       <use x="164.208984" xlink:href="#DejaVuSans-112"/>
       <use x="227.685547" xlink:href="#DejaVuSans-32"/>
       <use x="259.472656" xlink:href="#DejaVuSans-49"/>
       <use x="323.095703" xlink:href="#DejaVuSans-45"/>
       <use x="359.179688" xlink:href="#DejaVuSans-82"/>
      </g>
     </g>
    </g>
    <g id="xtick_8">
     <g id="line2d_9">
      <g>
       <use style="stroke:#000000;stroke-width:0.8;" x="559.587094" xlink:href="#m6851a952f4" y="340.67"/>
      </g>
     </g>
     <g id="text_9">
      <!-- Step 3-K -->
      <g transform="translate(515.478657 397.241721)rotate(-45)scale(0.14 -0.14)">
       <use xlink:href="#DejaVuSans-83"/>
       <use x="63.476562" xlink:href="#DejaVuSans-116"/>
       <use x="102.685547" xlink:href="#DejaVuSans-101"/>
       <use x="164.208984" xlink:href="#DejaVuSans-112"/>
       <use x="227.685547" xlink:href="#DejaVuSans-32"/>
       <use x="259.472656" xlink:href="#DejaVuSans-51"/>
       <use x="323.095703" xlink:href="#DejaVuSans-45"/>
       <use x="359.179688" xlink:href="#DejaVuSans-75"/>
      </g>
     </g>
    </g>
    <g id="xtick_9">
     <g id="line2d_10">
      <g>
       <use style="stroke:#000000;stroke-width:0.8;" x="619.701906" xlink:href="#m6851a952f4" y="340.67"/>
      </g>
     </g>
     <g id="text_10">
      <!-- Step 8-E -->
      <g transform="translate(575.830129 397.005061)rotate(-45)scale(0.14 -0.14)">
       <defs>
        <path d="M 31.78125 34.625 
Q 24.75 34.625 20.71875 30.859375 
Q 16.703125 27.09375 16.703125 20.515625 
Q 16.703125 13.921875 20.71875 10.15625 
Q 24.75 6.390625 31.78125 6.390625 
Q 38.8125 6.390625 42.859375 10.171875 
Q 46.921875 13.96875 46.921875 20.515625 
Q 46.921875 27.09375 42.890625 30.859375 
Q 38.875 34.625 31.78125 34.625 
z
M 21.921875 38.8125 
Q 15.578125 40.375 12.03125 44.71875 
Q 8.5 49.078125 8.5 55.328125 
Q 8.5 64.0625 14.71875 69.140625 
Q 20.953125 74.21875 31.78125 74.21875 
Q 42.671875 74.21875 48.875 69.140625 
Q 55.078125 64.0625 55.078125 55.328125 
Q 55.078125 49.078125 51.53125 44.71875 
Q 48 40.375 41.703125 38.8125 
Q 48.828125 37.15625 52.796875 32.3125 
Q 56.78125 27.484375 56.78125 20.515625 
Q 56.78125 9.90625 50.3125 4.234375 
Q 43.84375 -1.421875 31.78125 -1.421875 
Q 19.734375 -1.421875 13.25 4.234375 
Q 6.78125 9.90625 6.78125 20.515625 
Q 6.78125 27.484375 10.78125 32.3125 
Q 14.796875 37.15625 21.921875 38.8125 
z
M 18.3125 54.390625 
Q 18.3125 48.734375 21.84375 45.5625 
Q 25.390625 42.390625 31.78125 42.390625 
Q 38.140625 42.390625 41.71875 45.5625 
Q 45.3125 48.734375 45.3125 54.390625 
Q 45.3125 60.0625 41.71875 63.234375 
Q 38.140625 66.40625 31.78125 66.40625 
Q 25.390625 66.40625 21.84375 63.234375 
Q 18.3125 60.0625 18.3125 54.390625 
z
" id="DejaVuSans-56"/>
       </defs>
       <use xlink:href="#DejaVuSans-83"/>
       <use x="63.476562" xlink:href="#DejaVuSans-116"/>
       <use x="102.685547" xlink:href="#DejaVuSans-101"/>
       <use x="164.208984" xlink:href="#DejaVuSans-112"/>
       <use x="227.685547" xlink:href="#DejaVuSans-32"/>
       <use x="259.472656" xlink:href="#DejaVuSans-56"/>
       <use x="323.095703" xlink:href="#DejaVuSans-45"/>
       <use x="359.179688" xlink:href="#DejaVuSans-69"/>
      </g>
     </g>
    </g>
    <g id="xtick_10">
     <g id="line2d_11">
      <g>
       <use style="stroke:#000000;stroke-width:0.8;" x="679.816719" xlink:href="#m6851a952f4" y="340.67"/>
      </g>
     </g>
     <g id="text_11">
      <!-- Step 6-E -->
      <g transform="translate(635.944941 397.005061)rotate(-45)scale(0.14 -0.14)">
       <defs>
        <path d="M 33.015625 40.375 
Q 26.375 40.375 22.484375 35.828125 
Q 18.609375 31.296875 18.609375 23.390625 
Q 18.609375 15.53125 22.484375 10.953125 
Q 26.375 6.390625 33.015625 6.390625 
Q 39.65625 6.390625 43.53125 10.953125 
Q 47.40625 15.53125 47.40625 23.390625 
Q 47.40625 31.296875 43.53125 35.828125 
Q 39.65625 40.375 33.015625 40.375 
z
M 52.59375 71.296875 
L 52.59375 62.3125 
Q 48.875 64.0625 45.09375 64.984375 
Q 41.3125 65.921875 37.59375 65.921875 
Q 27.828125 65.921875 22.671875 59.328125 
Q 17.53125 52.734375 16.796875 39.40625 
Q 19.671875 43.65625 24.015625 45.921875 
Q 28.375 48.1875 33.59375 48.1875 
Q 44.578125 48.1875 50.953125 41.515625 
Q 57.328125 34.859375 57.328125 23.390625 
Q 57.328125 12.15625 50.6875 5.359375 
Q 44.046875 -1.421875 33.015625 -1.421875 
Q 20.359375 -1.421875 13.671875 8.265625 
Q 6.984375 17.96875 6.984375 36.375 
Q 6.984375 53.65625 15.1875 63.9375 
Q 23.390625 74.21875 37.203125 74.21875 
Q 40.921875 74.21875 44.703125 73.484375 
Q 48.484375 72.75 52.59375 71.296875 
z
" id="DejaVuSans-54"/>
       </defs>
       <use xlink:href="#DejaVuSans-83"/>
       <use x="63.476562" xlink:href="#DejaVuSans-116"/>
       <use x="102.685547" xlink:href="#DejaVuSans-101"/>
       <use x="164.208984" xlink:href="#DejaVuSans-112"/>
       <use x="227.685547" xlink:href="#DejaVuSans-32"/>
       <use x="259.472656" xlink:href="#DejaVuSans-54"/>
       <use x="323.095703" xlink:href="#DejaVuSans-45"/>
       <use x="359.179688" xlink:href="#DejaVuSans-69"/>
      </g>
     </g>
    </g>
    <g id="xtick_11">
     <g id="line2d_12">
      <g>
       <use style="stroke:#000000;stroke-width:0.8;" x="739.931531" xlink:href="#m6851a952f4" y="340.67"/>
      </g>
     </g>
     <g id="text_12">
      <!-- Step 2-K -->
      <g transform="translate(695.823094 397.241721)rotate(-45)scale(0.14 -0.14)">
       <defs>
        <path d="M 19.1875 8.296875 
L 53.609375 8.296875 
L 53.609375 0 
L 7.328125 0 
L 7.328125 8.296875 
Q 12.9375 14.109375 22.625 23.890625 
Q 32.328125 33.6875 34.8125 36.53125 
Q 39.546875 41.84375 41.421875 45.53125 
Q 43.3125 49.21875 43.3125 52.78125 
Q 43.3125 58.59375 39.234375 62.25 
Q 35.15625 65.921875 28.609375 65.921875 
Q 23.96875 65.921875 18.8125 64.3125 
Q 13.671875 62.703125 7.8125 59.421875 
L 7.8125 69.390625 
Q 13.765625 71.78125 18.9375 73 
Q 24.125 74.21875 28.421875 74.21875 
Q 39.75 74.21875 46.484375 68.546875 
Q 53.21875 62.890625 53.21875 53.421875 
Q 53.21875 48.921875 51.53125 44.890625 
Q 49.859375 40.875 45.40625 35.40625 
Q 44.1875 33.984375 37.640625 27.21875 
Q 31.109375 20.453125 19.1875 8.296875 
z
" id="DejaVuSans-50"/>
       </defs>
       <use xlink:href="#DejaVuSans-83"/>
       <use x="63.476562" xlink:href="#DejaVuSans-116"/>
       <use x="102.685547" xlink:href="#DejaVuSans-101"/>
       <use x="164.208984" xlink:href="#DejaVuSans-112"/>
       <use x="227.685547" xlink:href="#DejaVuSans-32"/>
       <use x="259.472656" xlink:href="#DejaVuSans-50"/>
       <use x="323.095703" xlink:href="#DejaVuSans-45"/>
       <use x="359.179688" xlink:href="#DejaVuSans-75"/>
      </g>
     </g>
    </g>
    <g id="xtick_12">
     <g id="line2d_13">
      <g>
       <use style="stroke:#000000;stroke-width:0.8;" x="800.046344" xlink:href="#m6851a952f4" y="340.67"/>
      </g>
     </g>
     <g id="text_13">
      <!-- Step 8-D -->
      <g transform="translate(754.807199 398.372429)rotate(-45)scale(0.14 -0.14)">
       <use xlink:href="#DejaVuSans-83"/>
       <use x="63.476562" xlink:href="#DejaVuSans-116"/>
       <use x="102.685547" xlink:href="#DejaVuSans-101"/>
       <use x="164.208984" xlink:href="#DejaVuSans-112"/>
       <use x="227.685547" xlink:href="#DejaVuSans-32"/>
       <use x="259.472656" xlink:href="#DejaVuSans-56"/>
       <use x="323.095703" xlink:href="#DejaVuSans-45"/>
       <use x="359.179688" xlink:href="#DejaVuSans-68"/>
      </g>
     </g>
    </g>
    <g id="xtick_13">
     <g id="line2d_14">
      <g>
       <use style="stroke:#000000;stroke-width:0.8;" x="860.161156" xlink:href="#m6851a952f4" y="340.67"/>
      </g>
     </g>
     <g id="text_14">
      <!-- Step 7-E -->
      <g transform="translate(816.289379 397.005061)rotate(-45)scale(0.14 -0.14)">
       <defs>
        <path d="M 8.203125 72.90625 
L 55.078125 72.90625 
L 55.078125 68.703125 
L 28.609375 0 
L 18.3125 0 
L 43.21875 64.59375 
L 8.203125 64.59375 
z
" id="DejaVuSans-55"/>
       </defs>
       <use xlink:href="#DejaVuSans-83"/>
       <use x="63.476562" xlink:href="#DejaVuSans-116"/>
       <use x="102.685547" xlink:href="#DejaVuSans-101"/>
       <use x="164.208984" xlink:href="#DejaVuSans-112"/>
       <use x="227.685547" xlink:href="#DejaVuSans-32"/>
       <use x="259.472656" xlink:href="#DejaVuSans-55"/>
       <use x="323.095703" xlink:href="#DejaVuSans-45"/>
       <use x="359.179688" xlink:href="#DejaVuSans-69"/>
      </g>
     </g>
    </g>
    <g id="xtick_14">
     <g id="line2d_15">
      <g>
       <use style="stroke:#000000;stroke-width:0.8;" x="920.275969" xlink:href="#m6851a952f4" y="340.67"/>
      </g>
     </g>
     <g id="text_15">
      <!-- Step 8-K -->
      <g transform="translate(876.167532 397.241721)rotate(-45)scale(0.14 -0.14)">
       <use xlink:href="#DejaVuSans-83"/>
       <use x="63.476562" xlink:href="#DejaVuSans-116"/>
       <use x="102.685547" xlink:href="#DejaVuSans-101"/>
       <use x="164.208984" xlink:href="#DejaVuSans-112"/>
       <use x="227.685547" xlink:href="#DejaVuSans-32"/>
       <use x="259.472656" xlink:href="#DejaVuSans-56"/>
       <use x="323.095703" xlink:href="#DejaVuSans-45"/>
       <use x="359.179688" xlink:href="#DejaVuSans-75"/>
      </g>
     </g>
    </g>
    <g id="xtick_15">
     <g id="line2d_16">
      <g>
       <use style="stroke:#000000;stroke-width:0.8;" x="980.390781" xlink:href="#m6851a952f4" y="340.67"/>
      </g>
     </g>
     <g id="text_16">
      <!-- Step 7-K -->
      <g transform="translate(936.282344 397.241721)rotate(-45)scale(0.14 -0.14)">
       <use xlink:href="#DejaVuSans-83"/>
       <use x="63.476562" xlink:href="#DejaVuSans-116"/>
       <use x="102.685547" xlink:href="#DejaVuSans-101"/>
       <use x="164.208984" xlink:href="#DejaVuSans-112"/>
       <use x="227.685547" xlink:href="#DejaVuSans-32"/>
       <use x="259.472656" xlink:href="#DejaVuSans-55"/>
       <use x="323.095703" xlink:href="#DejaVuSans-45"/>
       <use x="359.179688" xlink:href="#DejaVuSans-75"/>
      </g>
     </g>
    </g>
    <g id="xtick_16">
     <g id="line2d_17">
      <g>
       <use style="stroke:#000000;stroke-width:0.8;" x="1040.505594" xlink:href="#m6851a952f4" y="340.67"/>
      </g>
     </g>
     <g id="text_17">
      <!-- Step 1-K -->
      <g transform="translate(996.397157 397.241721)rotate(-45)scale(0.14 -0.14)">
       <use xlink:href="#DejaVuSans-83"/>
       <use x="63.476562" xlink:href="#DejaVuSans-116"/>
       <use x="102.685547" xlink:href="#DejaVuSans-101"/>
       <use x="164.208984" xlink:href="#DejaVuSans-112"/>
       <use x="227.685547" xlink:href="#DejaVuSans-32"/>
       <use x="259.472656" xlink:href="#DejaVuSans-49"/>
       <use x="323.095703" xlink:href="#DejaVuSans-45"/>
       <use x="359.179688" xlink:href="#DejaVuSans-75"/>
      </g>
     </g>
    </g>
    <g id="xtick_17">
     <g id="line2d_18">
      <g>
       <use style="stroke:#000000;stroke-width:0.8;" x="1100.620406" xlink:href="#m6851a952f4" y="340.67"/>
      </g>
     </g>
     <g id="text_18">
      <!-- Step 4-E -->
      <g transform="translate(1056.748629 397.005061)rotate(-45)scale(0.14 -0.14)">
       <use xlink:href="#DejaVuSans-83"/>
       <use x="63.476562" xlink:href="#DejaVuSans-116"/>
       <use x="102.685547" xlink:href="#DejaVuSans-101"/>
       <use x="164.208984" xlink:href="#DejaVuSans-112"/>
       <use x="227.685547" xlink:href="#DejaVuSans-32"/>
       <use x="259.472656" xlink:href="#DejaVuSans-52"/>
       <use x="323.095703" xlink:href="#DejaVuSans-45"/>
       <use x="359.179688" xlink:href="#DejaVuSans-69"/>
      </g>
     </g>
    </g>
    <g id="xtick_18">
     <g id="line2d_19">
      <g>
       <use style="stroke:#000000;stroke-width:0.8;" x="1160.735219" xlink:href="#m6851a952f4" y="340.67"/>
      </g>
     </g>
     <g id="text_19">
      <!-- Step 8-R -->
      <g transform="translate(1116.240083 397.62842)rotate(-45)scale(0.14 -0.14)">
       <use xlink:href="#DejaVuSans-83"/>
       <use x="63.476562" xlink:href="#DejaVuSans-116"/>
       <use x="102.685547" xlink:href="#DejaVuSans-101"/>
       <use x="164.208984" xlink:href="#DejaVuSans-112"/>
       <use x="227.685547" xlink:href="#DejaVuSans-32"/>
       <use x="259.472656" xlink:href="#DejaVuSans-56"/>
       <use x="323.095703" xlink:href="#DejaVuSans-45"/>
       <use x="359.179688" xlink:href="#DejaVuSans-82"/>
      </g>
     </g>
    </g>
    <g id="xtick_19">
     <g id="line2d_20">
      <g>
       <use style="stroke:#000000;stroke-width:0.8;" x="1220.850031" xlink:href="#m6851a952f4" y="340.67"/>
      </g>
     </g>
     <g id="text_20">
      <!-- Step 2-D -->
      <g transform="translate(1175.610886 398.372429)rotate(-45)scale(0.14 -0.14)">
       <use xlink:href="#DejaVuSans-83"/>
       <use x="63.476562" xlink:href="#DejaVuSans-116"/>
       <use x="102.685547" xlink:href="#DejaVuSans-101"/>
       <use x="164.208984" xlink:href="#DejaVuSans-112"/>
       <use x="227.685547" xlink:href="#DejaVuSans-32"/>
       <use x="259.472656" xlink:href="#DejaVuSans-50"/>
       <use x="323.095703" xlink:href="#DejaVuSans-45"/>
       <use x="359.179688" xlink:href="#DejaVuSans-68"/>
      </g>
     </g>
    </g>
    <g id="xtick_20">
     <g id="line2d_21">
      <g>
       <use style="stroke:#000000;stroke-width:0.8;" x="1280.964844" xlink:href="#m6851a952f4" y="340.67"/>
      </g>
     </g>
     <g id="text_21">
      <!-- Step 2-R -->
      <g transform="translate(1236.469708 397.62842)rotate(-45)scale(0.14 -0.14)">
       <use xlink:href="#DejaVuSans-83"/>
       <use x="63.476562" xlink:href="#DejaVuSans-116"/>
       <use x="102.685547" xlink:href="#DejaVuSans-101"/>
       <use x="164.208984" xlink:href="#DejaVuSans-112"/>
       <use x="227.685547" xlink:href="#DejaVuSans-32"/>
       <use x="259.472656" xlink:href="#DejaVuSans-50"/>
       <use x="323.095703" xlink:href="#DejaVuSans-45"/>
       <use x="359.179688" xlink:href="#DejaVuSans-82"/>
      </g>
     </g>
    </g>
    <g id="xtick_21">
     <g id="line2d_22">
      <g>
       <use style="stroke:#000000;stroke-width:0.8;" x="1341.079656" xlink:href="#m6851a952f4" y="340.67"/>
      </g>
     </g>
     <g id="text_22">
      <!-- Step 5-E -->
      <g transform="translate(1297.207879 397.005061)rotate(-45)scale(0.14 -0.14)">
       <use xlink:href="#DejaVuSans-83"/>
       <use x="63.476562" xlink:href="#DejaVuSans-116"/>
       <use x="102.685547" xlink:href="#DejaVuSans-101"/>
       <use x="164.208984" xlink:href="#DejaVuSans-112"/>
       <use x="227.685547" xlink:href="#DejaVuSans-32"/>
       <use x="259.472656" xlink:href="#DejaVuSans-53"/>
       <use x="323.095703" xlink:href="#DejaVuSans-45"/>
       <use x="359.179688" xlink:href="#DejaVuSans-69"/>
      </g>
     </g>
    </g>
    <g id="xtick_22">
     <g id="line2d_23">
      <g>
       <use style="stroke:#000000;stroke-width:0.8;" x="1401.194469" xlink:href="#m6851a952f4" y="340.67"/>
      </g>
     </g>
     <g id="text_23">
      <!-- Step 7-R -->
      <g transform="translate(1356.699333 397.62842)rotate(-45)scale(0.14 -0.14)">
       <use xlink:href="#DejaVuSans-83"/>
       <use x="63.476562" xlink:href="#DejaVuSans-116"/>
       <use x="102.685547" xlink:href="#DejaVuSans-101"/>
       <use x="164.208984" xlink:href="#DejaVuSans-112"/>
       <use x="227.685547" xlink:href="#DejaVuSans-32"/>
       <use x="259.472656" xlink:href="#DejaVuSans-55"/>
       <use x="323.095703" xlink:href="#DejaVuSans-45"/>
       <use x="359.179688" xlink:href="#DejaVuSans-82"/>
      </g>
     </g>
    </g>
    <g id="xtick_23">
     <g id="line2d_24">
      <g>
       <use style="stroke:#000000;stroke-width:0.8;" x="1461.309281" xlink:href="#m6851a952f4" y="340.67"/>
      </g>
     </g>
     <g id="text_24">
      <!-- Step 5-R -->
      <g transform="translate(1416.814145 397.62842)rotate(-45)scale(0.14 -0.14)">
       <use xlink:href="#DejaVuSans-83"/>
       <use x="63.476562" xlink:href="#DejaVuSans-116"/>
       <use x="102.685547" xlink:href="#DejaVuSans-101"/>
       <use x="164.208984" xlink:href="#DejaVuSans-112"/>
       <use x="227.685547" xlink:href="#DejaVuSans-32"/>
       <use x="259.472656" xlink:href="#DejaVuSans-53"/>
       <use x="323.095703" xlink:href="#DejaVuSans-45"/>
       <use x="359.179688" xlink:href="#DejaVuSans-82"/>
      </g>
     </g>
    </g>
    <g id="xtick_24">
     <g id="line2d_25">
      <g>
       <use style="stroke:#000000;stroke-width:0.8;" x="1521.424094" xlink:href="#m6851a952f4" y="340.67"/>
      </g>
     </g>
     <g id="text_25">
      <!-- Step 6-R -->
      <g transform="translate(1476.928958 397.62842)rotate(-45)scale(0.14 -0.14)">
       <use xlink:href="#DejaVuSans-83"/>
       <use x="63.476562" xlink:href="#DejaVuSans-116"/>
       <use x="102.685547" xlink:href="#DejaVuSans-101"/>
       <use x="164.208984" xlink:href="#DejaVuSans-112"/>
       <use x="227.685547" xlink:href="#DejaVuSans-32"/>
       <use x="259.472656" xlink:href="#DejaVuSans-54"/>
       <use x="323.095703" xlink:href="#DejaVuSans-45"/>
       <use x="359.179688" xlink:href="#DejaVuSans-82"/>
      </g>
     </g>
    </g>
    <g id="xtick_25">
     <g id="line2d_26">
      <g>
       <use style="stroke:#000000;stroke-width:0.8;" x="1581.538906" xlink:href="#m6851a952f4" y="340.67"/>
      </g>
     </g>
     <g id="text_26">
      <!-- Step 1-D -->
      <g transform="translate(1536.299761 398.372429)rotate(-45)scale(0.14 -0.14)">
       <use xlink:href="#DejaVuSans-83"/>
       <use x="63.476562" xlink:href="#DejaVuSans-116"/>
       <use x="102.685547" xlink:href="#DejaVuSans-101"/>
       <use x="164.208984" xlink:href="#DejaVuSans-112"/>
       <use x="227.685547" xlink:href="#DejaVuSans-32"/>
       <use x="259.472656" xlink:href="#DejaVuSans-49"/>
       <use x="323.095703" xlink:href="#DejaVuSans-45"/>
       <use x="359.179688" xlink:href="#DejaVuSans-68"/>
      </g>
     </g>
    </g>
    <g id="xtick_26">
     <g id="line2d_27">
      <g>
       <use style="stroke:#000000;stroke-width:0.8;" x="1641.653719" xlink:href="#m6851a952f4" y="340.67"/>
      </g>
     </g>
     <g id="text_27">
      <!-- Step 2-E -->
      <g transform="translate(1597.781941 397.005061)rotate(-45)scale(0.14 -0.14)">
       <use xlink:href="#DejaVuSans-83"/>
       <use x="63.476562" xlink:href="#DejaVuSans-116"/>
       <use x="102.685547" xlink:href="#DejaVuSans-101"/>
       <use x="164.208984" xlink:href="#DejaVuSans-112"/>
       <use x="227.685547" xlink:href="#DejaVuSans-32"/>
       <use x="259.472656" xlink:href="#DejaVuSans-50"/>
       <use x="323.095703" xlink:href="#DejaVuSans-45"/>
       <use x="359.179688" xlink:href="#DejaVuSans-69"/>
      </g>
     </g>
    </g>
    <g id="xtick_27">
     <g id="line2d_28">
      <g>
       <use style="stroke:#000000;stroke-width:0.8;" x="1701.768531" xlink:href="#m6851a952f4" y="340.67"/>
      </g>
     </g>
     <g id="text_28">
      <!-- Step 4-D -->
      <g transform="translate(1656.529386 398.372429)rotate(-45)scale(0.14 -0.14)">
       <use xlink:href="#DejaVuSans-83"/>
       <use x="63.476562" xlink:href="#DejaVuSans-116"/>
       <use x="102.685547" xlink:href="#DejaVuSans-101"/>
       <use x="164.208984" xlink:href="#DejaVuSans-112"/>
       <use x="227.685547" xlink:href="#DejaVuSans-32"/>
       <use x="259.472656" xlink:href="#DejaVuSans-52"/>
       <use x="323.095703" xlink:href="#DejaVuSans-45"/>
       <use x="359.179688" xlink:href="#DejaVuSans-68"/>
      </g>
     </g>
    </g>
    <g id="xtick_28">
     <g id="line2d_29">
      <g>
       <use style="stroke:#000000;stroke-width:0.8;" x="1761.883344" xlink:href="#m6851a952f4" y="340.67"/>
      </g>
     </g>
     <g id="text_29">
      <!-- Step 5-D -->
      <g transform="translate(1716.644199 398.372429)rotate(-45)scale(0.14 -0.14)">
       <use xlink:href="#DejaVuSans-83"/>
       <use x="63.476562" xlink:href="#DejaVuSans-116"/>
       <use x="102.685547" xlink:href="#DejaVuSans-101"/>
       <use x="164.208984" xlink:href="#DejaVuSans-112"/>
       <use x="227.685547" xlink:href="#DejaVuSans-32"/>
       <use x="259.472656" xlink:href="#DejaVuSans-53"/>
       <use x="323.095703" xlink:href="#DejaVuSans-45"/>
       <use x="359.179688" xlink:href="#DejaVuSans-68"/>
      </g>
     </g>
    </g>
    <g id="xtick_29">
     <g id="line2d_30">
      <g>
       <use style="stroke:#000000;stroke-width:0.8;" x="1821.998156" xlink:href="#m6851a952f4" y="340.67"/>
      </g>
     </g>
     <g id="text_30">
      <!-- Step 4-R -->
      <g transform="translate(1777.50302 397.62842)rotate(-45)scale(0.14 -0.14)">
       <use xlink:href="#DejaVuSans-83"/>
       <use x="63.476562" xlink:href="#DejaVuSans-116"/>
       <use x="102.685547" xlink:href="#DejaVuSans-101"/>
       <use x="164.208984" xlink:href="#DejaVuSans-112"/>
       <use x="227.685547" xlink:href="#DejaVuSans-32"/>
       <use x="259.472656" xlink:href="#DejaVuSans-52"/>
       <use x="323.095703" xlink:href="#DejaVuSans-45"/>
       <use x="359.179688" xlink:href="#DejaVuSans-82"/>
      </g>
     </g>
    </g>
    <g id="xtick_30">
     <g id="line2d_31">
      <g>
       <use style="stroke:#000000;stroke-width:0.8;" x="1882.112969" xlink:href="#m6851a952f4" y="340.67"/>
      </g>
     </g>
     <g id="text_31">
      <!-- Step 6-K -->
      <g transform="translate(1838.004532 397.241721)rotate(-45)scale(0.14 -0.14)">
       <use xlink:href="#DejaVuSans-83"/>
       <use x="63.476562" xlink:href="#DejaVuSans-116"/>
       <use x="102.685547" xlink:href="#DejaVuSans-101"/>
       <use x="164.208984" xlink:href="#DejaVuSans-112"/>
       <use x="227.685547" xlink:href="#DejaVuSans-32"/>
       <use x="259.472656" xlink:href="#DejaVuSans-54"/>
       <use x="323.095703" xlink:href="#DejaVuSans-45"/>
       <use x="359.179688" xlink:href="#DejaVuSans-75"/>
      </g>
     </g>
    </g>
    <g id="xtick_31">
     <g id="line2d_32">
      <g>
       <use style="stroke:#000000;stroke-width:0.8;" x="1942.227781" xlink:href="#m6851a952f4" y="340.67"/>
      </g>
     </g>
     <g id="text_32">
      <!-- Step 6-D -->
      <g transform="translate(1896.988636 398.372429)rotate(-45)scale(0.14 -0.14)">
       <use xlink:href="#DejaVuSans-83"/>
       <use x="63.476562" xlink:href="#DejaVuSans-116"/>
       <use x="102.685547" xlink:href="#DejaVuSans-101"/>
       <use x="164.208984" xlink:href="#DejaVuSans-112"/>
       <use x="227.685547" xlink:href="#DejaVuSans-32"/>
       <use x="259.472656" xlink:href="#DejaVuSans-54"/>
       <use x="323.095703" xlink:href="#DejaVuSans-45"/>
       <use x="359.179688" xlink:href="#DejaVuSans-68"/>
      </g>
     </g>
    </g>
    <g id="xtick_32">
     <g id="line2d_33">
      <g>
       <use style="stroke:#000000;stroke-width:0.8;" x="2002.342594" xlink:href="#m6851a952f4" y="340.67"/>
      </g>
     </g>
     <g id="text_33">
      <!-- Step 7-D -->
      <g transform="translate(1957.103449 398.372429)rotate(-45)scale(0.14 -0.14)">
       <use xlink:href="#DejaVuSans-83"/>
       <use x="63.476562" xlink:href="#DejaVuSans-116"/>
       <use x="102.685547" xlink:href="#DejaVuSans-101"/>
       <use x="164.208984" xlink:href="#DejaVuSans-112"/>
       <use x="227.685547" xlink:href="#DejaVuSans-32"/>
       <use x="259.472656" xlink:href="#DejaVuSans-55"/>
       <use x="323.095703" xlink:href="#DejaVuSans-45"/>
       <use x="359.179688" xlink:href="#DejaVuSans-68"/>
      </g>
     </g>
    </g>
   </g>
   <g id="matplotlib.axis_4">
    <g id="ytick_2">
     <g id="line2d_34">
      <g>
       <use style="stroke:#000000;stroke-width:0.8;" x="2032.4" xlink:href="#m81139a2955" y="106.65764"/>
      </g>
     </g>
     <g id="text_34">
      <!-- Membranes E -->
      <g transform="translate(2039.4 111.976546)scale(0.14 -0.14)">
       <defs>
        <path d="M 9.8125 72.90625 
L 24.515625 72.90625 
L 43.109375 23.296875 
L 61.8125 72.90625 
L 76.515625 72.90625 
L 76.515625 0 
L 66.890625 0 
L 66.890625 64.015625 
L 48.09375 14.015625 
L 38.1875 14.015625 
L 19.390625 64.015625 
L 19.390625 0 
L 9.8125 0 
z
" id="DejaVuSans-77"/>
        <path d="M 52 44.1875 
Q 55.375 50.25 60.0625 53.125 
Q 64.75 56 71.09375 56 
Q 79.640625 56 84.28125 50.015625 
Q 88.921875 44.046875 88.921875 33.015625 
L 88.921875 0 
L 79.890625 0 
L 79.890625 32.71875 
Q 79.890625 40.578125 77.09375 44.375 
Q 74.3125 48.1875 68.609375 48.1875 
Q 61.625 48.1875 57.5625 43.546875 
Q 53.515625 38.921875 53.515625 30.90625 
L 53.515625 0 
L 44.484375 0 
L 44.484375 32.71875 
Q 44.484375 40.625 41.703125 44.40625 
Q 38.921875 48.1875 33.109375 48.1875 
Q 26.21875 48.1875 22.15625 43.53125 
Q 18.109375 38.875 18.109375 30.90625 
L 18.109375 0 
L 9.078125 0 
L 9.078125 54.6875 
L 18.109375 54.6875 
L 18.109375 46.1875 
Q 21.1875 51.21875 25.484375 53.609375 
Q 29.78125 56 35.6875 56 
Q 41.65625 56 45.828125 52.96875 
Q 50 49.953125 52 44.1875 
z
" id="DejaVuSans-109"/>
        <path d="M 48.6875 27.296875 
Q 48.6875 37.203125 44.609375 42.84375 
Q 40.53125 48.484375 33.40625 48.484375 
Q 26.265625 48.484375 22.1875 42.84375 
Q 18.109375 37.203125 18.109375 27.296875 
Q 18.109375 17.390625 22.1875 11.75 
Q 26.265625 6.109375 33.40625 6.109375 
Q 40.53125 6.109375 44.609375 11.75 
Q 48.6875 17.390625 48.6875 27.296875 
z
M 18.109375 46.390625 
Q 20.953125 51.265625 25.265625 53.625 
Q 29.59375 56 35.59375 56 
Q 45.5625 56 51.78125 48.09375 
Q 58.015625 40.1875 58.015625 27.296875 
Q 58.015625 14.40625 51.78125 6.484375 
Q 45.5625 -1.421875 35.59375 -1.421875 
Q 29.59375 -1.421875 25.265625 0.953125 
Q 20.953125 3.328125 18.109375 8.203125 
L 18.109375 0 
L 9.078125 0 
L 9.078125 75.984375 
L 18.109375 75.984375 
z
" id="DejaVuSans-98"/>
        <path d="M 41.109375 46.296875 
Q 39.59375 47.171875 37.8125 47.578125 
Q 36.03125 48 33.890625 48 
Q 26.265625 48 22.1875 43.046875 
Q 18.109375 38.09375 18.109375 28.8125 
L 18.109375 0 
L 9.078125 0 
L 9.078125 54.6875 
L 18.109375 54.6875 
L 18.109375 46.1875 
Q 20.953125 51.171875 25.484375 53.578125 
Q 30.03125 56 36.53125 56 
Q 37.453125 56 38.578125 55.875 
Q 39.703125 55.765625 41.0625 55.515625 
z
" id="DejaVuSans-114"/>
        <path d="M 34.28125 27.484375 
Q 23.390625 27.484375 19.1875 25 
Q 14.984375 22.515625 14.984375 16.5 
Q 14.984375 11.71875 18.140625 8.90625 
Q 21.296875 6.109375 26.703125 6.109375 
Q 34.1875 6.109375 38.703125 11.40625 
Q 43.21875 16.703125 43.21875 25.484375 
L 43.21875 27.484375 
z
M 52.203125 31.203125 
L 52.203125 0 
L 43.21875 0 
L 43.21875 8.296875 
Q 40.140625 3.328125 35.546875 0.953125 
Q 30.953125 -1.421875 24.3125 -1.421875 
Q 15.921875 -1.421875 10.953125 3.296875 
Q 6 8.015625 6 15.921875 
Q 6 25.140625 12.171875 29.828125 
Q 18.359375 34.515625 30.609375 34.515625 
L 43.21875 34.515625 
L 43.21875 35.40625 
Q 43.21875 41.609375 39.140625 45 
Q 35.0625 48.390625 27.6875 48.390625 
Q 23 48.390625 18.546875 47.265625 
Q 14.109375 46.140625 10.015625 43.890625 
L 10.015625 52.203125 
Q 14.9375 54.109375 19.578125 55.046875 
Q 24.21875 56 28.609375 56 
Q 40.484375 56 46.34375 49.84375 
Q 52.203125 43.703125 52.203125 31.203125 
z
" id="DejaVuSans-97"/>
        <path d="M 54.890625 33.015625 
L 54.890625 0 
L 45.90625 0 
L 45.90625 32.71875 
Q 45.90625 40.484375 42.875 44.328125 
Q 39.84375 48.1875 33.796875 48.1875 
Q 26.515625 48.1875 22.3125 43.546875 
Q 18.109375 38.921875 18.109375 30.90625 
L 18.109375 0 
L 9.078125 0 
L 9.078125 54.6875 
L 18.109375 54.6875 
L 18.109375 46.1875 
Q 21.34375 51.125 25.703125 53.5625 
Q 30.078125 56 35.796875 56 
Q 45.21875 56 50.046875 50.171875 
Q 54.890625 44.34375 54.890625 33.015625 
z
" id="DejaVuSans-110"/>
       </defs>
       <use xlink:href="#DejaVuSans-77"/>
       <use x="86.279297" xlink:href="#DejaVuSans-101"/>
       <use x="147.802734" xlink:href="#DejaVuSans-109"/>
       <use x="245.214844" xlink:href="#DejaVuSans-98"/>
       <use x="308.691406" xlink:href="#DejaVuSans-114"/>
       <use x="349.804688" xlink:href="#DejaVuSans-97"/>
       <use x="411.083984" xlink:href="#DejaVuSans-110"/>
       <use x="474.462891" xlink:href="#DejaVuSans-101"/>
       <use x="535.986328" xlink:href="#DejaVuSans-115"/>
       <use x="588.085938" xlink:href="#DejaVuSans-32"/>
       <use x="619.873047" xlink:href="#DejaVuSans-69"/>
      </g>
     </g>
    </g>
    <g id="ytick_3">
     <g id="line2d_35">
      <g>
       <use style="stroke:#000000;stroke-width:0.8;" x="2032.4" xlink:href="#m81139a2955" y="173.518314"/>
      </g>
     </g>
     <g id="text_35">
      <!-- Membranes K -->
      <g transform="translate(2039.4 178.83722)scale(0.14 -0.14)">
       <use xlink:href="#DejaVuSans-77"/>
       <use x="86.279297" xlink:href="#DejaVuSans-101"/>
       <use x="147.802734" xlink:href="#DejaVuSans-109"/>
       <use x="245.214844" xlink:href="#DejaVuSans-98"/>
       <use x="308.691406" xlink:href="#DejaVuSans-114"/>
       <use x="349.804688" xlink:href="#DejaVuSans-97"/>
       <use x="411.083984" xlink:href="#DejaVuSans-110"/>
       <use x="474.462891" xlink:href="#DejaVuSans-101"/>
       <use x="535.986328" xlink:href="#DejaVuSans-115"/>
       <use x="588.085938" xlink:href="#DejaVuSans-32"/>
       <use x="619.873047" xlink:href="#DejaVuSans-75"/>
      </g>
     </g>
    </g>
    <g id="ytick_4">
     <g id="line2d_36">
      <g>
       <use style="stroke:#000000;stroke-width:0.8;" x="2032.4" xlink:href="#m81139a2955" y="240.378988"/>
      </g>
     </g>
     <g id="text_36">
      <!-- Membranes D -->
      <g transform="translate(2039.4 245.697895)scale(0.14 -0.14)">
       <use xlink:href="#DejaVuSans-77"/>
       <use x="86.279297" xlink:href="#DejaVuSans-101"/>
       <use x="147.802734" xlink:href="#DejaVuSans-109"/>
       <use x="245.214844" xlink:href="#DejaVuSans-98"/>
       <use x="308.691406" xlink:href="#DejaVuSans-114"/>
       <use x="349.804688" xlink:href="#DejaVuSans-97"/>
       <use x="411.083984" xlink:href="#DejaVuSans-110"/>
       <use x="474.462891" xlink:href="#DejaVuSans-101"/>
       <use x="535.986328" xlink:href="#DejaVuSans-115"/>
       <use x="588.085938" xlink:href="#DejaVuSans-32"/>
       <use x="619.873047" xlink:href="#DejaVuSans-68"/>
      </g>
     </g>
    </g>
    <g id="ytick_5">
     <g id="line2d_37">
      <g>
       <use style="stroke:#000000;stroke-width:0.8;" x="2032.4" xlink:href="#m81139a2955" y="307.239663"/>
      </g>
     </g>
     <g id="text_37">
      <!-- Membranes R -->
      <g transform="translate(2039.4 312.558569)scale(0.14 -0.14)">
       <use xlink:href="#DejaVuSans-77"/>
       <use x="86.279297" xlink:href="#DejaVuSans-101"/>
       <use x="147.802734" xlink:href="#DejaVuSans-109"/>
       <use x="245.214844" xlink:href="#DejaVuSans-98"/>
       <use x="308.691406" xlink:href="#DejaVuSans-114"/>
       <use x="349.804688" xlink:href="#DejaVuSans-97"/>
       <use x="411.083984" xlink:href="#DejaVuSans-110"/>
       <use x="474.462891" xlink:href="#DejaVuSans-101"/>
       <use x="535.986328" xlink:href="#DejaVuSans-115"/>
       <use x="588.085938" xlink:href="#DejaVuSans-32"/>
       <use x="619.873047" xlink:href="#DejaVuSans-82"/>
      </g>
     </g>
    </g>
   </g>
  </g>
 </g>
 <defs>
  <clipPath id="p12f2e92bba">
   <rect height="267.442698" width="101.246" x="7.2" y="73.227302"/>
  </clipPath>
  <clipPath id="p06b86aa47d">
   <rect height="48.333018" width="1923.674" x="108.726" y="7.2"/>
  </clipPath>
  <clipPath id="paef4f0f6d2">
   <rect height="6.444402" width="1923.674" x="108.726" y="61.157959"/>
  </clipPath>
  <clipPath id="p2563c08299">
   <rect height="267.442698" width="1923.674" x="108.726" y="73.227302"/>
  </clipPath>
 </defs>
</svg>
