<?xml version="1.0" encoding="utf-8" standalone="no"?>
<!DOCTYPE svg PUBLIC "-//W3C//DTD SVG 1.1//EN"
  "http://www.w3.org/Graphics/SVG/1.1/DTD/svg11.dtd">
<!-- Created with matplotlib (https://matplotlib.org/) -->
<svg height="385.94048pt" version="1.1" viewBox="0 0 2127.1025 385.94048" width="2127.1025pt" xmlns="http://www.w3.org/2000/svg" xmlns:xlink="http://www.w3.org/1999/xlink">
 <metadata>
  <rdf:RDF xmlns:cc="http://creativecommons.org/ns#" xmlns:dc="http://purl.org/dc/elements/1.1/" xmlns:rdf="http://www.w3.org/1999/02/22-rdf-syntax-ns#">
   <cc:Work>
    <dc:type rdf:resource="http://purl.org/dc/dcmitype/StillImage"/>
    <dc:date>2020-10-26T11:49:21.359539</dc:date>
    <dc:format>image/svg+xml</dc:format>
    <dc:creator>
     <cc:Agent>
      <dc:title>Matplotlib v3.3.2, https://matplotlib.org/</dc:title>
     </cc:Agent>
    </dc:creator>
   </cc:Work>
  </rdf:RDF>
 </metadata>
 <defs>
  <style type="text/css">*{stroke-linecap:butt;stroke-linejoin:round;}</style>
 </defs>
 <g id="figure_1">
  <g id="patch_1">
   <path d="M 0 385.94048 
L 2127.1025 385.94048 
L 2127.1025 0 
L 0 0 
z
" style="fill:#ffffff;"/>
  </g>
  <g id="axes_1">
   <g id="LineCollection_1">
    <path clip-path="url(#pb84766dbfc)" d="M 104.7975 207.462988 
L 26.306256 207.462988 
L 26.306256 261.707663 
L 104.7975 261.707663 
" style="fill:none;stroke:#333333;stroke-width:0.5;"/>
    <path clip-path="url(#pb84766dbfc)" d="M 104.7975 153.218314 
L 20.379802 153.218314 
L 20.379802 234.585326 
L 26.306256 234.585326 
" style="fill:none;stroke:#333333;stroke-width:0.5;"/>
    <path clip-path="url(#pb84766dbfc)" d="M 104.7975 98.97364 
L 11.8475 98.97364 
L 11.8475 193.90182 
L 20.379802 193.90182 
" style="fill:none;stroke:#333333;stroke-width:0.5;"/>
   </g>
  </g>
  <g id="axes_2">
   <g id="LineCollection_2">
    <path clip-path="url(#p6bcfade5ed)" d="M 138.350938 46.413018 
L 138.350938 34.915568 
L 204.577813 34.915568 
L 204.577813 46.413018 
" style="fill:none;stroke:#333333;stroke-width:0.5;"/>
    <path clip-path="url(#p6bcfade5ed)" d="M 270.804688 46.413018 
L 270.804688 40.013872 
L 337.031563 40.013872 
L 337.031563 46.413018 
" style="fill:none;stroke:#333333;stroke-width:0.5;"/>
    <path clip-path="url(#p6bcfade5ed)" d="M 403.258438 46.413018 
L 403.258438 41.592693 
L 469.485313 41.592693 
L 469.485313 46.413018 
" style="fill:none;stroke:#333333;stroke-width:0.5;"/>
    <path clip-path="url(#p6bcfade5ed)" d="M 535.712188 46.413018 
L 535.712188 40.484031 
L 601.939063 40.484031 
L 601.939063 46.413018 
" style="fill:none;stroke:#333333;stroke-width:0.5;"/>
    <path clip-path="url(#p6bcfade5ed)" d="M 436.371875 41.592693 
L 436.371875 37.35029 
L 568.825625 37.35029 
L 568.825625 40.484031 
" style="fill:none;stroke:#333333;stroke-width:0.5;"/>
    <path clip-path="url(#p6bcfade5ed)" d="M 303.918125 40.013872 
L 303.918125 31.979276 
L 502.59875 31.979276 
L 502.59875 37.35029 
" style="fill:none;stroke:#333333;stroke-width:0.5;"/>
    <path clip-path="url(#p6bcfade5ed)" d="M 734.392812 46.413018 
L 734.392812 40.098393 
L 800.619688 40.098393 
L 800.619688 46.413018 
" style="fill:none;stroke:#333333;stroke-width:0.5;"/>
    <path clip-path="url(#p6bcfade5ed)" d="M 668.165938 46.413018 
L 668.165938 32.12142 
L 767.50625 32.12142 
L 767.50625 40.098393 
" style="fill:none;stroke:#333333;stroke-width:0.5;"/>
    <path clip-path="url(#p6bcfade5ed)" d="M 999.300313 46.413018 
L 999.300313 40.538363 
L 1065.527188 40.538363 
L 1065.527188 46.413018 
" style="fill:none;stroke:#333333;stroke-width:0.5;"/>
    <path clip-path="url(#p6bcfade5ed)" d="M 933.073438 46.413018 
L 933.073438 38.436263 
L 1032.41375 38.436263 
L 1032.41375 40.538363 
" style="fill:none;stroke:#333333;stroke-width:0.5;"/>
    <path clip-path="url(#p6bcfade5ed)" d="M 866.846563 46.413018 
L 866.846563 31.127157 
L 982.743594 31.127157 
L 982.743594 38.436263 
" style="fill:none;stroke:#333333;stroke-width:0.5;"/>
    <path clip-path="url(#p6bcfade5ed)" d="M 717.836094 32.12142 
L 717.836094 27.19926 
L 924.795078 27.19926 
L 924.795078 31.127157 
" style="fill:none;stroke:#333333;stroke-width:0.5;"/>
    <path clip-path="url(#p6bcfade5ed)" d="M 403.258438 31.979276 
L 403.258438 23.848477 
L 821.315586 23.848477 
L 821.315586 27.19926 
" style="fill:none;stroke:#333333;stroke-width:0.5;"/>
    <path clip-path="url(#p6bcfade5ed)" d="M 171.464375 34.915568 
L 171.464375 19.404096 
L 612.287012 19.404096 
L 612.287012 23.848477 
" style="fill:none;stroke:#333333;stroke-width:0.5;"/>
    <path clip-path="url(#p6bcfade5ed)" d="M 1197.980938 46.413018 
L 1197.980938 38.544862 
L 1264.207813 38.544862 
L 1264.207813 46.413018 
" style="fill:none;stroke:#333333;stroke-width:0.5;"/>
    <path clip-path="url(#p6bcfade5ed)" d="M 1131.754063 46.413018 
L 1131.754063 34.789197 
L 1231.094375 34.789197 
L 1231.094375 38.544862 
" style="fill:none;stroke:#333333;stroke-width:0.5;"/>
    <path clip-path="url(#p6bcfade5ed)" d="M 1330.434688 46.413018 
L 1330.434688 40.496075 
L 1396.661563 40.496075 
L 1396.661563 46.413018 
" style="fill:none;stroke:#333333;stroke-width:0.5;"/>
    <path clip-path="url(#p6bcfade5ed)" d="M 1462.888438 46.413018 
L 1462.888438 38.963666 
L 1529.115313 38.963666 
L 1529.115313 46.413018 
" style="fill:none;stroke:#333333;stroke-width:0.5;"/>
    <path clip-path="url(#p6bcfade5ed)" d="M 1363.548125 40.496075 
L 1363.548125 33.07582 
L 1496.001875 33.07582 
L 1496.001875 38.963666 
" style="fill:none;stroke:#333333;stroke-width:0.5;"/>
    <path clip-path="url(#p6bcfade5ed)" d="M 1181.424219 34.789197 
L 1181.424219 28.95538 
L 1429.775 28.95538 
L 1429.775 33.07582 
" style="fill:none;stroke:#333333;stroke-width:0.5;"/>
    <path clip-path="url(#p6bcfade5ed)" d="M 1860.249688 46.413018 
L 1860.249688 40.464568 
L 1926.476562 40.464568 
L 1926.476562 46.413018 
" style="fill:none;stroke:#333333;stroke-width:0.5;"/>
    <path clip-path="url(#p6bcfade5ed)" d="M 1794.022813 46.413018 
L 1794.022813 37.642292 
L 1893.363125 37.642292 
L 1893.363125 40.464568 
" style="fill:none;stroke:#333333;stroke-width:0.5;"/>
    <path clip-path="url(#p6bcfade5ed)" d="M 1727.795938 46.413018 
L 1727.795938 34.815123 
L 1843.692969 34.815123 
L 1843.692969 37.642292 
" style="fill:none;stroke:#333333;stroke-width:0.5;"/>
    <path clip-path="url(#p6bcfade5ed)" d="M 1661.569063 46.413018 
L 1661.569063 30.692782 
L 1785.744453 30.692782 
L 1785.744453 34.815123 
" style="fill:none;stroke:#333333;stroke-width:0.5;"/>
    <path clip-path="url(#p6bcfade5ed)" d="M 1595.342188 46.413018 
L 1595.342188 25.771743 
L 1723.656758 25.771743 
L 1723.656758 30.692782 
" style="fill:none;stroke:#333333;stroke-width:0.5;"/>
    <path clip-path="url(#p6bcfade5ed)" d="M 1305.599609 28.95538 
L 1305.599609 16.756925 
L 1659.499473 16.756925 
L 1659.499473 25.771743 
" style="fill:none;stroke:#333333;stroke-width:0.5;"/>
    <path clip-path="url(#p6bcfade5ed)" d="M 391.875693 19.404096 
L 391.875693 9.067287 
L 1482.549541 9.067287 
L 1482.549541 16.756925 
" style="fill:none;stroke:#333333;stroke-width:0.5;"/>
   </g>
  </g>
  <g id="axes_3">
   <g id="patch_2">
    <path d="M 105.2375 61.746361 
L 1959.59 61.746361 
L 1959.59 56.517959 
L 105.2375 56.517959 
z
" style="fill:#ffffff;"/>
   </g>
   <g id="QuadMesh_1">
    <path clip-path="url(#p94b9474d79)" d="M 105.2375 56.517959 
L 171.464375 56.517959 
L 171.464375 61.746361 
L 105.2375 61.746361 
L 105.2375 56.517959 
" style="fill:#3e4989;stroke:#ffffff;stroke-width:0.75;"/>
    <path clip-path="url(#p94b9474d79)" d="M 171.464375 56.517959 
L 237.69125 56.517959 
L 237.69125 61.746361 
L 171.464375 61.746361 
L 171.464375 56.517959 
" style="fill:#31688e;stroke:#ffffff;stroke-width:0.75;"/>
    <path clip-path="url(#p94b9474d79)" d="M 237.69125 56.517959 
L 303.918125 56.517959 
L 303.918125 61.746361 
L 237.69125 61.746361 
L 237.69125 56.517959 
" style="fill:#482878;stroke:#ffffff;stroke-width:0.75;"/>
    <path clip-path="url(#p94b9474d79)" d="M 303.918125 56.517959 
L 370.145 56.517959 
L 370.145 61.746361 
L 303.918125 61.746361 
L 303.918125 56.517959 
" style="fill:#b5de2b;stroke:#ffffff;stroke-width:0.75;"/>
    <path clip-path="url(#p94b9474d79)" d="M 370.145 56.517959 
L 436.371875 56.517959 
L 436.371875 61.746361 
L 370.145 61.746361 
L 370.145 56.517959 
" style="fill:#26828e;stroke:#ffffff;stroke-width:0.75;"/>
    <path clip-path="url(#p94b9474d79)" d="M 436.371875 56.517959 
L 502.59875 56.517959 
L 502.59875 61.746361 
L 436.371875 61.746361 
L 436.371875 56.517959 
" style="fill:#31688e;stroke:#ffffff;stroke-width:0.75;"/>
    <path clip-path="url(#p94b9474d79)" d="M 502.59875 56.517959 
L 568.825625 56.517959 
L 568.825625 61.746361 
L 502.59875 61.746361 
L 502.59875 56.517959 
" style="fill:#26828e;stroke:#ffffff;stroke-width:0.75;"/>
    <path clip-path="url(#p94b9474d79)" d="M 568.825625 56.517959 
L 635.0525 56.517959 
L 635.0525 61.746361 
L 568.825625 61.746361 
L 568.825625 56.517959 
" style="fill:#6ece58;stroke:#ffffff;stroke-width:0.75;"/>
    <path clip-path="url(#p94b9474d79)" d="M 635.0525 56.517959 
L 701.279375 56.517959 
L 701.279375 61.746361 
L 635.0525 61.746361 
L 635.0525 56.517959 
" style="fill:#482878;stroke:#ffffff;stroke-width:0.75;"/>
    <path clip-path="url(#p94b9474d79)" d="M 701.279375 56.517959 
L 767.50625 56.517959 
L 767.50625 61.746361 
L 701.279375 61.746361 
L 701.279375 56.517959 
" style="fill:#3e4989;stroke:#ffffff;stroke-width:0.75;"/>
    <path clip-path="url(#p94b9474d79)" d="M 767.50625 56.517959 
L 833.733125 56.517959 
L 833.733125 61.746361 
L 767.50625 61.746361 
L 767.50625 56.517959 
" style="fill:#31688e;stroke:#ffffff;stroke-width:0.75;"/>
    <path clip-path="url(#p94b9474d79)" d="M 833.733125 56.517959 
L 899.96 56.517959 
L 899.96 61.746361 
L 833.733125 61.746361 
L 833.733125 56.517959 
" style="fill:#482878;stroke:#ffffff;stroke-width:0.75;"/>
    <path clip-path="url(#p94b9474d79)" d="M 899.96 56.517959 
L 966.186875 56.517959 
L 966.186875 61.746361 
L 899.96 61.746361 
L 899.96 56.517959 
" style="fill:#31688e;stroke:#ffffff;stroke-width:0.75;"/>
    <path clip-path="url(#p94b9474d79)" d="M 966.186875 56.517959 
L 1032.41375 56.517959 
L 1032.41375 61.746361 
L 966.186875 61.746361 
L 966.186875 56.517959 
" style="fill:#3e4989;stroke:#ffffff;stroke-width:0.75;"/>
    <path clip-path="url(#p94b9474d79)" d="M 1032.41375 56.517959 
L 1098.640625 56.517959 
L 1098.640625 61.746361 
L 1032.41375 61.746361 
L 1032.41375 56.517959 
" style="fill:#3e4989;stroke:#ffffff;stroke-width:0.75;"/>
    <path clip-path="url(#p94b9474d79)" d="M 1098.640625 56.517959 
L 1164.8675 56.517959 
L 1164.8675 61.746361 
L 1098.640625 61.746361 
L 1098.640625 56.517959 
" style="fill:#35b779;stroke:#ffffff;stroke-width:0.75;"/>
    <path clip-path="url(#p94b9474d79)" d="M 1164.8675 56.517959 
L 1231.094375 56.517959 
L 1231.094375 61.746361 
L 1164.8675 61.746361 
L 1164.8675 56.517959 
" style="fill:#482878;stroke:#ffffff;stroke-width:0.75;"/>
    <path clip-path="url(#p94b9474d79)" d="M 1231.094375 56.517959 
L 1297.32125 56.517959 
L 1297.32125 61.746361 
L 1231.094375 61.746361 
L 1231.094375 56.517959 
" style="fill:#6ece58;stroke:#ffffff;stroke-width:0.75;"/>
    <path clip-path="url(#p94b9474d79)" d="M 1297.32125 56.517959 
L 1363.548125 56.517959 
L 1363.548125 61.746361 
L 1297.32125 61.746361 
L 1297.32125 56.517959 
" style="fill:#26828e;stroke:#ffffff;stroke-width:0.75;"/>
    <path clip-path="url(#p94b9474d79)" d="M 1363.548125 56.517959 
L 1429.775 56.517959 
L 1429.775 61.746361 
L 1363.548125 61.746361 
L 1363.548125 56.517959 
" style="fill:#35b779;stroke:#ffffff;stroke-width:0.75;"/>
    <path clip-path="url(#p94b9474d79)" d="M 1429.775 56.517959 
L 1496.001875 56.517959 
L 1496.001875 61.746361 
L 1429.775 61.746361 
L 1429.775 56.517959 
" style="fill:#35b779;stroke:#ffffff;stroke-width:0.75;"/>
    <path clip-path="url(#p94b9474d79)" d="M 1496.001875 56.517959 
L 1562.22875 56.517959 
L 1562.22875 61.746361 
L 1496.001875 61.746361 
L 1496.001875 56.517959 
" style="fill:#b5de2b;stroke:#ffffff;stroke-width:0.75;"/>
    <path clip-path="url(#p94b9474d79)" d="M 1562.22875 56.517959 
L 1628.455625 56.517959 
L 1628.455625 61.746361 
L 1562.22875 61.746361 
L 1562.22875 56.517959 
" style="fill:#6ece58;stroke:#ffffff;stroke-width:0.75;"/>
    <path clip-path="url(#p94b9474d79)" d="M 1628.455625 56.517959 
L 1694.6825 56.517959 
L 1694.6825 61.746361 
L 1628.455625 61.746361 
L 1628.455625 56.517959 
" style="fill:#b5de2b;stroke:#ffffff;stroke-width:0.75;"/>
    <path clip-path="url(#p94b9474d79)" d="M 1694.6825 56.517959 
L 1760.909375 56.517959 
L 1760.909375 61.746361 
L 1694.6825 61.746361 
L 1694.6825 56.517959 
" style="fill:#35b779;stroke:#ffffff;stroke-width:0.75;"/>
    <path clip-path="url(#p94b9474d79)" d="M 1760.909375 56.517959 
L 1827.13625 56.517959 
L 1827.13625 61.746361 
L 1760.909375 61.746361 
L 1760.909375 56.517959 
" style="fill:#26828e;stroke:#ffffff;stroke-width:0.75;"/>
    <path clip-path="url(#p94b9474d79)" d="M 1827.13625 56.517959 
L 1893.363125 56.517959 
L 1893.363125 61.746361 
L 1827.13625 61.746361 
L 1827.13625 56.517959 
" style="fill:#6ece58;stroke:#ffffff;stroke-width:0.75;"/>
    <path clip-path="url(#p94b9474d79)" d="M 1893.363125 56.517959 
L 1959.59 56.517959 
L 1959.59 61.746361 
L 1893.363125 61.746361 
L 1893.363125 56.517959 
" style="fill:#b5de2b;stroke:#ffffff;stroke-width:0.75;"/>
   </g>
   <g id="matplotlib.axis_1"/>
   <g id="matplotlib.axis_2">
    <g id="ytick_1">
     <g id="line2d_1">
      <defs>
       <path d="M 0 0 
L 3.5 0 
" id="m38f0f40907" style="stroke:#000000;stroke-width:0.8;"/>
      </defs>
      <g>
       <use style="stroke:#000000;stroke-width:0.8;" x="1959.59" xlink:href="#m38f0f40907" y="59.13216"/>
      </g>
     </g>
     <g id="text_1">
      <!-- Steps -->
      <g transform="translate(1966.59 67.490441)scale(0.22 -0.22)">
       <defs>
        <path d="M 53.515625 70.515625 
L 53.515625 60.890625 
Q 47.90625 63.578125 42.921875 64.890625 
Q 37.9375 66.21875 33.296875 66.21875 
Q 25.25 66.21875 20.875 63.09375 
Q 16.5 59.96875 16.5 54.203125 
Q 16.5 49.359375 19.40625 46.890625 
Q 22.3125 44.4375 30.421875 42.921875 
L 36.375 41.703125 
Q 47.40625 39.59375 52.65625 34.296875 
Q 57.90625 29 57.90625 20.125 
Q 57.90625 9.515625 50.796875 4.046875 
Q 43.703125 -1.421875 29.984375 -1.421875 
Q 24.8125 -1.421875 18.96875 -0.25 
Q 13.140625 0.921875 6.890625 3.21875 
L 6.890625 13.375 
Q 12.890625 10.015625 18.65625 8.296875 
Q 24.421875 6.59375 29.984375 6.59375 
Q 38.421875 6.59375 43.015625 9.90625 
Q 47.609375 13.234375 47.609375 19.390625 
Q 47.609375 24.75 44.3125 27.78125 
Q 41.015625 30.8125 33.5 32.328125 
L 27.484375 33.5 
Q 16.453125 35.6875 11.515625 40.375 
Q 6.59375 45.0625 6.59375 53.421875 
Q 6.59375 63.09375 13.40625 68.65625 
Q 20.21875 74.21875 32.171875 74.21875 
Q 37.3125 74.21875 42.625 73.28125 
Q 47.953125 72.359375 53.515625 70.515625 
z
" id="DejaVuSans-83"/>
        <path d="M 18.3125 70.21875 
L 18.3125 54.6875 
L 36.8125 54.6875 
L 36.8125 47.703125 
L 18.3125 47.703125 
L 18.3125 18.015625 
Q 18.3125 11.328125 20.140625 9.421875 
Q 21.96875 7.515625 27.59375 7.515625 
L 36.8125 7.515625 
L 36.8125 0 
L 27.59375 0 
Q 17.1875 0 13.234375 3.875 
Q 9.28125 7.765625 9.28125 18.015625 
L 9.28125 47.703125 
L 2.6875 47.703125 
L 2.6875 54.6875 
L 9.28125 54.6875 
L 9.28125 70.21875 
z
" id="DejaVuSans-116"/>
        <path d="M 56.203125 29.59375 
L 56.203125 25.203125 
L 14.890625 25.203125 
Q 15.484375 15.921875 20.484375 11.0625 
Q 25.484375 6.203125 34.421875 6.203125 
Q 39.59375 6.203125 44.453125 7.46875 
Q 49.3125 8.734375 54.109375 11.28125 
L 54.109375 2.78125 
Q 49.265625 0.734375 44.1875 -0.34375 
Q 39.109375 -1.421875 33.890625 -1.421875 
Q 20.796875 -1.421875 13.15625 6.1875 
Q 5.515625 13.8125 5.515625 26.8125 
Q 5.515625 40.234375 12.765625 48.109375 
Q 20.015625 56 32.328125 56 
Q 43.359375 56 49.78125 48.890625 
Q 56.203125 41.796875 56.203125 29.59375 
z
M 47.21875 32.234375 
Q 47.125 39.59375 43.09375 43.984375 
Q 39.0625 48.390625 32.421875 48.390625 
Q 24.90625 48.390625 20.390625 44.140625 
Q 15.875 39.890625 15.1875 32.171875 
z
" id="DejaVuSans-101"/>
        <path d="M 18.109375 8.203125 
L 18.109375 -20.796875 
L 9.078125 -20.796875 
L 9.078125 54.6875 
L 18.109375 54.6875 
L 18.109375 46.390625 
Q 20.953125 51.265625 25.265625 53.625 
Q 29.59375 56 35.59375 56 
Q 45.5625 56 51.78125 48.09375 
Q 58.015625 40.1875 58.015625 27.296875 
Q 58.015625 14.40625 51.78125 6.484375 
Q 45.5625 -1.421875 35.59375 -1.421875 
Q 29.59375 -1.421875 25.265625 0.953125 
Q 20.953125 3.328125 18.109375 8.203125 
z
M 48.6875 27.296875 
Q 48.6875 37.203125 44.609375 42.84375 
Q 40.53125 48.484375 33.40625 48.484375 
Q 26.265625 48.484375 22.1875 42.84375 
Q 18.109375 37.203125 18.109375 27.296875 
Q 18.109375 17.390625 22.1875 11.75 
Q 26.265625 6.109375 33.40625 6.109375 
Q 40.53125 6.109375 44.609375 11.75 
Q 48.6875 17.390625 48.6875 27.296875 
z
" id="DejaVuSans-112"/>
        <path d="M 44.28125 53.078125 
L 44.28125 44.578125 
Q 40.484375 46.53125 36.375 47.5 
Q 32.28125 48.484375 27.875 48.484375 
Q 21.1875 48.484375 17.84375 46.4375 
Q 14.5 44.390625 14.5 40.28125 
Q 14.5 37.15625 16.890625 35.375 
Q 19.28125 33.59375 26.515625 31.984375 
L 29.59375 31.296875 
Q 39.15625 29.25 43.1875 25.515625 
Q 47.21875 21.78125 47.21875 15.09375 
Q 47.21875 7.46875 41.1875 3.015625 
Q 35.15625 -1.421875 24.609375 -1.421875 
Q 20.21875 -1.421875 15.453125 -0.5625 
Q 10.6875 0.296875 5.421875 2 
L 5.421875 11.28125 
Q 10.40625 8.6875 15.234375 7.390625 
Q 20.0625 6.109375 24.8125 6.109375 
Q 31.15625 6.109375 34.5625 8.28125 
Q 37.984375 10.453125 37.984375 14.40625 
Q 37.984375 18.0625 35.515625 20.015625 
Q 33.0625 21.96875 24.703125 23.78125 
L 21.578125 24.515625 
Q 13.234375 26.265625 9.515625 29.90625 
Q 5.8125 33.546875 5.8125 39.890625 
Q 5.8125 47.609375 11.28125 51.796875 
Q 16.75 56 26.8125 56 
Q 31.78125 56 36.171875 55.265625 
Q 40.578125 54.546875 44.28125 53.078125 
z
" id="DejaVuSans-115"/>
       </defs>
       <use xlink:href="#DejaVuSans-83"/>
       <use x="63.476562" xlink:href="#DejaVuSans-116"/>
       <use x="102.685547" xlink:href="#DejaVuSans-101"/>
       <use x="164.208984" xlink:href="#DejaVuSans-112"/>
       <use x="227.685547" xlink:href="#DejaVuSans-115"/>
      </g>
     </g>
    </g>
   </g>
  </g>
  <g id="axes_4">
   <g id="patch_3">
    <path d="M 105.2375 288.83 
L 1959.59 288.83 
L 1959.59 71.851302 
L 105.2375 71.851302 
z
" style="fill:#ffffff;"/>
   </g>
   <g id="QuadMesh_2">
    <path clip-path="url(#p4e2f8c1dfc)" d="M 105.2375 71.851302 
L 171.464375 71.851302 
L 171.464375 126.095977 
L 105.2375 126.095977 
L 105.2375 71.851302 
" style="fill:#d4dbe6;stroke:#ffffff;stroke-width:0.75;"/>
    <path clip-path="url(#p4e2f8c1dfc)" d="M 171.464375 71.851302 
L 237.69125 71.851302 
L 237.69125 126.095977 
L 171.464375 126.095977 
L 171.464375 71.851302 
" style="fill:#f5a081;stroke:#ffffff;stroke-width:0.75;"/>
    <path clip-path="url(#p4e2f8c1dfc)" d="M 237.69125 71.851302 
L 303.918125 71.851302 
L 303.918125 126.095977 
L 237.69125 126.095977 
L 237.69125 71.851302 
" style="fill:#f7ba9f;stroke:#ffffff;stroke-width:0.75;"/>
    <path clip-path="url(#p4e2f8c1dfc)" d="M 303.918125 71.851302 
L 370.145 71.851302 
L 370.145 126.095977 
L 303.918125 126.095977 
L 303.918125 71.851302 
" style="fill:#ecd3c5;stroke:#ffffff;stroke-width:0.75;"/>
    <path clip-path="url(#p4e2f8c1dfc)" d="M 370.145 71.851302 
L 436.371875 71.851302 
L 436.371875 126.095977 
L 370.145 126.095977 
L 370.145 71.851302 
" style="fill:#f0cdbb;stroke:#ffffff;stroke-width:0.75;"/>
    <path clip-path="url(#p4e2f8c1dfc)" d="M 436.371875 71.851302 
L 502.59875 71.851302 
L 502.59875 126.095977 
L 436.371875 126.095977 
L 436.371875 71.851302 
" style="fill:#ead4c8;stroke:#ffffff;stroke-width:0.75;"/>
    <path clip-path="url(#p4e2f8c1dfc)" d="M 502.59875 71.851302 
L 568.825625 71.851302 
L 568.825625 126.095977 
L 502.59875 126.095977 
L 502.59875 71.851302 
" style="fill:#f7a98b;stroke:#ffffff;stroke-width:0.75;"/>
    <path clip-path="url(#p4e2f8c1dfc)" d="M 568.825625 71.851302 
L 635.0525 71.851302 
L 635.0525 126.095977 
L 568.825625 126.095977 
L 568.825625 71.851302 
" style="fill:#f4c5ad;stroke:#ffffff;stroke-width:0.75;"/>
    <path clip-path="url(#p4e2f8c1dfc)" d="M 635.0525 71.851302 
L 701.279375 71.851302 
L 701.279375 126.095977 
L 635.0525 126.095977 
L 635.0525 71.851302 
" style="fill:#d3dbe7;stroke:#ffffff;stroke-width:0.75;"/>
    <path clip-path="url(#p4e2f8c1dfc)" d="M 701.279375 71.851302 
L 767.50625 71.851302 
L 767.50625 126.095977 
L 701.279375 126.095977 
L 701.279375 71.851302 
" style="fill:#d7dce3;stroke:#ffffff;stroke-width:0.75;"/>
    <path clip-path="url(#p4e2f8c1dfc)" d="M 767.50625 71.851302 
L 833.733125 71.851302 
L 833.733125 126.095977 
L 767.50625 126.095977 
L 767.50625 71.851302 
" style="fill:#e1dad6;stroke:#ffffff;stroke-width:0.75;"/>
    <path clip-path="url(#p4e2f8c1dfc)" d="M 833.733125 71.851302 
L 899.96 71.851302 
L 899.96 126.095977 
L 833.733125 126.095977 
L 833.733125 71.851302 
" style="fill:#d8dce2;stroke:#ffffff;stroke-width:0.75;"/>
    <path clip-path="url(#p4e2f8c1dfc)" d="M 899.96 71.851302 
L 966.186875 71.851302 
L 966.186875 126.095977 
L 899.96 126.095977 
L 899.96 71.851302 
" style="fill:#b6cefa;stroke:#ffffff;stroke-width:0.75;"/>
    <path clip-path="url(#p4e2f8c1dfc)" d="M 966.186875 71.851302 
L 1032.41375 71.851302 
L 1032.41375 126.095977 
L 966.186875 126.095977 
L 966.186875 71.851302 
" style="fill:#b1cbfc;stroke:#ffffff;stroke-width:0.75;"/>
    <path clip-path="url(#p4e2f8c1dfc)" d="M 1032.41375 71.851302 
L 1098.640625 71.851302 
L 1098.640625 126.095977 
L 1032.41375 126.095977 
L 1032.41375 71.851302 
" style="fill:#b5cdfa;stroke:#ffffff;stroke-width:0.75;"/>
    <path clip-path="url(#p4e2f8c1dfc)" d="M 1098.640625 71.851302 
L 1164.8675 71.851302 
L 1164.8675 126.095977 
L 1098.640625 126.095977 
L 1098.640625 71.851302 
" style="fill:#e57058;stroke:#ffffff;stroke-width:0.75;"/>
    <path clip-path="url(#p4e2f8c1dfc)" d="M 1164.8675 71.851302 
L 1231.094375 71.851302 
L 1231.094375 126.095977 
L 1164.8675 126.095977 
L 1164.8675 71.851302 
" style="fill:#f18f71;stroke:#ffffff;stroke-width:0.75;"/>
    <path clip-path="url(#p4e2f8c1dfc)" d="M 1231.094375 71.851302 
L 1297.32125 71.851302 
L 1297.32125 126.095977 
L 1231.094375 126.095977 
L 1231.094375 71.851302 
" style="fill:#f49a7b;stroke:#ffffff;stroke-width:0.75;"/>
    <path clip-path="url(#p4e2f8c1dfc)" d="M 1297.32125 71.851302 
L 1363.548125 71.851302 
L 1363.548125 126.095977 
L 1297.32125 126.095977 
L 1297.32125 71.851302 
" style="fill:#f0cdbb;stroke:#ffffff;stroke-width:0.75;"/>
    <path clip-path="url(#p4e2f8c1dfc)" d="M 1363.548125 71.851302 
L 1429.775 71.851302 
L 1429.775 126.095977 
L 1363.548125 126.095977 
L 1363.548125 71.851302 
" style="fill:#f6a385;stroke:#ffffff;stroke-width:0.75;"/>
    <path clip-path="url(#p4e2f8c1dfc)" d="M 1429.775 71.851302 
L 1496.001875 71.851302 
L 1496.001875 126.095977 
L 1429.775 126.095977 
L 1429.775 71.851302 
" style="fill:#e5d8d1;stroke:#ffffff;stroke-width:0.75;"/>
    <path clip-path="url(#p4e2f8c1dfc)" d="M 1496.001875 71.851302 
L 1562.22875 71.851302 
L 1562.22875 126.095977 
L 1496.001875 126.095977 
L 1496.001875 71.851302 
" style="fill:#d3dbe7;stroke:#ffffff;stroke-width:0.75;"/>
    <path clip-path="url(#p4e2f8c1dfc)" d="M 1562.22875 71.851302 
L 1628.455625 71.851302 
L 1628.455625 126.095977 
L 1562.22875 126.095977 
L 1562.22875 71.851302 
" style="fill:#d9dce1;stroke:#ffffff;stroke-width:0.75;"/>
    <path clip-path="url(#p4e2f8c1dfc)" d="M 1628.455625 71.851302 
L 1694.6825 71.851302 
L 1694.6825 126.095977 
L 1628.455625 126.095977 
L 1628.455625 71.851302 
" style="fill:#a9c6fd;stroke:#ffffff;stroke-width:0.75;"/>
    <path clip-path="url(#p4e2f8c1dfc)" d="M 1694.6825 71.851302 
L 1760.909375 71.851302 
L 1760.909375 126.095977 
L 1694.6825 126.095977 
L 1694.6825 71.851302 
" style="fill:#ecd3c5;stroke:#ffffff;stroke-width:0.75;"/>
    <path clip-path="url(#p4e2f8c1dfc)" d="M 1760.909375 71.851302 
L 1827.13625 71.851302 
L 1827.13625 126.095977 
L 1760.909375 126.095977 
L 1760.909375 71.851302 
" style="fill:#ead5c9;stroke:#ffffff;stroke-width:0.75;"/>
    <path clip-path="url(#p4e2f8c1dfc)" d="M 1827.13625 71.851302 
L 1893.363125 71.851302 
L 1893.363125 126.095977 
L 1827.13625 126.095977 
L 1827.13625 71.851302 
" style="fill:#f5c2aa;stroke:#ffffff;stroke-width:0.75;"/>
    <path clip-path="url(#p4e2f8c1dfc)" d="M 1893.363125 71.851302 
L 1959.59 71.851302 
L 1959.59 126.095977 
L 1893.363125 126.095977 
L 1893.363125 71.851302 
" style="fill:#f7a98b;stroke:#ffffff;stroke-width:0.75;"/>
    <path clip-path="url(#p4e2f8c1dfc)" d="M 105.2375 126.095977 
L 171.464375 126.095977 
L 171.464375 180.340651 
L 105.2375 180.340651 
L 105.2375 126.095977 
" style="fill:#85a8fc;stroke:#ffffff;stroke-width:0.75;"/>
    <path clip-path="url(#p4e2f8c1dfc)" d="M 171.464375 126.095977 
L 237.69125 126.095977 
L 237.69125 180.340651 
L 171.464375 180.340651 
L 171.464375 126.095977 
" style="fill:#8db0fe;stroke:#ffffff;stroke-width:0.75;"/>
    <path clip-path="url(#p4e2f8c1dfc)" d="M 237.69125 126.095977 
L 303.918125 126.095977 
L 303.918125 180.340651 
L 237.69125 180.340651 
L 237.69125 126.095977 
" style="fill:#e9d5cb;stroke:#ffffff;stroke-width:0.75;"/>
    <path clip-path="url(#p4e2f8c1dfc)" d="M 303.918125 126.095977 
L 370.145 126.095977 
L 370.145 180.340651 
L 303.918125 180.340651 
L 303.918125 126.095977 
" style="fill:#efcfbf;stroke:#ffffff;stroke-width:0.75;"/>
    <path clip-path="url(#p4e2f8c1dfc)" d="M 370.145 126.095977 
L 436.371875 126.095977 
L 436.371875 180.340651 
L 370.145 180.340651 
L 370.145 126.095977 
" style="fill:#f7a889;stroke:#ffffff;stroke-width:0.75;"/>
    <path clip-path="url(#p4e2f8c1dfc)" d="M 436.371875 126.095977 
L 502.59875 126.095977 
L 502.59875 180.340651 
L 436.371875 180.340651 
L 436.371875 126.095977 
" style="fill:#f7b99e;stroke:#ffffff;stroke-width:0.75;"/>
    <path clip-path="url(#p4e2f8c1dfc)" d="M 502.59875 126.095977 
L 568.825625 126.095977 
L 568.825625 180.340651 
L 502.59875 180.340651 
L 502.59875 126.095977 
" style="fill:#f1cdba;stroke:#ffffff;stroke-width:0.75;"/>
    <path clip-path="url(#p4e2f8c1dfc)" d="M 568.825625 126.095977 
L 635.0525 126.095977 
L 635.0525 180.340651 
L 568.825625 180.340651 
L 568.825625 126.095977 
" style="fill:#f7b194;stroke:#ffffff;stroke-width:0.75;"/>
    <path clip-path="url(#p4e2f8c1dfc)" d="M 635.0525 126.095977 
L 701.279375 126.095977 
L 701.279375 180.340651 
L 635.0525 180.340651 
L 635.0525 126.095977 
" style="fill:#d65244;stroke:#ffffff;stroke-width:0.75;"/>
    <path clip-path="url(#p4e2f8c1dfc)" d="M 701.279375 126.095977 
L 767.50625 126.095977 
L 767.50625 180.340651 
L 701.279375 180.340651 
L 701.279375 126.095977 
" style="fill:#f5c1a9;stroke:#ffffff;stroke-width:0.75;"/>
    <path clip-path="url(#p4e2f8c1dfc)" d="M 767.50625 126.095977 
L 833.733125 126.095977 
L 833.733125 180.340651 
L 767.50625 180.340651 
L 767.50625 126.095977 
" style="fill:#f6a283;stroke:#ffffff;stroke-width:0.75;"/>
    <path clip-path="url(#p4e2f8c1dfc)" d="M 833.733125 126.095977 
L 899.96 126.095977 
L 899.96 180.340651 
L 833.733125 180.340651 
L 833.733125 126.095977 
" style="fill:#e8d6cc;stroke:#ffffff;stroke-width:0.75;"/>
    <path clip-path="url(#p4e2f8c1dfc)" d="M 899.96 126.095977 
L 966.186875 126.095977 
L 966.186875 180.340651 
L 899.96 180.340651 
L 899.96 126.095977 
" style="fill:#f6bda2;stroke:#ffffff;stroke-width:0.75;"/>
    <path clip-path="url(#p4e2f8c1dfc)" d="M 966.186875 126.095977 
L 1032.41375 126.095977 
L 1032.41375 180.340651 
L 966.186875 180.340651 
L 966.186875 126.095977 
" style="fill:#ead5c9;stroke:#ffffff;stroke-width:0.75;"/>
    <path clip-path="url(#p4e2f8c1dfc)" d="M 1032.41375 126.095977 
L 1098.640625 126.095977 
L 1098.640625 180.340651 
L 1032.41375 180.340651 
L 1032.41375 126.095977 
" style="fill:#efcebd;stroke:#ffffff;stroke-width:0.75;"/>
    <path clip-path="url(#p4e2f8c1dfc)" d="M 1098.640625 126.095977 
L 1164.8675 126.095977 
L 1164.8675 180.340651 
L 1098.640625 180.340651 
L 1098.640625 126.095977 
" style="fill:#ee8468;stroke:#ffffff;stroke-width:0.75;"/>
    <path clip-path="url(#p4e2f8c1dfc)" d="M 1164.8675 126.095977 
L 1231.094375 126.095977 
L 1231.094375 180.340651 
L 1164.8675 180.340651 
L 1164.8675 126.095977 
" style="fill:#e0654f;stroke:#ffffff;stroke-width:0.75;"/>
    <path clip-path="url(#p4e2f8c1dfc)" d="M 1231.094375 126.095977 
L 1297.32125 126.095977 
L 1297.32125 180.340651 
L 1231.094375 180.340651 
L 1231.094375 126.095977 
" style="fill:#be242e;stroke:#ffffff;stroke-width:0.75;"/>
    <path clip-path="url(#p4e2f8c1dfc)" d="M 1297.32125 126.095977 
L 1363.548125 126.095977 
L 1363.548125 180.340651 
L 1297.32125 180.340651 
L 1297.32125 126.095977 
" style="fill:#b40426;stroke:#ffffff;stroke-width:0.75;"/>
    <path clip-path="url(#p4e2f8c1dfc)" d="M 1363.548125 126.095977 
L 1429.775 126.095977 
L 1429.775 180.340651 
L 1363.548125 180.340651 
L 1363.548125 126.095977 
" style="fill:#b50927;stroke:#ffffff;stroke-width:0.75;"/>
    <path clip-path="url(#p4e2f8c1dfc)" d="M 1429.775 126.095977 
L 1496.001875 126.095977 
L 1496.001875 180.340651 
L 1429.775 180.340651 
L 1429.775 126.095977 
" style="fill:#d65244;stroke:#ffffff;stroke-width:0.75;"/>
    <path clip-path="url(#p4e2f8c1dfc)" d="M 1496.001875 126.095977 
L 1562.22875 126.095977 
L 1562.22875 180.340651 
L 1496.001875 180.340651 
L 1496.001875 126.095977 
" style="fill:#e8765c;stroke:#ffffff;stroke-width:0.75;"/>
    <path clip-path="url(#p4e2f8c1dfc)" d="M 1562.22875 126.095977 
L 1628.455625 126.095977 
L 1628.455625 180.340651 
L 1562.22875 180.340651 
L 1562.22875 126.095977 
" style="fill:#e97a5f;stroke:#ffffff;stroke-width:0.75;"/>
    <path clip-path="url(#p4e2f8c1dfc)" d="M 1628.455625 126.095977 
L 1694.6825 126.095977 
L 1694.6825 180.340651 
L 1628.455625 180.340651 
L 1628.455625 126.095977 
" style="fill:#f7af91;stroke:#ffffff;stroke-width:0.75;"/>
    <path clip-path="url(#p4e2f8c1dfc)" d="M 1694.6825 126.095977 
L 1760.909375 126.095977 
L 1760.909375 180.340651 
L 1694.6825 180.340651 
L 1694.6825 126.095977 
" style="fill:#f39475;stroke:#ffffff;stroke-width:0.75;"/>
    <path clip-path="url(#p4e2f8c1dfc)" d="M 1760.909375 126.095977 
L 1827.13625 126.095977 
L 1827.13625 180.340651 
L 1760.909375 180.340651 
L 1760.909375 126.095977 
" style="fill:#f3c8b2;stroke:#ffffff;stroke-width:0.75;"/>
    <path clip-path="url(#p4e2f8c1dfc)" d="M 1827.13625 126.095977 
L 1893.363125 126.095977 
L 1893.363125 180.340651 
L 1827.13625 180.340651 
L 1827.13625 126.095977 
" style="fill:#f0cdbb;stroke:#ffffff;stroke-width:0.75;"/>
    <path clip-path="url(#p4e2f8c1dfc)" d="M 1893.363125 126.095977 
L 1959.59 126.095977 
L 1959.59 180.340651 
L 1893.363125 180.340651 
L 1893.363125 126.095977 
" style="fill:#f7af91;stroke:#ffffff;stroke-width:0.75;"/>
    <path clip-path="url(#p4e2f8c1dfc)" d="M 105.2375 180.340651 
L 171.464375 180.340651 
L 171.464375 234.585326 
L 105.2375 234.585326 
L 105.2375 180.340651 
" style="fill:#e9d5cb;stroke:#ffffff;stroke-width:0.75;"/>
    <path clip-path="url(#p4e2f8c1dfc)" d="M 171.464375 180.340651 
L 237.69125 180.340651 
L 237.69125 234.585326 
L 171.464375 234.585326 
L 171.464375 180.340651 
" style="fill:#f7b89c;stroke:#ffffff;stroke-width:0.75;"/>
    <path clip-path="url(#p4e2f8c1dfc)" d="M 237.69125 180.340651 
L 303.918125 180.340651 
L 303.918125 234.585326 
L 237.69125 234.585326 
L 237.69125 180.340651 
" style="fill:#f49a7b;stroke:#ffffff;stroke-width:0.75;"/>
    <path clip-path="url(#p4e2f8c1dfc)" d="M 303.918125 180.340651 
L 370.145 180.340651 
L 370.145 234.585326 
L 303.918125 234.585326 
L 303.918125 180.340651 
" style="fill:#f7ac8e;stroke:#ffffff;stroke-width:0.75;"/>
    <path clip-path="url(#p4e2f8c1dfc)" d="M 370.145 180.340651 
L 436.371875 180.340651 
L 436.371875 234.585326 
L 370.145 234.585326 
L 370.145 180.340651 
" style="fill:#f18f71;stroke:#ffffff;stroke-width:0.75;"/>
    <path clip-path="url(#p4e2f8c1dfc)" d="M 436.371875 180.340651 
L 502.59875 180.340651 
L 502.59875 234.585326 
L 436.371875 234.585326 
L 436.371875 180.340651 
" style="fill:#f39475;stroke:#ffffff;stroke-width:0.75;"/>
    <path clip-path="url(#p4e2f8c1dfc)" d="M 502.59875 180.340651 
L 568.825625 180.340651 
L 568.825625 234.585326 
L 502.59875 234.585326 
L 502.59875 180.340651 
" style="fill:#f4c5ad;stroke:#ffffff;stroke-width:0.75;"/>
    <path clip-path="url(#p4e2f8c1dfc)" d="M 568.825625 180.340651 
L 635.0525 180.340651 
L 635.0525 234.585326 
L 568.825625 234.585326 
L 568.825625 180.340651 
" style="fill:#f6bda2;stroke:#ffffff;stroke-width:0.75;"/>
    <path clip-path="url(#p4e2f8c1dfc)" d="M 635.0525 180.340651 
L 701.279375 180.340651 
L 701.279375 234.585326 
L 635.0525 234.585326 
L 635.0525 180.340651 
" style="fill:#edd1c2;stroke:#ffffff;stroke-width:0.75;"/>
    <path clip-path="url(#p4e2f8c1dfc)" d="M 701.279375 180.340651 
L 767.50625 180.340651 
L 767.50625 234.585326 
L 701.279375 234.585326 
L 701.279375 180.340651 
" style="fill:#d5dbe5;stroke:#ffffff;stroke-width:0.75;"/>
    <path clip-path="url(#p4e2f8c1dfc)" d="M 767.50625 180.340651 
L 833.733125 180.340651 
L 833.733125 234.585326 
L 767.50625 234.585326 
L 767.50625 180.340651 
" style="fill:#bfd3f6;stroke:#ffffff;stroke-width:0.75;"/>
    <path clip-path="url(#p4e2f8c1dfc)" d="M 833.733125 180.340651 
L 899.96 180.340651 
L 899.96 234.585326 
L 833.733125 234.585326 
L 833.733125 180.340651 
" style="fill:#b1cbfc;stroke:#ffffff;stroke-width:0.75;"/>
    <path clip-path="url(#p4e2f8c1dfc)" d="M 899.96 180.340651 
L 966.186875 180.340651 
L 966.186875 234.585326 
L 899.96 234.585326 
L 899.96 180.340651 
" style="fill:#e2dad5;stroke:#ffffff;stroke-width:0.75;"/>
    <path clip-path="url(#p4e2f8c1dfc)" d="M 966.186875 180.340651 
L 1032.41375 180.340651 
L 1032.41375 234.585326 
L 966.186875 234.585326 
L 966.186875 180.340651 
" style="fill:#f7b79b;stroke:#ffffff;stroke-width:0.75;"/>
    <path clip-path="url(#p4e2f8c1dfc)" d="M 1032.41375 180.340651 
L 1098.640625 180.340651 
L 1098.640625 234.585326 
L 1032.41375 234.585326 
L 1032.41375 180.340651 
" style="fill:#f7b497;stroke:#ffffff;stroke-width:0.75;"/>
    <path clip-path="url(#p4e2f8c1dfc)" d="M 1098.640625 180.340651 
L 1164.8675 180.340651 
L 1164.8675 234.585326 
L 1098.640625 234.585326 
L 1098.640625 180.340651 
" style="fill:#f2cab5;stroke:#ffffff;stroke-width:0.75;"/>
    <path clip-path="url(#p4e2f8c1dfc)" d="M 1164.8675 180.340651 
L 1231.094375 180.340651 
L 1231.094375 234.585326 
L 1164.8675 234.585326 
L 1164.8675 180.340651 
" style="fill:#f59d7e;stroke:#ffffff;stroke-width:0.75;"/>
    <path clip-path="url(#p4e2f8c1dfc)" d="M 1231.094375 180.340651 
L 1297.32125 180.340651 
L 1297.32125 234.585326 
L 1231.094375 234.585326 
L 1231.094375 180.340651 
" style="fill:#f39778;stroke:#ffffff;stroke-width:0.75;"/>
    <path clip-path="url(#p4e2f8c1dfc)" d="M 1297.32125 180.340651 
L 1363.548125 180.340651 
L 1363.548125 234.585326 
L 1297.32125 234.585326 
L 1297.32125 180.340651 
" style="fill:#e36b54;stroke:#ffffff;stroke-width:0.75;"/>
    <path clip-path="url(#p4e2f8c1dfc)" d="M 1363.548125 180.340651 
L 1429.775 180.340651 
L 1429.775 234.585326 
L 1363.548125 234.585326 
L 1363.548125 180.340651 
" style="fill:#df634e;stroke:#ffffff;stroke-width:0.75;"/>
    <path clip-path="url(#p4e2f8c1dfc)" d="M 1429.775 180.340651 
L 1496.001875 180.340651 
L 1496.001875 234.585326 
L 1429.775 234.585326 
L 1429.775 180.340651 
" style="fill:#f7aa8c;stroke:#ffffff;stroke-width:0.75;"/>
    <path clip-path="url(#p4e2f8c1dfc)" d="M 1496.001875 180.340651 
L 1562.22875 180.340651 
L 1562.22875 234.585326 
L 1496.001875 234.585326 
L 1496.001875 180.340651 
" style="fill:#f59c7d;stroke:#ffffff;stroke-width:0.75;"/>
    <path clip-path="url(#p4e2f8c1dfc)" d="M 1562.22875 180.340651 
L 1628.455625 180.340651 
L 1628.455625 234.585326 
L 1562.22875 234.585326 
L 1562.22875 180.340651 
" style="fill:#e9785d;stroke:#ffffff;stroke-width:0.75;"/>
    <path clip-path="url(#p4e2f8c1dfc)" d="M 1628.455625 180.340651 
L 1694.6825 180.340651 
L 1694.6825 234.585326 
L 1628.455625 234.585326 
L 1628.455625 180.340651 
" style="fill:#c32e31;stroke:#ffffff;stroke-width:0.75;"/>
    <path clip-path="url(#p4e2f8c1dfc)" d="M 1694.6825 180.340651 
L 1760.909375 180.340651 
L 1760.909375 234.585326 
L 1694.6825 234.585326 
L 1694.6825 180.340651 
" style="fill:#b40426;stroke:#ffffff;stroke-width:0.75;"/>
    <path clip-path="url(#p4e2f8c1dfc)" d="M 1760.909375 180.340651 
L 1827.13625 180.340651 
L 1827.13625 234.585326 
L 1760.909375 234.585326 
L 1760.909375 180.340651 
" style="fill:#bb1b2c;stroke:#ffffff;stroke-width:0.75;"/>
    <path clip-path="url(#p4e2f8c1dfc)" d="M 1827.13625 180.340651 
L 1893.363125 180.340651 
L 1893.363125 234.585326 
L 1827.13625 234.585326 
L 1827.13625 180.340651 
" style="fill:#ec8165;stroke:#ffffff;stroke-width:0.75;"/>
    <path clip-path="url(#p4e2f8c1dfc)" d="M 1893.363125 180.340651 
L 1959.59 180.340651 
L 1959.59 234.585326 
L 1893.363125 234.585326 
L 1893.363125 180.340651 
" style="fill:#dc5d4a;stroke:#ffffff;stroke-width:0.75;"/>
    <path clip-path="url(#p4e2f8c1dfc)" d="M 105.2375 234.585326 
L 171.464375 234.585326 
L 171.464375 288.83 
L 105.2375 288.83 
L 105.2375 234.585326 
" style="fill:#c5d6f2;stroke:#ffffff;stroke-width:0.75;"/>
    <path clip-path="url(#p4e2f8c1dfc)" d="M 171.464375 234.585326 
L 237.69125 234.585326 
L 237.69125 288.83 
L 171.464375 288.83 
L 171.464375 234.585326 
" style="fill:#dadce0;stroke:#ffffff;stroke-width:0.75;"/>
    <path clip-path="url(#p4e2f8c1dfc)" d="M 237.69125 234.585326 
L 303.918125 234.585326 
L 303.918125 288.83 
L 237.69125 288.83 
L 237.69125 234.585326 
" style="fill:#cdd9ec;stroke:#ffffff;stroke-width:0.75;"/>
    <path clip-path="url(#p4e2f8c1dfc)" d="M 303.918125 234.585326 
L 370.145 234.585326 
L 370.145 288.83 
L 303.918125 288.83 
L 303.918125 234.585326 
" style="fill:#a5c3fe;stroke:#ffffff;stroke-width:0.75;"/>
    <path clip-path="url(#p4e2f8c1dfc)" d="M 370.145 234.585326 
L 436.371875 234.585326 
L 436.371875 288.83 
L 370.145 288.83 
L 370.145 234.585326 
" style="fill:#f7b89c;stroke:#ffffff;stroke-width:0.75;"/>
    <path clip-path="url(#p4e2f8c1dfc)" d="M 436.371875 234.585326 
L 502.59875 234.585326 
L 502.59875 288.83 
L 436.371875 288.83 
L 436.371875 234.585326 
" style="fill:#ead5c9;stroke:#ffffff;stroke-width:0.75;"/>
    <path clip-path="url(#p4e2f8c1dfc)" d="M 502.59875 234.585326 
L 568.825625 234.585326 
L 568.825625 288.83 
L 502.59875 288.83 
L 502.59875 234.585326 
" style="fill:#f1ccb8;stroke:#ffffff;stroke-width:0.75;"/>
    <path clip-path="url(#p4e2f8c1dfc)" d="M 568.825625 234.585326 
L 635.0525 234.585326 
L 635.0525 288.83 
L 568.825625 288.83 
L 568.825625 234.585326 
" style="fill:#dfdbd9;stroke:#ffffff;stroke-width:0.75;"/>
    <path clip-path="url(#p4e2f8c1dfc)" d="M 635.0525 234.585326 
L 701.279375 234.585326 
L 701.279375 288.83 
L 635.0525 288.83 
L 635.0525 234.585326 
" style="fill:#cdd9ec;stroke:#ffffff;stroke-width:0.75;"/>
    <path clip-path="url(#p4e2f8c1dfc)" d="M 701.279375 234.585326 
L 767.50625 234.585326 
L 767.50625 288.83 
L 701.279375 288.83 
L 701.279375 234.585326 
" style="fill:#f3c8b2;stroke:#ffffff;stroke-width:0.75;"/>
    <path clip-path="url(#p4e2f8c1dfc)" d="M 767.50625 234.585326 
L 833.733125 234.585326 
L 833.733125 288.83 
L 767.50625 288.83 
L 767.50625 234.585326 
" style="fill:#f6a586;stroke:#ffffff;stroke-width:0.75;"/>
    <path clip-path="url(#p4e2f8c1dfc)" d="M 833.733125 234.585326 
L 899.96 234.585326 
L 899.96 288.83 
L 833.733125 288.83 
L 833.733125 234.585326 
" style="fill:#9ebeff;stroke:#ffffff;stroke-width:0.75;"/>
    <path clip-path="url(#p4e2f8c1dfc)" d="M 899.96 234.585326 
L 966.186875 234.585326 
L 966.186875 288.83 
L 899.96 288.83 
L 899.96 234.585326 
" style="fill:#bfd3f6;stroke:#ffffff;stroke-width:0.75;"/>
    <path clip-path="url(#p4e2f8c1dfc)" d="M 966.186875 234.585326 
L 1032.41375 234.585326 
L 1032.41375 288.83 
L 966.186875 288.83 
L 966.186875 234.585326 
" style="fill:#dfdbd9;stroke:#ffffff;stroke-width:0.75;"/>
    <path clip-path="url(#p4e2f8c1dfc)" d="M 1032.41375 234.585326 
L 1098.640625 234.585326 
L 1098.640625 288.83 
L 1032.41375 288.83 
L 1032.41375 234.585326 
" style="fill:#b2ccfb;stroke:#ffffff;stroke-width:0.75;"/>
    <path clip-path="url(#p4e2f8c1dfc)" d="M 1098.640625 234.585326 
L 1164.8675 234.585326 
L 1164.8675 288.83 
L 1098.640625 288.83 
L 1098.640625 234.585326 
" style="fill:#f6bda2;stroke:#ffffff;stroke-width:0.75;"/>
    <path clip-path="url(#p4e2f8c1dfc)" d="M 1164.8675 234.585326 
L 1231.094375 234.585326 
L 1231.094375 288.83 
L 1164.8675 288.83 
L 1164.8675 234.585326 
" style="fill:#bed2f6;stroke:#ffffff;stroke-width:0.75;"/>
    <path clip-path="url(#p4e2f8c1dfc)" d="M 1231.094375 234.585326 
L 1297.32125 234.585326 
L 1297.32125 288.83 
L 1231.094375 288.83 
L 1231.094375 234.585326 
" style="fill:#edd2c3;stroke:#ffffff;stroke-width:0.75;"/>
    <path clip-path="url(#p4e2f8c1dfc)" d="M 1297.32125 234.585326 
L 1363.548125 234.585326 
L 1363.548125 288.83 
L 1297.32125 288.83 
L 1297.32125 234.585326 
" style="fill:#f7a889;stroke:#ffffff;stroke-width:0.75;"/>
    <path clip-path="url(#p4e2f8c1dfc)" d="M 1363.548125 234.585326 
L 1429.775 234.585326 
L 1429.775 288.83 
L 1363.548125 288.83 
L 1363.548125 234.585326 
" style="fill:#f6a586;stroke:#ffffff;stroke-width:0.75;"/>
    <path clip-path="url(#p4e2f8c1dfc)" d="M 1429.775 234.585326 
L 1496.001875 234.585326 
L 1496.001875 288.83 
L 1429.775 288.83 
L 1429.775 234.585326 
" style="fill:#f08b6e;stroke:#ffffff;stroke-width:0.75;"/>
    <path clip-path="url(#p4e2f8c1dfc)" d="M 1496.001875 234.585326 
L 1562.22875 234.585326 
L 1562.22875 288.83 
L 1496.001875 288.83 
L 1496.001875 234.585326 
" style="fill:#f4c6af;stroke:#ffffff;stroke-width:0.75;"/>
    <path clip-path="url(#p4e2f8c1dfc)" d="M 1562.22875 234.585326 
L 1628.455625 234.585326 
L 1628.455625 288.83 
L 1562.22875 288.83 
L 1562.22875 234.585326 
" style="fill:#b40426;stroke:#ffffff;stroke-width:0.75;"/>
    <path clip-path="url(#p4e2f8c1dfc)" d="M 1628.455625 234.585326 
L 1694.6825 234.585326 
L 1694.6825 288.83 
L 1628.455625 288.83 
L 1628.455625 234.585326 
" style="fill:#f5c4ac;stroke:#ffffff;stroke-width:0.75;"/>
    <path clip-path="url(#p4e2f8c1dfc)" d="M 1694.6825 234.585326 
L 1760.909375 234.585326 
L 1760.909375 288.83 
L 1694.6825 288.83 
L 1694.6825 234.585326 
" style="fill:#e26952;stroke:#ffffff;stroke-width:0.75;"/>
    <path clip-path="url(#p4e2f8c1dfc)" d="M 1760.909375 234.585326 
L 1827.13625 234.585326 
L 1827.13625 288.83 
L 1760.909375 288.83 
L 1760.909375 234.585326 
" style="fill:#f7b99e;stroke:#ffffff;stroke-width:0.75;"/>
    <path clip-path="url(#p4e2f8c1dfc)" d="M 1827.13625 234.585326 
L 1893.363125 234.585326 
L 1893.363125 288.83 
L 1827.13625 288.83 
L 1827.13625 234.585326 
" style="fill:#f59d7e;stroke:#ffffff;stroke-width:0.75;"/>
    <path clip-path="url(#p4e2f8c1dfc)" d="M 1893.363125 234.585326 
L 1959.59 234.585326 
L 1959.59 288.83 
L 1893.363125 288.83 
L 1893.363125 234.585326 
" style="fill:#f29072;stroke:#ffffff;stroke-width:0.75;"/>
   </g>
   <g id="matplotlib.axis_3">
    <g id="xtick_1">
     <g id="line2d_2">
      <defs>
       <path d="M 0 0 
L 0 3.5 
" id="m76db687663" style="stroke:#000000;stroke-width:0.8;"/>
      </defs>
      <g>
       <use style="stroke:#000000;stroke-width:0.8;" x="138.350938" xlink:href="#m76db687663" y="288.83"/>
      </g>
     </g>
     <g id="text_2">
      <!-- Step 5-R -->
      <g transform="translate(68.430009 374.336088)rotate(-45)scale(0.22 -0.22)">
       <defs>
        <path id="DejaVuSans-32"/>
        <path d="M 10.796875 72.90625 
L 49.515625 72.90625 
L 49.515625 64.59375 
L 19.828125 64.59375 
L 19.828125 46.734375 
Q 21.96875 47.46875 24.109375 47.828125 
Q 26.265625 48.1875 28.421875 48.1875 
Q 40.625 48.1875 47.75 41.5 
Q 54.890625 34.8125 54.890625 23.390625 
Q 54.890625 11.625 47.5625 5.09375 
Q 40.234375 -1.421875 26.90625 -1.421875 
Q 22.3125 -1.421875 17.546875 -0.640625 
Q 12.796875 0.140625 7.71875 1.703125 
L 7.71875 11.625 
Q 12.109375 9.234375 16.796875 8.0625 
Q 21.484375 6.890625 26.703125 6.890625 
Q 35.15625 6.890625 40.078125 11.328125 
Q 45.015625 15.765625 45.015625 23.390625 
Q 45.015625 31 40.078125 35.4375 
Q 35.15625 39.890625 26.703125 39.890625 
Q 22.75 39.890625 18.8125 39.015625 
Q 14.890625 38.140625 10.796875 36.28125 
z
" id="DejaVuSans-53"/>
        <path d="M 4.890625 31.390625 
L 31.203125 31.390625 
L 31.203125 23.390625 
L 4.890625 23.390625 
z
" id="DejaVuSans-45"/>
        <path d="M 44.390625 34.1875 
Q 47.5625 33.109375 50.5625 29.59375 
Q 53.5625 26.078125 56.59375 19.921875 
L 66.609375 0 
L 56 0 
L 46.6875 18.703125 
Q 43.0625 26.03125 39.671875 28.421875 
Q 36.28125 30.8125 30.421875 30.8125 
L 19.671875 30.8125 
L 19.671875 0 
L 9.8125 0 
L 9.8125 72.90625 
L 32.078125 72.90625 
Q 44.578125 72.90625 50.734375 67.671875 
Q 56.890625 62.453125 56.890625 51.90625 
Q 56.890625 45.015625 53.6875 40.46875 
Q 50.484375 35.9375 44.390625 34.1875 
z
M 19.671875 64.796875 
L 19.671875 38.921875 
L 32.078125 38.921875 
Q 39.203125 38.921875 42.84375 42.21875 
Q 46.484375 45.515625 46.484375 51.90625 
Q 46.484375 58.296875 42.84375 61.546875 
Q 39.203125 64.796875 32.078125 64.796875 
z
" id="DejaVuSans-82"/>
       </defs>
       <use xlink:href="#DejaVuSans-83"/>
       <use x="63.476562" xlink:href="#DejaVuSans-116"/>
       <use x="102.685547" xlink:href="#DejaVuSans-101"/>
       <use x="164.208984" xlink:href="#DejaVuSans-112"/>
       <use x="227.685547" xlink:href="#DejaVuSans-32"/>
       <use x="259.472656" xlink:href="#DejaVuSans-53"/>
       <use x="323.095703" xlink:href="#DejaVuSans-45"/>
       <use x="359.179688" xlink:href="#DejaVuSans-82"/>
      </g>
     </g>
    </g>
    <g id="xtick_2">
     <g id="line2d_3">
      <g>
       <use style="stroke:#000000;stroke-width:0.8;" x="204.577813" xlink:href="#m76db687663" y="288.83"/>
      </g>
     </g>
     <g id="text_3">
      <!-- Step 6-R -->
      <g transform="translate(134.656884 374.336088)rotate(-45)scale(0.22 -0.22)">
       <defs>
        <path d="M 33.015625 40.375 
Q 26.375 40.375 22.484375 35.828125 
Q 18.609375 31.296875 18.609375 23.390625 
Q 18.609375 15.53125 22.484375 10.953125 
Q 26.375 6.390625 33.015625 6.390625 
Q 39.65625 6.390625 43.53125 10.953125 
Q 47.40625 15.53125 47.40625 23.390625 
Q 47.40625 31.296875 43.53125 35.828125 
Q 39.65625 40.375 33.015625 40.375 
z
M 52.59375 71.296875 
L 52.59375 62.3125 
Q 48.875 64.0625 45.09375 64.984375 
Q 41.3125 65.921875 37.59375 65.921875 
Q 27.828125 65.921875 22.671875 59.328125 
Q 17.53125 52.734375 16.796875 39.40625 
Q 19.671875 43.65625 24.015625 45.921875 
Q 28.375 48.1875 33.59375 48.1875 
Q 44.578125 48.1875 50.953125 41.515625 
Q 57.328125 34.859375 57.328125 23.390625 
Q 57.328125 12.15625 50.6875 5.359375 
Q 44.046875 -1.421875 33.015625 -1.421875 
Q 20.359375 -1.421875 13.671875 8.265625 
Q 6.984375 17.96875 6.984375 36.375 
Q 6.984375 53.65625 15.1875 63.9375 
Q 23.390625 74.21875 37.203125 74.21875 
Q 40.921875 74.21875 44.703125 73.484375 
Q 48.484375 72.75 52.59375 71.296875 
z
" id="DejaVuSans-54"/>
       </defs>
       <use xlink:href="#DejaVuSans-83"/>
       <use x="63.476562" xlink:href="#DejaVuSans-116"/>
       <use x="102.685547" xlink:href="#DejaVuSans-101"/>
       <use x="164.208984" xlink:href="#DejaVuSans-112"/>
       <use x="227.685547" xlink:href="#DejaVuSans-32"/>
       <use x="259.472656" xlink:href="#DejaVuSans-54"/>
       <use x="323.095703" xlink:href="#DejaVuSans-45"/>
       <use x="359.179688" xlink:href="#DejaVuSans-82"/>
      </g>
     </g>
    </g>
    <g id="xtick_3">
     <g id="line2d_4">
      <g>
       <use style="stroke:#000000;stroke-width:0.8;" x="270.804688" xlink:href="#m76db687663" y="288.83"/>
      </g>
     </g>
     <g id="text_4">
      <!-- Step 2-R -->
      <g transform="translate(200.883759 374.336088)rotate(-45)scale(0.22 -0.22)">
       <defs>
        <path d="M 19.1875 8.296875 
L 53.609375 8.296875 
L 53.609375 0 
L 7.328125 0 
L 7.328125 8.296875 
Q 12.9375 14.109375 22.625 23.890625 
Q 32.328125 33.6875 34.8125 36.53125 
Q 39.546875 41.84375 41.421875 45.53125 
Q 43.3125 49.21875 43.3125 52.78125 
Q 43.3125 58.59375 39.234375 62.25 
Q 35.15625 65.921875 28.609375 65.921875 
Q 23.96875 65.921875 18.8125 64.3125 
Q 13.671875 62.703125 7.8125 59.421875 
L 7.8125 69.390625 
Q 13.765625 71.78125 18.9375 73 
Q 24.125 74.21875 28.421875 74.21875 
Q 39.75 74.21875 46.484375 68.546875 
Q 53.21875 62.890625 53.21875 53.421875 
Q 53.21875 48.921875 51.53125 44.890625 
Q 49.859375 40.875 45.40625 35.40625 
Q 44.1875 33.984375 37.640625 27.21875 
Q 31.109375 20.453125 19.1875 8.296875 
z
" id="DejaVuSans-50"/>
       </defs>
       <use xlink:href="#DejaVuSans-83"/>
       <use x="63.476562" xlink:href="#DejaVuSans-116"/>
       <use x="102.685547" xlink:href="#DejaVuSans-101"/>
       <use x="164.208984" xlink:href="#DejaVuSans-112"/>
       <use x="227.685547" xlink:href="#DejaVuSans-32"/>
       <use x="259.472656" xlink:href="#DejaVuSans-50"/>
       <use x="323.095703" xlink:href="#DejaVuSans-45"/>
       <use x="359.179688" xlink:href="#DejaVuSans-82"/>
      </g>
     </g>
    </g>
    <g id="xtick_4">
     <g id="line2d_5">
      <g>
       <use style="stroke:#000000;stroke-width:0.8;" x="337.031563" xlink:href="#m76db687663" y="288.83"/>
      </g>
     </g>
     <g id="text_5">
      <!-- Step 7-R -->
      <g transform="translate(267.110634 374.336088)rotate(-45)scale(0.22 -0.22)">
       <defs>
        <path d="M 8.203125 72.90625 
L 55.078125 72.90625 
L 55.078125 68.703125 
L 28.609375 0 
L 18.3125 0 
L 43.21875 64.59375 
L 8.203125 64.59375 
z
" id="DejaVuSans-55"/>
       </defs>
       <use xlink:href="#DejaVuSans-83"/>
       <use x="63.476562" xlink:href="#DejaVuSans-116"/>
       <use x="102.685547" xlink:href="#DejaVuSans-101"/>
       <use x="164.208984" xlink:href="#DejaVuSans-112"/>
       <use x="227.685547" xlink:href="#DejaVuSans-32"/>
       <use x="259.472656" xlink:href="#DejaVuSans-55"/>
       <use x="323.095703" xlink:href="#DejaVuSans-45"/>
       <use x="359.179688" xlink:href="#DejaVuSans-82"/>
      </g>
     </g>
    </g>
    <g id="xtick_5">
     <g id="line2d_6">
      <g>
       <use style="stroke:#000000;stroke-width:0.8;" x="403.258438" xlink:href="#m76db687663" y="288.83"/>
      </g>
     </g>
     <g id="text_6">
      <!-- Step 1-E -->
      <g transform="translate(334.317073 373.356525)rotate(-45)scale(0.22 -0.22)">
       <defs>
        <path d="M 12.40625 8.296875 
L 28.515625 8.296875 
L 28.515625 63.921875 
L 10.984375 60.40625 
L 10.984375 69.390625 
L 28.421875 72.90625 
L 38.28125 72.90625 
L 38.28125 8.296875 
L 54.390625 8.296875 
L 54.390625 0 
L 12.40625 0 
z
" id="DejaVuSans-49"/>
        <path d="M 9.8125 72.90625 
L 55.90625 72.90625 
L 55.90625 64.59375 
L 19.671875 64.59375 
L 19.671875 43.015625 
L 54.390625 43.015625 
L 54.390625 34.71875 
L 19.671875 34.71875 
L 19.671875 8.296875 
L 56.78125 8.296875 
L 56.78125 0 
L 9.8125 0 
z
" id="DejaVuSans-69"/>
       </defs>
       <use xlink:href="#DejaVuSans-83"/>
       <use x="63.476562" xlink:href="#DejaVuSans-116"/>
       <use x="102.685547" xlink:href="#DejaVuSans-101"/>
       <use x="164.208984" xlink:href="#DejaVuSans-112"/>
       <use x="227.685547" xlink:href="#DejaVuSans-32"/>
       <use x="259.472656" xlink:href="#DejaVuSans-49"/>
       <use x="323.095703" xlink:href="#DejaVuSans-45"/>
       <use x="359.179688" xlink:href="#DejaVuSans-69"/>
      </g>
     </g>
    </g>
    <g id="xtick_6">
     <g id="line2d_7">
      <g>
       <use style="stroke:#000000;stroke-width:0.8;" x="469.485313" xlink:href="#m76db687663" y="288.83"/>
      </g>
     </g>
     <g id="text_7">
      <!-- Step 6-E -->
      <g transform="translate(400.543948 373.356525)rotate(-45)scale(0.22 -0.22)">
       <use xlink:href="#DejaVuSans-83"/>
       <use x="63.476562" xlink:href="#DejaVuSans-116"/>
       <use x="102.685547" xlink:href="#DejaVuSans-101"/>
       <use x="164.208984" xlink:href="#DejaVuSans-112"/>
       <use x="227.685547" xlink:href="#DejaVuSans-32"/>
       <use x="259.472656" xlink:href="#DejaVuSans-54"/>
       <use x="323.095703" xlink:href="#DejaVuSans-45"/>
       <use x="359.179688" xlink:href="#DejaVuSans-69"/>
      </g>
     </g>
    </g>
    <g id="xtick_7">
     <g id="line2d_8">
      <g>
       <use style="stroke:#000000;stroke-width:0.8;" x="535.712188" xlink:href="#m76db687663" y="288.83"/>
      </g>
     </g>
     <g id="text_8">
      <!-- Step 1-D -->
      <g transform="translate(464.622102 375.505245)rotate(-45)scale(0.22 -0.22)">
       <defs>
        <path d="M 19.671875 64.796875 
L 19.671875 8.109375 
L 31.59375 8.109375 
Q 46.6875 8.109375 53.6875 14.9375 
Q 60.6875 21.78125 60.6875 36.53125 
Q 60.6875 51.171875 53.6875 57.984375 
Q 46.6875 64.796875 31.59375 64.796875 
z
M 9.8125 72.90625 
L 30.078125 72.90625 
Q 51.265625 72.90625 61.171875 64.09375 
Q 71.09375 55.28125 71.09375 36.53125 
Q 71.09375 17.671875 61.125 8.828125 
Q 51.171875 0 30.078125 0 
L 9.8125 0 
z
" id="DejaVuSans-68"/>
       </defs>
       <use xlink:href="#DejaVuSans-83"/>
       <use x="63.476562" xlink:href="#DejaVuSans-116"/>
       <use x="102.685547" xlink:href="#DejaVuSans-101"/>
       <use x="164.208984" xlink:href="#DejaVuSans-112"/>
       <use x="227.685547" xlink:href="#DejaVuSans-32"/>
       <use x="259.472656" xlink:href="#DejaVuSans-49"/>
       <use x="323.095703" xlink:href="#DejaVuSans-45"/>
       <use x="359.179688" xlink:href="#DejaVuSans-68"/>
      </g>
     </g>
    </g>
    <g id="xtick_8">
     <g id="line2d_9">
      <g>
       <use style="stroke:#000000;stroke-width:0.8;" x="601.939063" xlink:href="#m76db687663" y="288.83"/>
      </g>
     </g>
     <g id="text_9">
      <!-- Step 4-D -->
      <g transform="translate(530.848977 375.505245)rotate(-45)scale(0.22 -0.22)">
       <defs>
        <path d="M 37.796875 64.3125 
L 12.890625 25.390625 
L 37.796875 25.390625 
z
M 35.203125 72.90625 
L 47.609375 72.90625 
L 47.609375 25.390625 
L 58.015625 25.390625 
L 58.015625 17.1875 
L 47.609375 17.1875 
L 47.609375 0 
L 37.796875 0 
L 37.796875 17.1875 
L 4.890625 17.1875 
L 4.890625 26.703125 
z
" id="DejaVuSans-52"/>
       </defs>
       <use xlink:href="#DejaVuSans-83"/>
       <use x="63.476562" xlink:href="#DejaVuSans-116"/>
       <use x="102.685547" xlink:href="#DejaVuSans-101"/>
       <use x="164.208984" xlink:href="#DejaVuSans-112"/>
       <use x="227.685547" xlink:href="#DejaVuSans-32"/>
       <use x="259.472656" xlink:href="#DejaVuSans-52"/>
       <use x="323.095703" xlink:href="#DejaVuSans-45"/>
       <use x="359.179688" xlink:href="#DejaVuSans-68"/>
      </g>
     </g>
    </g>
    <g id="xtick_9">
     <g id="line2d_10">
      <g>
       <use style="stroke:#000000;stroke-width:0.8;" x="668.165938" xlink:href="#m76db687663" y="288.83"/>
      </g>
     </g>
     <g id="text_10">
      <!-- Step 2-E -->
      <g transform="translate(599.224573 373.356525)rotate(-45)scale(0.22 -0.22)">
       <use xlink:href="#DejaVuSans-83"/>
       <use x="63.476562" xlink:href="#DejaVuSans-116"/>
       <use x="102.685547" xlink:href="#DejaVuSans-101"/>
       <use x="164.208984" xlink:href="#DejaVuSans-112"/>
       <use x="227.685547" xlink:href="#DejaVuSans-32"/>
       <use x="259.472656" xlink:href="#DejaVuSans-50"/>
       <use x="323.095703" xlink:href="#DejaVuSans-45"/>
       <use x="359.179688" xlink:href="#DejaVuSans-69"/>
      </g>
     </g>
    </g>
    <g id="xtick_10">
     <g id="line2d_11">
      <g>
       <use style="stroke:#000000;stroke-width:0.8;" x="734.392812" xlink:href="#m76db687663" y="288.83"/>
      </g>
     </g>
     <g id="text_11">
      <!-- Step 5-D -->
      <g transform="translate(663.302727 375.505245)rotate(-45)scale(0.22 -0.22)">
       <use xlink:href="#DejaVuSans-83"/>
       <use x="63.476562" xlink:href="#DejaVuSans-116"/>
       <use x="102.685547" xlink:href="#DejaVuSans-101"/>
       <use x="164.208984" xlink:href="#DejaVuSans-112"/>
       <use x="227.685547" xlink:href="#DejaVuSans-32"/>
       <use x="259.472656" xlink:href="#DejaVuSans-53"/>
       <use x="323.095703" xlink:href="#DejaVuSans-45"/>
       <use x="359.179688" xlink:href="#DejaVuSans-68"/>
      </g>
     </g>
    </g>
    <g id="xtick_11">
     <g id="line2d_12">
      <g>
       <use style="stroke:#000000;stroke-width:0.8;" x="800.619687" xlink:href="#m76db687663" y="288.83"/>
      </g>
     </g>
     <g id="text_12">
      <!-- Step 6-D -->
      <g transform="translate(729.529602 375.505245)rotate(-45)scale(0.22 -0.22)">
       <use xlink:href="#DejaVuSans-83"/>
       <use x="63.476562" xlink:href="#DejaVuSans-116"/>
       <use x="102.685547" xlink:href="#DejaVuSans-101"/>
       <use x="164.208984" xlink:href="#DejaVuSans-112"/>
       <use x="227.685547" xlink:href="#DejaVuSans-32"/>
       <use x="259.472656" xlink:href="#DejaVuSans-54"/>
       <use x="323.095703" xlink:href="#DejaVuSans-45"/>
       <use x="359.179688" xlink:href="#DejaVuSans-68"/>
      </g>
     </g>
    </g>
    <g id="xtick_12">
     <g id="line2d_13">
      <g>
       <use style="stroke:#000000;stroke-width:0.8;" x="866.846563" xlink:href="#m76db687663" y="288.83"/>
      </g>
     </g>
     <g id="text_13">
      <!-- Step 2-D -->
      <g transform="translate(795.756477 375.505245)rotate(-45)scale(0.22 -0.22)">
       <use xlink:href="#DejaVuSans-83"/>
       <use x="63.476562" xlink:href="#DejaVuSans-116"/>
       <use x="102.685547" xlink:href="#DejaVuSans-101"/>
       <use x="164.208984" xlink:href="#DejaVuSans-112"/>
       <use x="227.685547" xlink:href="#DejaVuSans-32"/>
       <use x="259.472656" xlink:href="#DejaVuSans-50"/>
       <use x="323.095703" xlink:href="#DejaVuSans-45"/>
       <use x="359.179688" xlink:href="#DejaVuSans-68"/>
      </g>
     </g>
    </g>
    <g id="xtick_13">
     <g id="line2d_14">
      <g>
       <use style="stroke:#000000;stroke-width:0.8;" x="933.073437" xlink:href="#m76db687663" y="288.83"/>
      </g>
     </g>
     <g id="text_14">
      <!-- Step 6-K -->
      <g transform="translate(863.760179 373.728419)rotate(-45)scale(0.22 -0.22)">
       <defs>
        <path d="M 9.8125 72.90625 
L 19.671875 72.90625 
L 19.671875 42.09375 
L 52.390625 72.90625 
L 65.09375 72.90625 
L 28.90625 38.921875 
L 67.671875 0 
L 54.6875 0 
L 19.671875 35.109375 
L 19.671875 0 
L 9.8125 0 
z
" id="DejaVuSans-75"/>
       </defs>
       <use xlink:href="#DejaVuSans-83"/>
       <use x="63.476562" xlink:href="#DejaVuSans-116"/>
       <use x="102.685547" xlink:href="#DejaVuSans-101"/>
       <use x="164.208984" xlink:href="#DejaVuSans-112"/>
       <use x="227.685547" xlink:href="#DejaVuSans-32"/>
       <use x="259.472656" xlink:href="#DejaVuSans-54"/>
       <use x="323.095703" xlink:href="#DejaVuSans-45"/>
       <use x="359.179688" xlink:href="#DejaVuSans-75"/>
      </g>
     </g>
    </g>
    <g id="xtick_14">
     <g id="line2d_15">
      <g>
       <use style="stroke:#000000;stroke-width:0.8;" x="999.300313" xlink:href="#m76db687663" y="288.83"/>
      </g>
     </g>
     <g id="text_15">
      <!-- Step 5-E -->
      <g transform="translate(930.358948 373.356525)rotate(-45)scale(0.22 -0.22)">
       <use xlink:href="#DejaVuSans-83"/>
       <use x="63.476562" xlink:href="#DejaVuSans-116"/>
       <use x="102.685547" xlink:href="#DejaVuSans-101"/>
       <use x="164.208984" xlink:href="#DejaVuSans-112"/>
       <use x="227.685547" xlink:href="#DejaVuSans-32"/>
       <use x="259.472656" xlink:href="#DejaVuSans-53"/>
       <use x="323.095703" xlink:href="#DejaVuSans-45"/>
       <use x="359.179688" xlink:href="#DejaVuSans-69"/>
      </g>
     </g>
    </g>
    <g id="xtick_15">
     <g id="line2d_16">
      <g>
       <use style="stroke:#000000;stroke-width:0.8;" x="1065.527188" xlink:href="#m76db687663" y="288.83"/>
      </g>
     </g>
     <g id="text_16">
      <!-- Step 5-K -->
      <g transform="translate(996.213929 373.728419)rotate(-45)scale(0.22 -0.22)">
       <use xlink:href="#DejaVuSans-83"/>
       <use x="63.476562" xlink:href="#DejaVuSans-116"/>
       <use x="102.685547" xlink:href="#DejaVuSans-101"/>
       <use x="164.208984" xlink:href="#DejaVuSans-112"/>
       <use x="227.685547" xlink:href="#DejaVuSans-32"/>
       <use x="259.472656" xlink:href="#DejaVuSans-53"/>
       <use x="323.095703" xlink:href="#DejaVuSans-45"/>
       <use x="359.179688" xlink:href="#DejaVuSans-75"/>
      </g>
     </g>
    </g>
    <g id="xtick_16">
     <g id="line2d_17">
      <g>
       <use style="stroke:#000000;stroke-width:0.8;" x="1131.754063" xlink:href="#m76db687663" y="288.83"/>
      </g>
     </g>
     <g id="text_17">
      <!-- Step 3-D -->
      <g transform="translate(1060.663977 375.505245)rotate(-45)scale(0.22 -0.22)">
       <defs>
        <path d="M 40.578125 39.3125 
Q 47.65625 37.796875 51.625 33 
Q 55.609375 28.21875 55.609375 21.1875 
Q 55.609375 10.40625 48.1875 4.484375 
Q 40.765625 -1.421875 27.09375 -1.421875 
Q 22.515625 -1.421875 17.65625 -0.515625 
Q 12.796875 0.390625 7.625 2.203125 
L 7.625 11.71875 
Q 11.71875 9.328125 16.59375 8.109375 
Q 21.484375 6.890625 26.8125 6.890625 
Q 36.078125 6.890625 40.9375 10.546875 
Q 45.796875 14.203125 45.796875 21.1875 
Q 45.796875 27.640625 41.28125 31.265625 
Q 36.765625 34.90625 28.71875 34.90625 
L 20.21875 34.90625 
L 20.21875 43.015625 
L 29.109375 43.015625 
Q 36.375 43.015625 40.234375 45.921875 
Q 44.09375 48.828125 44.09375 54.296875 
Q 44.09375 59.90625 40.109375 62.90625 
Q 36.140625 65.921875 28.71875 65.921875 
Q 24.65625 65.921875 20.015625 65.03125 
Q 15.375 64.15625 9.8125 62.3125 
L 9.8125 71.09375 
Q 15.4375 72.65625 20.34375 73.4375 
Q 25.25 74.21875 29.59375 74.21875 
Q 40.828125 74.21875 47.359375 69.109375 
Q 53.90625 64.015625 53.90625 55.328125 
Q 53.90625 49.265625 50.4375 45.09375 
Q 46.96875 40.921875 40.578125 39.3125 
z
" id="DejaVuSans-51"/>
       </defs>
       <use xlink:href="#DejaVuSans-83"/>
       <use x="63.476562" xlink:href="#DejaVuSans-116"/>
       <use x="102.685547" xlink:href="#DejaVuSans-101"/>
       <use x="164.208984" xlink:href="#DejaVuSans-112"/>
       <use x="227.685547" xlink:href="#DejaVuSans-32"/>
       <use x="259.472656" xlink:href="#DejaVuSans-51"/>
       <use x="323.095703" xlink:href="#DejaVuSans-45"/>
       <use x="359.179688" xlink:href="#DejaVuSans-68"/>
      </g>
     </g>
    </g>
    <g id="xtick_17">
     <g id="line2d_18">
      <g>
       <use style="stroke:#000000;stroke-width:0.8;" x="1197.980937" xlink:href="#m76db687663" y="288.83"/>
      </g>
     </g>
     <g id="text_18">
      <!-- Step 2-K -->
      <g transform="translate(1128.667679 373.728419)rotate(-45)scale(0.22 -0.22)">
       <use xlink:href="#DejaVuSans-83"/>
       <use x="63.476562" xlink:href="#DejaVuSans-116"/>
       <use x="102.685547" xlink:href="#DejaVuSans-101"/>
       <use x="164.208984" xlink:href="#DejaVuSans-112"/>
       <use x="227.685547" xlink:href="#DejaVuSans-32"/>
       <use x="259.472656" xlink:href="#DejaVuSans-50"/>
       <use x="323.095703" xlink:href="#DejaVuSans-45"/>
       <use x="359.179688" xlink:href="#DejaVuSans-75"/>
      </g>
     </g>
    </g>
    <g id="xtick_18">
     <g id="line2d_19">
      <g>
       <use style="stroke:#000000;stroke-width:0.8;" x="1264.207813" xlink:href="#m76db687663" y="288.83"/>
      </g>
     </g>
     <g id="text_19">
      <!-- Step 4-E -->
      <g transform="translate(1195.266448 373.356525)rotate(-45)scale(0.22 -0.22)">
       <use xlink:href="#DejaVuSans-83"/>
       <use x="63.476562" xlink:href="#DejaVuSans-116"/>
       <use x="102.685547" xlink:href="#DejaVuSans-101"/>
       <use x="164.208984" xlink:href="#DejaVuSans-112"/>
       <use x="227.685547" xlink:href="#DejaVuSans-32"/>
       <use x="259.472656" xlink:href="#DejaVuSans-52"/>
       <use x="323.095703" xlink:href="#DejaVuSans-45"/>
       <use x="359.179688" xlink:href="#DejaVuSans-69"/>
      </g>
     </g>
    </g>
    <g id="xtick_19">
     <g id="line2d_20">
      <g>
       <use style="stroke:#000000;stroke-width:0.8;" x="1330.434688" xlink:href="#m76db687663" y="288.83"/>
      </g>
     </g>
     <g id="text_20">
      <!-- Step 1-K -->
      <g transform="translate(1261.121429 373.728419)rotate(-45)scale(0.22 -0.22)">
       <use xlink:href="#DejaVuSans-83"/>
       <use x="63.476562" xlink:href="#DejaVuSans-116"/>
       <use x="102.685547" xlink:href="#DejaVuSans-101"/>
       <use x="164.208984" xlink:href="#DejaVuSans-112"/>
       <use x="227.685547" xlink:href="#DejaVuSans-32"/>
       <use x="259.472656" xlink:href="#DejaVuSans-49"/>
       <use x="323.095703" xlink:href="#DejaVuSans-45"/>
       <use x="359.179688" xlink:href="#DejaVuSans-75"/>
      </g>
     </g>
    </g>
    <g id="xtick_20">
     <g id="line2d_21">
      <g>
       <use style="stroke:#000000;stroke-width:0.8;" x="1396.661562" xlink:href="#m76db687663" y="288.83"/>
      </g>
     </g>
     <g id="text_21">
      <!-- Step 3-E -->
      <g transform="translate(1327.720198 373.356525)rotate(-45)scale(0.22 -0.22)">
       <use xlink:href="#DejaVuSans-83"/>
       <use x="63.476562" xlink:href="#DejaVuSans-116"/>
       <use x="102.685547" xlink:href="#DejaVuSans-101"/>
       <use x="164.208984" xlink:href="#DejaVuSans-112"/>
       <use x="227.685547" xlink:href="#DejaVuSans-32"/>
       <use x="259.472656" xlink:href="#DejaVuSans-51"/>
       <use x="323.095703" xlink:href="#DejaVuSans-45"/>
       <use x="359.179688" xlink:href="#DejaVuSans-69"/>
      </g>
     </g>
    </g>
    <g id="xtick_21">
     <g id="line2d_22">
      <g>
       <use style="stroke:#000000;stroke-width:0.8;" x="1462.888438" xlink:href="#m76db687663" y="288.83"/>
      </g>
     </g>
     <g id="text_22">
      <!-- Step 3-R -->
      <g transform="translate(1392.967509 374.336088)rotate(-45)scale(0.22 -0.22)">
       <use xlink:href="#DejaVuSans-83"/>
       <use x="63.476562" xlink:href="#DejaVuSans-116"/>
       <use x="102.685547" xlink:href="#DejaVuSans-101"/>
       <use x="164.208984" xlink:href="#DejaVuSans-112"/>
       <use x="227.685547" xlink:href="#DejaVuSans-32"/>
       <use x="259.472656" xlink:href="#DejaVuSans-51"/>
       <use x="323.095703" xlink:href="#DejaVuSans-45"/>
       <use x="359.179688" xlink:href="#DejaVuSans-82"/>
      </g>
     </g>
    </g>
    <g id="xtick_22">
     <g id="line2d_23">
      <g>
       <use style="stroke:#000000;stroke-width:0.8;" x="1529.115313" xlink:href="#m76db687663" y="288.83"/>
      </g>
     </g>
     <g id="text_23">
      <!-- Step 7-K -->
      <g transform="translate(1459.802054 373.728419)rotate(-45)scale(0.22 -0.22)">
       <use xlink:href="#DejaVuSans-83"/>
       <use x="63.476562" xlink:href="#DejaVuSans-116"/>
       <use x="102.685547" xlink:href="#DejaVuSans-101"/>
       <use x="164.208984" xlink:href="#DejaVuSans-112"/>
       <use x="227.685547" xlink:href="#DejaVuSans-32"/>
       <use x="259.472656" xlink:href="#DejaVuSans-55"/>
       <use x="323.095703" xlink:href="#DejaVuSans-45"/>
       <use x="359.179688" xlink:href="#DejaVuSans-75"/>
      </g>
     </g>
    </g>
    <g id="xtick_23">
     <g id="line2d_24">
      <g>
       <use style="stroke:#000000;stroke-width:0.8;" x="1595.342187" xlink:href="#m76db687663" y="288.83"/>
      </g>
     </g>
     <g id="text_24">
      <!-- Step 4-K -->
      <g transform="translate(1526.028929 373.728419)rotate(-45)scale(0.22 -0.22)">
       <use xlink:href="#DejaVuSans-83"/>
       <use x="63.476562" xlink:href="#DejaVuSans-116"/>
       <use x="102.685547" xlink:href="#DejaVuSans-101"/>
       <use x="164.208984" xlink:href="#DejaVuSans-112"/>
       <use x="227.685547" xlink:href="#DejaVuSans-32"/>
       <use x="259.472656" xlink:href="#DejaVuSans-52"/>
       <use x="323.095703" xlink:href="#DejaVuSans-45"/>
       <use x="359.179688" xlink:href="#DejaVuSans-75"/>
      </g>
     </g>
    </g>
    <g id="xtick_24">
     <g id="line2d_25">
      <g>
       <use style="stroke:#000000;stroke-width:0.8;" x="1661.569062" xlink:href="#m76db687663" y="288.83"/>
      </g>
     </g>
     <g id="text_25">
      <!-- Step 7-D -->
      <g transform="translate(1590.478977 375.505245)rotate(-45)scale(0.22 -0.22)">
       <use xlink:href="#DejaVuSans-83"/>
       <use x="63.476562" xlink:href="#DejaVuSans-116"/>
       <use x="102.685547" xlink:href="#DejaVuSans-101"/>
       <use x="164.208984" xlink:href="#DejaVuSans-112"/>
       <use x="227.685547" xlink:href="#DejaVuSans-32"/>
       <use x="259.472656" xlink:href="#DejaVuSans-55"/>
       <use x="323.095703" xlink:href="#DejaVuSans-45"/>
       <use x="359.179688" xlink:href="#DejaVuSans-68"/>
      </g>
     </g>
    </g>
    <g id="xtick_25">
     <g id="line2d_26">
      <g>
       <use style="stroke:#000000;stroke-width:0.8;" x="1727.795938" xlink:href="#m76db687663" y="288.83"/>
      </g>
     </g>
     <g id="text_26">
      <!-- Step 3-K -->
      <g transform="translate(1658.482679 373.728419)rotate(-45)scale(0.22 -0.22)">
       <use xlink:href="#DejaVuSans-83"/>
       <use x="63.476562" xlink:href="#DejaVuSans-116"/>
       <use x="102.685547" xlink:href="#DejaVuSans-101"/>
       <use x="164.208984" xlink:href="#DejaVuSans-112"/>
       <use x="227.685547" xlink:href="#DejaVuSans-32"/>
       <use x="259.472656" xlink:href="#DejaVuSans-51"/>
       <use x="323.095703" xlink:href="#DejaVuSans-45"/>
       <use x="359.179688" xlink:href="#DejaVuSans-75"/>
      </g>
     </g>
    </g>
    <g id="xtick_26">
     <g id="line2d_27">
      <g>
       <use style="stroke:#000000;stroke-width:0.8;" x="1794.022813" xlink:href="#m76db687663" y="288.83"/>
      </g>
     </g>
     <g id="text_27">
      <!-- Step 1-R -->
      <g transform="translate(1724.101884 374.336088)rotate(-45)scale(0.22 -0.22)">
       <use xlink:href="#DejaVuSans-83"/>
       <use x="63.476562" xlink:href="#DejaVuSans-116"/>
       <use x="102.685547" xlink:href="#DejaVuSans-101"/>
       <use x="164.208984" xlink:href="#DejaVuSans-112"/>
       <use x="227.685547" xlink:href="#DejaVuSans-32"/>
       <use x="259.472656" xlink:href="#DejaVuSans-49"/>
       <use x="323.095703" xlink:href="#DejaVuSans-45"/>
       <use x="359.179688" xlink:href="#DejaVuSans-82"/>
      </g>
     </g>
    </g>
    <g id="xtick_27">
     <g id="line2d_28">
      <g>
       <use style="stroke:#000000;stroke-width:0.8;" x="1860.249687" xlink:href="#m76db687663" y="288.83"/>
      </g>
     </g>
     <g id="text_28">
      <!-- Step 4-R -->
      <g transform="translate(1790.328759 374.336088)rotate(-45)scale(0.22 -0.22)">
       <use xlink:href="#DejaVuSans-83"/>
       <use x="63.476562" xlink:href="#DejaVuSans-116"/>
       <use x="102.685547" xlink:href="#DejaVuSans-101"/>
       <use x="164.208984" xlink:href="#DejaVuSans-112"/>
       <use x="227.685547" xlink:href="#DejaVuSans-32"/>
       <use x="259.472656" xlink:href="#DejaVuSans-52"/>
       <use x="323.095703" xlink:href="#DejaVuSans-45"/>
       <use x="359.179688" xlink:href="#DejaVuSans-82"/>
      </g>
     </g>
    </g>
    <g id="xtick_28">
     <g id="line2d_29">
      <g>
       <use style="stroke:#000000;stroke-width:0.8;" x="1926.476562" xlink:href="#m76db687663" y="288.83"/>
      </g>
     </g>
     <g id="text_29">
      <!-- Step 7-E -->
      <g transform="translate(1857.535198 373.356525)rotate(-45)scale(0.22 -0.22)">
       <use xlink:href="#DejaVuSans-83"/>
       <use x="63.476562" xlink:href="#DejaVuSans-116"/>
       <use x="102.685547" xlink:href="#DejaVuSans-101"/>
       <use x="164.208984" xlink:href="#DejaVuSans-112"/>
       <use x="227.685547" xlink:href="#DejaVuSans-32"/>
       <use x="259.472656" xlink:href="#DejaVuSans-55"/>
       <use x="323.095703" xlink:href="#DejaVuSans-45"/>
       <use x="359.179688" xlink:href="#DejaVuSans-69"/>
      </g>
     </g>
    </g>
   </g>
   <g id="matplotlib.axis_4">
    <g id="ytick_2">
     <g id="line2d_30">
      <g>
       <use style="stroke:#000000;stroke-width:0.8;" x="1959.59" xlink:href="#m38f0f40907" y="98.97364"/>
      </g>
     </g>
     <g id="text_30">
      <!-- Membranes R -->
      <g transform="translate(1966.59 107.331921)scale(0.22 -0.22)">
       <defs>
        <path d="M 9.8125 72.90625 
L 24.515625 72.90625 
L 43.109375 23.296875 
L 61.8125 72.90625 
L 76.515625 72.90625 
L 76.515625 0 
L 66.890625 0 
L 66.890625 64.015625 
L 48.09375 14.015625 
L 38.1875 14.015625 
L 19.390625 64.015625 
L 19.390625 0 
L 9.8125 0 
z
" id="DejaVuSans-77"/>
        <path d="M 52 44.1875 
Q 55.375 50.25 60.0625 53.125 
Q 64.75 56 71.09375 56 
Q 79.640625 56 84.28125 50.015625 
Q 88.921875 44.046875 88.921875 33.015625 
L 88.921875 0 
L 79.890625 0 
L 79.890625 32.71875 
Q 79.890625 40.578125 77.09375 44.375 
Q 74.3125 48.1875 68.609375 48.1875 
Q 61.625 48.1875 57.5625 43.546875 
Q 53.515625 38.921875 53.515625 30.90625 
L 53.515625 0 
L 44.484375 0 
L 44.484375 32.71875 
Q 44.484375 40.625 41.703125 44.40625 
Q 38.921875 48.1875 33.109375 48.1875 
Q 26.21875 48.1875 22.15625 43.53125 
Q 18.109375 38.875 18.109375 30.90625 
L 18.109375 0 
L 9.078125 0 
L 9.078125 54.6875 
L 18.109375 54.6875 
L 18.109375 46.1875 
Q 21.1875 51.21875 25.484375 53.609375 
Q 29.78125 56 35.6875 56 
Q 41.65625 56 45.828125 52.96875 
Q 50 49.953125 52 44.1875 
z
" id="DejaVuSans-109"/>
        <path d="M 48.6875 27.296875 
Q 48.6875 37.203125 44.609375 42.84375 
Q 40.53125 48.484375 33.40625 48.484375 
Q 26.265625 48.484375 22.1875 42.84375 
Q 18.109375 37.203125 18.109375 27.296875 
Q 18.109375 17.390625 22.1875 11.75 
Q 26.265625 6.109375 33.40625 6.109375 
Q 40.53125 6.109375 44.609375 11.75 
Q 48.6875 17.390625 48.6875 27.296875 
z
M 18.109375 46.390625 
Q 20.953125 51.265625 25.265625 53.625 
Q 29.59375 56 35.59375 56 
Q 45.5625 56 51.78125 48.09375 
Q 58.015625 40.1875 58.015625 27.296875 
Q 58.015625 14.40625 51.78125 6.484375 
Q 45.5625 -1.421875 35.59375 -1.421875 
Q 29.59375 -1.421875 25.265625 0.953125 
Q 20.953125 3.328125 18.109375 8.203125 
L 18.109375 0 
L 9.078125 0 
L 9.078125 75.984375 
L 18.109375 75.984375 
z
" id="DejaVuSans-98"/>
        <path d="M 41.109375 46.296875 
Q 39.59375 47.171875 37.8125 47.578125 
Q 36.03125 48 33.890625 48 
Q 26.265625 48 22.1875 43.046875 
Q 18.109375 38.09375 18.109375 28.8125 
L 18.109375 0 
L 9.078125 0 
L 9.078125 54.6875 
L 18.109375 54.6875 
L 18.109375 46.1875 
Q 20.953125 51.171875 25.484375 53.578125 
Q 30.03125 56 36.53125 56 
Q 37.453125 56 38.578125 55.875 
Q 39.703125 55.765625 41.0625 55.515625 
z
" id="DejaVuSans-114"/>
        <path d="M 34.28125 27.484375 
Q 23.390625 27.484375 19.1875 25 
Q 14.984375 22.515625 14.984375 16.5 
Q 14.984375 11.71875 18.140625 8.90625 
Q 21.296875 6.109375 26.703125 6.109375 
Q 34.1875 6.109375 38.703125 11.40625 
Q 43.21875 16.703125 43.21875 25.484375 
L 43.21875 27.484375 
z
M 52.203125 31.203125 
L 52.203125 0 
L 43.21875 0 
L 43.21875 8.296875 
Q 40.140625 3.328125 35.546875 0.953125 
Q 30.953125 -1.421875 24.3125 -1.421875 
Q 15.921875 -1.421875 10.953125 3.296875 
Q 6 8.015625 6 15.921875 
Q 6 25.140625 12.171875 29.828125 
Q 18.359375 34.515625 30.609375 34.515625 
L 43.21875 34.515625 
L 43.21875 35.40625 
Q 43.21875 41.609375 39.140625 45 
Q 35.0625 48.390625 27.6875 48.390625 
Q 23 48.390625 18.546875 47.265625 
Q 14.109375 46.140625 10.015625 43.890625 
L 10.015625 52.203125 
Q 14.9375 54.109375 19.578125 55.046875 
Q 24.21875 56 28.609375 56 
Q 40.484375 56 46.34375 49.84375 
Q 52.203125 43.703125 52.203125 31.203125 
z
" id="DejaVuSans-97"/>
        <path d="M 54.890625 33.015625 
L 54.890625 0 
L 45.90625 0 
L 45.90625 32.71875 
Q 45.90625 40.484375 42.875 44.328125 
Q 39.84375 48.1875 33.796875 48.1875 
Q 26.515625 48.1875 22.3125 43.546875 
Q 18.109375 38.921875 18.109375 30.90625 
L 18.109375 0 
L 9.078125 0 
L 9.078125 54.6875 
L 18.109375 54.6875 
L 18.109375 46.1875 
Q 21.34375 51.125 25.703125 53.5625 
Q 30.078125 56 35.796875 56 
Q 45.21875 56 50.046875 50.171875 
Q 54.890625 44.34375 54.890625 33.015625 
z
" id="DejaVuSans-110"/>
       </defs>
       <use xlink:href="#DejaVuSans-77"/>
       <use x="86.279297" xlink:href="#DejaVuSans-101"/>
       <use x="147.802734" xlink:href="#DejaVuSans-109"/>
       <use x="245.214844" xlink:href="#DejaVuSans-98"/>
       <use x="308.691406" xlink:href="#DejaVuSans-114"/>
       <use x="349.804688" xlink:href="#DejaVuSans-97"/>
       <use x="411.083984" xlink:href="#DejaVuSans-110"/>
       <use x="474.462891" xlink:href="#DejaVuSans-101"/>
       <use x="535.986328" xlink:href="#DejaVuSans-115"/>
       <use x="588.085938" xlink:href="#DejaVuSans-32"/>
       <use x="619.873047" xlink:href="#DejaVuSans-82"/>
      </g>
     </g>
    </g>
    <g id="ytick_3">
     <g id="line2d_31">
      <g>
       <use style="stroke:#000000;stroke-width:0.8;" x="1959.59" xlink:href="#m38f0f40907" y="153.218314"/>
      </g>
     </g>
     <g id="text_31">
      <!-- Membranes K -->
      <g transform="translate(1966.59 161.576595)scale(0.22 -0.22)">
       <use xlink:href="#DejaVuSans-77"/>
       <use x="86.279297" xlink:href="#DejaVuSans-101"/>
       <use x="147.802734" xlink:href="#DejaVuSans-109"/>
       <use x="245.214844" xlink:href="#DejaVuSans-98"/>
       <use x="308.691406" xlink:href="#DejaVuSans-114"/>
       <use x="349.804688" xlink:href="#DejaVuSans-97"/>
       <use x="411.083984" xlink:href="#DejaVuSans-110"/>
       <use x="474.462891" xlink:href="#DejaVuSans-101"/>
       <use x="535.986328" xlink:href="#DejaVuSans-115"/>
       <use x="588.085938" xlink:href="#DejaVuSans-32"/>
       <use x="619.873047" xlink:href="#DejaVuSans-75"/>
      </g>
     </g>
    </g>
    <g id="ytick_4">
     <g id="line2d_32">
      <g>
       <use style="stroke:#000000;stroke-width:0.8;" x="1959.59" xlink:href="#m38f0f40907" y="207.462988"/>
      </g>
     </g>
     <g id="text_32">
      <!-- Membranes E -->
      <g transform="translate(1966.59 215.82127)scale(0.22 -0.22)">
       <use xlink:href="#DejaVuSans-77"/>
       <use x="86.279297" xlink:href="#DejaVuSans-101"/>
       <use x="147.802734" xlink:href="#DejaVuSans-109"/>
       <use x="245.214844" xlink:href="#DejaVuSans-98"/>
       <use x="308.691406" xlink:href="#DejaVuSans-114"/>
       <use x="349.804688" xlink:href="#DejaVuSans-97"/>
       <use x="411.083984" xlink:href="#DejaVuSans-110"/>
       <use x="474.462891" xlink:href="#DejaVuSans-101"/>
       <use x="535.986328" xlink:href="#DejaVuSans-115"/>
       <use x="588.085938" xlink:href="#DejaVuSans-32"/>
       <use x="619.873047" xlink:href="#DejaVuSans-69"/>
      </g>
     </g>
    </g>
    <g id="ytick_5">
     <g id="line2d_33">
      <g>
       <use style="stroke:#000000;stroke-width:0.8;" x="1959.59" xlink:href="#m38f0f40907" y="261.707663"/>
      </g>
     </g>
     <g id="text_33">
      <!-- Membranes D -->
      <g transform="translate(1966.59 270.065944)scale(0.22 -0.22)">
       <use xlink:href="#DejaVuSans-77"/>
       <use x="86.279297" xlink:href="#DejaVuSans-101"/>
       <use x="147.802734" xlink:href="#DejaVuSans-109"/>
       <use x="245.214844" xlink:href="#DejaVuSans-98"/>
       <use x="308.691406" xlink:href="#DejaVuSans-114"/>
       <use x="349.804688" xlink:href="#DejaVuSans-97"/>
       <use x="411.083984" xlink:href="#DejaVuSans-110"/>
       <use x="474.462891" xlink:href="#DejaVuSans-101"/>
       <use x="535.986328" xlink:href="#DejaVuSans-115"/>
       <use x="588.085938" xlink:href="#DejaVuSans-32"/>
       <use x="619.873047" xlink:href="#DejaVuSans-68"/>
      </g>
     </g>
    </g>
   </g>
  </g>
 </g>
 <defs>
  <clipPath id="pb84766dbfc">
   <rect height="216.978698" width="97.5975" x="7.2" y="71.851302"/>
  </clipPath>
  <clipPath id="p6bcfade5ed">
   <rect height="39.213018" width="1854.3525" x="105.2375" y="7.2"/>
  </clipPath>
  <clipPath id="p94b9474d79">
   <rect height="5.228402" width="1854.3525" x="105.2375" y="56.517959"/>
  </clipPath>
  <clipPath id="p4e2f8c1dfc">
   <rect height="216.978698" width="1854.3525" x="105.2375" y="71.851302"/>
  </clipPath>
 </defs>
</svg>
