<?xml version="1.0" encoding="utf-8" standalone="no"?>
<!DOCTYPE svg PUBLIC "-//W3C//DTD SVG 1.1//EN"
  "http://www.w3.org/Graphics/SVG/1.1/DTD/svg11.dtd">
<!-- Created with matplotlib (https://matplotlib.org/) -->
<svg height="452.406582pt" version="1.1" viewBox="0 0 2152.8275 452.406582" width="2152.8275pt" xmlns="http://www.w3.org/2000/svg" xmlns:xlink="http://www.w3.org/1999/xlink">
 <metadata>
  <rdf:RDF xmlns:cc="http://creativecommons.org/ns#" xmlns:dc="http://purl.org/dc/elements/1.1/" xmlns:rdf="http://www.w3.org/1999/02/22-rdf-syntax-ns#">
   <cc:Work>
    <dc:type rdf:resource="http://purl.org/dc/dcmitype/StillImage"/>
    <dc:date>2020-10-23T15:47:07.753807</dc:date>
    <dc:format>image/svg+xml</dc:format>
    <dc:creator>
     <cc:Agent>
      <dc:title>Matplotlib v3.3.2, https://matplotlib.org/</dc:title>
     </cc:Agent>
    </dc:creator>
   </cc:Work>
  </rdf:RDF>
 </metadata>
 <defs>
  <style type="text/css">*{stroke-linecap:butt;stroke-linejoin:round;}</style>
 </defs>
 <g id="figure_1">
  <g id="patch_1">
   <path d="M 0 452.406582 
L 2152.8275 452.406582 
L 2152.8275 0 
L 0 0 
z
" style="fill:#ffffff;"/>
  </g>
  <g id="axes_1">
   <g id="LineCollection_1">
    <path clip-path="url(#p474ca3a43f)" d="M 110.277 280.206276 
L 27.378955 280.206276 
L 27.378955 360.415425 
L 110.277 360.415425 
" style="fill:none;stroke:#333333;stroke-width:0.5;"/>
    <path clip-path="url(#p474ca3a43f)" d="M 110.277 199.997126 
L 21.119767 199.997126 
L 21.119767 320.310851 
L 27.378955 320.310851 
" style="fill:none;stroke:#333333;stroke-width:0.5;"/>
    <path clip-path="url(#p474ca3a43f)" d="M 110.277 119.787977 
L 12.108429 119.787977 
L 12.108429 260.153989 
L 21.119767 260.153989 
" style="fill:none;stroke:#333333;stroke-width:0.5;"/>
   </g>
  </g>
  <g id="axes_2">
   <g id="LineCollection_2">
    <path clip-path="url(#pdaf502258b)" d="M 145.449554 65.182518 
L 145.449554 48.181758 
L 215.394661 48.181758 
L 215.394661 65.182518 
" style="fill:none;stroke:#333333;stroke-width:0.5;"/>
    <path clip-path="url(#pdaf502258b)" d="M 285.339768 65.182518 
L 285.339768 55.720391 
L 355.284875 55.720391 
L 355.284875 65.182518 
" style="fill:none;stroke:#333333;stroke-width:0.5;"/>
    <path clip-path="url(#pdaf502258b)" d="M 425.229982 65.182518 
L 425.229982 58.054922 
L 495.175089 58.054922 
L 495.175089 65.182518 
" style="fill:none;stroke:#333333;stroke-width:0.5;"/>
    <path clip-path="url(#pdaf502258b)" d="M 565.120196 65.182518 
L 565.120196 56.415594 
L 635.065304 56.415594 
L 635.065304 65.182518 
" style="fill:none;stroke:#333333;stroke-width:0.5;"/>
    <path clip-path="url(#pdaf502258b)" d="M 460.202536 58.054922 
L 460.202536 51.781872 
L 600.09275 51.781872 
L 600.09275 56.415594 
" style="fill:none;stroke:#333333;stroke-width:0.5;"/>
    <path clip-path="url(#pdaf502258b)" d="M 320.312321 55.720391 
L 320.312321 43.839996 
L 530.147643 43.839996 
L 530.147643 51.781872 
" style="fill:none;stroke:#333333;stroke-width:0.5;"/>
    <path clip-path="url(#pdaf502258b)" d="M 774.955518 65.182518 
L 774.955518 55.845368 
L 844.900625 55.845368 
L 844.900625 65.182518 
" style="fill:none;stroke:#333333;stroke-width:0.5;"/>
    <path clip-path="url(#pdaf502258b)" d="M 705.010411 65.182518 
L 705.010411 44.050178 
L 809.928071 44.050178 
L 809.928071 55.845368 
" style="fill:none;stroke:#333333;stroke-width:0.5;"/>
    <path clip-path="url(#pdaf502258b)" d="M 1054.735946 65.182518 
L 1054.735946 56.495931 
L 1124.681054 56.495931 
L 1124.681054 65.182518 
" style="fill:none;stroke:#333333;stroke-width:0.5;"/>
    <path clip-path="url(#pdaf502258b)" d="M 984.790839 65.182518 
L 984.790839 53.387651 
L 1089.7085 53.387651 
L 1089.7085 56.495931 
" style="fill:none;stroke:#333333;stroke-width:0.5;"/>
    <path clip-path="url(#pdaf502258b)" d="M 914.845732 65.182518 
L 914.845732 42.580006 
L 1037.24967 42.580006 
L 1037.24967 53.387651 
" style="fill:none;stroke:#333333;stroke-width:0.5;"/>
    <path clip-path="url(#pdaf502258b)" d="M 757.469241 44.050178 
L 757.469241 36.772002 
L 976.047701 36.772002 
L 976.047701 42.580006 
" style="fill:none;stroke:#333333;stroke-width:0.5;"/>
    <path clip-path="url(#pdaf502258b)" d="M 425.229982 43.839996 
L 425.229982 31.817351 
L 866.758471 31.817351 
L 866.758471 36.772002 
" style="fill:none;stroke:#333333;stroke-width:0.5;"/>
    <path clip-path="url(#pdaf502258b)" d="M 180.422107 48.181758 
L 180.422107 25.245645 
L 645.994227 25.245645 
L 645.994227 31.817351 
" style="fill:none;stroke:#333333;stroke-width:0.5;"/>
    <path clip-path="url(#pdaf502258b)" d="M 1264.571268 65.182518 
L 1264.571268 53.548231 
L 1334.516375 53.548231 
L 1334.516375 65.182518 
" style="fill:none;stroke:#333333;stroke-width:0.5;"/>
    <path clip-path="url(#pdaf502258b)" d="M 1194.626161 65.182518 
L 1194.626161 47.9949 
L 1299.543821 47.9949 
L 1299.543821 53.548231 
" style="fill:none;stroke:#333333;stroke-width:0.5;"/>
    <path clip-path="url(#pdaf502258b)" d="M 1404.461482 65.182518 
L 1404.461482 56.433402 
L 1474.406589 56.433402 
L 1474.406589 65.182518 
" style="fill:none;stroke:#333333;stroke-width:0.5;"/>
    <path clip-path="url(#pdaf502258b)" d="M 1544.351696 65.182518 
L 1544.351696 54.167498 
L 1614.296804 54.167498 
L 1614.296804 65.182518 
" style="fill:none;stroke:#333333;stroke-width:0.5;"/>
    <path clip-path="url(#pdaf502258b)" d="M 1439.434036 56.433402 
L 1439.434036 45.461407 
L 1579.32425 45.461407 
L 1579.32425 54.167498 
" style="fill:none;stroke:#333333;stroke-width:0.5;"/>
    <path clip-path="url(#pdaf502258b)" d="M 1247.084991 47.9949 
L 1247.084991 39.368698 
L 1509.379143 39.368698 
L 1509.379143 45.461407 
" style="fill:none;stroke:#333333;stroke-width:0.5;"/>
    <path clip-path="url(#pdaf502258b)" d="M 1964.022339 65.182518 
L 1964.022339 56.386815 
L 2033.967446 56.386815 
L 2033.967446 65.182518 
" style="fill:none;stroke:#333333;stroke-width:0.5;"/>
    <path clip-path="url(#pdaf502258b)" d="M 1894.077232 65.182518 
L 1894.077232 52.213642 
L 1998.994893 52.213642 
L 1998.994893 56.386815 
" style="fill:none;stroke:#333333;stroke-width:0.5;"/>
    <path clip-path="url(#pdaf502258b)" d="M 1824.132125 65.182518 
L 1824.132125 48.033234 
L 1946.536063 48.033234 
L 1946.536063 52.213642 
" style="fill:none;stroke:#333333;stroke-width:0.5;"/>
    <path clip-path="url(#pdaf502258b)" d="M 1754.187018 65.182518 
L 1754.187018 41.937715 
L 1885.334094 41.937715 
L 1885.334094 48.033234 
" style="fill:none;stroke:#333333;stroke-width:0.5;"/>
    <path clip-path="url(#pdaf502258b)" d="M 1684.241911 65.182518 
L 1684.241911 34.661197 
L 1819.760556 34.661197 
L 1819.760556 41.937715 
" style="fill:none;stroke:#333333;stroke-width:0.5;"/>
    <path clip-path="url(#pdaf502258b)" d="M 1378.232067 39.368698 
L 1378.232067 21.331393 
L 1752.001233 21.331393 
L 1752.001233 34.661197 
" style="fill:none;stroke:#333333;stroke-width:0.5;"/>
    <path clip-path="url(#pdaf502258b)" d="M 413.208167 25.245645 
L 413.208167 9.961072 
L 1565.11665 9.961072 
L 1565.11665 21.331393 
" style="fill:none;stroke:#333333;stroke-width:0.5;"/>
   </g>
  </g>
  <g id="axes_3">
   <g id="patch_2">
    <path d="M 110.477 76.298461 
L 2068.94 76.298461 
L 2068.94 68.567459 
L 110.477 68.567459 
z
" style="fill:#ffffff;"/>
   </g>
   <g id="QuadMesh_1">
    <path clip-path="url(#pcb34e37699)" d="M 110.477 68.567459 
L 180.422107 68.567459 
L 180.422107 76.298461 
L 110.477 76.298461 
L 110.477 68.567459 
" style="fill:#3e4989;stroke:#ffffff;stroke-width:0.75;"/>
    <path clip-path="url(#pcb34e37699)" d="M 180.422107 68.567459 
L 250.367214 68.567459 
L 250.367214 76.298461 
L 180.422107 76.298461 
L 180.422107 68.567459 
" style="fill:#31688e;stroke:#ffffff;stroke-width:0.75;"/>
    <path clip-path="url(#pcb34e37699)" d="M 250.367214 68.567459 
L 320.312321 68.567459 
L 320.312321 76.298461 
L 250.367214 76.298461 
L 250.367214 68.567459 
" style="fill:#482878;stroke:#ffffff;stroke-width:0.75;"/>
    <path clip-path="url(#pcb34e37699)" d="M 320.312321 68.567459 
L 390.257429 68.567459 
L 390.257429 76.298461 
L 320.312321 76.298461 
L 320.312321 68.567459 
" style="fill:#b5de2b;stroke:#ffffff;stroke-width:0.75;"/>
    <path clip-path="url(#pcb34e37699)" d="M 390.257429 68.567459 
L 460.202536 68.567459 
L 460.202536 76.298461 
L 390.257429 76.298461 
L 390.257429 68.567459 
" style="fill:#26828e;stroke:#ffffff;stroke-width:0.75;"/>
    <path clip-path="url(#pcb34e37699)" d="M 460.202536 68.567459 
L 530.147643 68.567459 
L 530.147643 76.298461 
L 460.202536 76.298461 
L 460.202536 68.567459 
" style="fill:#31688e;stroke:#ffffff;stroke-width:0.75;"/>
    <path clip-path="url(#pcb34e37699)" d="M 530.147643 68.567459 
L 600.09275 68.567459 
L 600.09275 76.298461 
L 530.147643 76.298461 
L 530.147643 68.567459 
" style="fill:#26828e;stroke:#ffffff;stroke-width:0.75;"/>
    <path clip-path="url(#pcb34e37699)" d="M 600.09275 68.567459 
L 670.037857 68.567459 
L 670.037857 76.298461 
L 600.09275 76.298461 
L 600.09275 68.567459 
" style="fill:#6ece58;stroke:#ffffff;stroke-width:0.75;"/>
    <path clip-path="url(#pcb34e37699)" d="M 670.037857 68.567459 
L 739.982964 68.567459 
L 739.982964 76.298461 
L 670.037857 76.298461 
L 670.037857 68.567459 
" style="fill:#482878;stroke:#ffffff;stroke-width:0.75;"/>
    <path clip-path="url(#pcb34e37699)" d="M 739.982964 68.567459 
L 809.928071 68.567459 
L 809.928071 76.298461 
L 739.982964 76.298461 
L 739.982964 68.567459 
" style="fill:#3e4989;stroke:#ffffff;stroke-width:0.75;"/>
    <path clip-path="url(#pcb34e37699)" d="M 809.928071 68.567459 
L 879.873179 68.567459 
L 879.873179 76.298461 
L 809.928071 76.298461 
L 809.928071 68.567459 
" style="fill:#31688e;stroke:#ffffff;stroke-width:0.75;"/>
    <path clip-path="url(#pcb34e37699)" d="M 879.873179 68.567459 
L 949.818286 68.567459 
L 949.818286 76.298461 
L 879.873179 76.298461 
L 879.873179 68.567459 
" style="fill:#482878;stroke:#ffffff;stroke-width:0.75;"/>
    <path clip-path="url(#pcb34e37699)" d="M 949.818286 68.567459 
L 1019.763393 68.567459 
L 1019.763393 76.298461 
L 949.818286 76.298461 
L 949.818286 68.567459 
" style="fill:#31688e;stroke:#ffffff;stroke-width:0.75;"/>
    <path clip-path="url(#pcb34e37699)" d="M 1019.763393 68.567459 
L 1089.7085 68.567459 
L 1089.7085 76.298461 
L 1019.763393 76.298461 
L 1019.763393 68.567459 
" style="fill:#3e4989;stroke:#ffffff;stroke-width:0.75;"/>
    <path clip-path="url(#pcb34e37699)" d="M 1089.7085 68.567459 
L 1159.653607 68.567459 
L 1159.653607 76.298461 
L 1089.7085 76.298461 
L 1089.7085 68.567459 
" style="fill:#3e4989;stroke:#ffffff;stroke-width:0.75;"/>
    <path clip-path="url(#pcb34e37699)" d="M 1159.653607 68.567459 
L 1229.598714 68.567459 
L 1229.598714 76.298461 
L 1159.653607 76.298461 
L 1159.653607 68.567459 
" style="fill:#35b779;stroke:#ffffff;stroke-width:0.75;"/>
    <path clip-path="url(#pcb34e37699)" d="M 1229.598714 68.567459 
L 1299.543821 68.567459 
L 1299.543821 76.298461 
L 1229.598714 76.298461 
L 1229.598714 68.567459 
" style="fill:#482878;stroke:#ffffff;stroke-width:0.75;"/>
    <path clip-path="url(#pcb34e37699)" d="M 1299.543821 68.567459 
L 1369.488929 68.567459 
L 1369.488929 76.298461 
L 1299.543821 76.298461 
L 1299.543821 68.567459 
" style="fill:#6ece58;stroke:#ffffff;stroke-width:0.75;"/>
    <path clip-path="url(#pcb34e37699)" d="M 1369.488929 68.567459 
L 1439.434036 68.567459 
L 1439.434036 76.298461 
L 1369.488929 76.298461 
L 1369.488929 68.567459 
" style="fill:#26828e;stroke:#ffffff;stroke-width:0.75;"/>
    <path clip-path="url(#pcb34e37699)" d="M 1439.434036 68.567459 
L 1509.379143 68.567459 
L 1509.379143 76.298461 
L 1439.434036 76.298461 
L 1439.434036 68.567459 
" style="fill:#35b779;stroke:#ffffff;stroke-width:0.75;"/>
    <path clip-path="url(#pcb34e37699)" d="M 1509.379143 68.567459 
L 1579.32425 68.567459 
L 1579.32425 76.298461 
L 1509.379143 76.298461 
L 1509.379143 68.567459 
" style="fill:#35b779;stroke:#ffffff;stroke-width:0.75;"/>
    <path clip-path="url(#pcb34e37699)" d="M 1579.32425 68.567459 
L 1649.269357 68.567459 
L 1649.269357 76.298461 
L 1579.32425 76.298461 
L 1579.32425 68.567459 
" style="fill:#b5de2b;stroke:#ffffff;stroke-width:0.75;"/>
    <path clip-path="url(#pcb34e37699)" d="M 1649.269357 68.567459 
L 1719.214464 68.567459 
L 1719.214464 76.298461 
L 1649.269357 76.298461 
L 1649.269357 68.567459 
" style="fill:#6ece58;stroke:#ffffff;stroke-width:0.75;"/>
    <path clip-path="url(#pcb34e37699)" d="M 1719.214464 68.567459 
L 1789.159571 68.567459 
L 1789.159571 76.298461 
L 1719.214464 76.298461 
L 1719.214464 68.567459 
" style="fill:#b5de2b;stroke:#ffffff;stroke-width:0.75;"/>
    <path clip-path="url(#pcb34e37699)" d="M 1789.159571 68.567459 
L 1859.104679 68.567459 
L 1859.104679 76.298461 
L 1789.159571 76.298461 
L 1789.159571 68.567459 
" style="fill:#35b779;stroke:#ffffff;stroke-width:0.75;"/>
    <path clip-path="url(#pcb34e37699)" d="M 1859.104679 68.567459 
L 1929.049786 68.567459 
L 1929.049786 76.298461 
L 1859.104679 76.298461 
L 1859.104679 68.567459 
" style="fill:#26828e;stroke:#ffffff;stroke-width:0.75;"/>
    <path clip-path="url(#pcb34e37699)" d="M 1929.049786 68.567459 
L 1998.994893 68.567459 
L 1998.994893 76.298461 
L 1929.049786 76.298461 
L 1929.049786 68.567459 
" style="fill:#6ece58;stroke:#ffffff;stroke-width:0.75;"/>
    <path clip-path="url(#pcb34e37699)" d="M 1998.994893 68.567459 
L 2068.94 68.567459 
L 2068.94 76.298461 
L 1998.994893 76.298461 
L 1998.994893 68.567459 
" style="fill:#b5de2b;stroke:#ffffff;stroke-width:0.75;"/>
   </g>
   <g id="matplotlib.axis_1"/>
   <g id="matplotlib.axis_2">
    <g id="ytick_1">
     <g id="line2d_1">
      <defs>
       <path d="M 0 0 
L 3.5 0 
" id="m5a30868d58" style="stroke:#000000;stroke-width:0.8;"/>
      </defs>
      <g>
       <use style="stroke:#000000;stroke-width:0.8;" x="2068.94" xlink:href="#m5a30868d58" y="72.43296"/>
      </g>
     </g>
     <g id="text_1">
      <!-- Steps -->
      <g transform="translate(2075.94 76.232179)scale(0.1 -0.1)">
       <defs>
        <path d="M 53.515625 70.515625 
L 53.515625 60.890625 
Q 47.90625 63.578125 42.921875 64.890625 
Q 37.9375 66.21875 33.296875 66.21875 
Q 25.25 66.21875 20.875 63.09375 
Q 16.5 59.96875 16.5 54.203125 
Q 16.5 49.359375 19.40625 46.890625 
Q 22.3125 44.4375 30.421875 42.921875 
L 36.375 41.703125 
Q 47.40625 39.59375 52.65625 34.296875 
Q 57.90625 29 57.90625 20.125 
Q 57.90625 9.515625 50.796875 4.046875 
Q 43.703125 -1.421875 29.984375 -1.421875 
Q 24.8125 -1.421875 18.96875 -0.25 
Q 13.140625 0.921875 6.890625 3.21875 
L 6.890625 13.375 
Q 12.890625 10.015625 18.65625 8.296875 
Q 24.421875 6.59375 29.984375 6.59375 
Q 38.421875 6.59375 43.015625 9.90625 
Q 47.609375 13.234375 47.609375 19.390625 
Q 47.609375 24.75 44.3125 27.78125 
Q 41.015625 30.8125 33.5 32.328125 
L 27.484375 33.5 
Q 16.453125 35.6875 11.515625 40.375 
Q 6.59375 45.0625 6.59375 53.421875 
Q 6.59375 63.09375 13.40625 68.65625 
Q 20.21875 74.21875 32.171875 74.21875 
Q 37.3125 74.21875 42.625 73.28125 
Q 47.953125 72.359375 53.515625 70.515625 
z
" id="DejaVuSans-83"/>
        <path d="M 18.3125 70.21875 
L 18.3125 54.6875 
L 36.8125 54.6875 
L 36.8125 47.703125 
L 18.3125 47.703125 
L 18.3125 18.015625 
Q 18.3125 11.328125 20.140625 9.421875 
Q 21.96875 7.515625 27.59375 7.515625 
L 36.8125 7.515625 
L 36.8125 0 
L 27.59375 0 
Q 17.1875 0 13.234375 3.875 
Q 9.28125 7.765625 9.28125 18.015625 
L 9.28125 47.703125 
L 2.6875 47.703125 
L 2.6875 54.6875 
L 9.28125 54.6875 
L 9.28125 70.21875 
z
" id="DejaVuSans-116"/>
        <path d="M 56.203125 29.59375 
L 56.203125 25.203125 
L 14.890625 25.203125 
Q 15.484375 15.921875 20.484375 11.0625 
Q 25.484375 6.203125 34.421875 6.203125 
Q 39.59375 6.203125 44.453125 7.46875 
Q 49.3125 8.734375 54.109375 11.28125 
L 54.109375 2.78125 
Q 49.265625 0.734375 44.1875 -0.34375 
Q 39.109375 -1.421875 33.890625 -1.421875 
Q 20.796875 -1.421875 13.15625 6.1875 
Q 5.515625 13.8125 5.515625 26.8125 
Q 5.515625 40.234375 12.765625 48.109375 
Q 20.015625 56 32.328125 56 
Q 43.359375 56 49.78125 48.890625 
Q 56.203125 41.796875 56.203125 29.59375 
z
M 47.21875 32.234375 
Q 47.125 39.59375 43.09375 43.984375 
Q 39.0625 48.390625 32.421875 48.390625 
Q 24.90625 48.390625 20.390625 44.140625 
Q 15.875 39.890625 15.1875 32.171875 
z
" id="DejaVuSans-101"/>
        <path d="M 18.109375 8.203125 
L 18.109375 -20.796875 
L 9.078125 -20.796875 
L 9.078125 54.6875 
L 18.109375 54.6875 
L 18.109375 46.390625 
Q 20.953125 51.265625 25.265625 53.625 
Q 29.59375 56 35.59375 56 
Q 45.5625 56 51.78125 48.09375 
Q 58.015625 40.1875 58.015625 27.296875 
Q 58.015625 14.40625 51.78125 6.484375 
Q 45.5625 -1.421875 35.59375 -1.421875 
Q 29.59375 -1.421875 25.265625 0.953125 
Q 20.953125 3.328125 18.109375 8.203125 
z
M 48.6875 27.296875 
Q 48.6875 37.203125 44.609375 42.84375 
Q 40.53125 48.484375 33.40625 48.484375 
Q 26.265625 48.484375 22.1875 42.84375 
Q 18.109375 37.203125 18.109375 27.296875 
Q 18.109375 17.390625 22.1875 11.75 
Q 26.265625 6.109375 33.40625 6.109375 
Q 40.53125 6.109375 44.609375 11.75 
Q 48.6875 17.390625 48.6875 27.296875 
z
" id="DejaVuSans-112"/>
        <path d="M 44.28125 53.078125 
L 44.28125 44.578125 
Q 40.484375 46.53125 36.375 47.5 
Q 32.28125 48.484375 27.875 48.484375 
Q 21.1875 48.484375 17.84375 46.4375 
Q 14.5 44.390625 14.5 40.28125 
Q 14.5 37.15625 16.890625 35.375 
Q 19.28125 33.59375 26.515625 31.984375 
L 29.59375 31.296875 
Q 39.15625 29.25 43.1875 25.515625 
Q 47.21875 21.78125 47.21875 15.09375 
Q 47.21875 7.46875 41.1875 3.015625 
Q 35.15625 -1.421875 24.609375 -1.421875 
Q 20.21875 -1.421875 15.453125 -0.5625 
Q 10.6875 0.296875 5.421875 2 
L 5.421875 11.28125 
Q 10.40625 8.6875 15.234375 7.390625 
Q 20.0625 6.109375 24.8125 6.109375 
Q 31.15625 6.109375 34.5625 8.28125 
Q 37.984375 10.453125 37.984375 14.40625 
Q 37.984375 18.0625 35.515625 20.015625 
Q 33.0625 21.96875 24.703125 23.78125 
L 21.578125 24.515625 
Q 13.234375 26.265625 9.515625 29.90625 
Q 5.8125 33.546875 5.8125 39.890625 
Q 5.8125 47.609375 11.28125 51.796875 
Q 16.75 56 26.8125 56 
Q 31.78125 56 36.171875 55.265625 
Q 40.578125 54.546875 44.28125 53.078125 
z
" id="DejaVuSans-115"/>
       </defs>
       <use xlink:href="#DejaVuSans-83"/>
       <use x="63.476562" xlink:href="#DejaVuSans-116"/>
       <use x="102.685547" xlink:href="#DejaVuSans-101"/>
       <use x="164.208984" xlink:href="#DejaVuSans-112"/>
       <use x="227.685547" xlink:href="#DejaVuSans-115"/>
      </g>
     </g>
    </g>
   </g>
  </g>
  <g id="axes_4">
   <g id="patch_3">
    <path d="M 110.477 400.52 
L 2068.94 400.52 
L 2068.94 79.683402 
L 110.477 79.683402 
z
" style="fill:#ffffff;"/>
   </g>
   <g id="QuadMesh_2">
    <path clip-path="url(#pcdb4746bb6)" d="M 110.477 79.683402 
L 180.422107 79.683402 
L 180.422107 159.892552 
L 110.477 159.892552 
L 110.477 79.683402 
" style="fill:#d4dbe6;stroke:#ffffff;stroke-width:0.75;"/>
    <path clip-path="url(#pcdb4746bb6)" d="M 180.422107 79.683402 
L 250.367214 79.683402 
L 250.367214 159.892552 
L 180.422107 159.892552 
L 180.422107 79.683402 
" style="fill:#f5a081;stroke:#ffffff;stroke-width:0.75;"/>
    <path clip-path="url(#pcdb4746bb6)" d="M 250.367214 79.683402 
L 320.312321 79.683402 
L 320.312321 159.892552 
L 250.367214 159.892552 
L 250.367214 79.683402 
" style="fill:#f7ba9f;stroke:#ffffff;stroke-width:0.75;"/>
    <path clip-path="url(#pcdb4746bb6)" d="M 320.312321 79.683402 
L 390.257429 79.683402 
L 390.257429 159.892552 
L 320.312321 159.892552 
L 320.312321 79.683402 
" style="fill:#ecd3c5;stroke:#ffffff;stroke-width:0.75;"/>
    <path clip-path="url(#pcdb4746bb6)" d="M 390.257429 79.683402 
L 460.202536 79.683402 
L 460.202536 159.892552 
L 390.257429 159.892552 
L 390.257429 79.683402 
" style="fill:#f0cdbb;stroke:#ffffff;stroke-width:0.75;"/>
    <path clip-path="url(#pcdb4746bb6)" d="M 460.202536 79.683402 
L 530.147643 79.683402 
L 530.147643 159.892552 
L 460.202536 159.892552 
L 460.202536 79.683402 
" style="fill:#ead4c8;stroke:#ffffff;stroke-width:0.75;"/>
    <path clip-path="url(#pcdb4746bb6)" d="M 530.147643 79.683402 
L 600.09275 79.683402 
L 600.09275 159.892552 
L 530.147643 159.892552 
L 530.147643 79.683402 
" style="fill:#f7a98b;stroke:#ffffff;stroke-width:0.75;"/>
    <path clip-path="url(#pcdb4746bb6)" d="M 600.09275 79.683402 
L 670.037857 79.683402 
L 670.037857 159.892552 
L 600.09275 159.892552 
L 600.09275 79.683402 
" style="fill:#f4c5ad;stroke:#ffffff;stroke-width:0.75;"/>
    <path clip-path="url(#pcdb4746bb6)" d="M 670.037857 79.683402 
L 739.982964 79.683402 
L 739.982964 159.892552 
L 670.037857 159.892552 
L 670.037857 79.683402 
" style="fill:#d3dbe7;stroke:#ffffff;stroke-width:0.75;"/>
    <path clip-path="url(#pcdb4746bb6)" d="M 739.982964 79.683402 
L 809.928071 79.683402 
L 809.928071 159.892552 
L 739.982964 159.892552 
L 739.982964 79.683402 
" style="fill:#d7dce3;stroke:#ffffff;stroke-width:0.75;"/>
    <path clip-path="url(#pcdb4746bb6)" d="M 809.928071 79.683402 
L 879.873179 79.683402 
L 879.873179 159.892552 
L 809.928071 159.892552 
L 809.928071 79.683402 
" style="fill:#e1dad6;stroke:#ffffff;stroke-width:0.75;"/>
    <path clip-path="url(#pcdb4746bb6)" d="M 879.873179 79.683402 
L 949.818286 79.683402 
L 949.818286 159.892552 
L 879.873179 159.892552 
L 879.873179 79.683402 
" style="fill:#d8dce2;stroke:#ffffff;stroke-width:0.75;"/>
    <path clip-path="url(#pcdb4746bb6)" d="M 949.818286 79.683402 
L 1019.763393 79.683402 
L 1019.763393 159.892552 
L 949.818286 159.892552 
L 949.818286 79.683402 
" style="fill:#b6cefa;stroke:#ffffff;stroke-width:0.75;"/>
    <path clip-path="url(#pcdb4746bb6)" d="M 1019.763393 79.683402 
L 1089.7085 79.683402 
L 1089.7085 159.892552 
L 1019.763393 159.892552 
L 1019.763393 79.683402 
" style="fill:#b1cbfc;stroke:#ffffff;stroke-width:0.75;"/>
    <path clip-path="url(#pcdb4746bb6)" d="M 1089.7085 79.683402 
L 1159.653607 79.683402 
L 1159.653607 159.892552 
L 1089.7085 159.892552 
L 1089.7085 79.683402 
" style="fill:#b5cdfa;stroke:#ffffff;stroke-width:0.75;"/>
    <path clip-path="url(#pcdb4746bb6)" d="M 1159.653607 79.683402 
L 1229.598714 79.683402 
L 1229.598714 159.892552 
L 1159.653607 159.892552 
L 1159.653607 79.683402 
" style="fill:#e57058;stroke:#ffffff;stroke-width:0.75;"/>
    <path clip-path="url(#pcdb4746bb6)" d="M 1229.598714 79.683402 
L 1299.543821 79.683402 
L 1299.543821 159.892552 
L 1229.598714 159.892552 
L 1229.598714 79.683402 
" style="fill:#f18f71;stroke:#ffffff;stroke-width:0.75;"/>
    <path clip-path="url(#pcdb4746bb6)" d="M 1299.543821 79.683402 
L 1369.488929 79.683402 
L 1369.488929 159.892552 
L 1299.543821 159.892552 
L 1299.543821 79.683402 
" style="fill:#f49a7b;stroke:#ffffff;stroke-width:0.75;"/>
    <path clip-path="url(#pcdb4746bb6)" d="M 1369.488929 79.683402 
L 1439.434036 79.683402 
L 1439.434036 159.892552 
L 1369.488929 159.892552 
L 1369.488929 79.683402 
" style="fill:#f0cdbb;stroke:#ffffff;stroke-width:0.75;"/>
    <path clip-path="url(#pcdb4746bb6)" d="M 1439.434036 79.683402 
L 1509.379143 79.683402 
L 1509.379143 159.892552 
L 1439.434036 159.892552 
L 1439.434036 79.683402 
" style="fill:#f6a385;stroke:#ffffff;stroke-width:0.75;"/>
    <path clip-path="url(#pcdb4746bb6)" d="M 1509.379143 79.683402 
L 1579.32425 79.683402 
L 1579.32425 159.892552 
L 1509.379143 159.892552 
L 1509.379143 79.683402 
" style="fill:#e5d8d1;stroke:#ffffff;stroke-width:0.75;"/>
    <path clip-path="url(#pcdb4746bb6)" d="M 1579.32425 79.683402 
L 1649.269357 79.683402 
L 1649.269357 159.892552 
L 1579.32425 159.892552 
L 1579.32425 79.683402 
" style="fill:#d3dbe7;stroke:#ffffff;stroke-width:0.75;"/>
    <path clip-path="url(#pcdb4746bb6)" d="M 1649.269357 79.683402 
L 1719.214464 79.683402 
L 1719.214464 159.892552 
L 1649.269357 159.892552 
L 1649.269357 79.683402 
" style="fill:#d9dce1;stroke:#ffffff;stroke-width:0.75;"/>
    <path clip-path="url(#pcdb4746bb6)" d="M 1719.214464 79.683402 
L 1789.159571 79.683402 
L 1789.159571 159.892552 
L 1719.214464 159.892552 
L 1719.214464 79.683402 
" style="fill:#a9c6fd;stroke:#ffffff;stroke-width:0.75;"/>
    <path clip-path="url(#pcdb4746bb6)" d="M 1789.159571 79.683402 
L 1859.104679 79.683402 
L 1859.104679 159.892552 
L 1789.159571 159.892552 
L 1789.159571 79.683402 
" style="fill:#ecd3c5;stroke:#ffffff;stroke-width:0.75;"/>
    <path clip-path="url(#pcdb4746bb6)" d="M 1859.104679 79.683402 
L 1929.049786 79.683402 
L 1929.049786 159.892552 
L 1859.104679 159.892552 
L 1859.104679 79.683402 
" style="fill:#ead5c9;stroke:#ffffff;stroke-width:0.75;"/>
    <path clip-path="url(#pcdb4746bb6)" d="M 1929.049786 79.683402 
L 1998.994893 79.683402 
L 1998.994893 159.892552 
L 1929.049786 159.892552 
L 1929.049786 79.683402 
" style="fill:#f5c2aa;stroke:#ffffff;stroke-width:0.75;"/>
    <path clip-path="url(#pcdb4746bb6)" d="M 1998.994893 79.683402 
L 2068.94 79.683402 
L 2068.94 159.892552 
L 1998.994893 159.892552 
L 1998.994893 79.683402 
" style="fill:#f7a98b;stroke:#ffffff;stroke-width:0.75;"/>
    <path clip-path="url(#pcdb4746bb6)" d="M 110.477 159.892552 
L 180.422107 159.892552 
L 180.422107 240.101701 
L 110.477 240.101701 
L 110.477 159.892552 
" style="fill:#85a8fc;stroke:#ffffff;stroke-width:0.75;"/>
    <path clip-path="url(#pcdb4746bb6)" d="M 180.422107 159.892552 
L 250.367214 159.892552 
L 250.367214 240.101701 
L 180.422107 240.101701 
L 180.422107 159.892552 
" style="fill:#8db0fe;stroke:#ffffff;stroke-width:0.75;"/>
    <path clip-path="url(#pcdb4746bb6)" d="M 250.367214 159.892552 
L 320.312321 159.892552 
L 320.312321 240.101701 
L 250.367214 240.101701 
L 250.367214 159.892552 
" style="fill:#e9d5cb;stroke:#ffffff;stroke-width:0.75;"/>
    <path clip-path="url(#pcdb4746bb6)" d="M 320.312321 159.892552 
L 390.257429 159.892552 
L 390.257429 240.101701 
L 320.312321 240.101701 
L 320.312321 159.892552 
" style="fill:#efcfbf;stroke:#ffffff;stroke-width:0.75;"/>
    <path clip-path="url(#pcdb4746bb6)" d="M 390.257429 159.892552 
L 460.202536 159.892552 
L 460.202536 240.101701 
L 390.257429 240.101701 
L 390.257429 159.892552 
" style="fill:#f7a889;stroke:#ffffff;stroke-width:0.75;"/>
    <path clip-path="url(#pcdb4746bb6)" d="M 460.202536 159.892552 
L 530.147643 159.892552 
L 530.147643 240.101701 
L 460.202536 240.101701 
L 460.202536 159.892552 
" style="fill:#f7b99e;stroke:#ffffff;stroke-width:0.75;"/>
    <path clip-path="url(#pcdb4746bb6)" d="M 530.147643 159.892552 
L 600.09275 159.892552 
L 600.09275 240.101701 
L 530.147643 240.101701 
L 530.147643 159.892552 
" style="fill:#f1cdba;stroke:#ffffff;stroke-width:0.75;"/>
    <path clip-path="url(#pcdb4746bb6)" d="M 600.09275 159.892552 
L 670.037857 159.892552 
L 670.037857 240.101701 
L 600.09275 240.101701 
L 600.09275 159.892552 
" style="fill:#f7b194;stroke:#ffffff;stroke-width:0.75;"/>
    <path clip-path="url(#pcdb4746bb6)" d="M 670.037857 159.892552 
L 739.982964 159.892552 
L 739.982964 240.101701 
L 670.037857 240.101701 
L 670.037857 159.892552 
" style="fill:#d65244;stroke:#ffffff;stroke-width:0.75;"/>
    <path clip-path="url(#pcdb4746bb6)" d="M 739.982964 159.892552 
L 809.928071 159.892552 
L 809.928071 240.101701 
L 739.982964 240.101701 
L 739.982964 159.892552 
" style="fill:#f5c1a9;stroke:#ffffff;stroke-width:0.75;"/>
    <path clip-path="url(#pcdb4746bb6)" d="M 809.928071 159.892552 
L 879.873179 159.892552 
L 879.873179 240.101701 
L 809.928071 240.101701 
L 809.928071 159.892552 
" style="fill:#f6a283;stroke:#ffffff;stroke-width:0.75;"/>
    <path clip-path="url(#pcdb4746bb6)" d="M 879.873179 159.892552 
L 949.818286 159.892552 
L 949.818286 240.101701 
L 879.873179 240.101701 
L 879.873179 159.892552 
" style="fill:#e8d6cc;stroke:#ffffff;stroke-width:0.75;"/>
    <path clip-path="url(#pcdb4746bb6)" d="M 949.818286 159.892552 
L 1019.763393 159.892552 
L 1019.763393 240.101701 
L 949.818286 240.101701 
L 949.818286 159.892552 
" style="fill:#f6bda2;stroke:#ffffff;stroke-width:0.75;"/>
    <path clip-path="url(#pcdb4746bb6)" d="M 1019.763393 159.892552 
L 1089.7085 159.892552 
L 1089.7085 240.101701 
L 1019.763393 240.101701 
L 1019.763393 159.892552 
" style="fill:#ead5c9;stroke:#ffffff;stroke-width:0.75;"/>
    <path clip-path="url(#pcdb4746bb6)" d="M 1089.7085 159.892552 
L 1159.653607 159.892552 
L 1159.653607 240.101701 
L 1089.7085 240.101701 
L 1089.7085 159.892552 
" style="fill:#efcebd;stroke:#ffffff;stroke-width:0.75;"/>
    <path clip-path="url(#pcdb4746bb6)" d="M 1159.653607 159.892552 
L 1229.598714 159.892552 
L 1229.598714 240.101701 
L 1159.653607 240.101701 
L 1159.653607 159.892552 
" style="fill:#ee8468;stroke:#ffffff;stroke-width:0.75;"/>
    <path clip-path="url(#pcdb4746bb6)" d="M 1229.598714 159.892552 
L 1299.543821 159.892552 
L 1299.543821 240.101701 
L 1229.598714 240.101701 
L 1229.598714 159.892552 
" style="fill:#e0654f;stroke:#ffffff;stroke-width:0.75;"/>
    <path clip-path="url(#pcdb4746bb6)" d="M 1299.543821 159.892552 
L 1369.488929 159.892552 
L 1369.488929 240.101701 
L 1299.543821 240.101701 
L 1299.543821 159.892552 
" style="fill:#be242e;stroke:#ffffff;stroke-width:0.75;"/>
    <path clip-path="url(#pcdb4746bb6)" d="M 1369.488929 159.892552 
L 1439.434036 159.892552 
L 1439.434036 240.101701 
L 1369.488929 240.101701 
L 1369.488929 159.892552 
" style="fill:#b40426;stroke:#ffffff;stroke-width:0.75;"/>
    <path clip-path="url(#pcdb4746bb6)" d="M 1439.434036 159.892552 
L 1509.379143 159.892552 
L 1509.379143 240.101701 
L 1439.434036 240.101701 
L 1439.434036 159.892552 
" style="fill:#b50927;stroke:#ffffff;stroke-width:0.75;"/>
    <path clip-path="url(#pcdb4746bb6)" d="M 1509.379143 159.892552 
L 1579.32425 159.892552 
L 1579.32425 240.101701 
L 1509.379143 240.101701 
L 1509.379143 159.892552 
" style="fill:#d65244;stroke:#ffffff;stroke-width:0.75;"/>
    <path clip-path="url(#pcdb4746bb6)" d="M 1579.32425 159.892552 
L 1649.269357 159.892552 
L 1649.269357 240.101701 
L 1579.32425 240.101701 
L 1579.32425 159.892552 
" style="fill:#e8765c;stroke:#ffffff;stroke-width:0.75;"/>
    <path clip-path="url(#pcdb4746bb6)" d="M 1649.269357 159.892552 
L 1719.214464 159.892552 
L 1719.214464 240.101701 
L 1649.269357 240.101701 
L 1649.269357 159.892552 
" style="fill:#e97a5f;stroke:#ffffff;stroke-width:0.75;"/>
    <path clip-path="url(#pcdb4746bb6)" d="M 1719.214464 159.892552 
L 1789.159571 159.892552 
L 1789.159571 240.101701 
L 1719.214464 240.101701 
L 1719.214464 159.892552 
" style="fill:#f7af91;stroke:#ffffff;stroke-width:0.75;"/>
    <path clip-path="url(#pcdb4746bb6)" d="M 1789.159571 159.892552 
L 1859.104679 159.892552 
L 1859.104679 240.101701 
L 1789.159571 240.101701 
L 1789.159571 159.892552 
" style="fill:#f39475;stroke:#ffffff;stroke-width:0.75;"/>
    <path clip-path="url(#pcdb4746bb6)" d="M 1859.104679 159.892552 
L 1929.049786 159.892552 
L 1929.049786 240.101701 
L 1859.104679 240.101701 
L 1859.104679 159.892552 
" style="fill:#f3c8b2;stroke:#ffffff;stroke-width:0.75;"/>
    <path clip-path="url(#pcdb4746bb6)" d="M 1929.049786 159.892552 
L 1998.994893 159.892552 
L 1998.994893 240.101701 
L 1929.049786 240.101701 
L 1929.049786 159.892552 
" style="fill:#f0cdbb;stroke:#ffffff;stroke-width:0.75;"/>
    <path clip-path="url(#pcdb4746bb6)" d="M 1998.994893 159.892552 
L 2068.94 159.892552 
L 2068.94 240.101701 
L 1998.994893 240.101701 
L 1998.994893 159.892552 
" style="fill:#f7af91;stroke:#ffffff;stroke-width:0.75;"/>
    <path clip-path="url(#pcdb4746bb6)" d="M 110.477 240.101701 
L 180.422107 240.101701 
L 180.422107 320.310851 
L 110.477 320.310851 
L 110.477 240.101701 
" style="fill:#e9d5cb;stroke:#ffffff;stroke-width:0.75;"/>
    <path clip-path="url(#pcdb4746bb6)" d="M 180.422107 240.101701 
L 250.367214 240.101701 
L 250.367214 320.310851 
L 180.422107 320.310851 
L 180.422107 240.101701 
" style="fill:#f7b89c;stroke:#ffffff;stroke-width:0.75;"/>
    <path clip-path="url(#pcdb4746bb6)" d="M 250.367214 240.101701 
L 320.312321 240.101701 
L 320.312321 320.310851 
L 250.367214 320.310851 
L 250.367214 240.101701 
" style="fill:#f49a7b;stroke:#ffffff;stroke-width:0.75;"/>
    <path clip-path="url(#pcdb4746bb6)" d="M 320.312321 240.101701 
L 390.257429 240.101701 
L 390.257429 320.310851 
L 320.312321 320.310851 
L 320.312321 240.101701 
" style="fill:#f7ac8e;stroke:#ffffff;stroke-width:0.75;"/>
    <path clip-path="url(#pcdb4746bb6)" d="M 390.257429 240.101701 
L 460.202536 240.101701 
L 460.202536 320.310851 
L 390.257429 320.310851 
L 390.257429 240.101701 
" style="fill:#f18f71;stroke:#ffffff;stroke-width:0.75;"/>
    <path clip-path="url(#pcdb4746bb6)" d="M 460.202536 240.101701 
L 530.147643 240.101701 
L 530.147643 320.310851 
L 460.202536 320.310851 
L 460.202536 240.101701 
" style="fill:#f39475;stroke:#ffffff;stroke-width:0.75;"/>
    <path clip-path="url(#pcdb4746bb6)" d="M 530.147643 240.101701 
L 600.09275 240.101701 
L 600.09275 320.310851 
L 530.147643 320.310851 
L 530.147643 240.101701 
" style="fill:#f4c5ad;stroke:#ffffff;stroke-width:0.75;"/>
    <path clip-path="url(#pcdb4746bb6)" d="M 600.09275 240.101701 
L 670.037857 240.101701 
L 670.037857 320.310851 
L 600.09275 320.310851 
L 600.09275 240.101701 
" style="fill:#f6bda2;stroke:#ffffff;stroke-width:0.75;"/>
    <path clip-path="url(#pcdb4746bb6)" d="M 670.037857 240.101701 
L 739.982964 240.101701 
L 739.982964 320.310851 
L 670.037857 320.310851 
L 670.037857 240.101701 
" style="fill:#edd1c2;stroke:#ffffff;stroke-width:0.75;"/>
    <path clip-path="url(#pcdb4746bb6)" d="M 739.982964 240.101701 
L 809.928071 240.101701 
L 809.928071 320.310851 
L 739.982964 320.310851 
L 739.982964 240.101701 
" style="fill:#d5dbe5;stroke:#ffffff;stroke-width:0.75;"/>
    <path clip-path="url(#pcdb4746bb6)" d="M 809.928071 240.101701 
L 879.873179 240.101701 
L 879.873179 320.310851 
L 809.928071 320.310851 
L 809.928071 240.101701 
" style="fill:#bfd3f6;stroke:#ffffff;stroke-width:0.75;"/>
    <path clip-path="url(#pcdb4746bb6)" d="M 879.873179 240.101701 
L 949.818286 240.101701 
L 949.818286 320.310851 
L 879.873179 320.310851 
L 879.873179 240.101701 
" style="fill:#b1cbfc;stroke:#ffffff;stroke-width:0.75;"/>
    <path clip-path="url(#pcdb4746bb6)" d="M 949.818286 240.101701 
L 1019.763393 240.101701 
L 1019.763393 320.310851 
L 949.818286 320.310851 
L 949.818286 240.101701 
" style="fill:#e2dad5;stroke:#ffffff;stroke-width:0.75;"/>
    <path clip-path="url(#pcdb4746bb6)" d="M 1019.763393 240.101701 
L 1089.7085 240.101701 
L 1089.7085 320.310851 
L 1019.763393 320.310851 
L 1019.763393 240.101701 
" style="fill:#f7b79b;stroke:#ffffff;stroke-width:0.75;"/>
    <path clip-path="url(#pcdb4746bb6)" d="M 1089.7085 240.101701 
L 1159.653607 240.101701 
L 1159.653607 320.310851 
L 1089.7085 320.310851 
L 1089.7085 240.101701 
" style="fill:#f7b497;stroke:#ffffff;stroke-width:0.75;"/>
    <path clip-path="url(#pcdb4746bb6)" d="M 1159.653607 240.101701 
L 1229.598714 240.101701 
L 1229.598714 320.310851 
L 1159.653607 320.310851 
L 1159.653607 240.101701 
" style="fill:#f2cab5;stroke:#ffffff;stroke-width:0.75;"/>
    <path clip-path="url(#pcdb4746bb6)" d="M 1229.598714 240.101701 
L 1299.543821 240.101701 
L 1299.543821 320.310851 
L 1229.598714 320.310851 
L 1229.598714 240.101701 
" style="fill:#f59d7e;stroke:#ffffff;stroke-width:0.75;"/>
    <path clip-path="url(#pcdb4746bb6)" d="M 1299.543821 240.101701 
L 1369.488929 240.101701 
L 1369.488929 320.310851 
L 1299.543821 320.310851 
L 1299.543821 240.101701 
" style="fill:#f39778;stroke:#ffffff;stroke-width:0.75;"/>
    <path clip-path="url(#pcdb4746bb6)" d="M 1369.488929 240.101701 
L 1439.434036 240.101701 
L 1439.434036 320.310851 
L 1369.488929 320.310851 
L 1369.488929 240.101701 
" style="fill:#e36b54;stroke:#ffffff;stroke-width:0.75;"/>
    <path clip-path="url(#pcdb4746bb6)" d="M 1439.434036 240.101701 
L 1509.379143 240.101701 
L 1509.379143 320.310851 
L 1439.434036 320.310851 
L 1439.434036 240.101701 
" style="fill:#df634e;stroke:#ffffff;stroke-width:0.75;"/>
    <path clip-path="url(#pcdb4746bb6)" d="M 1509.379143 240.101701 
L 1579.32425 240.101701 
L 1579.32425 320.310851 
L 1509.379143 320.310851 
L 1509.379143 240.101701 
" style="fill:#f7aa8c;stroke:#ffffff;stroke-width:0.75;"/>
    <path clip-path="url(#pcdb4746bb6)" d="M 1579.32425 240.101701 
L 1649.269357 240.101701 
L 1649.269357 320.310851 
L 1579.32425 320.310851 
L 1579.32425 240.101701 
" style="fill:#f59c7d;stroke:#ffffff;stroke-width:0.75;"/>
    <path clip-path="url(#pcdb4746bb6)" d="M 1649.269357 240.101701 
L 1719.214464 240.101701 
L 1719.214464 320.310851 
L 1649.269357 320.310851 
L 1649.269357 240.101701 
" style="fill:#e9785d;stroke:#ffffff;stroke-width:0.75;"/>
    <path clip-path="url(#pcdb4746bb6)" d="M 1719.214464 240.101701 
L 1789.159571 240.101701 
L 1789.159571 320.310851 
L 1719.214464 320.310851 
L 1719.214464 240.101701 
" style="fill:#c32e31;stroke:#ffffff;stroke-width:0.75;"/>
    <path clip-path="url(#pcdb4746bb6)" d="M 1789.159571 240.101701 
L 1859.104679 240.101701 
L 1859.104679 320.310851 
L 1789.159571 320.310851 
L 1789.159571 240.101701 
" style="fill:#b40426;stroke:#ffffff;stroke-width:0.75;"/>
    <path clip-path="url(#pcdb4746bb6)" d="M 1859.104679 240.101701 
L 1929.049786 240.101701 
L 1929.049786 320.310851 
L 1859.104679 320.310851 
L 1859.104679 240.101701 
" style="fill:#bb1b2c;stroke:#ffffff;stroke-width:0.75;"/>
    <path clip-path="url(#pcdb4746bb6)" d="M 1929.049786 240.101701 
L 1998.994893 240.101701 
L 1998.994893 320.310851 
L 1929.049786 320.310851 
L 1929.049786 240.101701 
" style="fill:#ec8165;stroke:#ffffff;stroke-width:0.75;"/>
    <path clip-path="url(#pcdb4746bb6)" d="M 1998.994893 240.101701 
L 2068.94 240.101701 
L 2068.94 320.310851 
L 1998.994893 320.310851 
L 1998.994893 240.101701 
" style="fill:#dc5d4a;stroke:#ffffff;stroke-width:0.75;"/>
    <path clip-path="url(#pcdb4746bb6)" d="M 110.477 320.310851 
L 180.422107 320.310851 
L 180.422107 400.52 
L 110.477 400.52 
L 110.477 320.310851 
" style="fill:#c5d6f2;stroke:#ffffff;stroke-width:0.75;"/>
    <path clip-path="url(#pcdb4746bb6)" d="M 180.422107 320.310851 
L 250.367214 320.310851 
L 250.367214 400.52 
L 180.422107 400.52 
L 180.422107 320.310851 
" style="fill:#dadce0;stroke:#ffffff;stroke-width:0.75;"/>
    <path clip-path="url(#pcdb4746bb6)" d="M 250.367214 320.310851 
L 320.312321 320.310851 
L 320.312321 400.52 
L 250.367214 400.52 
L 250.367214 320.310851 
" style="fill:#cdd9ec;stroke:#ffffff;stroke-width:0.75;"/>
    <path clip-path="url(#pcdb4746bb6)" d="M 320.312321 320.310851 
L 390.257429 320.310851 
L 390.257429 400.52 
L 320.312321 400.52 
L 320.312321 320.310851 
" style="fill:#a5c3fe;stroke:#ffffff;stroke-width:0.75;"/>
    <path clip-path="url(#pcdb4746bb6)" d="M 390.257429 320.310851 
L 460.202536 320.310851 
L 460.202536 400.52 
L 390.257429 400.52 
L 390.257429 320.310851 
" style="fill:#f7b89c;stroke:#ffffff;stroke-width:0.75;"/>
    <path clip-path="url(#pcdb4746bb6)" d="M 460.202536 320.310851 
L 530.147643 320.310851 
L 530.147643 400.52 
L 460.202536 400.52 
L 460.202536 320.310851 
" style="fill:#ead5c9;stroke:#ffffff;stroke-width:0.75;"/>
    <path clip-path="url(#pcdb4746bb6)" d="M 530.147643 320.310851 
L 600.09275 320.310851 
L 600.09275 400.52 
L 530.147643 400.52 
L 530.147643 320.310851 
" style="fill:#f1ccb8;stroke:#ffffff;stroke-width:0.75;"/>
    <path clip-path="url(#pcdb4746bb6)" d="M 600.09275 320.310851 
L 670.037857 320.310851 
L 670.037857 400.52 
L 600.09275 400.52 
L 600.09275 320.310851 
" style="fill:#dfdbd9;stroke:#ffffff;stroke-width:0.75;"/>
    <path clip-path="url(#pcdb4746bb6)" d="M 670.037857 320.310851 
L 739.982964 320.310851 
L 739.982964 400.52 
L 670.037857 400.52 
L 670.037857 320.310851 
" style="fill:#cdd9ec;stroke:#ffffff;stroke-width:0.75;"/>
    <path clip-path="url(#pcdb4746bb6)" d="M 739.982964 320.310851 
L 809.928071 320.310851 
L 809.928071 400.52 
L 739.982964 400.52 
L 739.982964 320.310851 
" style="fill:#f3c8b2;stroke:#ffffff;stroke-width:0.75;"/>
    <path clip-path="url(#pcdb4746bb6)" d="M 809.928071 320.310851 
L 879.873179 320.310851 
L 879.873179 400.52 
L 809.928071 400.52 
L 809.928071 320.310851 
" style="fill:#f6a586;stroke:#ffffff;stroke-width:0.75;"/>
    <path clip-path="url(#pcdb4746bb6)" d="M 879.873179 320.310851 
L 949.818286 320.310851 
L 949.818286 400.52 
L 879.873179 400.52 
L 879.873179 320.310851 
" style="fill:#9ebeff;stroke:#ffffff;stroke-width:0.75;"/>
    <path clip-path="url(#pcdb4746bb6)" d="M 949.818286 320.310851 
L 1019.763393 320.310851 
L 1019.763393 400.52 
L 949.818286 400.52 
L 949.818286 320.310851 
" style="fill:#bfd3f6;stroke:#ffffff;stroke-width:0.75;"/>
    <path clip-path="url(#pcdb4746bb6)" d="M 1019.763393 320.310851 
L 1089.7085 320.310851 
L 1089.7085 400.52 
L 1019.763393 400.52 
L 1019.763393 320.310851 
" style="fill:#dfdbd9;stroke:#ffffff;stroke-width:0.75;"/>
    <path clip-path="url(#pcdb4746bb6)" d="M 1089.7085 320.310851 
L 1159.653607 320.310851 
L 1159.653607 400.52 
L 1089.7085 400.52 
L 1089.7085 320.310851 
" style="fill:#b2ccfb;stroke:#ffffff;stroke-width:0.75;"/>
    <path clip-path="url(#pcdb4746bb6)" d="M 1159.653607 320.310851 
L 1229.598714 320.310851 
L 1229.598714 400.52 
L 1159.653607 400.52 
L 1159.653607 320.310851 
" style="fill:#f6bda2;stroke:#ffffff;stroke-width:0.75;"/>
    <path clip-path="url(#pcdb4746bb6)" d="M 1229.598714 320.310851 
L 1299.543821 320.310851 
L 1299.543821 400.52 
L 1229.598714 400.52 
L 1229.598714 320.310851 
" style="fill:#bed2f6;stroke:#ffffff;stroke-width:0.75;"/>
    <path clip-path="url(#pcdb4746bb6)" d="M 1299.543821 320.310851 
L 1369.488929 320.310851 
L 1369.488929 400.52 
L 1299.543821 400.52 
L 1299.543821 320.310851 
" style="fill:#edd2c3;stroke:#ffffff;stroke-width:0.75;"/>
    <path clip-path="url(#pcdb4746bb6)" d="M 1369.488929 320.310851 
L 1439.434036 320.310851 
L 1439.434036 400.52 
L 1369.488929 400.52 
L 1369.488929 320.310851 
" style="fill:#f7a889;stroke:#ffffff;stroke-width:0.75;"/>
    <path clip-path="url(#pcdb4746bb6)" d="M 1439.434036 320.310851 
L 1509.379143 320.310851 
L 1509.379143 400.52 
L 1439.434036 400.52 
L 1439.434036 320.310851 
" style="fill:#f6a586;stroke:#ffffff;stroke-width:0.75;"/>
    <path clip-path="url(#pcdb4746bb6)" d="M 1509.379143 320.310851 
L 1579.32425 320.310851 
L 1579.32425 400.52 
L 1509.379143 400.52 
L 1509.379143 320.310851 
" style="fill:#f08b6e;stroke:#ffffff;stroke-width:0.75;"/>
    <path clip-path="url(#pcdb4746bb6)" d="M 1579.32425 320.310851 
L 1649.269357 320.310851 
L 1649.269357 400.52 
L 1579.32425 400.52 
L 1579.32425 320.310851 
" style="fill:#f4c6af;stroke:#ffffff;stroke-width:0.75;"/>
    <path clip-path="url(#pcdb4746bb6)" d="M 1649.269357 320.310851 
L 1719.214464 320.310851 
L 1719.214464 400.52 
L 1649.269357 400.52 
L 1649.269357 320.310851 
" style="fill:#b40426;stroke:#ffffff;stroke-width:0.75;"/>
    <path clip-path="url(#pcdb4746bb6)" d="M 1719.214464 320.310851 
L 1789.159571 320.310851 
L 1789.159571 400.52 
L 1719.214464 400.52 
L 1719.214464 320.310851 
" style="fill:#f5c4ac;stroke:#ffffff;stroke-width:0.75;"/>
    <path clip-path="url(#pcdb4746bb6)" d="M 1789.159571 320.310851 
L 1859.104679 320.310851 
L 1859.104679 400.52 
L 1789.159571 400.52 
L 1789.159571 320.310851 
" style="fill:#e26952;stroke:#ffffff;stroke-width:0.75;"/>
    <path clip-path="url(#pcdb4746bb6)" d="M 1859.104679 320.310851 
L 1929.049786 320.310851 
L 1929.049786 400.52 
L 1859.104679 400.52 
L 1859.104679 320.310851 
" style="fill:#f7b99e;stroke:#ffffff;stroke-width:0.75;"/>
    <path clip-path="url(#pcdb4746bb6)" d="M 1929.049786 320.310851 
L 1998.994893 320.310851 
L 1998.994893 400.52 
L 1929.049786 400.52 
L 1929.049786 320.310851 
" style="fill:#f59d7e;stroke:#ffffff;stroke-width:0.75;"/>
    <path clip-path="url(#pcdb4746bb6)" d="M 1998.994893 320.310851 
L 2068.94 320.310851 
L 2068.94 400.52 
L 1998.994893 400.52 
L 1998.994893 320.310851 
" style="fill:#f29072;stroke:#ffffff;stroke-width:0.75;"/>
   </g>
   <g id="matplotlib.axis_3">
    <g id="xtick_1">
     <g id="line2d_2">
      <defs>
       <path d="M 0 0 
L 0 3.5 
" id="m3b1db2cd2e" style="stroke:#000000;stroke-width:0.8;"/>
      </defs>
      <g>
       <use style="stroke:#000000;stroke-width:0.8;" x="145.449554" xlink:href="#m3b1db2cd2e" y="400.52"/>
      </g>
     </g>
     <g id="text_2">
      <!-- Step 5-R -->
      <g transform="translate(113.667313 443.204586)rotate(-45)scale(0.1 -0.1)">
       <defs>
        <path id="DejaVuSans-32"/>
        <path d="M 10.796875 72.90625 
L 49.515625 72.90625 
L 49.515625 64.59375 
L 19.828125 64.59375 
L 19.828125 46.734375 
Q 21.96875 47.46875 24.109375 47.828125 
Q 26.265625 48.1875 28.421875 48.1875 
Q 40.625 48.1875 47.75 41.5 
Q 54.890625 34.8125 54.890625 23.390625 
Q 54.890625 11.625 47.5625 5.09375 
Q 40.234375 -1.421875 26.90625 -1.421875 
Q 22.3125 -1.421875 17.546875 -0.640625 
Q 12.796875 0.140625 7.71875 1.703125 
L 7.71875 11.625 
Q 12.109375 9.234375 16.796875 8.0625 
Q 21.484375 6.890625 26.703125 6.890625 
Q 35.15625 6.890625 40.078125 11.328125 
Q 45.015625 15.765625 45.015625 23.390625 
Q 45.015625 31 40.078125 35.4375 
Q 35.15625 39.890625 26.703125 39.890625 
Q 22.75 39.890625 18.8125 39.015625 
Q 14.890625 38.140625 10.796875 36.28125 
z
" id="DejaVuSans-53"/>
        <path d="M 4.890625 31.390625 
L 31.203125 31.390625 
L 31.203125 23.390625 
L 4.890625 23.390625 
z
" id="DejaVuSans-45"/>
        <path d="M 44.390625 34.1875 
Q 47.5625 33.109375 50.5625 29.59375 
Q 53.5625 26.078125 56.59375 19.921875 
L 66.609375 0 
L 56 0 
L 46.6875 18.703125 
Q 43.0625 26.03125 39.671875 28.421875 
Q 36.28125 30.8125 30.421875 30.8125 
L 19.671875 30.8125 
L 19.671875 0 
L 9.8125 0 
L 9.8125 72.90625 
L 32.078125 72.90625 
Q 44.578125 72.90625 50.734375 67.671875 
Q 56.890625 62.453125 56.890625 51.90625 
Q 56.890625 45.015625 53.6875 40.46875 
Q 50.484375 35.9375 44.390625 34.1875 
z
M 19.671875 64.796875 
L 19.671875 38.921875 
L 32.078125 38.921875 
Q 39.203125 38.921875 42.84375 42.21875 
Q 46.484375 45.515625 46.484375 51.90625 
Q 46.484375 58.296875 42.84375 61.546875 
Q 39.203125 64.796875 32.078125 64.796875 
z
" id="DejaVuSans-82"/>
       </defs>
       <use xlink:href="#DejaVuSans-83"/>
       <use x="63.476562" xlink:href="#DejaVuSans-116"/>
       <use x="102.685547" xlink:href="#DejaVuSans-101"/>
       <use x="164.208984" xlink:href="#DejaVuSans-112"/>
       <use x="227.685547" xlink:href="#DejaVuSans-32"/>
       <use x="259.472656" xlink:href="#DejaVuSans-53"/>
       <use x="323.095703" xlink:href="#DejaVuSans-45"/>
       <use x="359.179688" xlink:href="#DejaVuSans-82"/>
      </g>
     </g>
    </g>
    <g id="xtick_2">
     <g id="line2d_3">
      <g>
       <use style="stroke:#000000;stroke-width:0.8;" x="215.394661" xlink:href="#m3b1db2cd2e" y="400.52"/>
      </g>
     </g>
     <g id="text_3">
      <!-- Step 6-R -->
      <g transform="translate(183.612421 443.204586)rotate(-45)scale(0.1 -0.1)">
       <defs>
        <path d="M 33.015625 40.375 
Q 26.375 40.375 22.484375 35.828125 
Q 18.609375 31.296875 18.609375 23.390625 
Q 18.609375 15.53125 22.484375 10.953125 
Q 26.375 6.390625 33.015625 6.390625 
Q 39.65625 6.390625 43.53125 10.953125 
Q 47.40625 15.53125 47.40625 23.390625 
Q 47.40625 31.296875 43.53125 35.828125 
Q 39.65625 40.375 33.015625 40.375 
z
M 52.59375 71.296875 
L 52.59375 62.3125 
Q 48.875 64.0625 45.09375 64.984375 
Q 41.3125 65.921875 37.59375 65.921875 
Q 27.828125 65.921875 22.671875 59.328125 
Q 17.53125 52.734375 16.796875 39.40625 
Q 19.671875 43.65625 24.015625 45.921875 
Q 28.375 48.1875 33.59375 48.1875 
Q 44.578125 48.1875 50.953125 41.515625 
Q 57.328125 34.859375 57.328125 23.390625 
Q 57.328125 12.15625 50.6875 5.359375 
Q 44.046875 -1.421875 33.015625 -1.421875 
Q 20.359375 -1.421875 13.671875 8.265625 
Q 6.984375 17.96875 6.984375 36.375 
Q 6.984375 53.65625 15.1875 63.9375 
Q 23.390625 74.21875 37.203125 74.21875 
Q 40.921875 74.21875 44.703125 73.484375 
Q 48.484375 72.75 52.59375 71.296875 
z
" id="DejaVuSans-54"/>
       </defs>
       <use xlink:href="#DejaVuSans-83"/>
       <use x="63.476562" xlink:href="#DejaVuSans-116"/>
       <use x="102.685547" xlink:href="#DejaVuSans-101"/>
       <use x="164.208984" xlink:href="#DejaVuSans-112"/>
       <use x="227.685547" xlink:href="#DejaVuSans-32"/>
       <use x="259.472656" xlink:href="#DejaVuSans-54"/>
       <use x="323.095703" xlink:href="#DejaVuSans-45"/>
       <use x="359.179688" xlink:href="#DejaVuSans-82"/>
      </g>
     </g>
    </g>
    <g id="xtick_3">
     <g id="line2d_4">
      <g>
       <use style="stroke:#000000;stroke-width:0.8;" x="285.339768" xlink:href="#m3b1db2cd2e" y="400.52"/>
      </g>
     </g>
     <g id="text_4">
      <!-- Step 2-R -->
      <g transform="translate(253.557528 443.204586)rotate(-45)scale(0.1 -0.1)">
       <defs>
        <path d="M 19.1875 8.296875 
L 53.609375 8.296875 
L 53.609375 0 
L 7.328125 0 
L 7.328125 8.296875 
Q 12.9375 14.109375 22.625 23.890625 
Q 32.328125 33.6875 34.8125 36.53125 
Q 39.546875 41.84375 41.421875 45.53125 
Q 43.3125 49.21875 43.3125 52.78125 
Q 43.3125 58.59375 39.234375 62.25 
Q 35.15625 65.921875 28.609375 65.921875 
Q 23.96875 65.921875 18.8125 64.3125 
Q 13.671875 62.703125 7.8125 59.421875 
L 7.8125 69.390625 
Q 13.765625 71.78125 18.9375 73 
Q 24.125 74.21875 28.421875 74.21875 
Q 39.75 74.21875 46.484375 68.546875 
Q 53.21875 62.890625 53.21875 53.421875 
Q 53.21875 48.921875 51.53125 44.890625 
Q 49.859375 40.875 45.40625 35.40625 
Q 44.1875 33.984375 37.640625 27.21875 
Q 31.109375 20.453125 19.1875 8.296875 
z
" id="DejaVuSans-50"/>
       </defs>
       <use xlink:href="#DejaVuSans-83"/>
       <use x="63.476562" xlink:href="#DejaVuSans-116"/>
       <use x="102.685547" xlink:href="#DejaVuSans-101"/>
       <use x="164.208984" xlink:href="#DejaVuSans-112"/>
       <use x="227.685547" xlink:href="#DejaVuSans-32"/>
       <use x="259.472656" xlink:href="#DejaVuSans-50"/>
       <use x="323.095703" xlink:href="#DejaVuSans-45"/>
       <use x="359.179688" xlink:href="#DejaVuSans-82"/>
      </g>
     </g>
    </g>
    <g id="xtick_4">
     <g id="line2d_5">
      <g>
       <use style="stroke:#000000;stroke-width:0.8;" x="355.284875" xlink:href="#m3b1db2cd2e" y="400.52"/>
      </g>
     </g>
     <g id="text_5">
      <!-- Step 7-R -->
      <g transform="translate(323.502635 443.204586)rotate(-45)scale(0.1 -0.1)">
       <defs>
        <path d="M 8.203125 72.90625 
L 55.078125 72.90625 
L 55.078125 68.703125 
L 28.609375 0 
L 18.3125 0 
L 43.21875 64.59375 
L 8.203125 64.59375 
z
" id="DejaVuSans-55"/>
       </defs>
       <use xlink:href="#DejaVuSans-83"/>
       <use x="63.476562" xlink:href="#DejaVuSans-116"/>
       <use x="102.685547" xlink:href="#DejaVuSans-101"/>
       <use x="164.208984" xlink:href="#DejaVuSans-112"/>
       <use x="227.685547" xlink:href="#DejaVuSans-32"/>
       <use x="259.472656" xlink:href="#DejaVuSans-55"/>
       <use x="323.095703" xlink:href="#DejaVuSans-45"/>
       <use x="359.179688" xlink:href="#DejaVuSans-82"/>
      </g>
     </g>
    </g>
    <g id="xtick_5">
     <g id="line2d_6">
      <g>
       <use style="stroke:#000000;stroke-width:0.8;" x="425.229982" xlink:href="#m3b1db2cd2e" y="400.52"/>
      </g>
     </g>
     <g id="text_6">
      <!-- Step 1-E -->
      <g transform="translate(393.892998 442.759329)rotate(-45)scale(0.1 -0.1)">
       <defs>
        <path d="M 12.40625 8.296875 
L 28.515625 8.296875 
L 28.515625 63.921875 
L 10.984375 60.40625 
L 10.984375 69.390625 
L 28.421875 72.90625 
L 38.28125 72.90625 
L 38.28125 8.296875 
L 54.390625 8.296875 
L 54.390625 0 
L 12.40625 0 
z
" id="DejaVuSans-49"/>
        <path d="M 9.8125 72.90625 
L 55.90625 72.90625 
L 55.90625 64.59375 
L 19.671875 64.59375 
L 19.671875 43.015625 
L 54.390625 43.015625 
L 54.390625 34.71875 
L 19.671875 34.71875 
L 19.671875 8.296875 
L 56.78125 8.296875 
L 56.78125 0 
L 9.8125 0 
z
" id="DejaVuSans-69"/>
       </defs>
       <use xlink:href="#DejaVuSans-83"/>
       <use x="63.476562" xlink:href="#DejaVuSans-116"/>
       <use x="102.685547" xlink:href="#DejaVuSans-101"/>
       <use x="164.208984" xlink:href="#DejaVuSans-112"/>
       <use x="227.685547" xlink:href="#DejaVuSans-32"/>
       <use x="259.472656" xlink:href="#DejaVuSans-49"/>
       <use x="323.095703" xlink:href="#DejaVuSans-45"/>
       <use x="359.179688" xlink:href="#DejaVuSans-69"/>
      </g>
     </g>
    </g>
    <g id="xtick_6">
     <g id="line2d_7">
      <g>
       <use style="stroke:#000000;stroke-width:0.8;" x="495.175089" xlink:href="#m3b1db2cd2e" y="400.52"/>
      </g>
     </g>
     <g id="text_7">
      <!-- Step 6-E -->
      <g transform="translate(463.838105 442.759329)rotate(-45)scale(0.1 -0.1)">
       <use xlink:href="#DejaVuSans-83"/>
       <use x="63.476562" xlink:href="#DejaVuSans-116"/>
       <use x="102.685547" xlink:href="#DejaVuSans-101"/>
       <use x="164.208984" xlink:href="#DejaVuSans-112"/>
       <use x="227.685547" xlink:href="#DejaVuSans-32"/>
       <use x="259.472656" xlink:href="#DejaVuSans-54"/>
       <use x="323.095703" xlink:href="#DejaVuSans-45"/>
       <use x="359.179688" xlink:href="#DejaVuSans-69"/>
      </g>
     </g>
    </g>
    <g id="xtick_7">
     <g id="line2d_8">
      <g>
       <use style="stroke:#000000;stroke-width:0.8;" x="565.120196" xlink:href="#m3b1db2cd2e" y="400.52"/>
      </g>
     </g>
     <g id="text_8">
      <!-- Step 1-D -->
      <g transform="translate(532.806521 443.736021)rotate(-45)scale(0.1 -0.1)">
       <defs>
        <path d="M 19.671875 64.796875 
L 19.671875 8.109375 
L 31.59375 8.109375 
Q 46.6875 8.109375 53.6875 14.9375 
Q 60.6875 21.78125 60.6875 36.53125 
Q 60.6875 51.171875 53.6875 57.984375 
Q 46.6875 64.796875 31.59375 64.796875 
z
M 9.8125 72.90625 
L 30.078125 72.90625 
Q 51.265625 72.90625 61.171875 64.09375 
Q 71.09375 55.28125 71.09375 36.53125 
Q 71.09375 17.671875 61.125 8.828125 
Q 51.171875 0 30.078125 0 
L 9.8125 0 
z
" id="DejaVuSans-68"/>
       </defs>
       <use xlink:href="#DejaVuSans-83"/>
       <use x="63.476562" xlink:href="#DejaVuSans-116"/>
       <use x="102.685547" xlink:href="#DejaVuSans-101"/>
       <use x="164.208984" xlink:href="#DejaVuSans-112"/>
       <use x="227.685547" xlink:href="#DejaVuSans-32"/>
       <use x="259.472656" xlink:href="#DejaVuSans-49"/>
       <use x="323.095703" xlink:href="#DejaVuSans-45"/>
       <use x="359.179688" xlink:href="#DejaVuSans-68"/>
      </g>
     </g>
    </g>
    <g id="xtick_8">
     <g id="line2d_9">
      <g>
       <use style="stroke:#000000;stroke-width:0.8;" x="635.065304" xlink:href="#m3b1db2cd2e" y="400.52"/>
      </g>
     </g>
     <g id="text_9">
      <!-- Step 4-D -->
      <g transform="translate(602.751629 443.736021)rotate(-45)scale(0.1 -0.1)">
       <defs>
        <path d="M 37.796875 64.3125 
L 12.890625 25.390625 
L 37.796875 25.390625 
z
M 35.203125 72.90625 
L 47.609375 72.90625 
L 47.609375 25.390625 
L 58.015625 25.390625 
L 58.015625 17.1875 
L 47.609375 17.1875 
L 47.609375 0 
L 37.796875 0 
L 37.796875 17.1875 
L 4.890625 17.1875 
L 4.890625 26.703125 
z
" id="DejaVuSans-52"/>
       </defs>
       <use xlink:href="#DejaVuSans-83"/>
       <use x="63.476562" xlink:href="#DejaVuSans-116"/>
       <use x="102.685547" xlink:href="#DejaVuSans-101"/>
       <use x="164.208984" xlink:href="#DejaVuSans-112"/>
       <use x="227.685547" xlink:href="#DejaVuSans-32"/>
       <use x="259.472656" xlink:href="#DejaVuSans-52"/>
       <use x="323.095703" xlink:href="#DejaVuSans-45"/>
       <use x="359.179688" xlink:href="#DejaVuSans-68"/>
      </g>
     </g>
    </g>
    <g id="xtick_9">
     <g id="line2d_10">
      <g>
       <use style="stroke:#000000;stroke-width:0.8;" x="705.010411" xlink:href="#m3b1db2cd2e" y="400.52"/>
      </g>
     </g>
     <g id="text_10">
      <!-- Step 2-E -->
      <g transform="translate(673.673427 442.759329)rotate(-45)scale(0.1 -0.1)">
       <use xlink:href="#DejaVuSans-83"/>
       <use x="63.476562" xlink:href="#DejaVuSans-116"/>
       <use x="102.685547" xlink:href="#DejaVuSans-101"/>
       <use x="164.208984" xlink:href="#DejaVuSans-112"/>
       <use x="227.685547" xlink:href="#DejaVuSans-32"/>
       <use x="259.472656" xlink:href="#DejaVuSans-50"/>
       <use x="323.095703" xlink:href="#DejaVuSans-45"/>
       <use x="359.179688" xlink:href="#DejaVuSans-69"/>
      </g>
     </g>
    </g>
    <g id="xtick_10">
     <g id="line2d_11">
      <g>
       <use style="stroke:#000000;stroke-width:0.8;" x="774.955518" xlink:href="#m3b1db2cd2e" y="400.52"/>
      </g>
     </g>
     <g id="text_11">
      <!-- Step 5-D -->
      <g transform="translate(742.641843 443.736021)rotate(-45)scale(0.1 -0.1)">
       <use xlink:href="#DejaVuSans-83"/>
       <use x="63.476562" xlink:href="#DejaVuSans-116"/>
       <use x="102.685547" xlink:href="#DejaVuSans-101"/>
       <use x="164.208984" xlink:href="#DejaVuSans-112"/>
       <use x="227.685547" xlink:href="#DejaVuSans-32"/>
       <use x="259.472656" xlink:href="#DejaVuSans-53"/>
       <use x="323.095703" xlink:href="#DejaVuSans-45"/>
       <use x="359.179688" xlink:href="#DejaVuSans-68"/>
      </g>
     </g>
    </g>
    <g id="xtick_11">
     <g id="line2d_12">
      <g>
       <use style="stroke:#000000;stroke-width:0.8;" x="844.900625" xlink:href="#m3b1db2cd2e" y="400.52"/>
      </g>
     </g>
     <g id="text_12">
      <!-- Step 6-D -->
      <g transform="translate(812.58695 443.736021)rotate(-45)scale(0.1 -0.1)">
       <use xlink:href="#DejaVuSans-83"/>
       <use x="63.476562" xlink:href="#DejaVuSans-116"/>
       <use x="102.685547" xlink:href="#DejaVuSans-101"/>
       <use x="164.208984" xlink:href="#DejaVuSans-112"/>
       <use x="227.685547" xlink:href="#DejaVuSans-32"/>
       <use x="259.472656" xlink:href="#DejaVuSans-54"/>
       <use x="323.095703" xlink:href="#DejaVuSans-45"/>
       <use x="359.179688" xlink:href="#DejaVuSans-68"/>
      </g>
     </g>
    </g>
    <g id="xtick_12">
     <g id="line2d_13">
      <g>
       <use style="stroke:#000000;stroke-width:0.8;" x="914.845732" xlink:href="#m3b1db2cd2e" y="400.52"/>
      </g>
     </g>
     <g id="text_13">
      <!-- Step 2-D -->
      <g transform="translate(882.532057 443.736021)rotate(-45)scale(0.1 -0.1)">
       <use xlink:href="#DejaVuSans-83"/>
       <use x="63.476562" xlink:href="#DejaVuSans-116"/>
       <use x="102.685547" xlink:href="#DejaVuSans-101"/>
       <use x="164.208984" xlink:href="#DejaVuSans-112"/>
       <use x="227.685547" xlink:href="#DejaVuSans-32"/>
       <use x="259.472656" xlink:href="#DejaVuSans-50"/>
       <use x="323.095703" xlink:href="#DejaVuSans-45"/>
       <use x="359.179688" xlink:href="#DejaVuSans-68"/>
      </g>
     </g>
    </g>
    <g id="xtick_13">
     <g id="line2d_14">
      <g>
       <use style="stroke:#000000;stroke-width:0.8;" x="984.790839" xlink:href="#m3b1db2cd2e" y="400.52"/>
      </g>
     </g>
     <g id="text_14">
      <!-- Step 6-K -->
      <g transform="translate(953.284813 442.928372)rotate(-45)scale(0.1 -0.1)">
       <defs>
        <path d="M 9.8125 72.90625 
L 19.671875 72.90625 
L 19.671875 42.09375 
L 52.390625 72.90625 
L 65.09375 72.90625 
L 28.90625 38.921875 
L 67.671875 0 
L 54.6875 0 
L 19.671875 35.109375 
L 19.671875 0 
L 9.8125 0 
z
" id="DejaVuSans-75"/>
       </defs>
       <use xlink:href="#DejaVuSans-83"/>
       <use x="63.476562" xlink:href="#DejaVuSans-116"/>
       <use x="102.685547" xlink:href="#DejaVuSans-101"/>
       <use x="164.208984" xlink:href="#DejaVuSans-112"/>
       <use x="227.685547" xlink:href="#DejaVuSans-32"/>
       <use x="259.472656" xlink:href="#DejaVuSans-54"/>
       <use x="323.095703" xlink:href="#DejaVuSans-45"/>
       <use x="359.179688" xlink:href="#DejaVuSans-75"/>
      </g>
     </g>
    </g>
    <g id="xtick_14">
     <g id="line2d_15">
      <g>
       <use style="stroke:#000000;stroke-width:0.8;" x="1054.735946" xlink:href="#m3b1db2cd2e" y="400.52"/>
      </g>
     </g>
     <g id="text_15">
      <!-- Step 5-E -->
      <g transform="translate(1023.398963 442.759329)rotate(-45)scale(0.1 -0.1)">
       <use xlink:href="#DejaVuSans-83"/>
       <use x="63.476562" xlink:href="#DejaVuSans-116"/>
       <use x="102.685547" xlink:href="#DejaVuSans-101"/>
       <use x="164.208984" xlink:href="#DejaVuSans-112"/>
       <use x="227.685547" xlink:href="#DejaVuSans-32"/>
       <use x="259.472656" xlink:href="#DejaVuSans-53"/>
       <use x="323.095703" xlink:href="#DejaVuSans-45"/>
       <use x="359.179688" xlink:href="#DejaVuSans-69"/>
      </g>
     </g>
    </g>
    <g id="xtick_15">
     <g id="line2d_16">
      <g>
       <use style="stroke:#000000;stroke-width:0.8;" x="1124.681054" xlink:href="#m3b1db2cd2e" y="400.52"/>
      </g>
     </g>
     <g id="text_16">
      <!-- Step 5-K -->
      <g transform="translate(1093.175027 442.928372)rotate(-45)scale(0.1 -0.1)">
       <use xlink:href="#DejaVuSans-83"/>
       <use x="63.476562" xlink:href="#DejaVuSans-116"/>
       <use x="102.685547" xlink:href="#DejaVuSans-101"/>
       <use x="164.208984" xlink:href="#DejaVuSans-112"/>
       <use x="227.685547" xlink:href="#DejaVuSans-32"/>
       <use x="259.472656" xlink:href="#DejaVuSans-53"/>
       <use x="323.095703" xlink:href="#DejaVuSans-45"/>
       <use x="359.179688" xlink:href="#DejaVuSans-75"/>
      </g>
     </g>
    </g>
    <g id="xtick_16">
     <g id="line2d_17">
      <g>
       <use style="stroke:#000000;stroke-width:0.8;" x="1194.626161" xlink:href="#m3b1db2cd2e" y="400.52"/>
      </g>
     </g>
     <g id="text_17">
      <!-- Step 3-D -->
      <g transform="translate(1162.312486 443.736021)rotate(-45)scale(0.1 -0.1)">
       <defs>
        <path d="M 40.578125 39.3125 
Q 47.65625 37.796875 51.625 33 
Q 55.609375 28.21875 55.609375 21.1875 
Q 55.609375 10.40625 48.1875 4.484375 
Q 40.765625 -1.421875 27.09375 -1.421875 
Q 22.515625 -1.421875 17.65625 -0.515625 
Q 12.796875 0.390625 7.625 2.203125 
L 7.625 11.71875 
Q 11.71875 9.328125 16.59375 8.109375 
Q 21.484375 6.890625 26.8125 6.890625 
Q 36.078125 6.890625 40.9375 10.546875 
Q 45.796875 14.203125 45.796875 21.1875 
Q 45.796875 27.640625 41.28125 31.265625 
Q 36.765625 34.90625 28.71875 34.90625 
L 20.21875 34.90625 
L 20.21875 43.015625 
L 29.109375 43.015625 
Q 36.375 43.015625 40.234375 45.921875 
Q 44.09375 48.828125 44.09375 54.296875 
Q 44.09375 59.90625 40.109375 62.90625 
Q 36.140625 65.921875 28.71875 65.921875 
Q 24.65625 65.921875 20.015625 65.03125 
Q 15.375 64.15625 9.8125 62.3125 
L 9.8125 71.09375 
Q 15.4375 72.65625 20.34375 73.4375 
Q 25.25 74.21875 29.59375 74.21875 
Q 40.828125 74.21875 47.359375 69.109375 
Q 53.90625 64.015625 53.90625 55.328125 
Q 53.90625 49.265625 50.4375 45.09375 
Q 46.96875 40.921875 40.578125 39.3125 
z
" id="DejaVuSans-51"/>
       </defs>
       <use xlink:href="#DejaVuSans-83"/>
       <use x="63.476562" xlink:href="#DejaVuSans-116"/>
       <use x="102.685547" xlink:href="#DejaVuSans-101"/>
       <use x="164.208984" xlink:href="#DejaVuSans-112"/>
       <use x="227.685547" xlink:href="#DejaVuSans-32"/>
       <use x="259.472656" xlink:href="#DejaVuSans-51"/>
       <use x="323.095703" xlink:href="#DejaVuSans-45"/>
       <use x="359.179688" xlink:href="#DejaVuSans-68"/>
      </g>
     </g>
    </g>
    <g id="xtick_17">
     <g id="line2d_18">
      <g>
       <use style="stroke:#000000;stroke-width:0.8;" x="1264.571268" xlink:href="#m3b1db2cd2e" y="400.52"/>
      </g>
     </g>
     <g id="text_18">
      <!-- Step 2-K -->
      <g transform="translate(1233.065241 442.928372)rotate(-45)scale(0.1 -0.1)">
       <use xlink:href="#DejaVuSans-83"/>
       <use x="63.476562" xlink:href="#DejaVuSans-116"/>
       <use x="102.685547" xlink:href="#DejaVuSans-101"/>
       <use x="164.208984" xlink:href="#DejaVuSans-112"/>
       <use x="227.685547" xlink:href="#DejaVuSans-32"/>
       <use x="259.472656" xlink:href="#DejaVuSans-50"/>
       <use x="323.095703" xlink:href="#DejaVuSans-45"/>
       <use x="359.179688" xlink:href="#DejaVuSans-75"/>
      </g>
     </g>
    </g>
    <g id="xtick_18">
     <g id="line2d_19">
      <g>
       <use style="stroke:#000000;stroke-width:0.8;" x="1334.516375" xlink:href="#m3b1db2cd2e" y="400.52"/>
      </g>
     </g>
     <g id="text_19">
      <!-- Step 4-E -->
      <g transform="translate(1303.179391 442.759329)rotate(-45)scale(0.1 -0.1)">
       <use xlink:href="#DejaVuSans-83"/>
       <use x="63.476562" xlink:href="#DejaVuSans-116"/>
       <use x="102.685547" xlink:href="#DejaVuSans-101"/>
       <use x="164.208984" xlink:href="#DejaVuSans-112"/>
       <use x="227.685547" xlink:href="#DejaVuSans-32"/>
       <use x="259.472656" xlink:href="#DejaVuSans-52"/>
       <use x="323.095703" xlink:href="#DejaVuSans-45"/>
       <use x="359.179688" xlink:href="#DejaVuSans-69"/>
      </g>
     </g>
    </g>
    <g id="xtick_19">
     <g id="line2d_20">
      <g>
       <use style="stroke:#000000;stroke-width:0.8;" x="1404.461482" xlink:href="#m3b1db2cd2e" y="400.52"/>
      </g>
     </g>
     <g id="text_20">
      <!-- Step 1-K -->
      <g transform="translate(1372.955456 442.928372)rotate(-45)scale(0.1 -0.1)">
       <use xlink:href="#DejaVuSans-83"/>
       <use x="63.476562" xlink:href="#DejaVuSans-116"/>
       <use x="102.685547" xlink:href="#DejaVuSans-101"/>
       <use x="164.208984" xlink:href="#DejaVuSans-112"/>
       <use x="227.685547" xlink:href="#DejaVuSans-32"/>
       <use x="259.472656" xlink:href="#DejaVuSans-49"/>
       <use x="323.095703" xlink:href="#DejaVuSans-45"/>
       <use x="359.179688" xlink:href="#DejaVuSans-75"/>
      </g>
     </g>
    </g>
    <g id="xtick_20">
     <g id="line2d_21">
      <g>
       <use style="stroke:#000000;stroke-width:0.8;" x="1474.406589" xlink:href="#m3b1db2cd2e" y="400.52"/>
      </g>
     </g>
     <g id="text_21">
      <!-- Step 3-E -->
      <g transform="translate(1443.069605 442.759329)rotate(-45)scale(0.1 -0.1)">
       <use xlink:href="#DejaVuSans-83"/>
       <use x="63.476562" xlink:href="#DejaVuSans-116"/>
       <use x="102.685547" xlink:href="#DejaVuSans-101"/>
       <use x="164.208984" xlink:href="#DejaVuSans-112"/>
       <use x="227.685547" xlink:href="#DejaVuSans-32"/>
       <use x="259.472656" xlink:href="#DejaVuSans-51"/>
       <use x="323.095703" xlink:href="#DejaVuSans-45"/>
       <use x="359.179688" xlink:href="#DejaVuSans-69"/>
      </g>
     </g>
    </g>
    <g id="xtick_21">
     <g id="line2d_22">
      <g>
       <use style="stroke:#000000;stroke-width:0.8;" x="1544.351696" xlink:href="#m3b1db2cd2e" y="400.52"/>
      </g>
     </g>
     <g id="text_22">
      <!-- Step 3-R -->
      <g transform="translate(1512.569456 443.204586)rotate(-45)scale(0.1 -0.1)">
       <use xlink:href="#DejaVuSans-83"/>
       <use x="63.476562" xlink:href="#DejaVuSans-116"/>
       <use x="102.685547" xlink:href="#DejaVuSans-101"/>
       <use x="164.208984" xlink:href="#DejaVuSans-112"/>
       <use x="227.685547" xlink:href="#DejaVuSans-32"/>
       <use x="259.472656" xlink:href="#DejaVuSans-51"/>
       <use x="323.095703" xlink:href="#DejaVuSans-45"/>
       <use x="359.179688" xlink:href="#DejaVuSans-82"/>
      </g>
     </g>
    </g>
    <g id="xtick_22">
     <g id="line2d_23">
      <g>
       <use style="stroke:#000000;stroke-width:0.8;" x="1614.296804" xlink:href="#m3b1db2cd2e" y="400.52"/>
      </g>
     </g>
     <g id="text_23">
      <!-- Step 7-K -->
      <g transform="translate(1582.790777 442.928372)rotate(-45)scale(0.1 -0.1)">
       <use xlink:href="#DejaVuSans-83"/>
       <use x="63.476562" xlink:href="#DejaVuSans-116"/>
       <use x="102.685547" xlink:href="#DejaVuSans-101"/>
       <use x="164.208984" xlink:href="#DejaVuSans-112"/>
       <use x="227.685547" xlink:href="#DejaVuSans-32"/>
       <use x="259.472656" xlink:href="#DejaVuSans-55"/>
       <use x="323.095703" xlink:href="#DejaVuSans-45"/>
       <use x="359.179688" xlink:href="#DejaVuSans-75"/>
      </g>
     </g>
    </g>
    <g id="xtick_23">
     <g id="line2d_24">
      <g>
       <use style="stroke:#000000;stroke-width:0.8;" x="1684.241911" xlink:href="#m3b1db2cd2e" y="400.52"/>
      </g>
     </g>
     <g id="text_24">
      <!-- Step 4-K -->
      <g transform="translate(1652.735884 442.928372)rotate(-45)scale(0.1 -0.1)">
       <use xlink:href="#DejaVuSans-83"/>
       <use x="63.476562" xlink:href="#DejaVuSans-116"/>
       <use x="102.685547" xlink:href="#DejaVuSans-101"/>
       <use x="164.208984" xlink:href="#DejaVuSans-112"/>
       <use x="227.685547" xlink:href="#DejaVuSans-32"/>
       <use x="259.472656" xlink:href="#DejaVuSans-52"/>
       <use x="323.095703" xlink:href="#DejaVuSans-45"/>
       <use x="359.179688" xlink:href="#DejaVuSans-75"/>
      </g>
     </g>
    </g>
    <g id="xtick_24">
     <g id="line2d_25">
      <g>
       <use style="stroke:#000000;stroke-width:0.8;" x="1754.187018" xlink:href="#m3b1db2cd2e" y="400.52"/>
      </g>
     </g>
     <g id="text_25">
      <!-- Step 7-D -->
      <g transform="translate(1721.873343 443.736021)rotate(-45)scale(0.1 -0.1)">
       <use xlink:href="#DejaVuSans-83"/>
       <use x="63.476562" xlink:href="#DejaVuSans-116"/>
       <use x="102.685547" xlink:href="#DejaVuSans-101"/>
       <use x="164.208984" xlink:href="#DejaVuSans-112"/>
       <use x="227.685547" xlink:href="#DejaVuSans-32"/>
       <use x="259.472656" xlink:href="#DejaVuSans-55"/>
       <use x="323.095703" xlink:href="#DejaVuSans-45"/>
       <use x="359.179688" xlink:href="#DejaVuSans-68"/>
      </g>
     </g>
    </g>
    <g id="xtick_25">
     <g id="line2d_26">
      <g>
       <use style="stroke:#000000;stroke-width:0.8;" x="1824.132125" xlink:href="#m3b1db2cd2e" y="400.52"/>
      </g>
     </g>
     <g id="text_26">
      <!-- Step 3-K -->
      <g transform="translate(1792.626098 442.928372)rotate(-45)scale(0.1 -0.1)">
       <use xlink:href="#DejaVuSans-83"/>
       <use x="63.476562" xlink:href="#DejaVuSans-116"/>
       <use x="102.685547" xlink:href="#DejaVuSans-101"/>
       <use x="164.208984" xlink:href="#DejaVuSans-112"/>
       <use x="227.685547" xlink:href="#DejaVuSans-32"/>
       <use x="259.472656" xlink:href="#DejaVuSans-51"/>
       <use x="323.095703" xlink:href="#DejaVuSans-45"/>
       <use x="359.179688" xlink:href="#DejaVuSans-75"/>
      </g>
     </g>
    </g>
    <g id="xtick_26">
     <g id="line2d_27">
      <g>
       <use style="stroke:#000000;stroke-width:0.8;" x="1894.077232" xlink:href="#m3b1db2cd2e" y="400.52"/>
      </g>
     </g>
     <g id="text_27">
      <!-- Step 1-R -->
      <g transform="translate(1862.294992 443.204586)rotate(-45)scale(0.1 -0.1)">
       <use xlink:href="#DejaVuSans-83"/>
       <use x="63.476562" xlink:href="#DejaVuSans-116"/>
       <use x="102.685547" xlink:href="#DejaVuSans-101"/>
       <use x="164.208984" xlink:href="#DejaVuSans-112"/>
       <use x="227.685547" xlink:href="#DejaVuSans-32"/>
       <use x="259.472656" xlink:href="#DejaVuSans-49"/>
       <use x="323.095703" xlink:href="#DejaVuSans-45"/>
       <use x="359.179688" xlink:href="#DejaVuSans-82"/>
      </g>
     </g>
    </g>
    <g id="xtick_27">
     <g id="line2d_28">
      <g>
       <use style="stroke:#000000;stroke-width:0.8;" x="1964.022339" xlink:href="#m3b1db2cd2e" y="400.52"/>
      </g>
     </g>
     <g id="text_28">
      <!-- Step 4-R -->
      <g transform="translate(1932.240099 443.204586)rotate(-45)scale(0.1 -0.1)">
       <use xlink:href="#DejaVuSans-83"/>
       <use x="63.476562" xlink:href="#DejaVuSans-116"/>
       <use x="102.685547" xlink:href="#DejaVuSans-101"/>
       <use x="164.208984" xlink:href="#DejaVuSans-112"/>
       <use x="227.685547" xlink:href="#DejaVuSans-32"/>
       <use x="259.472656" xlink:href="#DejaVuSans-52"/>
       <use x="323.095703" xlink:href="#DejaVuSans-45"/>
       <use x="359.179688" xlink:href="#DejaVuSans-82"/>
      </g>
     </g>
    </g>
    <g id="xtick_28">
     <g id="line2d_29">
      <g>
       <use style="stroke:#000000;stroke-width:0.8;" x="2033.967446" xlink:href="#m3b1db2cd2e" y="400.52"/>
      </g>
     </g>
     <g id="text_29">
      <!-- Step 7-E -->
      <g transform="translate(2002.630463 442.759329)rotate(-45)scale(0.1 -0.1)">
       <use xlink:href="#DejaVuSans-83"/>
       <use x="63.476562" xlink:href="#DejaVuSans-116"/>
       <use x="102.685547" xlink:href="#DejaVuSans-101"/>
       <use x="164.208984" xlink:href="#DejaVuSans-112"/>
       <use x="227.685547" xlink:href="#DejaVuSans-32"/>
       <use x="259.472656" xlink:href="#DejaVuSans-55"/>
       <use x="323.095703" xlink:href="#DejaVuSans-45"/>
       <use x="359.179688" xlink:href="#DejaVuSans-69"/>
      </g>
     </g>
    </g>
   </g>
   <g id="matplotlib.axis_4">
    <g id="ytick_2">
     <g id="line2d_30">
      <g>
       <use style="stroke:#000000;stroke-width:0.8;" x="2068.94" xlink:href="#m5a30868d58" y="119.787977"/>
      </g>
     </g>
     <g id="text_30">
      <!-- Membranes R -->
      <g transform="translate(2075.94 123.587196)scale(0.1 -0.1)">
       <defs>
        <path d="M 9.8125 72.90625 
L 24.515625 72.90625 
L 43.109375 23.296875 
L 61.8125 72.90625 
L 76.515625 72.90625 
L 76.515625 0 
L 66.890625 0 
L 66.890625 64.015625 
L 48.09375 14.015625 
L 38.1875 14.015625 
L 19.390625 64.015625 
L 19.390625 0 
L 9.8125 0 
z
" id="DejaVuSans-77"/>
        <path d="M 52 44.1875 
Q 55.375 50.25 60.0625 53.125 
Q 64.75 56 71.09375 56 
Q 79.640625 56 84.28125 50.015625 
Q 88.921875 44.046875 88.921875 33.015625 
L 88.921875 0 
L 79.890625 0 
L 79.890625 32.71875 
Q 79.890625 40.578125 77.09375 44.375 
Q 74.3125 48.1875 68.609375 48.1875 
Q 61.625 48.1875 57.5625 43.546875 
Q 53.515625 38.921875 53.515625 30.90625 
L 53.515625 0 
L 44.484375 0 
L 44.484375 32.71875 
Q 44.484375 40.625 41.703125 44.40625 
Q 38.921875 48.1875 33.109375 48.1875 
Q 26.21875 48.1875 22.15625 43.53125 
Q 18.109375 38.875 18.109375 30.90625 
L 18.109375 0 
L 9.078125 0 
L 9.078125 54.6875 
L 18.109375 54.6875 
L 18.109375 46.1875 
Q 21.1875 51.21875 25.484375 53.609375 
Q 29.78125 56 35.6875 56 
Q 41.65625 56 45.828125 52.96875 
Q 50 49.953125 52 44.1875 
z
" id="DejaVuSans-109"/>
        <path d="M 48.6875 27.296875 
Q 48.6875 37.203125 44.609375 42.84375 
Q 40.53125 48.484375 33.40625 48.484375 
Q 26.265625 48.484375 22.1875 42.84375 
Q 18.109375 37.203125 18.109375 27.296875 
Q 18.109375 17.390625 22.1875 11.75 
Q 26.265625 6.109375 33.40625 6.109375 
Q 40.53125 6.109375 44.609375 11.75 
Q 48.6875 17.390625 48.6875 27.296875 
z
M 18.109375 46.390625 
Q 20.953125 51.265625 25.265625 53.625 
Q 29.59375 56 35.59375 56 
Q 45.5625 56 51.78125 48.09375 
Q 58.015625 40.1875 58.015625 27.296875 
Q 58.015625 14.40625 51.78125 6.484375 
Q 45.5625 -1.421875 35.59375 -1.421875 
Q 29.59375 -1.421875 25.265625 0.953125 
Q 20.953125 3.328125 18.109375 8.203125 
L 18.109375 0 
L 9.078125 0 
L 9.078125 75.984375 
L 18.109375 75.984375 
z
" id="DejaVuSans-98"/>
        <path d="M 41.109375 46.296875 
Q 39.59375 47.171875 37.8125 47.578125 
Q 36.03125 48 33.890625 48 
Q 26.265625 48 22.1875 43.046875 
Q 18.109375 38.09375 18.109375 28.8125 
L 18.109375 0 
L 9.078125 0 
L 9.078125 54.6875 
L 18.109375 54.6875 
L 18.109375 46.1875 
Q 20.953125 51.171875 25.484375 53.578125 
Q 30.03125 56 36.53125 56 
Q 37.453125 56 38.578125 55.875 
Q 39.703125 55.765625 41.0625 55.515625 
z
" id="DejaVuSans-114"/>
        <path d="M 34.28125 27.484375 
Q 23.390625 27.484375 19.1875 25 
Q 14.984375 22.515625 14.984375 16.5 
Q 14.984375 11.71875 18.140625 8.90625 
Q 21.296875 6.109375 26.703125 6.109375 
Q 34.1875 6.109375 38.703125 11.40625 
Q 43.21875 16.703125 43.21875 25.484375 
L 43.21875 27.484375 
z
M 52.203125 31.203125 
L 52.203125 0 
L 43.21875 0 
L 43.21875 8.296875 
Q 40.140625 3.328125 35.546875 0.953125 
Q 30.953125 -1.421875 24.3125 -1.421875 
Q 15.921875 -1.421875 10.953125 3.296875 
Q 6 8.015625 6 15.921875 
Q 6 25.140625 12.171875 29.828125 
Q 18.359375 34.515625 30.609375 34.515625 
L 43.21875 34.515625 
L 43.21875 35.40625 
Q 43.21875 41.609375 39.140625 45 
Q 35.0625 48.390625 27.6875 48.390625 
Q 23 48.390625 18.546875 47.265625 
Q 14.109375 46.140625 10.015625 43.890625 
L 10.015625 52.203125 
Q 14.9375 54.109375 19.578125 55.046875 
Q 24.21875 56 28.609375 56 
Q 40.484375 56 46.34375 49.84375 
Q 52.203125 43.703125 52.203125 31.203125 
z
" id="DejaVuSans-97"/>
        <path d="M 54.890625 33.015625 
L 54.890625 0 
L 45.90625 0 
L 45.90625 32.71875 
Q 45.90625 40.484375 42.875 44.328125 
Q 39.84375 48.1875 33.796875 48.1875 
Q 26.515625 48.1875 22.3125 43.546875 
Q 18.109375 38.921875 18.109375 30.90625 
L 18.109375 0 
L 9.078125 0 
L 9.078125 54.6875 
L 18.109375 54.6875 
L 18.109375 46.1875 
Q 21.34375 51.125 25.703125 53.5625 
Q 30.078125 56 35.796875 56 
Q 45.21875 56 50.046875 50.171875 
Q 54.890625 44.34375 54.890625 33.015625 
z
" id="DejaVuSans-110"/>
       </defs>
       <use xlink:href="#DejaVuSans-77"/>
       <use x="86.279297" xlink:href="#DejaVuSans-101"/>
       <use x="147.802734" xlink:href="#DejaVuSans-109"/>
       <use x="245.214844" xlink:href="#DejaVuSans-98"/>
       <use x="308.691406" xlink:href="#DejaVuSans-114"/>
       <use x="349.804688" xlink:href="#DejaVuSans-97"/>
       <use x="411.083984" xlink:href="#DejaVuSans-110"/>
       <use x="474.462891" xlink:href="#DejaVuSans-101"/>
       <use x="535.986328" xlink:href="#DejaVuSans-115"/>
       <use x="588.085938" xlink:href="#DejaVuSans-32"/>
       <use x="619.873047" xlink:href="#DejaVuSans-82"/>
      </g>
     </g>
    </g>
    <g id="ytick_3">
     <g id="line2d_31">
      <g>
       <use style="stroke:#000000;stroke-width:0.8;" x="2068.94" xlink:href="#m5a30868d58" y="199.997126"/>
      </g>
     </g>
     <g id="text_31">
      <!-- Membranes K -->
      <g transform="translate(2075.94 203.796345)scale(0.1 -0.1)">
       <use xlink:href="#DejaVuSans-77"/>
       <use x="86.279297" xlink:href="#DejaVuSans-101"/>
       <use x="147.802734" xlink:href="#DejaVuSans-109"/>
       <use x="245.214844" xlink:href="#DejaVuSans-98"/>
       <use x="308.691406" xlink:href="#DejaVuSans-114"/>
       <use x="349.804688" xlink:href="#DejaVuSans-97"/>
       <use x="411.083984" xlink:href="#DejaVuSans-110"/>
       <use x="474.462891" xlink:href="#DejaVuSans-101"/>
       <use x="535.986328" xlink:href="#DejaVuSans-115"/>
       <use x="588.085938" xlink:href="#DejaVuSans-32"/>
       <use x="619.873047" xlink:href="#DejaVuSans-75"/>
      </g>
     </g>
    </g>
    <g id="ytick_4">
     <g id="line2d_32">
      <g>
       <use style="stroke:#000000;stroke-width:0.8;" x="2068.94" xlink:href="#m5a30868d58" y="280.206276"/>
      </g>
     </g>
     <g id="text_32">
      <!-- Membranes E -->
      <g transform="translate(2075.94 284.005495)scale(0.1 -0.1)">
       <use xlink:href="#DejaVuSans-77"/>
       <use x="86.279297" xlink:href="#DejaVuSans-101"/>
       <use x="147.802734" xlink:href="#DejaVuSans-109"/>
       <use x="245.214844" xlink:href="#DejaVuSans-98"/>
       <use x="308.691406" xlink:href="#DejaVuSans-114"/>
       <use x="349.804688" xlink:href="#DejaVuSans-97"/>
       <use x="411.083984" xlink:href="#DejaVuSans-110"/>
       <use x="474.462891" xlink:href="#DejaVuSans-101"/>
       <use x="535.986328" xlink:href="#DejaVuSans-115"/>
       <use x="588.085938" xlink:href="#DejaVuSans-32"/>
       <use x="619.873047" xlink:href="#DejaVuSans-69"/>
      </g>
     </g>
    </g>
    <g id="ytick_5">
     <g id="line2d_33">
      <g>
       <use style="stroke:#000000;stroke-width:0.8;" x="2068.94" xlink:href="#m5a30868d58" y="360.415425"/>
      </g>
     </g>
     <g id="text_33">
      <!-- Membranes D -->
      <g transform="translate(2075.94 364.214644)scale(0.1 -0.1)">
       <use xlink:href="#DejaVuSans-77"/>
       <use x="86.279297" xlink:href="#DejaVuSans-101"/>
       <use x="147.802734" xlink:href="#DejaVuSans-109"/>
       <use x="245.214844" xlink:href="#DejaVuSans-98"/>
       <use x="308.691406" xlink:href="#DejaVuSans-114"/>
       <use x="349.804688" xlink:href="#DejaVuSans-97"/>
       <use x="411.083984" xlink:href="#DejaVuSans-110"/>
       <use x="474.462891" xlink:href="#DejaVuSans-101"/>
       <use x="535.986328" xlink:href="#DejaVuSans-115"/>
       <use x="588.085938" xlink:href="#DejaVuSans-32"/>
       <use x="619.873047" xlink:href="#DejaVuSans-68"/>
      </g>
     </g>
    </g>
   </g>
  </g>
 </g>
 <defs>
  <clipPath id="p474ca3a43f">
   <rect height="320.836598" width="103.077" x="7.2" y="79.683402"/>
  </clipPath>
  <clipPath id="pdaf502258b">
   <rect height="57.982518" width="1958.463" x="110.477" y="7.2"/>
  </clipPath>
  <clipPath id="pcb34e37699">
   <rect height="7.731002" width="1958.463" x="110.477" y="68.567459"/>
  </clipPath>
  <clipPath id="pcdb4746bb6">
   <rect height="320.836598" width="1958.463" x="110.477" y="79.683402"/>
  </clipPath>
 </defs>
</svg>
