<?xml version="1.0" encoding="utf-8" standalone="no"?>
<!DOCTYPE svg PUBLIC "-//W3C//DTD SVG 1.1//EN"
  "http://www.w3.org/Graphics/SVG/1.1/DTD/svg11.dtd">
<!-- Created with matplotlib (https://matplotlib.org/) -->
<svg height="648pt" version="1.1" viewBox="0 0 504 648" width="504pt" xmlns="http://www.w3.org/2000/svg" xmlns:xlink="http://www.w3.org/1999/xlink">
 <metadata>
  <rdf:RDF xmlns:cc="http://creativecommons.org/ns#" xmlns:dc="http://purl.org/dc/elements/1.1/" xmlns:rdf="http://www.w3.org/1999/02/22-rdf-syntax-ns#">
   <cc:Work>
    <dc:type rdf:resource="http://purl.org/dc/dcmitype/StillImage"/>
    <dc:date>2021-04-28T16:39:08.174124</dc:date>
    <dc:format>image/svg+xml</dc:format>
    <dc:creator>
     <cc:Agent>
      <dc:title>Matplotlib v3.3.2, https://matplotlib.org/</dc:title>
     </cc:Agent>
    </dc:creator>
   </cc:Work>
  </rdf:RDF>
 </metadata>
 <defs>
  <style type="text/css">*{stroke-linecap:butt;stroke-linejoin:round;}</style>
 </defs>
 <g id="figure_1">
  <g id="patch_1">
   <path d="M 0 648 
L 504 648 
L 504 0 
L 0 0 
z
" style="fill:#ffffff;"/>
  </g>
  <g id="axes_1">
   <g id="patch_2">
    <path d="M 57.778 386.130032 
L 493.632 386.130032 
L 493.632 251.441968 
L 57.778 251.441968 
z
" style="fill:#ffffff;"/>
   </g>
   <g id="matplotlib.axis_1">
    <g id="xtick_1">
     <g id="text_1">
      <!-- $i$+1 -->
      <g style="fill:#262626;" transform="translate(87.856041 401.116657)scale(0.088 -0.088)">
       <defs>
        <path d="M 18.3125 75.984375 
L 27.296875 75.984375 
L 25.09375 64.59375 
L 16.109375 64.59375 
z
M 14.203125 54.6875 
L 23.1875 54.6875 
L 12.5 0 
L 3.515625 0 
z
" id="DejaVuSans-Oblique-105"/>
        <path d="M 46 62.703125 
L 46 35.5 
L 73.1875 35.5 
L 73.1875 27.203125 
L 46 27.203125 
L 46 0 
L 37.796875 0 
L 37.796875 27.203125 
L 10.59375 27.203125 
L 10.59375 35.5 
L 37.796875 35.5 
L 37.796875 62.703125 
z
" id="DejaVuSans-43"/>
        <path d="M 12.40625 8.296875 
L 28.515625 8.296875 
L 28.515625 63.921875 
L 10.984375 60.40625 
L 10.984375 69.390625 
L 28.421875 72.90625 
L 38.28125 72.90625 
L 38.28125 8.296875 
L 54.390625 8.296875 
L 54.390625 0 
L 12.40625 0 
z
" id="DejaVuSans-49"/>
       </defs>
       <use transform="translate(0 0.015625)" xlink:href="#DejaVuSans-Oblique-105"/>
       <use transform="translate(27.783203 0.015625)" xlink:href="#DejaVuSans-43"/>
       <use transform="translate(111.572266 0.015625)" xlink:href="#DejaVuSans-49"/>
      </g>
     </g>
    </g>
    <g id="xtick_2">
     <g id="text_2">
      <!-- $i$+2 -->
      <g style="fill:#262626;" transform="translate(139.314601 401.116657)scale(0.088 -0.088)">
       <defs>
        <path d="M 19.1875 8.296875 
L 53.609375 8.296875 
L 53.609375 0 
L 7.328125 0 
L 7.328125 8.296875 
Q 12.9375 14.109375 22.625 23.890625 
Q 32.328125 33.6875 34.8125 36.53125 
Q 39.546875 41.84375 41.421875 45.53125 
Q 43.3125 49.21875 43.3125 52.78125 
Q 43.3125 58.59375 39.234375 62.25 
Q 35.15625 65.921875 28.609375 65.921875 
Q 23.96875 65.921875 18.8125 64.3125 
Q 13.671875 62.703125 7.8125 59.421875 
L 7.8125 69.390625 
Q 13.765625 71.78125 18.9375 73 
Q 24.125 74.21875 28.421875 74.21875 
Q 39.75 74.21875 46.484375 68.546875 
Q 53.21875 62.890625 53.21875 53.421875 
Q 53.21875 48.921875 51.53125 44.890625 
Q 49.859375 40.875 45.40625 35.40625 
Q 44.1875 33.984375 37.640625 27.21875 
Q 31.109375 20.453125 19.1875 8.296875 
z
" id="DejaVuSans-50"/>
       </defs>
       <use transform="translate(0 0.015625)" xlink:href="#DejaVuSans-Oblique-105"/>
       <use transform="translate(27.783203 0.015625)" xlink:href="#DejaVuSans-43"/>
       <use transform="translate(111.572266 0.015625)" xlink:href="#DejaVuSans-50"/>
      </g>
     </g>
    </g>
    <g id="xtick_3">
     <g id="text_3">
      <!-- $i$+3 -->
      <g style="fill:#262626;" transform="translate(190.773161 401.116657)scale(0.088 -0.088)">
       <defs>
        <path d="M 40.578125 39.3125 
Q 47.65625 37.796875 51.625 33 
Q 55.609375 28.21875 55.609375 21.1875 
Q 55.609375 10.40625 48.1875 4.484375 
Q 40.765625 -1.421875 27.09375 -1.421875 
Q 22.515625 -1.421875 17.65625 -0.515625 
Q 12.796875 0.390625 7.625 2.203125 
L 7.625 11.71875 
Q 11.71875 9.328125 16.59375 8.109375 
Q 21.484375 6.890625 26.8125 6.890625 
Q 36.078125 6.890625 40.9375 10.546875 
Q 45.796875 14.203125 45.796875 21.1875 
Q 45.796875 27.640625 41.28125 31.265625 
Q 36.765625 34.90625 28.71875 34.90625 
L 20.21875 34.90625 
L 20.21875 43.015625 
L 29.109375 43.015625 
Q 36.375 43.015625 40.234375 45.921875 
Q 44.09375 48.828125 44.09375 54.296875 
Q 44.09375 59.90625 40.109375 62.90625 
Q 36.140625 65.921875 28.71875 65.921875 
Q 24.65625 65.921875 20.015625 65.03125 
Q 15.375 64.15625 9.8125 62.3125 
L 9.8125 71.09375 
Q 15.4375 72.65625 20.34375 73.4375 
Q 25.25 74.21875 29.59375 74.21875 
Q 40.828125 74.21875 47.359375 69.109375 
Q 53.90625 64.015625 53.90625 55.328125 
Q 53.90625 49.265625 50.4375 45.09375 
Q 46.96875 40.921875 40.578125 39.3125 
z
" id="DejaVuSans-51"/>
       </defs>
       <use transform="translate(0 0.015625)" xlink:href="#DejaVuSans-Oblique-105"/>
       <use transform="translate(27.783203 0.015625)" xlink:href="#DejaVuSans-43"/>
       <use transform="translate(111.572266 0.015625)" xlink:href="#DejaVuSans-51"/>
      </g>
     </g>
    </g>
    <g id="xtick_4">
     <g id="text_4">
      <!-- $i$+4 -->
      <g style="fill:#262626;" transform="translate(242.23172 401.116657)scale(0.088 -0.088)">
       <defs>
        <path d="M 37.796875 64.3125 
L 12.890625 25.390625 
L 37.796875 25.390625 
z
M 35.203125 72.90625 
L 47.609375 72.90625 
L 47.609375 25.390625 
L 58.015625 25.390625 
L 58.015625 17.1875 
L 47.609375 17.1875 
L 47.609375 0 
L 37.796875 0 
L 37.796875 17.1875 
L 4.890625 17.1875 
L 4.890625 26.703125 
z
" id="DejaVuSans-52"/>
       </defs>
       <use transform="translate(0 0.015625)" xlink:href="#DejaVuSans-Oblique-105"/>
       <use transform="translate(27.783203 0.015625)" xlink:href="#DejaVuSans-43"/>
       <use transform="translate(111.572266 0.015625)" xlink:href="#DejaVuSans-52"/>
      </g>
     </g>
    </g>
    <g id="xtick_5">
     <g id="text_5">
      <!-- $i$+5 -->
      <g style="fill:#262626;" transform="translate(293.69028 401.116657)scale(0.088 -0.088)">
       <defs>
        <path d="M 10.796875 72.90625 
L 49.515625 72.90625 
L 49.515625 64.59375 
L 19.828125 64.59375 
L 19.828125 46.734375 
Q 21.96875 47.46875 24.109375 47.828125 
Q 26.265625 48.1875 28.421875 48.1875 
Q 40.625 48.1875 47.75 41.5 
Q 54.890625 34.8125 54.890625 23.390625 
Q 54.890625 11.625 47.5625 5.09375 
Q 40.234375 -1.421875 26.90625 -1.421875 
Q 22.3125 -1.421875 17.546875 -0.640625 
Q 12.796875 0.140625 7.71875 1.703125 
L 7.71875 11.625 
Q 12.109375 9.234375 16.796875 8.0625 
Q 21.484375 6.890625 26.703125 6.890625 
Q 35.15625 6.890625 40.078125 11.328125 
Q 45.015625 15.765625 45.015625 23.390625 
Q 45.015625 31 40.078125 35.4375 
Q 35.15625 39.890625 26.703125 39.890625 
Q 22.75 39.890625 18.8125 39.015625 
Q 14.890625 38.140625 10.796875 36.28125 
z
" id="DejaVuSans-53"/>
       </defs>
       <use transform="translate(0 0.015625)" xlink:href="#DejaVuSans-Oblique-105"/>
       <use transform="translate(27.783203 0.015625)" xlink:href="#DejaVuSans-43"/>
       <use transform="translate(111.572266 0.015625)" xlink:href="#DejaVuSans-53"/>
      </g>
     </g>
    </g>
    <g id="xtick_6">
     <g id="text_6">
      <!-- $i$+6 -->
      <g style="fill:#262626;" transform="translate(345.148839 401.116657)scale(0.088 -0.088)">
       <defs>
        <path d="M 33.015625 40.375 
Q 26.375 40.375 22.484375 35.828125 
Q 18.609375 31.296875 18.609375 23.390625 
Q 18.609375 15.53125 22.484375 10.953125 
Q 26.375 6.390625 33.015625 6.390625 
Q 39.65625 6.390625 43.53125 10.953125 
Q 47.40625 15.53125 47.40625 23.390625 
Q 47.40625 31.296875 43.53125 35.828125 
Q 39.65625 40.375 33.015625 40.375 
z
M 52.59375 71.296875 
L 52.59375 62.3125 
Q 48.875 64.0625 45.09375 64.984375 
Q 41.3125 65.921875 37.59375 65.921875 
Q 27.828125 65.921875 22.671875 59.328125 
Q 17.53125 52.734375 16.796875 39.40625 
Q 19.671875 43.65625 24.015625 45.921875 
Q 28.375 48.1875 33.59375 48.1875 
Q 44.578125 48.1875 50.953125 41.515625 
Q 57.328125 34.859375 57.328125 23.390625 
Q 57.328125 12.15625 50.6875 5.359375 
Q 44.046875 -1.421875 33.015625 -1.421875 
Q 20.359375 -1.421875 13.671875 8.265625 
Q 6.984375 17.96875 6.984375 36.375 
Q 6.984375 53.65625 15.1875 63.9375 
Q 23.390625 74.21875 37.203125 74.21875 
Q 40.921875 74.21875 44.703125 73.484375 
Q 48.484375 72.75 52.59375 71.296875 
z
" id="DejaVuSans-54"/>
       </defs>
       <use transform="translate(0 0.015625)" xlink:href="#DejaVuSans-Oblique-105"/>
       <use transform="translate(27.783203 0.015625)" xlink:href="#DejaVuSans-43"/>
       <use transform="translate(111.572266 0.015625)" xlink:href="#DejaVuSans-54"/>
      </g>
     </g>
    </g>
    <g id="xtick_7">
     <g id="text_7">
      <!-- $i$+7 -->
      <g style="fill:#262626;" transform="translate(396.607399 401.116657)scale(0.088 -0.088)">
       <defs>
        <path d="M 8.203125 72.90625 
L 55.078125 72.90625 
L 55.078125 68.703125 
L 28.609375 0 
L 18.3125 0 
L 43.21875 64.59375 
L 8.203125 64.59375 
z
" id="DejaVuSans-55"/>
       </defs>
       <use transform="translate(0 0.015625)" xlink:href="#DejaVuSans-Oblique-105"/>
       <use transform="translate(27.783203 0.015625)" xlink:href="#DejaVuSans-43"/>
       <use transform="translate(111.572266 0.015625)" xlink:href="#DejaVuSans-55"/>
      </g>
     </g>
    </g>
    <g id="xtick_8">
     <g id="text_8">
      <!-- $i$+8 -->
      <g style="fill:#262626;" transform="translate(448.065959 401.116657)scale(0.088 -0.088)">
       <defs>
        <path d="M 31.78125 34.625 
Q 24.75 34.625 20.71875 30.859375 
Q 16.703125 27.09375 16.703125 20.515625 
Q 16.703125 13.921875 20.71875 10.15625 
Q 24.75 6.390625 31.78125 6.390625 
Q 38.8125 6.390625 42.859375 10.171875 
Q 46.921875 13.96875 46.921875 20.515625 
Q 46.921875 27.09375 42.890625 30.859375 
Q 38.875 34.625 31.78125 34.625 
z
M 21.921875 38.8125 
Q 15.578125 40.375 12.03125 44.71875 
Q 8.5 49.078125 8.5 55.328125 
Q 8.5 64.0625 14.71875 69.140625 
Q 20.953125 74.21875 31.78125 74.21875 
Q 42.671875 74.21875 48.875 69.140625 
Q 55.078125 64.0625 55.078125 55.328125 
Q 55.078125 49.078125 51.53125 44.71875 
Q 48 40.375 41.703125 38.8125 
Q 48.828125 37.15625 52.796875 32.3125 
Q 56.78125 27.484375 56.78125 20.515625 
Q 56.78125 9.90625 50.3125 4.234375 
Q 43.84375 -1.421875 31.78125 -1.421875 
Q 19.734375 -1.421875 13.25 4.234375 
Q 6.78125 9.90625 6.78125 20.515625 
Q 6.78125 27.484375 10.78125 32.3125 
Q 14.796875 37.15625 21.921875 38.8125 
z
M 18.3125 54.390625 
Q 18.3125 48.734375 21.84375 45.5625 
Q 25.390625 42.390625 31.78125 42.390625 
Q 38.140625 42.390625 41.71875 45.5625 
Q 45.3125 48.734375 45.3125 54.390625 
Q 45.3125 60.0625 41.71875 63.234375 
Q 38.140625 66.40625 31.78125 66.40625 
Q 25.390625 66.40625 21.84375 63.234375 
Q 18.3125 60.0625 18.3125 54.390625 
z
" id="DejaVuSans-56"/>
       </defs>
       <use transform="translate(0 0.015625)" xlink:href="#DejaVuSans-Oblique-105"/>
       <use transform="translate(27.783203 0.015625)" xlink:href="#DejaVuSans-43"/>
       <use transform="translate(111.572266 0.015625)" xlink:href="#DejaVuSans-56"/>
      </g>
     </g>
    </g>
    <g id="text_9">
     <!-- Relative to $i$ residue -->
     <g style="fill:#262626;" transform="translate(227.561 414.241282)scale(0.096 -0.096)">
      <defs>
       <path d="M 44.390625 34.1875 
Q 47.5625 33.109375 50.5625 29.59375 
Q 53.5625 26.078125 56.59375 19.921875 
L 66.609375 0 
L 56 0 
L 46.6875 18.703125 
Q 43.0625 26.03125 39.671875 28.421875 
Q 36.28125 30.8125 30.421875 30.8125 
L 19.671875 30.8125 
L 19.671875 0 
L 9.8125 0 
L 9.8125 72.90625 
L 32.078125 72.90625 
Q 44.578125 72.90625 50.734375 67.671875 
Q 56.890625 62.453125 56.890625 51.90625 
Q 56.890625 45.015625 53.6875 40.46875 
Q 50.484375 35.9375 44.390625 34.1875 
z
M 19.671875 64.796875 
L 19.671875 38.921875 
L 32.078125 38.921875 
Q 39.203125 38.921875 42.84375 42.21875 
Q 46.484375 45.515625 46.484375 51.90625 
Q 46.484375 58.296875 42.84375 61.546875 
Q 39.203125 64.796875 32.078125 64.796875 
z
" id="DejaVuSans-82"/>
       <path d="M 56.203125 29.59375 
L 56.203125 25.203125 
L 14.890625 25.203125 
Q 15.484375 15.921875 20.484375 11.0625 
Q 25.484375 6.203125 34.421875 6.203125 
Q 39.59375 6.203125 44.453125 7.46875 
Q 49.3125 8.734375 54.109375 11.28125 
L 54.109375 2.78125 
Q 49.265625 0.734375 44.1875 -0.34375 
Q 39.109375 -1.421875 33.890625 -1.421875 
Q 20.796875 -1.421875 13.15625 6.1875 
Q 5.515625 13.8125 5.515625 26.8125 
Q 5.515625 40.234375 12.765625 48.109375 
Q 20.015625 56 32.328125 56 
Q 43.359375 56 49.78125 48.890625 
Q 56.203125 41.796875 56.203125 29.59375 
z
M 47.21875 32.234375 
Q 47.125 39.59375 43.09375 43.984375 
Q 39.0625 48.390625 32.421875 48.390625 
Q 24.90625 48.390625 20.390625 44.140625 
Q 15.875 39.890625 15.1875 32.171875 
z
" id="DejaVuSans-101"/>
       <path d="M 9.421875 75.984375 
L 18.40625 75.984375 
L 18.40625 0 
L 9.421875 0 
z
" id="DejaVuSans-108"/>
       <path d="M 34.28125 27.484375 
Q 23.390625 27.484375 19.1875 25 
Q 14.984375 22.515625 14.984375 16.5 
Q 14.984375 11.71875 18.140625 8.90625 
Q 21.296875 6.109375 26.703125 6.109375 
Q 34.1875 6.109375 38.703125 11.40625 
Q 43.21875 16.703125 43.21875 25.484375 
L 43.21875 27.484375 
z
M 52.203125 31.203125 
L 52.203125 0 
L 43.21875 0 
L 43.21875 8.296875 
Q 40.140625 3.328125 35.546875 0.953125 
Q 30.953125 -1.421875 24.3125 -1.421875 
Q 15.921875 -1.421875 10.953125 3.296875 
Q 6 8.015625 6 15.921875 
Q 6 25.140625 12.171875 29.828125 
Q 18.359375 34.515625 30.609375 34.515625 
L 43.21875 34.515625 
L 43.21875 35.40625 
Q 43.21875 41.609375 39.140625 45 
Q 35.0625 48.390625 27.6875 48.390625 
Q 23 48.390625 18.546875 47.265625 
Q 14.109375 46.140625 10.015625 43.890625 
L 10.015625 52.203125 
Q 14.9375 54.109375 19.578125 55.046875 
Q 24.21875 56 28.609375 56 
Q 40.484375 56 46.34375 49.84375 
Q 52.203125 43.703125 52.203125 31.203125 
z
" id="DejaVuSans-97"/>
       <path d="M 18.3125 70.21875 
L 18.3125 54.6875 
L 36.8125 54.6875 
L 36.8125 47.703125 
L 18.3125 47.703125 
L 18.3125 18.015625 
Q 18.3125 11.328125 20.140625 9.421875 
Q 21.96875 7.515625 27.59375 7.515625 
L 36.8125 7.515625 
L 36.8125 0 
L 27.59375 0 
Q 17.1875 0 13.234375 3.875 
Q 9.28125 7.765625 9.28125 18.015625 
L 9.28125 47.703125 
L 2.6875 47.703125 
L 2.6875 54.6875 
L 9.28125 54.6875 
L 9.28125 70.21875 
z
" id="DejaVuSans-116"/>
       <path d="M 9.421875 54.6875 
L 18.40625 54.6875 
L 18.40625 0 
L 9.421875 0 
z
M 9.421875 75.984375 
L 18.40625 75.984375 
L 18.40625 64.59375 
L 9.421875 64.59375 
z
" id="DejaVuSans-105"/>
       <path d="M 2.984375 54.6875 
L 12.5 54.6875 
L 29.59375 8.796875 
L 46.6875 54.6875 
L 56.203125 54.6875 
L 35.6875 0 
L 23.484375 0 
z
" id="DejaVuSans-118"/>
       <path id="DejaVuSans-32"/>
       <path d="M 30.609375 48.390625 
Q 23.390625 48.390625 19.1875 42.75 
Q 14.984375 37.109375 14.984375 27.296875 
Q 14.984375 17.484375 19.15625 11.84375 
Q 23.34375 6.203125 30.609375 6.203125 
Q 37.796875 6.203125 41.984375 11.859375 
Q 46.1875 17.53125 46.1875 27.296875 
Q 46.1875 37.015625 41.984375 42.703125 
Q 37.796875 48.390625 30.609375 48.390625 
z
M 30.609375 56 
Q 42.328125 56 49.015625 48.375 
Q 55.71875 40.765625 55.71875 27.296875 
Q 55.71875 13.875 49.015625 6.21875 
Q 42.328125 -1.421875 30.609375 -1.421875 
Q 18.84375 -1.421875 12.171875 6.21875 
Q 5.515625 13.875 5.515625 27.296875 
Q 5.515625 40.765625 12.171875 48.375 
Q 18.84375 56 30.609375 56 
z
" id="DejaVuSans-111"/>
       <path d="M 41.109375 46.296875 
Q 39.59375 47.171875 37.8125 47.578125 
Q 36.03125 48 33.890625 48 
Q 26.265625 48 22.1875 43.046875 
Q 18.109375 38.09375 18.109375 28.8125 
L 18.109375 0 
L 9.078125 0 
L 9.078125 54.6875 
L 18.109375 54.6875 
L 18.109375 46.1875 
Q 20.953125 51.171875 25.484375 53.578125 
Q 30.03125 56 36.53125 56 
Q 37.453125 56 38.578125 55.875 
Q 39.703125 55.765625 41.0625 55.515625 
z
" id="DejaVuSans-114"/>
       <path d="M 44.28125 53.078125 
L 44.28125 44.578125 
Q 40.484375 46.53125 36.375 47.5 
Q 32.28125 48.484375 27.875 48.484375 
Q 21.1875 48.484375 17.84375 46.4375 
Q 14.5 44.390625 14.5 40.28125 
Q 14.5 37.15625 16.890625 35.375 
Q 19.28125 33.59375 26.515625 31.984375 
L 29.59375 31.296875 
Q 39.15625 29.25 43.1875 25.515625 
Q 47.21875 21.78125 47.21875 15.09375 
Q 47.21875 7.46875 41.1875 3.015625 
Q 35.15625 -1.421875 24.609375 -1.421875 
Q 20.21875 -1.421875 15.453125 -0.5625 
Q 10.6875 0.296875 5.421875 2 
L 5.421875 11.28125 
Q 10.40625 8.6875 15.234375 7.390625 
Q 20.0625 6.109375 24.8125 6.109375 
Q 31.15625 6.109375 34.5625 8.28125 
Q 37.984375 10.453125 37.984375 14.40625 
Q 37.984375 18.0625 35.515625 20.015625 
Q 33.0625 21.96875 24.703125 23.78125 
L 21.578125 24.515625 
Q 13.234375 26.265625 9.515625 29.90625 
Q 5.8125 33.546875 5.8125 39.890625 
Q 5.8125 47.609375 11.28125 51.796875 
Q 16.75 56 26.8125 56 
Q 31.78125 56 36.171875 55.265625 
Q 40.578125 54.546875 44.28125 53.078125 
z
" id="DejaVuSans-115"/>
       <path d="M 45.40625 46.390625 
L 45.40625 75.984375 
L 54.390625 75.984375 
L 54.390625 0 
L 45.40625 0 
L 45.40625 8.203125 
Q 42.578125 3.328125 38.25 0.953125 
Q 33.9375 -1.421875 27.875 -1.421875 
Q 17.96875 -1.421875 11.734375 6.484375 
Q 5.515625 14.40625 5.515625 27.296875 
Q 5.515625 40.1875 11.734375 48.09375 
Q 17.96875 56 27.875 56 
Q 33.9375 56 38.25 53.625 
Q 42.578125 51.265625 45.40625 46.390625 
z
M 14.796875 27.296875 
Q 14.796875 17.390625 18.875 11.75 
Q 22.953125 6.109375 30.078125 6.109375 
Q 37.203125 6.109375 41.296875 11.75 
Q 45.40625 17.390625 45.40625 27.296875 
Q 45.40625 37.203125 41.296875 42.84375 
Q 37.203125 48.484375 30.078125 48.484375 
Q 22.953125 48.484375 18.875 42.84375 
Q 14.796875 37.203125 14.796875 27.296875 
z
" id="DejaVuSans-100"/>
       <path d="M 8.5 21.578125 
L 8.5 54.6875 
L 17.484375 54.6875 
L 17.484375 21.921875 
Q 17.484375 14.15625 20.5 10.265625 
Q 23.53125 6.390625 29.59375 6.390625 
Q 36.859375 6.390625 41.078125 11.03125 
Q 45.3125 15.671875 45.3125 23.6875 
L 45.3125 54.6875 
L 54.296875 54.6875 
L 54.296875 0 
L 45.3125 0 
L 45.3125 8.40625 
Q 42.046875 3.421875 37.71875 1 
Q 33.40625 -1.421875 27.6875 -1.421875 
Q 18.265625 -1.421875 13.375 4.4375 
Q 8.5 10.296875 8.5 21.578125 
z
M 31.109375 56 
z
" id="DejaVuSans-117"/>
      </defs>
      <use transform="translate(0 0.015625)" xlink:href="#DejaVuSans-82"/>
      <use transform="translate(69.482422 0.015625)" xlink:href="#DejaVuSans-101"/>
      <use transform="translate(131.005859 0.015625)" xlink:href="#DejaVuSans-108"/>
      <use transform="translate(158.789062 0.015625)" xlink:href="#DejaVuSans-97"/>
      <use transform="translate(220.068359 0.015625)" xlink:href="#DejaVuSans-116"/>
      <use transform="translate(259.277344 0.015625)" xlink:href="#DejaVuSans-105"/>
      <use transform="translate(287.060547 0.015625)" xlink:href="#DejaVuSans-118"/>
      <use transform="translate(346.240234 0.015625)" xlink:href="#DejaVuSans-101"/>
      <use transform="translate(407.763672 0.015625)" xlink:href="#DejaVuSans-32"/>
      <use transform="translate(439.550781 0.015625)" xlink:href="#DejaVuSans-116"/>
      <use transform="translate(478.759766 0.015625)" xlink:href="#DejaVuSans-111"/>
      <use transform="translate(539.941406 0.015625)" xlink:href="#DejaVuSans-32"/>
      <use transform="translate(571.728516 0.015625)" xlink:href="#DejaVuSans-Oblique-105"/>
      <use transform="translate(599.511719 0.015625)" xlink:href="#DejaVuSans-32"/>
      <use transform="translate(631.298828 0.015625)" xlink:href="#DejaVuSans-114"/>
      <use transform="translate(672.412109 0.015625)" xlink:href="#DejaVuSans-101"/>
      <use transform="translate(733.935547 0.015625)" xlink:href="#DejaVuSans-115"/>
      <use transform="translate(786.035156 0.015625)" xlink:href="#DejaVuSans-105"/>
      <use transform="translate(813.818359 0.015625)" xlink:href="#DejaVuSans-100"/>
      <use transform="translate(877.294922 0.015625)" xlink:href="#DejaVuSans-117"/>
      <use transform="translate(940.673828 0.015625)" xlink:href="#DejaVuSans-101"/>
     </g>
    </g>
   </g>
   <g id="matplotlib.axis_2">
    <g id="ytick_1">
     <g id="line2d_1">
      <path clip-path="url(#p5b3b724e09)" d="M 57.778 368.407391 
L 493.632 368.407391 
" style="fill:none;stroke:#cccccc;stroke-linecap:round;stroke-width:0.8;"/>
     </g>
     <g id="text_10">
      <!-- 0.00 -->
      <g style="fill:#262626;" transform="translate(29.88425 371.750703)scale(0.088 -0.088)">
       <defs>
        <path d="M 31.78125 66.40625 
Q 24.171875 66.40625 20.328125 58.90625 
Q 16.5 51.421875 16.5 36.375 
Q 16.5 21.390625 20.328125 13.890625 
Q 24.171875 6.390625 31.78125 6.390625 
Q 39.453125 6.390625 43.28125 13.890625 
Q 47.125 21.390625 47.125 36.375 
Q 47.125 51.421875 43.28125 58.90625 
Q 39.453125 66.40625 31.78125 66.40625 
z
M 31.78125 74.21875 
Q 44.046875 74.21875 50.515625 64.515625 
Q 56.984375 54.828125 56.984375 36.375 
Q 56.984375 17.96875 50.515625 8.265625 
Q 44.046875 -1.421875 31.78125 -1.421875 
Q 19.53125 -1.421875 13.0625 8.265625 
Q 6.59375 17.96875 6.59375 36.375 
Q 6.59375 54.828125 13.0625 64.515625 
Q 19.53125 74.21875 31.78125 74.21875 
z
" id="DejaVuSans-48"/>
        <path d="M 10.6875 12.40625 
L 21 12.40625 
L 21 0 
L 10.6875 0 
z
" id="DejaVuSans-46"/>
       </defs>
       <use xlink:href="#DejaVuSans-48"/>
       <use x="63.623047" xlink:href="#DejaVuSans-46"/>
       <use x="95.410156" xlink:href="#DejaVuSans-48"/>
       <use x="159.033203" xlink:href="#DejaVuSans-48"/>
      </g>
     </g>
    </g>
    <g id="ytick_2">
     <g id="line2d_2">
      <path clip-path="url(#p5b3b724e09)" d="M 57.778 346.180094 
L 493.632 346.180094 
" style="fill:none;stroke:#cccccc;stroke-linecap:round;stroke-width:0.8;"/>
     </g>
     <g id="text_11">
      <!-- 0.25 -->
      <g style="fill:#262626;" transform="translate(29.88425 349.523406)scale(0.088 -0.088)">
       <use xlink:href="#DejaVuSans-48"/>
       <use x="63.623047" xlink:href="#DejaVuSans-46"/>
       <use x="95.410156" xlink:href="#DejaVuSans-50"/>
       <use x="159.033203" xlink:href="#DejaVuSans-53"/>
      </g>
     </g>
    </g>
    <g id="ytick_3">
     <g id="line2d_3">
      <path clip-path="url(#p5b3b724e09)" d="M 57.778 323.952796 
L 493.632 323.952796 
" style="fill:none;stroke:#cccccc;stroke-linecap:round;stroke-width:0.8;"/>
     </g>
     <g id="text_12">
      <!-- 0.50 -->
      <g style="fill:#262626;" transform="translate(29.88425 327.296109)scale(0.088 -0.088)">
       <use xlink:href="#DejaVuSans-48"/>
       <use x="63.623047" xlink:href="#DejaVuSans-46"/>
       <use x="95.410156" xlink:href="#DejaVuSans-53"/>
       <use x="159.033203" xlink:href="#DejaVuSans-48"/>
      </g>
     </g>
    </g>
    <g id="ytick_4">
     <g id="line2d_4">
      <path clip-path="url(#p5b3b724e09)" d="M 57.778 301.725499 
L 493.632 301.725499 
" style="fill:none;stroke:#cccccc;stroke-linecap:round;stroke-width:0.8;"/>
     </g>
     <g id="text_13">
      <!-- 0.75 -->
      <g style="fill:#262626;" transform="translate(29.88425 305.068811)scale(0.088 -0.088)">
       <use xlink:href="#DejaVuSans-48"/>
       <use x="63.623047" xlink:href="#DejaVuSans-46"/>
       <use x="95.410156" xlink:href="#DejaVuSans-55"/>
       <use x="159.033203" xlink:href="#DejaVuSans-53"/>
      </g>
     </g>
    </g>
    <g id="ytick_5">
     <g id="line2d_5">
      <path clip-path="url(#p5b3b724e09)" d="M 57.778 279.498201 
L 493.632 279.498201 
" style="fill:none;stroke:#cccccc;stroke-linecap:round;stroke-width:0.8;"/>
     </g>
     <g id="text_14">
      <!-- 1.00 -->
      <g style="fill:#262626;" transform="translate(29.88425 282.841514)scale(0.088 -0.088)">
       <use xlink:href="#DejaVuSans-49"/>
       <use x="63.623047" xlink:href="#DejaVuSans-46"/>
       <use x="95.410156" xlink:href="#DejaVuSans-48"/>
       <use x="159.033203" xlink:href="#DejaVuSans-48"/>
      </g>
     </g>
    </g>
    <g id="text_15">
     <!-- Log odds ratio -->
     <g style="fill:#262626;" transform="translate(22.88775 353.01075)rotate(-90)scale(0.096 -0.096)">
      <defs>
       <path d="M 9.8125 72.90625 
L 19.671875 72.90625 
L 19.671875 8.296875 
L 55.171875 8.296875 
L 55.171875 0 
L 9.8125 0 
z
" id="DejaVuSans-76"/>
       <path d="M 45.40625 27.984375 
Q 45.40625 37.75 41.375 43.109375 
Q 37.359375 48.484375 30.078125 48.484375 
Q 22.859375 48.484375 18.828125 43.109375 
Q 14.796875 37.75 14.796875 27.984375 
Q 14.796875 18.265625 18.828125 12.890625 
Q 22.859375 7.515625 30.078125 7.515625 
Q 37.359375 7.515625 41.375 12.890625 
Q 45.40625 18.265625 45.40625 27.984375 
z
M 54.390625 6.78125 
Q 54.390625 -7.171875 48.1875 -13.984375 
Q 42 -20.796875 29.203125 -20.796875 
Q 24.46875 -20.796875 20.265625 -20.09375 
Q 16.0625 -19.390625 12.109375 -17.921875 
L 12.109375 -9.1875 
Q 16.0625 -11.328125 19.921875 -12.34375 
Q 23.78125 -13.375 27.78125 -13.375 
Q 36.625 -13.375 41.015625 -8.765625 
Q 45.40625 -4.15625 45.40625 5.171875 
L 45.40625 9.625 
Q 42.625 4.78125 38.28125 2.390625 
Q 33.9375 0 27.875 0 
Q 17.828125 0 11.671875 7.65625 
Q 5.515625 15.328125 5.515625 27.984375 
Q 5.515625 40.671875 11.671875 48.328125 
Q 17.828125 56 27.875 56 
Q 33.9375 56 38.28125 53.609375 
Q 42.625 51.21875 45.40625 46.390625 
L 45.40625 54.6875 
L 54.390625 54.6875 
z
" id="DejaVuSans-103"/>
      </defs>
      <use xlink:href="#DejaVuSans-76"/>
      <use x="53.962891" xlink:href="#DejaVuSans-111"/>
      <use x="115.144531" xlink:href="#DejaVuSans-103"/>
      <use x="178.621094" xlink:href="#DejaVuSans-32"/>
      <use x="210.408203" xlink:href="#DejaVuSans-111"/>
      <use x="271.589844" xlink:href="#DejaVuSans-100"/>
      <use x="335.066406" xlink:href="#DejaVuSans-100"/>
      <use x="398.542969" xlink:href="#DejaVuSans-115"/>
      <use x="450.642578" xlink:href="#DejaVuSans-32"/>
      <use x="482.429688" xlink:href="#DejaVuSans-114"/>
      <use x="523.542969" xlink:href="#DejaVuSans-97"/>
      <use x="584.822266" xlink:href="#DejaVuSans-116"/>
      <use x="624.03125" xlink:href="#DejaVuSans-105"/>
      <use x="651.814453" xlink:href="#DejaVuSans-111"/>
     </g>
    </g>
   </g>
   <g id="patch_3">
    <path clip-path="url(#p5b3b724e09)" d="M 77.589545 368.407391 
L 95.600041 368.407391 
L 95.600041 270.012897 
L 77.589545 270.012897 
z
" style="fill:#773712;stroke:#ffffff;stroke-linejoin:miter;stroke-width:0.8;"/>
   </g>
   <g id="patch_4">
    <path clip-path="url(#p5b3b724e09)" d="M 129.048105 368.407391 
L 147.058601 368.407391 
L 147.058601 340.337311 
L 129.048105 340.337311 
z
" style="fill:#b3b3b3;stroke:#ffffff;stroke-linejoin:miter;stroke-width:0.8;"/>
   </g>
   <g id="patch_5">
    <path clip-path="url(#p5b3b724e09)" d="M 180.506665 368.407391 
L 198.517161 368.407391 
L 198.517161 277.147879 
L 180.506665 277.147879 
z
" style="fill:#ee7f31;stroke:#ffffff;stroke-linejoin:miter;stroke-width:0.8;"/>
   </g>
   <g id="patch_6">
    <path clip-path="url(#p5b3b724e09)" d="M 231.965224 368.407391 
L 249.97572 368.407391 
L 249.97572 263.803691 
L 231.965224 263.803691 
z
" style="fill:#fbe44d;stroke:#ffffff;stroke-linejoin:miter;stroke-width:0.8;"/>
   </g>
   <g id="patch_7">
    <path clip-path="url(#p5b3b724e09)" d="M 283.423784 368.407391 
L 301.43428 368.407391 
L 301.43428 312.40613 
L 283.423784 312.40613 
z
" style="fill:#b3b3b3;stroke:#ffffff;stroke-linejoin:miter;stroke-width:0.8;"/>
   </g>
   <g id="patch_8">
    <path clip-path="url(#p5b3b724e09)" d="M 334.882344 368.407391 
L 352.892839 368.407391 
L 352.892839 320.789128 
L 334.882344 320.789128 
z
" style="fill:#b3b3b3;stroke:#ffffff;stroke-linejoin:miter;stroke-width:0.8;"/>
   </g>
   <g id="patch_9">
    <path clip-path="url(#p5b3b724e09)" d="M 386.340903 368.407391 
L 404.351399 368.407391 
L 404.351399 329.397236 
L 386.340903 329.397236 
z
" style="fill:#d5c4ab;stroke:#ffffff;stroke-linejoin:miter;stroke-width:0.8;"/>
   </g>
   <g id="patch_10">
    <path clip-path="url(#p5b3b724e09)" d="M 437.799463 368.407391 
L 455.809959 368.407391 
L 455.809959 366.938643 
L 437.799463 366.938643 
z
" style="fill:#b3b3b3;stroke:#ffffff;stroke-linejoin:miter;stroke-width:0.8;"/>
   </g>
   <g id="patch_11">
    <path clip-path="url(#p5b3b724e09)" d="M 95.600041 368.407391 
L 113.610537 368.407391 
L 113.610537 316.452474 
L 95.600041 316.452474 
z
" style="fill:url(#h756affe176);stroke:#ffffff;stroke-linejoin:miter;stroke-width:0.8;"/>
   </g>
   <g id="patch_12">
    <path clip-path="url(#p5b3b724e09)" d="M 147.058601 368.407391 
L 165.069097 368.407391 
L 165.069097 351.99095 
L 147.058601 351.99095 
z
" style="fill:url(#ha31c195e5b);stroke:#ffffff;stroke-linejoin:miter;stroke-width:0.8;"/>
   </g>
   <g id="patch_13">
    <path clip-path="url(#p5b3b724e09)" d="M 198.517161 368.407391 
L 216.527656 368.407391 
L 216.527656 269.001225 
L 198.517161 269.001225 
z
" style="fill:url(#h9aec071469);stroke:#ffffff;stroke-linejoin:miter;stroke-width:0.8;"/>
   </g>
   <g id="patch_14">
    <path clip-path="url(#p5b3b724e09)" d="M 249.97572 368.407391 
L 267.986216 368.407391 
L 267.986216 306.505304 
L 249.97572 306.505304 
z
" style="fill:url(#h7387ef32c7);stroke:#ffffff;stroke-linejoin:miter;stroke-width:0.8;"/>
   </g>
   <g id="patch_15">
    <path clip-path="url(#p5b3b724e09)" d="M 301.43428 368.407391 
L 319.444776 368.407391 
L 319.444776 333.715668 
L 301.43428 333.715668 
z
" style="fill:url(#ha31c195e5b);stroke:#ffffff;stroke-linejoin:miter;stroke-width:0.8;"/>
   </g>
   <g id="patch_16">
    <path clip-path="url(#p5b3b724e09)" d="M 352.892839 368.407391 
L 370.903335 368.407391 
L 370.903335 319.983408 
L 352.892839 319.983408 
z
" style="fill:url(#ha31c195e5b);stroke:#ffffff;stroke-linejoin:miter;stroke-width:0.8;"/>
   </g>
   <g id="patch_17">
    <path clip-path="url(#p5b3b724e09)" d="M 404.351399 368.407391 
L 422.361895 368.407391 
L 422.361895 300.494444 
L 404.351399 300.494444 
z
" style="fill:url(#hfa54d27f6f);stroke:#ffffff;stroke-linejoin:miter;stroke-width:0.8;"/>
   </g>
   <g id="patch_18">
    <path clip-path="url(#p5b3b724e09)" d="M 455.809959 368.407391 
L 473.820455 368.407391 
L 473.820455 309.989733 
L 455.809959 309.989733 
z
" style="fill:url(#ha31c195e5b);stroke:#ffffff;stroke-linejoin:miter;stroke-width:0.8;"/>
   </g>
   <g id="LineCollection_1">
    <path clip-path="url(#p5b3b724e09)" d="M 86.594793 264.414206 
L 86.594793 275.611587 
" style="fill:none;stroke:#1a1a1a;stroke-width:1.2;"/>
    <path clip-path="url(#p5b3b724e09)" d="M 138.053353 331.575834 
L 138.053353 349.098789 
" style="fill:none;stroke:#1a1a1a;stroke-width:1.2;"/>
    <path clip-path="url(#p5b3b724e09)" d="M 189.511913 270.682522 
L 189.511913 283.613237 
" style="fill:none;stroke:#1a1a1a;stroke-width:1.2;"/>
    <path clip-path="url(#p5b3b724e09)" d="M 240.970472 257.564152 
L 240.970472 270.043229 
" style="fill:none;stroke:#1a1a1a;stroke-width:1.2;"/>
    <path clip-path="url(#p5b3b724e09)" d="M 292.429032 303.906415 
L 292.429032 320.905844 
" style="fill:none;stroke:#1a1a1a;stroke-width:1.2;"/>
    <path clip-path="url(#p5b3b724e09)" d="M 343.887591 311.533018 
L 343.887591 330.045239 
" style="fill:none;stroke:#1a1a1a;stroke-width:1.2;"/>
    <path clip-path="url(#p5b3b724e09)" d="M 395.346151 319.208748 
L 395.346151 339.585723 
" style="fill:none;stroke:#1a1a1a;stroke-width:1.2;"/>
    <path clip-path="url(#p5b3b724e09)" d="M 446.804711 353.869439 
L 446.804711 380.007848 
" style="fill:none;stroke:#1a1a1a;stroke-width:1.2;"/>
   </g>
   <g id="LineCollection_2">
    <path clip-path="url(#p5b3b724e09)" d="M 104.605289 309.18666 
L 104.605289 323.718288 
" style="fill:none;stroke:#1a1a1a;stroke-width:1.2;"/>
    <path clip-path="url(#p5b3b724e09)" d="M 156.063849 342.63188 
L 156.063849 361.350021 
" style="fill:none;stroke:#1a1a1a;stroke-width:1.2;"/>
    <path clip-path="url(#p5b3b724e09)" d="M 207.522409 262.821456 
L 207.522409 275.180993 
" style="fill:none;stroke:#1a1a1a;stroke-width:1.2;"/>
    <path clip-path="url(#p5b3b724e09)" d="M 258.980968 298.569865 
L 258.980968 314.440743 
" style="fill:none;stroke:#1a1a1a;stroke-width:1.2;"/>
    <path clip-path="url(#p5b3b724e09)" d="M 310.439528 324.131417 
L 310.439528 343.299919 
" style="fill:none;stroke:#1a1a1a;stroke-width:1.2;"/>
    <path clip-path="url(#p5b3b724e09)" d="M 361.898087 310.766101 
L 361.898087 329.200715 
" style="fill:none;stroke:#1a1a1a;stroke-width:1.2;"/>
    <path clip-path="url(#p5b3b724e09)" d="M 413.356647 291.83656 
L 413.356647 309.152329 
" style="fill:none;stroke:#1a1a1a;stroke-width:1.2;"/>
    <path clip-path="url(#p5b3b724e09)" d="M 464.815207 300.514476 
L 464.815207 319.464989 
" style="fill:none;stroke:#1a1a1a;stroke-width:1.2;"/>
   </g>
   <g id="line2d_6">
    <path clip-path="url(#p5b3b724e09)" d="M -1 368.407391 
L 505 368.407391 
" style="fill:none;stroke:#000000;stroke-linecap:round;stroke-width:1.2;"/>
   </g>
   <g id="line2d_7">
    <path clip-path="url(#p5b3b724e09)" d="M 69.870762 386.130032 
L 69.870762 251.441968 
" style="fill:none;stroke:#000000;stroke-linecap:round;stroke-width:1.2;"/>
   </g>
   <g id="legend_1">
    <g id="patch_19">
     <path d="M 401.276 270.846661 
L 487.472 270.846661 
Q 489.232 270.846661 489.232 269.086661 
L 489.232 244.133161 
Q 489.232 242.373161 487.472 242.373161 
L 401.276 242.373161 
Q 399.516 242.373161 399.516 244.133161 
L 399.516 269.086661 
Q 399.516 270.846661 401.276 270.846661 
z
" style="fill:#ffffff;opacity:0.8;stroke:#cccccc;stroke-linejoin:miter;stroke-width:0.8;"/>
    </g>
    <g id="patch_20">
     <path d="M 403.036 252.579786 
L 420.636 252.579786 
L 420.636 246.419786 
L 403.036 246.419786 
z
" style="fill:#773712;stroke:#ffffff;stroke-linejoin:miter;stroke-width:0.8;"/>
    </g>
    <g id="text_16">
     <!-- Opp charge -->
     <g style="fill:#262626;" transform="translate(427.676 252.579786)scale(0.088 -0.088)">
      <defs>
       <path d="M 39.40625 66.21875 
Q 28.65625 66.21875 22.328125 58.203125 
Q 16.015625 50.203125 16.015625 36.375 
Q 16.015625 22.609375 22.328125 14.59375 
Q 28.65625 6.59375 39.40625 6.59375 
Q 50.140625 6.59375 56.421875 14.59375 
Q 62.703125 22.609375 62.703125 36.375 
Q 62.703125 50.203125 56.421875 58.203125 
Q 50.140625 66.21875 39.40625 66.21875 
z
M 39.40625 74.21875 
Q 54.734375 74.21875 63.90625 63.9375 
Q 73.09375 53.65625 73.09375 36.375 
Q 73.09375 19.140625 63.90625 8.859375 
Q 54.734375 -1.421875 39.40625 -1.421875 
Q 24.03125 -1.421875 14.8125 8.828125 
Q 5.609375 19.09375 5.609375 36.375 
Q 5.609375 53.65625 14.8125 63.9375 
Q 24.03125 74.21875 39.40625 74.21875 
z
" id="DejaVuSans-79"/>
       <path d="M 18.109375 8.203125 
L 18.109375 -20.796875 
L 9.078125 -20.796875 
L 9.078125 54.6875 
L 18.109375 54.6875 
L 18.109375 46.390625 
Q 20.953125 51.265625 25.265625 53.625 
Q 29.59375 56 35.59375 56 
Q 45.5625 56 51.78125 48.09375 
Q 58.015625 40.1875 58.015625 27.296875 
Q 58.015625 14.40625 51.78125 6.484375 
Q 45.5625 -1.421875 35.59375 -1.421875 
Q 29.59375 -1.421875 25.265625 0.953125 
Q 20.953125 3.328125 18.109375 8.203125 
z
M 48.6875 27.296875 
Q 48.6875 37.203125 44.609375 42.84375 
Q 40.53125 48.484375 33.40625 48.484375 
Q 26.265625 48.484375 22.1875 42.84375 
Q 18.109375 37.203125 18.109375 27.296875 
Q 18.109375 17.390625 22.1875 11.75 
Q 26.265625 6.109375 33.40625 6.109375 
Q 40.53125 6.109375 44.609375 11.75 
Q 48.6875 17.390625 48.6875 27.296875 
z
" id="DejaVuSans-112"/>
       <path d="M 48.78125 52.59375 
L 48.78125 44.1875 
Q 44.96875 46.296875 41.140625 47.34375 
Q 37.3125 48.390625 33.40625 48.390625 
Q 24.65625 48.390625 19.8125 42.84375 
Q 14.984375 37.3125 14.984375 27.296875 
Q 14.984375 17.28125 19.8125 11.734375 
Q 24.65625 6.203125 33.40625 6.203125 
Q 37.3125 6.203125 41.140625 7.25 
Q 44.96875 8.296875 48.78125 10.40625 
L 48.78125 2.09375 
Q 45.015625 0.34375 40.984375 -0.53125 
Q 36.96875 -1.421875 32.421875 -1.421875 
Q 20.0625 -1.421875 12.78125 6.34375 
Q 5.515625 14.109375 5.515625 27.296875 
Q 5.515625 40.671875 12.859375 48.328125 
Q 20.21875 56 33.015625 56 
Q 37.15625 56 41.109375 55.140625 
Q 45.0625 54.296875 48.78125 52.59375 
z
" id="DejaVuSans-99"/>
       <path d="M 54.890625 33.015625 
L 54.890625 0 
L 45.90625 0 
L 45.90625 32.71875 
Q 45.90625 40.484375 42.875 44.328125 
Q 39.84375 48.1875 33.796875 48.1875 
Q 26.515625 48.1875 22.3125 43.546875 
Q 18.109375 38.921875 18.109375 30.90625 
L 18.109375 0 
L 9.078125 0 
L 9.078125 75.984375 
L 18.109375 75.984375 
L 18.109375 46.1875 
Q 21.34375 51.125 25.703125 53.5625 
Q 30.078125 56 35.796875 56 
Q 45.21875 56 50.046875 50.171875 
Q 54.890625 44.34375 54.890625 33.015625 
z
" id="DejaVuSans-104"/>
      </defs>
      <use xlink:href="#DejaVuSans-79"/>
      <use x="78.710938" xlink:href="#DejaVuSans-112"/>
      <use x="142.1875" xlink:href="#DejaVuSans-112"/>
      <use x="205.664062" xlink:href="#DejaVuSans-32"/>
      <use x="237.451172" xlink:href="#DejaVuSans-99"/>
      <use x="292.431641" xlink:href="#DejaVuSans-104"/>
      <use x="355.810547" xlink:href="#DejaVuSans-97"/>
      <use x="417.089844" xlink:href="#DejaVuSans-114"/>
      <use x="456.453125" xlink:href="#DejaVuSans-103"/>
      <use x="519.929688" xlink:href="#DejaVuSans-101"/>
     </g>
    </g>
    <g id="patch_21">
     <path d="M 403.036 265.496536 
L 420.636 265.496536 
L 420.636 259.336536 
L 403.036 259.336536 
z
" style="fill:url(#h756affe176);stroke:#ffffff;stroke-linejoin:miter;stroke-width:0.8;"/>
    </g>
    <g id="text_17">
     <!-- Same charge -->
     <g style="fill:#262626;" transform="translate(427.676 265.496536)scale(0.088 -0.088)">
      <defs>
       <path d="M 53.515625 70.515625 
L 53.515625 60.890625 
Q 47.90625 63.578125 42.921875 64.890625 
Q 37.9375 66.21875 33.296875 66.21875 
Q 25.25 66.21875 20.875 63.09375 
Q 16.5 59.96875 16.5 54.203125 
Q 16.5 49.359375 19.40625 46.890625 
Q 22.3125 44.4375 30.421875 42.921875 
L 36.375 41.703125 
Q 47.40625 39.59375 52.65625 34.296875 
Q 57.90625 29 57.90625 20.125 
Q 57.90625 9.515625 50.796875 4.046875 
Q 43.703125 -1.421875 29.984375 -1.421875 
Q 24.8125 -1.421875 18.96875 -0.25 
Q 13.140625 0.921875 6.890625 3.21875 
L 6.890625 13.375 
Q 12.890625 10.015625 18.65625 8.296875 
Q 24.421875 6.59375 29.984375 6.59375 
Q 38.421875 6.59375 43.015625 9.90625 
Q 47.609375 13.234375 47.609375 19.390625 
Q 47.609375 24.75 44.3125 27.78125 
Q 41.015625 30.8125 33.5 32.328125 
L 27.484375 33.5 
Q 16.453125 35.6875 11.515625 40.375 
Q 6.59375 45.0625 6.59375 53.421875 
Q 6.59375 63.09375 13.40625 68.65625 
Q 20.21875 74.21875 32.171875 74.21875 
Q 37.3125 74.21875 42.625 73.28125 
Q 47.953125 72.359375 53.515625 70.515625 
z
" id="DejaVuSans-83"/>
       <path d="M 52 44.1875 
Q 55.375 50.25 60.0625 53.125 
Q 64.75 56 71.09375 56 
Q 79.640625 56 84.28125 50.015625 
Q 88.921875 44.046875 88.921875 33.015625 
L 88.921875 0 
L 79.890625 0 
L 79.890625 32.71875 
Q 79.890625 40.578125 77.09375 44.375 
Q 74.3125 48.1875 68.609375 48.1875 
Q 61.625 48.1875 57.5625 43.546875 
Q 53.515625 38.921875 53.515625 30.90625 
L 53.515625 0 
L 44.484375 0 
L 44.484375 32.71875 
Q 44.484375 40.625 41.703125 44.40625 
Q 38.921875 48.1875 33.109375 48.1875 
Q 26.21875 48.1875 22.15625 43.53125 
Q 18.109375 38.875 18.109375 30.90625 
L 18.109375 0 
L 9.078125 0 
L 9.078125 54.6875 
L 18.109375 54.6875 
L 18.109375 46.1875 
Q 21.1875 51.21875 25.484375 53.609375 
Q 29.78125 56 35.6875 56 
Q 41.65625 56 45.828125 52.96875 
Q 50 49.953125 52 44.1875 
z
" id="DejaVuSans-109"/>
      </defs>
      <use xlink:href="#DejaVuSans-83"/>
      <use x="63.476562" xlink:href="#DejaVuSans-97"/>
      <use x="124.755859" xlink:href="#DejaVuSans-109"/>
      <use x="222.167969" xlink:href="#DejaVuSans-101"/>
      <use x="283.691406" xlink:href="#DejaVuSans-32"/>
      <use x="315.478516" xlink:href="#DejaVuSans-99"/>
      <use x="370.458984" xlink:href="#DejaVuSans-104"/>
      <use x="433.837891" xlink:href="#DejaVuSans-97"/>
      <use x="495.117188" xlink:href="#DejaVuSans-114"/>
      <use x="534.480469" xlink:href="#DejaVuSans-103"/>
      <use x="597.957031" xlink:href="#DejaVuSans-101"/>
     </g>
    </g>
   </g>
  </g>
  <g id="axes_2">
   <g id="patch_22">
    <path d="M 57.778 605.172 
L 493.632 605.172 
L 493.632 470.483935 
L 57.778 470.483935 
z
" style="fill:#ffffff;"/>
   </g>
   <g id="matplotlib.axis_3">
    <g id="xtick_9">
     <g id="text_18">
      <!-- $i$+1 -->
      <g style="fill:#262626;" transform="translate(90.165079 620.158625)scale(0.088 -0.088)">
       <use transform="translate(0 0.015625)" xlink:href="#DejaVuSans-Oblique-105"/>
       <use transform="translate(27.783203 0.015625)" xlink:href="#DejaVuSans-43"/>
       <use transform="translate(111.572266 0.015625)" xlink:href="#DejaVuSans-49"/>
      </g>
     </g>
    </g>
    <g id="xtick_10">
     <g id="text_19">
      <!-- $i$+2 -->
      <g style="fill:#262626;" transform="translate(140.963914 620.158625)scale(0.088 -0.088)">
       <use transform="translate(0 0.015625)" xlink:href="#DejaVuSans-Oblique-105"/>
       <use transform="translate(27.783203 0.015625)" xlink:href="#DejaVuSans-43"/>
       <use transform="translate(111.572266 0.015625)" xlink:href="#DejaVuSans-50"/>
      </g>
     </g>
    </g>
    <g id="xtick_11">
     <g id="text_20">
      <!-- $i$+3 -->
      <g style="fill:#262626;" transform="translate(191.762748 620.158625)scale(0.088 -0.088)">
       <use transform="translate(0 0.015625)" xlink:href="#DejaVuSans-Oblique-105"/>
       <use transform="translate(27.783203 0.015625)" xlink:href="#DejaVuSans-43"/>
       <use transform="translate(111.572266 0.015625)" xlink:href="#DejaVuSans-51"/>
      </g>
     </g>
    </g>
    <g id="xtick_12">
     <g id="text_21">
      <!-- $i$+4 -->
      <g style="fill:#262626;" transform="translate(242.561583 620.158625)scale(0.088 -0.088)">
       <use transform="translate(0 0.015625)" xlink:href="#DejaVuSans-Oblique-105"/>
       <use transform="translate(27.783203 0.015625)" xlink:href="#DejaVuSans-43"/>
       <use transform="translate(111.572266 0.015625)" xlink:href="#DejaVuSans-52"/>
      </g>
     </g>
    </g>
    <g id="xtick_13">
     <g id="text_22">
      <!-- $i$+5 -->
      <g style="fill:#262626;" transform="translate(293.360417 620.158625)scale(0.088 -0.088)">
       <use transform="translate(0 0.015625)" xlink:href="#DejaVuSans-Oblique-105"/>
       <use transform="translate(27.783203 0.015625)" xlink:href="#DejaVuSans-43"/>
       <use transform="translate(111.572266 0.015625)" xlink:href="#DejaVuSans-53"/>
      </g>
     </g>
    </g>
    <g id="xtick_14">
     <g id="text_23">
      <!-- $i$+6 -->
      <g style="fill:#262626;" transform="translate(344.159252 620.158625)scale(0.088 -0.088)">
       <use transform="translate(0 0.015625)" xlink:href="#DejaVuSans-Oblique-105"/>
       <use transform="translate(27.783203 0.015625)" xlink:href="#DejaVuSans-43"/>
       <use transform="translate(111.572266 0.015625)" xlink:href="#DejaVuSans-54"/>
      </g>
     </g>
    </g>
    <g id="xtick_15">
     <g id="text_24">
      <!-- $i$+7 -->
      <g style="fill:#262626;" transform="translate(394.958086 620.158625)scale(0.088 -0.088)">
       <use transform="translate(0 0.015625)" xlink:href="#DejaVuSans-Oblique-105"/>
       <use transform="translate(27.783203 0.015625)" xlink:href="#DejaVuSans-43"/>
       <use transform="translate(111.572266 0.015625)" xlink:href="#DejaVuSans-55"/>
      </g>
     </g>
    </g>
    <g id="xtick_16">
     <g id="text_25">
      <!-- $i$+8 -->
      <g style="fill:#262626;" transform="translate(445.756921 620.158625)scale(0.088 -0.088)">
       <use transform="translate(0 0.015625)" xlink:href="#DejaVuSans-Oblique-105"/>
       <use transform="translate(27.783203 0.015625)" xlink:href="#DejaVuSans-43"/>
       <use transform="translate(111.572266 0.015625)" xlink:href="#DejaVuSans-56"/>
      </g>
     </g>
    </g>
    <g id="text_26">
     <!-- Relative to $i$ residue -->
     <g style="fill:#262626;" transform="translate(227.561 633.28325)scale(0.096 -0.096)">
      <use transform="translate(0 0.015625)" xlink:href="#DejaVuSans-82"/>
      <use transform="translate(69.482422 0.015625)" xlink:href="#DejaVuSans-101"/>
      <use transform="translate(131.005859 0.015625)" xlink:href="#DejaVuSans-108"/>
      <use transform="translate(158.789062 0.015625)" xlink:href="#DejaVuSans-97"/>
      <use transform="translate(220.068359 0.015625)" xlink:href="#DejaVuSans-116"/>
      <use transform="translate(259.277344 0.015625)" xlink:href="#DejaVuSans-105"/>
      <use transform="translate(287.060547 0.015625)" xlink:href="#DejaVuSans-118"/>
      <use transform="translate(346.240234 0.015625)" xlink:href="#DejaVuSans-101"/>
      <use transform="translate(407.763672 0.015625)" xlink:href="#DejaVuSans-32"/>
      <use transform="translate(439.550781 0.015625)" xlink:href="#DejaVuSans-116"/>
      <use transform="translate(478.759766 0.015625)" xlink:href="#DejaVuSans-111"/>
      <use transform="translate(539.941406 0.015625)" xlink:href="#DejaVuSans-32"/>
      <use transform="translate(571.728516 0.015625)" xlink:href="#DejaVuSans-Oblique-105"/>
      <use transform="translate(599.511719 0.015625)" xlink:href="#DejaVuSans-32"/>
      <use transform="translate(631.298828 0.015625)" xlink:href="#DejaVuSans-114"/>
      <use transform="translate(672.412109 0.015625)" xlink:href="#DejaVuSans-101"/>
      <use transform="translate(733.935547 0.015625)" xlink:href="#DejaVuSans-115"/>
      <use transform="translate(786.035156 0.015625)" xlink:href="#DejaVuSans-105"/>
      <use transform="translate(813.818359 0.015625)" xlink:href="#DejaVuSans-100"/>
      <use transform="translate(877.294922 0.015625)" xlink:href="#DejaVuSans-117"/>
      <use transform="translate(940.673828 0.015625)" xlink:href="#DejaVuSans-101"/>
     </g>
    </g>
   </g>
   <g id="matplotlib.axis_4">
    <g id="ytick_6">
     <g id="line2d_8">
      <path clip-path="url(#p3474507a45)" d="M 57.778 605.172 
L 493.632 605.172 
" style="fill:none;stroke:#cccccc;stroke-linecap:round;stroke-width:0.8;"/>
     </g>
     <g id="text_27">
      <!-- 0.0 -->
      <g style="fill:#262626;" transform="translate(35.48325 608.515312)scale(0.088 -0.088)">
       <use xlink:href="#DejaVuSans-48"/>
       <use x="63.623047" xlink:href="#DejaVuSans-46"/>
       <use x="95.410156" xlink:href="#DejaVuSans-48"/>
      </g>
     </g>
    </g>
    <g id="ytick_7">
     <g id="line2d_9">
      <path clip-path="url(#p3474507a45)" d="M 57.778 571.82067 
L 493.632 571.82067 
" style="fill:none;stroke:#cccccc;stroke-linecap:round;stroke-width:0.8;"/>
     </g>
     <g id="text_28">
      <!-- 0.1 -->
      <g style="fill:#262626;" transform="translate(35.48325 575.163982)scale(0.088 -0.088)">
       <use xlink:href="#DejaVuSans-48"/>
       <use x="63.623047" xlink:href="#DejaVuSans-46"/>
       <use x="95.410156" xlink:href="#DejaVuSans-49"/>
      </g>
     </g>
    </g>
    <g id="ytick_8">
     <g id="line2d_10">
      <path clip-path="url(#p3474507a45)" d="M 57.778 538.469339 
L 493.632 538.469339 
" style="fill:none;stroke:#cccccc;stroke-linecap:round;stroke-width:0.8;"/>
     </g>
     <g id="text_29">
      <!-- 0.2 -->
      <g style="fill:#262626;" transform="translate(35.48325 541.812652)scale(0.088 -0.088)">
       <use xlink:href="#DejaVuSans-48"/>
       <use x="63.623047" xlink:href="#DejaVuSans-46"/>
       <use x="95.410156" xlink:href="#DejaVuSans-50"/>
      </g>
     </g>
    </g>
    <g id="ytick_9">
     <g id="line2d_11">
      <path clip-path="url(#p3474507a45)" d="M 57.778 505.118009 
L 493.632 505.118009 
" style="fill:none;stroke:#cccccc;stroke-linecap:round;stroke-width:0.8;"/>
     </g>
     <g id="text_30">
      <!-- 0.3 -->
      <g style="fill:#262626;" transform="translate(35.48325 508.461322)scale(0.088 -0.088)">
       <use xlink:href="#DejaVuSans-48"/>
       <use x="63.623047" xlink:href="#DejaVuSans-46"/>
       <use x="95.410156" xlink:href="#DejaVuSans-51"/>
      </g>
     </g>
    </g>
    <g id="ytick_10">
     <g id="line2d_12">
      <path clip-path="url(#p3474507a45)" d="M 57.778 471.766679 
L 493.632 471.766679 
" style="fill:none;stroke:#cccccc;stroke-linecap:round;stroke-width:0.8;"/>
     </g>
     <g id="text_31">
      <!-- 0.4 -->
      <g style="fill:#262626;" transform="translate(35.48325 475.109991)scale(0.088 -0.088)">
       <use xlink:href="#DejaVuSans-48"/>
       <use x="63.623047" xlink:href="#DejaVuSans-46"/>
       <use x="95.410156" xlink:href="#DejaVuSans-52"/>
      </g>
     </g>
    </g>
    <g id="text_32">
     <!-- Frac. of opp. charged pairs -->
     <g style="fill:#262626;" transform="translate(17.73685 601.961968)rotate(-90)scale(0.096 -0.096)">
      <defs>
       <path d="M 9.8125 72.90625 
L 51.703125 72.90625 
L 51.703125 64.59375 
L 19.671875 64.59375 
L 19.671875 43.109375 
L 48.578125 43.109375 
L 48.578125 34.8125 
L 19.671875 34.8125 
L 19.671875 0 
L 9.8125 0 
z
" id="DejaVuSans-70"/>
       <path d="M 37.109375 75.984375 
L 37.109375 68.5 
L 28.515625 68.5 
Q 23.6875 68.5 21.796875 66.546875 
Q 19.921875 64.59375 19.921875 59.515625 
L 19.921875 54.6875 
L 34.71875 54.6875 
L 34.71875 47.703125 
L 19.921875 47.703125 
L 19.921875 0 
L 10.890625 0 
L 10.890625 47.703125 
L 2.296875 47.703125 
L 2.296875 54.6875 
L 10.890625 54.6875 
L 10.890625 58.5 
Q 10.890625 67.625 15.140625 71.796875 
Q 19.390625 75.984375 28.609375 75.984375 
z
" id="DejaVuSans-102"/>
      </defs>
      <use xlink:href="#DejaVuSans-70"/>
      <use x="50.269531" xlink:href="#DejaVuSans-114"/>
      <use x="91.382812" xlink:href="#DejaVuSans-97"/>
      <use x="152.662109" xlink:href="#DejaVuSans-99"/>
      <use x="207.642578" xlink:href="#DejaVuSans-46"/>
      <use x="239.429688" xlink:href="#DejaVuSans-32"/>
      <use x="271.216797" xlink:href="#DejaVuSans-111"/>
      <use x="332.398438" xlink:href="#DejaVuSans-102"/>
      <use x="367.603516" xlink:href="#DejaVuSans-32"/>
      <use x="399.390625" xlink:href="#DejaVuSans-111"/>
      <use x="460.572266" xlink:href="#DejaVuSans-112"/>
      <use x="524.048828" xlink:href="#DejaVuSans-112"/>
      <use x="587.525391" xlink:href="#DejaVuSans-46"/>
      <use x="619.3125" xlink:href="#DejaVuSans-32"/>
      <use x="651.099609" xlink:href="#DejaVuSans-99"/>
      <use x="706.080078" xlink:href="#DejaVuSans-104"/>
      <use x="769.458984" xlink:href="#DejaVuSans-97"/>
      <use x="830.738281" xlink:href="#DejaVuSans-114"/>
      <use x="870.101562" xlink:href="#DejaVuSans-103"/>
      <use x="933.578125" xlink:href="#DejaVuSans-101"/>
      <use x="995.101562" xlink:href="#DejaVuSans-100"/>
      <use x="1058.578125" xlink:href="#DejaVuSans-32"/>
      <use x="1090.365234" xlink:href="#DejaVuSans-112"/>
      <use x="1153.841797" xlink:href="#DejaVuSans-97"/>
      <use x="1215.121094" xlink:href="#DejaVuSans-105"/>
      <use x="1242.904297" xlink:href="#DejaVuSans-114"/>
      <use x="1284.017578" xlink:href="#DejaVuSans-115"/>
     </g>
     <!-- forming salt bridges -->
     <g style="fill:#262626;" transform="translate(28.48675 586.052968)rotate(-90)scale(0.096 -0.096)">
      <defs>
       <path d="M 54.890625 33.015625 
L 54.890625 0 
L 45.90625 0 
L 45.90625 32.71875 
Q 45.90625 40.484375 42.875 44.328125 
Q 39.84375 48.1875 33.796875 48.1875 
Q 26.515625 48.1875 22.3125 43.546875 
Q 18.109375 38.921875 18.109375 30.90625 
L 18.109375 0 
L 9.078125 0 
L 9.078125 54.6875 
L 18.109375 54.6875 
L 18.109375 46.1875 
Q 21.34375 51.125 25.703125 53.5625 
Q 30.078125 56 35.796875 56 
Q 45.21875 56 50.046875 50.171875 
Q 54.890625 44.34375 54.890625 33.015625 
z
" id="DejaVuSans-110"/>
       <path d="M 48.6875 27.296875 
Q 48.6875 37.203125 44.609375 42.84375 
Q 40.53125 48.484375 33.40625 48.484375 
Q 26.265625 48.484375 22.1875 42.84375 
Q 18.109375 37.203125 18.109375 27.296875 
Q 18.109375 17.390625 22.1875 11.75 
Q 26.265625 6.109375 33.40625 6.109375 
Q 40.53125 6.109375 44.609375 11.75 
Q 48.6875 17.390625 48.6875 27.296875 
z
M 18.109375 46.390625 
Q 20.953125 51.265625 25.265625 53.625 
Q 29.59375 56 35.59375 56 
Q 45.5625 56 51.78125 48.09375 
Q 58.015625 40.1875 58.015625 27.296875 
Q 58.015625 14.40625 51.78125 6.484375 
Q 45.5625 -1.421875 35.59375 -1.421875 
Q 29.59375 -1.421875 25.265625 0.953125 
Q 20.953125 3.328125 18.109375 8.203125 
L 18.109375 0 
L 9.078125 0 
L 9.078125 75.984375 
L 18.109375 75.984375 
z
" id="DejaVuSans-98"/>
      </defs>
      <use xlink:href="#DejaVuSans-102"/>
      <use x="35.205078" xlink:href="#DejaVuSans-111"/>
      <use x="96.386719" xlink:href="#DejaVuSans-114"/>
      <use x="135.75" xlink:href="#DejaVuSans-109"/>
      <use x="233.162109" xlink:href="#DejaVuSans-105"/>
      <use x="260.945312" xlink:href="#DejaVuSans-110"/>
      <use x="324.324219" xlink:href="#DejaVuSans-103"/>
      <use x="387.800781" xlink:href="#DejaVuSans-32"/>
      <use x="419.587891" xlink:href="#DejaVuSans-115"/>
      <use x="471.6875" xlink:href="#DejaVuSans-97"/>
      <use x="532.966797" xlink:href="#DejaVuSans-108"/>
      <use x="560.75" xlink:href="#DejaVuSans-116"/>
      <use x="599.958984" xlink:href="#DejaVuSans-32"/>
      <use x="631.746094" xlink:href="#DejaVuSans-98"/>
      <use x="695.222656" xlink:href="#DejaVuSans-114"/>
      <use x="736.335938" xlink:href="#DejaVuSans-105"/>
      <use x="764.119141" xlink:href="#DejaVuSans-100"/>
      <use x="827.595703" xlink:href="#DejaVuSans-103"/>
      <use x="891.072266" xlink:href="#DejaVuSans-101"/>
      <use x="952.595703" xlink:href="#DejaVuSans-115"/>
     </g>
    </g>
   </g>
   <g id="patch_23">
    <path clip-path="url(#p3474507a45)" d="M 77.589545 605.172 
L 118.228613 605.172 
L 118.228613 552.762767 
L 77.589545 552.762767 
z
" style="fill:#773712;stroke:#ffffff;stroke-linejoin:miter;stroke-width:0.8;"/>
   </g>
   <g id="patch_24">
    <path clip-path="url(#p3474507a45)" d="M 128.38838 605.172 
L 169.027448 605.172 
L 169.027448 605.172 
L 128.38838 605.172 
z
" style="fill:#b3b3b3;stroke:#ffffff;stroke-linejoin:miter;stroke-width:0.8;"/>
   </g>
   <g id="patch_25">
    <path clip-path="url(#p3474507a45)" d="M 179.187214 605.172 
L 219.826282 605.172 
L 219.826282 476.897653 
L 179.187214 476.897653 
z
" style="fill:#ee7f31;stroke:#ffffff;stroke-linejoin:miter;stroke-width:0.8;"/>
   </g>
   <g id="patch_26">
    <path clip-path="url(#p3474507a45)" d="M 229.986049 605.172 
L 270.625117 605.172 
L 270.625117 523.160532 
L 229.986049 523.160532 
z
" style="fill:#fbe44d;stroke:#ffffff;stroke-linejoin:miter;stroke-width:0.8;"/>
   </g>
   <g id="patch_27">
    <path clip-path="url(#p3474507a45)" d="M 280.784883 605.172 
L 321.423951 605.172 
L 321.423951 579.517131 
L 280.784883 579.517131 
z
" style="fill:#b3b3b3;stroke:#ffffff;stroke-linejoin:miter;stroke-width:0.8;"/>
   </g>
   <g id="patch_28">
    <path clip-path="url(#p3474507a45)" d="M 331.583718 605.172 
L 372.222786 605.172 
L 372.222786 605.172 
L 331.583718 605.172 
z
" style="fill:#b3b3b3;stroke:#ffffff;stroke-linejoin:miter;stroke-width:0.8;"/>
   </g>
   <g id="patch_29">
    <path clip-path="url(#p3474507a45)" d="M 382.382552 605.172 
L 423.02162 605.172 
L 423.02162 605.172 
L 382.382552 605.172 
z
" style="fill:#d5c4ab;stroke:#ffffff;stroke-linejoin:miter;stroke-width:0.8;"/>
   </g>
   <g id="patch_30">
    <path clip-path="url(#p3474507a45)" d="M 433.181387 605.172 
L 473.820455 605.172 
L 473.820455 605.172 
L 433.181387 605.172 
z
" style="fill:#b3b3b3;stroke:#ffffff;stroke-linejoin:miter;stroke-width:0.8;"/>
   </g>
   <g id="line2d_13">
    <path clip-path="url(#p3474507a45)" d="M -1 605.172 
L 505 605.172 
" style="fill:none;stroke:#000000;stroke-linecap:round;stroke-width:1.2;"/>
   </g>
   <g id="line2d_14">
    <path clip-path="url(#p3474507a45)" d="M 72.509662 605.172 
L 72.509662 470.483935 
" style="fill:none;stroke:#000000;stroke-linecap:round;stroke-width:1.2;"/>
   </g>
  </g>
  <g id="axes_3">
   <g id="patch_31">
    <path d="M 226.8 97.2 
C 226.8 83.963065 224.192612 70.854843 219.127057 58.62551 
C 214.061501 46.396177 206.63629 35.283563 197.276364 25.923636 
C 187.916437 16.56371 176.803823 9.138499 164.57449 4.072943 
C 152.345157 -0.992612 139.236935 -3.6 126 -3.6 
C 112.763065 -3.6 99.654843 -0.992612 87.42551 4.072943 
C 75.196177 9.138499 64.083563 16.56371 54.723636 25.923636 
C 45.36371 35.283563 37.938499 46.396177 32.872943 58.62551 
C 27.807388 70.854843 25.2 83.963065 25.2 97.2 
C 25.2 110.436935 27.807388 123.545157 32.872943 135.77449 
C 37.938499 148.003823 45.36371 159.116437 54.723636 168.476364 
C 64.083563 177.83629 75.196177 185.261501 87.42551 190.327057 
C 99.654843 195.392612 112.763065 198 126 198 
C 139.236935 198 152.345157 195.392612 164.57449 190.327057 
C 176.803823 185.261501 187.916437 177.83629 197.276364 168.476364 
C 206.63629 159.116437 214.061501 148.003823 219.127057 135.77449 
C 224.192612 123.545157 226.8 110.436935 226.8 97.2 
M 126 97.2 
C 126 97.2 126 97.2 126 97.2 
C 126 97.2 126 97.2 126 97.2 
C 126 97.2 126 97.2 126 97.2 
C 126 97.2 126 97.2 126 97.2 
C 126 97.2 126 97.2 126 97.2 
C 126 97.2 126 97.2 126 97.2 
C 126 97.2 126 97.2 126 97.2 
C 126 97.2 126 97.2 126 97.2 
C 126 97.2 126 97.2 126 97.2 
C 126 97.2 126 97.2 126 97.2 
C 126 97.2 126 97.2 126 97.2 
C 126 97.2 126 97.2 126 97.2 
C 126 97.2 126 97.2 126 97.2 
C 126 97.2 126 97.2 126 97.2 
C 126 97.2 126 97.2 126 97.2 
C 126 97.2 126 97.2 126 97.2 
M 226.8 97.2 
z
" style="fill:#ffffff;"/>
   </g>
   <g id="line2d_15">
    <path clip-path="url(#pa892b98915)" d="M 126 14.727273 
L 207.219781 111.521239 
L 97.792666 174.699013 
L 54.576523 55.963636 
L 179.012447 34.022226 
L 179.012447 160.377774 
L 54.576523 138.436364 
L 97.792666 19.700987 
L 207.219781 82.878761 
" style="fill:none;stroke:#d3d3d3;stroke-dasharray:4.44,1.92;stroke-dashoffset:0;stroke-width:1.2;"/>
   </g>
   <g id="PathCollection_1">
    <defs>
     <path d="M 0 8.660254 
C 2.296726 8.660254 4.499694 7.747755 6.123724 6.123724 
C 7.747755 4.499694 8.660254 2.296726 8.660254 -0 
C 8.660254 -2.296726 7.747755 -4.499694 6.123724 -6.123724 
C 4.499694 -7.747755 2.296726 -8.660254 0 -8.660254 
C -2.296726 -8.660254 -4.499694 -7.747755 -6.123724 -6.123724 
C -7.747755 -4.499694 -8.660254 -2.296726 -8.660254 0 
C -8.660254 2.296726 -7.747755 4.499694 -6.123724 6.123724 
C -4.499694 7.747755 -2.296726 8.660254 0 8.660254 
z
" id="C0_0_d65a00be9c"/>
    </defs>
    <g clip-path="url(#pa892b98915)">
     <use style="fill:#ffffff;fill-opacity:0.7;stroke:#000000;stroke-opacity:0.7;stroke-width:0.8;" x="126" xlink:href="#C0_0_d65a00be9c" y="14.727273"/>
    </g>
    <g clip-path="url(#pa892b98915)">
     <use style="fill:#773712;fill-opacity:0.7;stroke:#000000;stroke-opacity:0.7;stroke-width:0.8;" x="207.219781" xlink:href="#C0_0_d65a00be9c" y="111.521239"/>
    </g>
    <g clip-path="url(#pa892b98915)">
     <use style="fill:#b3b3b3;fill-opacity:0.7;stroke:#000000;stroke-opacity:0.7;stroke-width:0.8;" x="97.792666" xlink:href="#C0_0_d65a00be9c" y="174.699013"/>
    </g>
    <g clip-path="url(#pa892b98915)">
     <use style="fill:#ee7f31;fill-opacity:0.7;stroke:#000000;stroke-opacity:0.7;stroke-width:0.8;" x="54.576523" xlink:href="#C0_0_d65a00be9c" y="55.963636"/>
    </g>
    <g clip-path="url(#pa892b98915)">
     <use style="fill:#fbe44d;fill-opacity:0.7;stroke:#000000;stroke-opacity:0.7;stroke-width:0.8;" x="179.012447" xlink:href="#C0_0_d65a00be9c" y="34.022226"/>
    </g>
    <g clip-path="url(#pa892b98915)">
     <use style="fill:#b3b3b3;fill-opacity:0.7;stroke:#000000;stroke-opacity:0.7;stroke-width:0.8;" x="179.012447" xlink:href="#C0_0_d65a00be9c" y="160.377774"/>
    </g>
    <g clip-path="url(#pa892b98915)">
     <use style="fill:#b3b3b3;fill-opacity:0.7;stroke:#000000;stroke-opacity:0.7;stroke-width:0.8;" x="54.576523" xlink:href="#C0_0_d65a00be9c" y="138.436364"/>
    </g>
    <g clip-path="url(#pa892b98915)">
     <use style="fill:#d5c4ab;fill-opacity:0.7;stroke:#000000;stroke-opacity:0.7;stroke-width:0.8;" x="97.792666" xlink:href="#C0_0_d65a00be9c" y="19.700987"/>
    </g>
    <g clip-path="url(#pa892b98915)">
     <use style="fill:#ffffff;fill-opacity:0.7;stroke:#000000;stroke-opacity:0.7;stroke-width:0.8;" x="207.219781" xlink:href="#C0_0_d65a00be9c" y="82.878761"/>
    </g>
   </g>
   <g id="PathCollection_2">
    <defs>
     <path d="M 0 8.660254 
C 2.296726 8.660254 4.499694 7.747755 6.123724 6.123724 
C 7.747755 4.499694 8.660254 2.296726 8.660254 -0 
C 8.660254 -2.296726 7.747755 -4.499694 6.123724 -6.123724 
C 4.499694 -7.747755 2.296726 -8.660254 0 -8.660254 
C -2.296726 -8.660254 -4.499694 -7.747755 -6.123724 -6.123724 
C -7.747755 -4.499694 -8.660254 -2.296726 -8.660254 0 
C -8.660254 2.296726 -7.747755 4.499694 -6.123724 6.123724 
C -4.499694 7.747755 -2.296726 8.660254 0 8.660254 
z
" id="C1_0_ee0c943dec"/>
    </defs>
    <g clip-path="url(#pa892b98915)">
     <use style="fill:#ffffff;stroke:#000000;stroke-dasharray:0.8,1.32;stroke-dashoffset:0;stroke-width:0.8;" x="126" xlink:href="#C1_0_ee0c943dec" y="179.672727"/>
    </g>
    <g clip-path="url(#pa892b98915)">
     <use style="fill:#ffffff;stroke:#000000;stroke-dasharray:0.8,1.32;stroke-dashoffset:0;stroke-width:0.8;" x="44.780219" xlink:href="#C1_0_ee0c943dec" y="82.878761"/>
    </g>
    <g clip-path="url(#pa892b98915)">
     <use style="fill:#ffffff;stroke:#000000;stroke-dasharray:0.8,1.32;stroke-dashoffset:0;stroke-width:0.8;" x="154.207334" xlink:href="#C1_0_ee0c943dec" y="19.700987"/>
    </g>
    <g clip-path="url(#pa892b98915)">
     <use style="fill:#ffffff;stroke:#000000;stroke-dasharray:0.8,1.32;stroke-dashoffset:0;stroke-width:0.8;" x="197.423477" xlink:href="#C1_0_ee0c943dec" y="138.436364"/>
    </g>
    <g clip-path="url(#pa892b98915)">
     <use style="fill:#ffffff;stroke:#000000;stroke-dasharray:0.8,1.32;stroke-dashoffset:0;stroke-width:0.8;" x="72.987553" xlink:href="#C1_0_ee0c943dec" y="160.377774"/>
    </g>
    <g clip-path="url(#pa892b98915)">
     <use style="fill:#ffffff;stroke:#000000;stroke-dasharray:0.8,1.32;stroke-dashoffset:0;stroke-width:0.8;" x="72.987553" xlink:href="#C1_0_ee0c943dec" y="34.022226"/>
    </g>
    <g clip-path="url(#pa892b98915)">
     <use style="fill:#ffffff;stroke:#000000;stroke-dasharray:0.8,1.32;stroke-dashoffset:0;stroke-width:0.8;" x="197.423477" xlink:href="#C1_0_ee0c943dec" y="55.963636"/>
    </g>
    <g clip-path="url(#pa892b98915)">
     <use style="fill:#ffffff;stroke:#000000;stroke-dasharray:0.8,1.32;stroke-dashoffset:0;stroke-width:0.8;" x="154.207334" xlink:href="#C1_0_ee0c943dec" y="174.699013"/>
    </g>
    <g clip-path="url(#pa892b98915)">
     <use style="fill:#ffffff;stroke:#000000;stroke-dasharray:0.8,1.32;stroke-dashoffset:0;stroke-width:0.8;" x="44.780219" xlink:href="#C1_0_ee0c943dec" y="111.521239"/>
    </g>
   </g>
   <g id="text_33">
    <!-- i -->
    <g style="fill:#262626;" transform="translate(124.3545 17.376273)scale(0.096 -0.096)">
     <defs>
      <path d="M 13.71875 54.6875 
L 31.296875 54.6875 
L 20.609375 0 
L 3.078125 0 
z
M 17.828125 75.984375 
L 35.40625 75.984375 
L 32.625 61.71875 
L 14.984375 61.71875 
z
" id="DejaVuSans-BoldOblique-105"/>
     </defs>
     <use xlink:href="#DejaVuSans-BoldOblique-105"/>
    </g>
   </g>
   <g id="text_34">
    <!-- +1 -->
    <g style="fill:#262626;" transform="translate(199.857781 114.170239)scale(0.096 -0.096)">
     <defs>
      <path d="M 47.703125 62.703125 
L 47.703125 37.109375 
L 73.1875 37.109375 
L 73.1875 25.59375 
L 47.703125 25.59375 
L 47.703125 0 
L 36.078125 0 
L 36.078125 25.59375 
L 10.59375 25.59375 
L 10.59375 37.109375 
L 36.078125 37.109375 
L 36.078125 62.703125 
z
" id="DejaVuSans-Bold-43"/>
      <path d="M 11.71875 12.984375 
L 28.328125 12.984375 
L 28.328125 60.109375 
L 11.28125 56.59375 
L 11.28125 69.390625 
L 28.21875 72.90625 
L 46.09375 72.90625 
L 46.09375 12.984375 
L 62.703125 12.984375 
L 62.703125 0 
L 11.71875 0 
z
" id="DejaVuSans-Bold-49"/>
     </defs>
     <use xlink:href="#DejaVuSans-Bold-43"/>
     <use x="83.789062" xlink:href="#DejaVuSans-Bold-49"/>
    </g>
   </g>
   <g id="text_35">
    <!-- +2 -->
    <g style="fill:#262626;" transform="translate(90.430666 177.348013)scale(0.096 -0.096)">
     <defs>
      <path d="M 28.8125 13.8125 
L 60.890625 13.8125 
L 60.890625 0 
L 7.90625 0 
L 7.90625 13.8125 
L 34.515625 37.3125 
Q 38.09375 40.53125 39.796875 43.609375 
Q 41.5 46.6875 41.5 50 
Q 41.5 55.125 38.0625 58.25 
Q 34.625 61.375 28.90625 61.375 
Q 24.515625 61.375 19.28125 59.5 
Q 14.0625 57.625 8.109375 53.90625 
L 8.109375 69.921875 
Q 14.453125 72.015625 20.65625 73.109375 
Q 26.859375 74.21875 32.8125 74.21875 
Q 45.90625 74.21875 53.15625 68.453125 
Q 60.40625 62.703125 60.40625 52.390625 
Q 60.40625 46.4375 57.328125 41.28125 
Q 54.25 36.140625 44.390625 27.484375 
z
" id="DejaVuSans-Bold-50"/>
     </defs>
     <use xlink:href="#DejaVuSans-Bold-43"/>
     <use x="83.789062" xlink:href="#DejaVuSans-Bold-50"/>
    </g>
   </g>
   <g id="text_36">
    <!-- +3 -->
    <g style="fill:#262626;" transform="translate(47.214523 58.612636)scale(0.096 -0.096)">
     <defs>
      <path d="M 46.578125 39.3125 
Q 53.953125 37.40625 57.78125 32.6875 
Q 61.625 27.984375 61.625 20.703125 
Q 61.625 9.859375 53.3125 4.21875 
Q 45.015625 -1.421875 29.109375 -1.421875 
Q 23.484375 -1.421875 17.84375 -0.515625 
Q 12.203125 0.390625 6.6875 2.203125 
L 6.6875 16.703125 
Q 11.96875 14.0625 17.15625 12.71875 
Q 22.359375 11.375 27.390625 11.375 
Q 34.859375 11.375 38.84375 13.953125 
Q 42.828125 16.546875 42.828125 21.390625 
Q 42.828125 26.375 38.75 28.9375 
Q 34.671875 31.5 26.703125 31.5 
L 19.1875 31.5 
L 19.1875 43.609375 
L 27.09375 43.609375 
Q 34.1875 43.609375 37.640625 45.828125 
Q 41.109375 48.046875 41.109375 52.59375 
Q 41.109375 56.78125 37.734375 59.078125 
Q 34.375 61.375 28.21875 61.375 
Q 23.6875 61.375 19.046875 60.34375 
Q 14.40625 59.328125 9.8125 57.328125 
L 9.8125 71.09375 
Q 15.375 72.65625 20.84375 73.4375 
Q 26.3125 74.21875 31.59375 74.21875 
Q 45.796875 74.21875 52.84375 69.546875 
Q 59.90625 64.890625 59.90625 55.515625 
Q 59.90625 49.125 56.53125 45.046875 
Q 53.171875 40.96875 46.578125 39.3125 
z
" id="DejaVuSans-Bold-51"/>
     </defs>
     <use xlink:href="#DejaVuSans-Bold-43"/>
     <use x="83.789062" xlink:href="#DejaVuSans-Bold-51"/>
    </g>
   </g>
   <g id="text_37">
    <!-- +4 -->
    <g style="fill:#262626;" transform="translate(171.650447 36.671226)scale(0.096 -0.096)">
     <defs>
      <path d="M 36.8125 57.421875 
L 16.21875 26.90625 
L 36.8125 26.90625 
z
M 33.6875 72.90625 
L 54.59375 72.90625 
L 54.59375 26.90625 
L 64.984375 26.90625 
L 64.984375 13.28125 
L 54.59375 13.28125 
L 54.59375 0 
L 36.8125 0 
L 36.8125 13.28125 
L 4.5 13.28125 
L 4.5 29.390625 
z
" id="DejaVuSans-Bold-52"/>
     </defs>
     <use xlink:href="#DejaVuSans-Bold-43"/>
     <use x="83.789062" xlink:href="#DejaVuSans-Bold-52"/>
    </g>
   </g>
   <g id="text_38">
    <!-- +5 -->
    <g style="fill:#262626;" transform="translate(171.650447 163.026774)scale(0.096 -0.096)">
     <defs>
      <path d="M 10.59375 72.90625 
L 57.328125 72.90625 
L 57.328125 59.078125 
L 25.59375 59.078125 
L 25.59375 47.796875 
Q 27.734375 48.390625 29.90625 48.703125 
Q 32.078125 49.03125 34.421875 49.03125 
Q 47.75 49.03125 55.171875 42.359375 
Q 62.59375 35.6875 62.59375 23.78125 
Q 62.59375 11.96875 54.515625 5.265625 
Q 46.4375 -1.421875 32.078125 -1.421875 
Q 25.875 -1.421875 19.796875 -0.21875 
Q 13.71875 0.984375 7.71875 3.421875 
L 7.71875 18.21875 
Q 13.671875 14.796875 19.015625 13.078125 
Q 24.359375 11.375 29.109375 11.375 
Q 35.9375 11.375 39.859375 14.71875 
Q 43.796875 18.0625 43.796875 23.78125 
Q 43.796875 29.546875 39.859375 32.859375 
Q 35.9375 36.1875 29.109375 36.1875 
Q 25.046875 36.1875 20.453125 35.125 
Q 15.875 34.078125 10.59375 31.890625 
z
" id="DejaVuSans-Bold-53"/>
     </defs>
     <use xlink:href="#DejaVuSans-Bold-43"/>
     <use x="83.789062" xlink:href="#DejaVuSans-Bold-53"/>
    </g>
   </g>
   <g id="text_39">
    <!-- +6 -->
    <g style="fill:#262626;" transform="translate(47.214523 141.085364)scale(0.096 -0.096)">
     <defs>
      <path d="M 36.1875 35.984375 
Q 31.25 35.984375 28.78125 32.78125 
Q 26.3125 29.59375 26.3125 23.1875 
Q 26.3125 16.796875 28.78125 13.59375 
Q 31.25 10.40625 36.1875 10.40625 
Q 41.15625 10.40625 43.625 13.59375 
Q 46.09375 16.796875 46.09375 23.1875 
Q 46.09375 29.59375 43.625 32.78125 
Q 41.15625 35.984375 36.1875 35.984375 
z
M 59.421875 71 
L 59.421875 57.515625 
Q 54.78125 59.71875 50.671875 60.765625 
Q 46.578125 61.8125 42.671875 61.8125 
Q 34.28125 61.8125 29.59375 57.140625 
Q 24.90625 52.484375 24.125 43.3125 
Q 27.34375 45.703125 31.09375 46.890625 
Q 34.859375 48.09375 39.3125 48.09375 
Q 50.484375 48.09375 57.34375 41.546875 
Q 64.203125 35.015625 64.203125 24.421875 
Q 64.203125 12.703125 56.53125 5.640625 
Q 48.875 -1.421875 35.984375 -1.421875 
Q 21.78125 -1.421875 13.984375 8.171875 
Q 6.203125 17.78125 6.203125 35.40625 
Q 6.203125 53.46875 15.3125 63.796875 
Q 24.421875 74.125 40.28125 74.125 
Q 45.3125 74.125 50.046875 73.34375 
Q 54.78125 72.5625 59.421875 71 
z
" id="DejaVuSans-Bold-54"/>
     </defs>
     <use xlink:href="#DejaVuSans-Bold-43"/>
     <use x="83.789062" xlink:href="#DejaVuSans-Bold-54"/>
    </g>
   </g>
   <g id="text_40">
    <!-- +7 -->
    <g style="fill:#262626;" transform="translate(90.430666 22.349987)scale(0.096 -0.096)">
     <defs>
      <path d="M 6.6875 72.90625 
L 61.625 72.90625 
L 61.625 62.3125 
L 33.203125 0 
L 14.890625 0 
L 41.796875 59.078125 
L 6.6875 59.078125 
z
" id="DejaVuSans-Bold-55"/>
     </defs>
     <use xlink:href="#DejaVuSans-Bold-43"/>
     <use x="83.789062" xlink:href="#DejaVuSans-Bold-55"/>
    </g>
   </g>
   <g id="text_41">
    <!-- +8 -->
    <g style="fill:#262626;" transform="translate(199.857781 85.527761)scale(0.096 -0.096)">
     <defs>
      <path d="M 34.8125 32.625 
Q 29.546875 32.625 26.703125 29.734375 
Q 23.875 26.859375 23.875 21.484375 
Q 23.875 16.109375 26.703125 13.25 
Q 29.546875 10.40625 34.8125 10.40625 
Q 40.046875 10.40625 42.828125 13.25 
Q 45.609375 16.109375 45.609375 21.484375 
Q 45.609375 26.90625 42.828125 29.765625 
Q 40.046875 32.625 34.8125 32.625 
z
M 21.09375 38.8125 
Q 14.453125 40.828125 11.078125 44.96875 
Q 7.71875 49.125 7.71875 55.328125 
Q 7.71875 64.546875 14.59375 69.375 
Q 21.484375 74.21875 34.8125 74.21875 
Q 48.046875 74.21875 54.921875 69.40625 
Q 61.8125 64.59375 61.8125 55.328125 
Q 61.8125 49.125 58.421875 44.96875 
Q 55.03125 40.828125 48.390625 38.8125 
Q 55.8125 36.765625 59.59375 32.15625 
Q 63.375 27.546875 63.375 20.515625 
Q 63.375 9.671875 56.171875 4.125 
Q 48.96875 -1.421875 34.8125 -1.421875 
Q 20.609375 -1.421875 13.359375 4.125 
Q 6.109375 9.671875 6.109375 20.515625 
Q 6.109375 27.546875 9.890625 32.15625 
Q 13.671875 36.765625 21.09375 38.8125 
z
M 25.484375 53.421875 
Q 25.484375 49.078125 27.90625 46.734375 
Q 30.328125 44.390625 34.8125 44.390625 
Q 39.203125 44.390625 41.59375 46.734375 
Q 44 49.078125 44 53.421875 
Q 44 57.765625 41.59375 60.078125 
Q 39.203125 62.40625 34.8125 62.40625 
Q 30.328125 62.40625 27.90625 60.0625 
Q 25.484375 57.71875 25.484375 53.421875 
z
" id="DejaVuSans-Bold-56"/>
     </defs>
     <use xlink:href="#DejaVuSans-Bold-43"/>
     <use x="83.789062" xlink:href="#DejaVuSans-Bold-56"/>
    </g>
   </g>
   <g id="text_42">
    <!-- a) -->
    <g style="fill:#262626;" transform="translate(35.9853 237.973161)scale(0.16 -0.16)">
     <defs>
      <path d="M 8.015625 75.875 
L 15.828125 75.875 
Q 23.140625 64.359375 26.78125 53.3125 
Q 30.421875 42.28125 30.421875 31.390625 
Q 30.421875 20.453125 26.78125 9.375 
Q 23.140625 -1.703125 15.828125 -13.1875 
L 8.015625 -13.1875 
Q 14.5 -2 17.703125 9.0625 
Q 20.90625 20.125 20.90625 31.390625 
Q 20.90625 42.671875 17.703125 53.65625 
Q 14.5 64.65625 8.015625 75.875 
z
" id="DejaVuSans-41"/>
     </defs>
     <use xlink:href="#DejaVuSans-97"/>
     <use x="61.279297" xlink:href="#DejaVuSans-41"/>
    </g>
   </g>
   <g id="text_43">
    <!-- b) -->
    <g style="fill:#262626;" transform="translate(35.9853 457.015129)scale(0.16 -0.16)">
     <use xlink:href="#DejaVuSans-98"/>
     <use x="63.476562" xlink:href="#DejaVuSans-41"/>
    </g>
   </g>
  </g>
 </g>
 <defs>
  <clipPath id="p5b3b724e09">
   <rect height="134.688065" width="435.854" x="57.778" y="251.441968"/>
  </clipPath>
  <clipPath id="p3474507a45">
   <rect height="134.688065" width="435.854" x="57.778" y="470.483935"/>
  </clipPath>
  <clipPath id="pa892b98915">
   <path d="M 226.8 97.2 
C 226.8 83.963065 224.192612 70.854843 219.127057 58.62551 
C 214.061501 46.396177 206.63629 35.283563 197.276364 25.923636 
C 187.916437 16.56371 176.803823 9.138499 164.57449 4.072943 
C 152.345157 -0.992612 139.236935 -3.6 126 -3.6 
C 112.763065 -3.6 99.654843 -0.992612 87.42551 4.072943 
C 75.196177 9.138499 64.083563 16.56371 54.723636 25.923636 
C 45.36371 35.283563 37.938499 46.396177 32.872943 58.62551 
C 27.807388 70.854843 25.2 83.963065 25.2 97.2 
C 25.2 110.436935 27.807388 123.545157 32.872943 135.77449 
C 37.938499 148.003823 45.36371 159.116437 54.723636 168.476364 
C 64.083563 177.83629 75.196177 185.261501 87.42551 190.327057 
C 99.654843 195.392612 112.763065 198 126 198 
C 139.236935 198 152.345157 195.392612 164.57449 190.327057 
C 176.803823 185.261501 187.916437 177.83629 197.276364 168.476364 
C 206.63629 159.116437 214.061501 148.003823 219.127057 135.77449 
C 224.192612 123.545157 226.8 110.436935 226.8 97.2 
M 126 97.2 
C 126 97.2 126 97.2 126 97.2 
C 126 97.2 126 97.2 126 97.2 
C 126 97.2 126 97.2 126 97.2 
C 126 97.2 126 97.2 126 97.2 
C 126 97.2 126 97.2 126 97.2 
C 126 97.2 126 97.2 126 97.2 
C 126 97.2 126 97.2 126 97.2 
C 126 97.2 126 97.2 126 97.2 
C 126 97.2 126 97.2 126 97.2 
C 126 97.2 126 97.2 126 97.2 
C 126 97.2 126 97.2 126 97.2 
C 126 97.2 126 97.2 126 97.2 
C 126 97.2 126 97.2 126 97.2 
C 126 97.2 126 97.2 126 97.2 
C 126 97.2 126 97.2 126 97.2 
C 126 97.2 126 97.2 126 97.2 
M 226.8 97.2 
z
"/>
  </clipPath>
 </defs>
 <defs>
  <pattern height="72" id="h756affe176" patternUnits="userSpaceOnUse" width="72" x="0" y="0">
   <rect fill="#773712" height="73" width="73" x="0" y="0"/>
   <path d="M -36 36 
L 36 -36 
M -32 40 
L 40 -32 
M -28 44 
L 44 -28 
M -24 48 
L 48 -24 
M -20 52 
L 52 -20 
M -16 56 
L 56 -16 
M -12 60 
L 60 -12 
M -8 64 
L 64 -8 
M -4 68 
L 68 -4 
M 0 72 
L 72 0 
M 4 76 
L 76 4 
M 8 80 
L 80 8 
M 12 84 
L 84 12 
M 16 88 
L 88 16 
M 20 92 
L 92 20 
M 24 96 
L 96 24 
M 28 100 
L 100 28 
M 32 104 
L 104 32 
M 36 108 
L 108 36 
" style="fill:#ffffff;stroke:#ffffff;stroke-linecap:butt;stroke-linejoin:miter;stroke-width:1.0;"/>
  </pattern>
  <pattern height="72" id="ha31c195e5b" patternUnits="userSpaceOnUse" width="72" x="0" y="0">
   <rect fill="#b3b3b3" height="73" width="73" x="0" y="0"/>
   <path d="M -36 36 
L 36 -36 
M -32 40 
L 40 -32 
M -28 44 
L 44 -28 
M -24 48 
L 48 -24 
M -20 52 
L 52 -20 
M -16 56 
L 56 -16 
M -12 60 
L 60 -12 
M -8 64 
L 64 -8 
M -4 68 
L 68 -4 
M 0 72 
L 72 0 
M 4 76 
L 76 4 
M 8 80 
L 80 8 
M 12 84 
L 84 12 
M 16 88 
L 88 16 
M 20 92 
L 92 20 
M 24 96 
L 96 24 
M 28 100 
L 100 28 
M 32 104 
L 104 32 
M 36 108 
L 108 36 
" style="fill:#ffffff;stroke:#ffffff;stroke-linecap:butt;stroke-linejoin:miter;stroke-width:1.0;"/>
  </pattern>
  <pattern height="72" id="h9aec071469" patternUnits="userSpaceOnUse" width="72" x="0" y="0">
   <rect fill="#ee7f31" height="73" width="73" x="0" y="0"/>
   <path d="M -36 36 
L 36 -36 
M -32 40 
L 40 -32 
M -28 44 
L 44 -28 
M -24 48 
L 48 -24 
M -20 52 
L 52 -20 
M -16 56 
L 56 -16 
M -12 60 
L 60 -12 
M -8 64 
L 64 -8 
M -4 68 
L 68 -4 
M 0 72 
L 72 0 
M 4 76 
L 76 4 
M 8 80 
L 80 8 
M 12 84 
L 84 12 
M 16 88 
L 88 16 
M 20 92 
L 92 20 
M 24 96 
L 96 24 
M 28 100 
L 100 28 
M 32 104 
L 104 32 
M 36 108 
L 108 36 
" style="fill:#ffffff;stroke:#ffffff;stroke-linecap:butt;stroke-linejoin:miter;stroke-width:1.0;"/>
  </pattern>
  <pattern height="72" id="h7387ef32c7" patternUnits="userSpaceOnUse" width="72" x="0" y="0">
   <rect fill="#fbe44d" height="73" width="73" x="0" y="0"/>
   <path d="M -36 36 
L 36 -36 
M -32 40 
L 40 -32 
M -28 44 
L 44 -28 
M -24 48 
L 48 -24 
M -20 52 
L 52 -20 
M -16 56 
L 56 -16 
M -12 60 
L 60 -12 
M -8 64 
L 64 -8 
M -4 68 
L 68 -4 
M 0 72 
L 72 0 
M 4 76 
L 76 4 
M 8 80 
L 80 8 
M 12 84 
L 84 12 
M 16 88 
L 88 16 
M 20 92 
L 92 20 
M 24 96 
L 96 24 
M 28 100 
L 100 28 
M 32 104 
L 104 32 
M 36 108 
L 108 36 
" style="fill:#ffffff;stroke:#ffffff;stroke-linecap:butt;stroke-linejoin:miter;stroke-width:1.0;"/>
  </pattern>
  <pattern height="72" id="hfa54d27f6f" patternUnits="userSpaceOnUse" width="72" x="0" y="0">
   <rect fill="#d5c4ab" height="73" width="73" x="0" y="0"/>
   <path d="M -36 36 
L 36 -36 
M -32 40 
L 40 -32 
M -28 44 
L 44 -28 
M -24 48 
L 48 -24 
M -20 52 
L 52 -20 
M -16 56 
L 56 -16 
M -12 60 
L 60 -12 
M -8 64 
L 64 -8 
M -4 68 
L 68 -4 
M 0 72 
L 72 0 
M 4 76 
L 76 4 
M 8 80 
L 80 8 
M 12 84 
L 84 12 
M 16 88 
L 88 16 
M 20 92 
L 92 20 
M 24 96 
L 96 24 
M 28 100 
L 100 28 
M 32 104 
L 104 32 
M 36 108 
L 108 36 
" style="fill:#ffffff;stroke:#ffffff;stroke-linecap:butt;stroke-linejoin:miter;stroke-width:1.0;"/>
  </pattern>
 </defs>
</svg>
